<svg xmlns="http://www.w3.org/2000/svg" xmlns:xlink="http://www.w3.org/1999/xlink" width="154" height="154" viewBox="0 0 154 154">
  <defs>
    <linearGradient id="linear-gradient" x1="0.725" y1="0.678" x2="-0.243" y2="-0.419" gradientUnits="objectBoundingBox">
      <stop offset="0" stop-color="#0cebf3"/>
      <stop offset="1" stop-color="#3ef989"/>
    </linearGradient>
  </defs>
  <g id="Grupo_1198593" data-name="Grupo 1198593" transform="translate(-307 -2818.852)">
    <g id="Grupo_1177306" data-name="Grupo 1177306" transform="translate(-3.059 -4552.148)">
      <path id="Trazado_995327" data-name="Trazado 995327" d="M77,0A77,77,0,1,1,0,77,77,77,0,0,1,77,0Z" transform="translate(310.059 7371)" fill="#1d0736"/>
    </g>
    <g id="Grupo_1198209" data-name="Grupo 1198209" transform="translate(-38.763 2735.432)">
      <path id="Trazado_1009578" data-name="Trazado 1009578" d="M384.111,120.092v59.541h18.914c2.362,0,2.649.278,2.65,2.592q0,8.407,0,16.814v1.71h40.362c1.849,0,2.547.405,2.555,1.474s-.667,1.478-2.544,1.48q-20.723.016-41.446,0a2.9,2.9,0,0,1-1.816-.777Q392.3,192.78,381.9,182.539a2.985,2.985,0,0,1-.81-1.917q-.063-30.629-.032-61.258c0-1.8.409-2.222,2.231-2.223q31.541-.008,63.083,0c.346,0,.792-.088,1.017.088.463.361,1.146.9,1.113,1.317A2.373,2.373,0,0,1,447.375,120c-.381.239-1.013.09-1.534.09q-29.977,0-59.955,0Zm18.528,62.636H386.37l16.268,15.859Z" transform="translate(0 0)" fill="url(#linear-gradient)"/>
      <path id="Trazado_1009579" data-name="Trazado 1009579" d="M439.442,307.687q-10.485,0-20.969,0c-1.886,0-2.312-.418-2.317-2.267-.007-2.6-.012-5.21,0-7.815.009-1.6.424-2.036,1.987-2.036q21.295-.009,42.59,0c1.54,0,1.966.408,1.977,1.906q.031,4.1,0,8.205c-.01,1.561-.457,2-2.041,2Q450.056,307.7,439.442,307.687Zm-20.228-3.07h40.445V298.56H419.214Z" transform="translate(-25.94 -131.918)" fill="url(#linear-gradient)"/>
      <path id="Trazado_1009580" data-name="Trazado 1009580" d="M636.837,156.075c0,2.69.009,5.381,0,8.071-.009,2.058-.971,3.1-2.977,3.108q-8.332.038-16.663,0c-1.926-.009-2.925-.964-2.937-2.875q-.054-8.4,0-16.793a2.64,2.64,0,0,1,2.963-2.869q8.332-.03,16.663,0a2.7,2.7,0,0,1,2.949,3.025C636.849,150.52,636.837,153.3,636.837,156.075ZM617.331,147.8v16.363h16.41V147.8Z" transform="translate(-172.375 -20.391)" fill="url(#linear-gradient)"/>
      <path id="Trazado_1009581" data-name="Trazado 1009581" d="M625.658,335.139c2.69,0,5.381-.016,8.071.005,2.122.017,3.112,1.008,3.116,3.1q.014,8.136,0,16.272c0,2.156-1.019,3.166-3.2,3.17q-8.136.016-16.272,0c-2.092-.005-3.1-1.01-3.111-3.125q-.03-8.136,0-16.272c.008-2.225.948-3.136,3.2-3.149C620.191,335.127,622.924,335.139,625.658,335.139Zm8.124,3.073H617.318v16.366h16.464Z" transform="translate(-172.386 -161.171)" fill="url(#linear-gradient)"/>
      <path id="Trazado_1009582" data-name="Trazado 1009582" d="M625.557,262.709c-2.734,0-5.468.01-8.2,0-2.068-.01-3.087-.955-3.1-2.995q-.044-8.266,0-16.532c.009-2.018.947-2.992,2.946-3q8.331-.05,16.662,0c2.04.013,2.971,1.035,2.975,3.11q.013,8.136,0,16.272c0,2.171-1,3.14-3.212,3.148C630.937,262.716,628.247,262.709,625.557,262.709ZM617.3,243.217v16.425h16.462V243.217Z" transform="translate(-172.38 -90.953)" fill="url(#linear-gradient)"/>
      <path id="Trazado_1009583" data-name="Trazado 1009583" d="M439.856,184.987q10.363,0,20.727,0a2.823,2.823,0,0,1,1.4.13,2.089,2.089,0,0,1,.991,1.317,2.05,2.05,0,0,1-.926,1.349,2.632,2.632,0,0,1-1.389.171q-20.857.011-41.714,0c-.39,0-.892.112-1.145-.084-.495-.382-1.179-.951-1.17-1.43s.706-1.04,1.222-1.386c.306-.2.844-.074,1.278-.074Q429.493,184.985,439.856,184.987Z" transform="translate(-26.296 -50.143)" fill="url(#linear-gradient)"/>
      <path id="Trazado_1009584" data-name="Trazado 1009584" d="M439.7,270.037q-10.361,0-20.723,0c-.475,0-1.068.1-1.4-.131a2.3,2.3,0,0,1-1.008-1.431c-.018-.417.585-.964,1.038-1.263a2.546,2.546,0,0,1,1.274-.116q20.853-.007,41.707,0a9.173,9.173,0,0,1,1.041.034,1.353,1.353,0,0,1,1.358,1.454,1.384,1.384,0,0,1-1.4,1.431,10.691,10.691,0,0,1-1.172.028Q450.064,270.038,439.7,270.037Z" transform="translate(-26.255 -110.854)" fill="url(#linear-gradient)"/>
      <path id="Trazado_1009585" data-name="Trazado 1009585" d="M439.836,212.489q10.363,0,20.725,0c.434,0,.971-.135,1.278.068.481.317,1.106.863,1.117,1.325.011.478-.562,1.07-1.025,1.42-.283.215-.839.085-1.272.085q-20.855,0-41.711,0c-.391,0-.9.136-1.148-.055-.5-.376-1.183-.937-1.183-1.42s.708-1.014,1.214-1.375c.263-.187.759-.051,1.15-.051Z" transform="translate(-26.286 -70.469)" fill="url(#linear-gradient)"/>
      <path id="Trazado_1009586" data-name="Trazado 1009586" d="M439.5,242.531q-10.233,0-20.466,0c-.434,0-.871.006-1.3-.035-.874-.083-1.491-.668-1.31-1.446.131-.563.836-1.04,1.372-1.438.226-.168.675-.041,1.022-.041H460.4c.13,0,.261.006.391,0,1.067-.056,1.946.21,2.069,1.445.1.995-.641,1.5-2.111,1.514-1.13.011-2.26,0-3.389,0Z" transform="translate(-26.122 -90.49)" fill="url(#linear-gradient)"/>
      <path id="Trazado_1009587" data-name="Trazado 1009587" d="M436.572,159.49q-8.729,0-17.458,0c-.434,0-.971.139-1.279-.063-.513-.337-1.215-.9-1.214-1.365,0-.485.683-1.045,1.18-1.421.253-.192.757-.061,1.147-.061q17.653,0,35.307,0c.433,0,.986-.122,1.271.094.463.35,1.039.939,1.028,1.414s-.636,1.006-1.117,1.325c-.308.2-.844.075-1.277.075Q445.366,159.492,436.572,159.49Z" transform="translate(-26.289 -29.139)" fill="url(#linear-gradient)"/>
      <path id="Trazado_1009588" data-name="Trazado 1009588" d="M648.182,172.691c-.267.28-.624.965-1.107,1.071s-1.531-.26-1.606-.586c-.573-2.506-2.509-1.494-3.964-1.6-.241-.018-.645.573-.773.951-.324.951-.874,1.571-1.905,1.312-1.071-.269-1.248-1.144-.954-2.076,1.185-3.758,2.374-7.515,3.651-11.242a1.812,1.812,0,0,1,1.309-1,1.723,1.723,0,0,1,1.391.841c1.345,3.885,2.582,7.807,3.848,11.72C648.1,172.167,648.1,172.255,648.182,172.691Zm-4.389-4.248-.891-2.678-.829,2.678Z" transform="translate(-189.759 -31.348)" fill="url(#linear-gradient)"/>
      <path id="Trazado_1009589" data-name="Trazado 1009589" d="M642.059,353.18v8.6c1.607,0,3.155.013,4.7,0,1.062-.012,1.846.364,1.83,1.522-.015,1.1-.793,1.432-1.79,1.422-1.563-.015-3.128.024-4.69-.012a2.98,2.98,0,0,1-3.1-3.138q-.045-4.1,0-8.208a2.954,2.954,0,0,1,2.993-3.105c1.648-.055,3.3-.017,4.951-.013.961,0,1.624.423,1.64,1.442s-.656,1.472-1.6,1.488C645.4,353.2,643.8,353.18,642.059,353.18Z" transform="translate(-190.679 -172.328)" fill="url(#linear-gradient)"/>
      <path id="Trazado_1009590" data-name="Trazado 1009590" d="M641.715,255.138a18.527,18.527,0,0,1,3.449.431,4.158,4.158,0,0,1,2.439,6,1.741,1.741,0,0,0-.011,1.868,4.273,4.273,0,0,1-3.4,6.277,43.176,43.176,0,0,1-4.941.05,1.423,1.423,0,0,1-1.523-1.578q-.02-5.662,0-11.324a1.458,1.458,0,0,1,1.634-1.6c.781-.006,1.562,0,2.343,0Zm-1.01,5.89a14.806,14.806,0,0,0,3.042-.058,2.1,2.1,0,0,0,1.3-1.272c.229-.83-.413-1.388-1.246-1.451-1.011-.076-2.031-.018-3.1-.018Zm.023,5.748c1.07,0,2.015.022,2.958-.007.855-.026,1.538-.518,1.36-1.342a2.187,2.187,0,0,0-1.321-1.4,12.825,12.825,0,0,0-3-.064Z" transform="translate(-189.737 -102.033)" fill="url(#linear-gradient)"/>
    </g>
  </g>
</svg>
