<svg xmlns="http://www.w3.org/2000/svg" xmlns:xlink="http://www.w3.org/1999/xlink" width="154" height="154" viewBox="0 0 154 154">
  <defs>
    <linearGradient id="linear-gradient" x1="0.5" y1="-0.962" x2="0.422" y2="1.281" gradientUnits="objectBoundingBox">
      <stop offset="0" stop-color="#3ef989"/>
      <stop offset="1" stop-color="#0cebf3"/>
    </linearGradient>
  </defs>
  <g id="Grupo_1198594" data-name="Grupo 1198594" transform="translate(-723 -2818.852)">
    <g id="Grupo_1192982" data-name="Grupo 1192982" transform="translate(412.941 -4552.148)">
      <path id="Trazado_995327" data-name="Trazado 995327" d="M77,0A77,77,0,1,1,0,77,77,77,0,0,1,77,0Z" transform="translate(310.059 7371)" fill="#1d0736"/>
    </g>
    <g id="Grupo_1198210" data-name="Grupo 1198210" transform="translate(477.004 2745.256)">
      <path id="Trazado_1009591" data-name="Trazado 1009591" d="M386.46,207.714H368.228c-4.354,0-8.709-.008-13.063,0-3.387.008-5.274,1.894-5.275,5.277q-.007,21.176,0,42.352v1.474c2.981-2.028,6.194-1.5,9.316-1.512,9.3-.033,18.609-.013,27.914-.011,2.039,0,2.431.383,2.434,2.379,0,2.75.011,5.5,0,8.251-.009,1.61-.423,2.024-2.054,2.024q-39.258.007-78.516,0c-1.607,0-2.019-.423-2.019-2.058q-.008-27.226,0-54.453c0-1.454.514-2.123,1.589-2.059,1.38.081,1.509,1.05,1.508,2.153q-.015,20.97-.006,41.94V255.3h1.68c9.4,0,18.792.017,28.189-.012,2.267-.007,4.488.057,6.61,1.528.039-.617.09-1.041.09-1.466q.006-21.176,0-42.352c0-3.384-1.888-5.274-5.275-5.276q-15.951-.012-31.9-.006c-.456,0-1.044.125-1.339-.105-.479-.372-1.062-1-1.049-1.5s.633-1.1,1.137-1.422c.367-.233.98-.1,1.483-.1,10.267,0,20.535.042,30.8-.03,3.047-.021,5.717.6,7.774,3.216,2.163-2.785,5.062-3.245,8.27-3.218,10.175.083,20.351.029,30.526.032,2.246,0,2.508.271,2.508,2.555q0,22,0,44c0,.458.14,1.037-.082,1.345-.354.49-.959,1.1-1.459,1.1s-1.131-.594-1.462-1.089c-.237-.356-.086-.978-.086-1.481q0-20.764,0-41.527Zm-76.333,57.044h36.391c.711-3.9-1.827-6.356-5.488-6.3-9.76.149-19.524.05-29.285.05h-1.618Zm76.333-6.175c-.543-.032-.9-.072-1.265-.072q-15.124,0-30.249,0c-3.641.007-5.621,2.563-4.883,6.224h36.4v-6.156Z" transform="translate(-25.263 -79.194)" fill="url(#linear-gradient)"/>
      <path id="Trazado_1009592" data-name="Trazado 1009592" d="M322.979,296.858q-21.794,0-43.589,0c-4.791,0-7.28-2.487-7.28-7.275q0-24.682,0-49.364c0-3.636,2.191-6.269,5.559-6.746,1.3-.184,2.18.3,2.37,1.291.178.929-.55,1.657-1.874,1.874a3.033,3.033,0,0,0-2.843,3.277q-.021,25.232,0,50.464a3.08,3.08,0,0,0,3.262,3.288c.32.013.642.005.962.005q43.451,0,86.9,0a11.312,11.312,0,0,0,1.646-.069,3.049,3.049,0,0,0,2.519-2.558,6.813,6.813,0,0,0,.048-.96q0-24.957,0-49.914c0-2.159-.9-3.208-3.012-3.534-1.047-.161-1.736-.657-1.714-1.759.018-.957.962-1.547,2.124-1.442a6.356,6.356,0,0,1,5.8,6.4c.042,4.9.012,9.809.012,14.713q0,17.6,0,35.2c0,4.583-2.552,7.113-7.166,7.114Q344.842,296.861,322.979,296.858Z" transform="translate(0 -100.129)" fill="url(#linear-gradient)"/>
      <path id="Trazado_1009593" data-name="Trazado 1009593" d="M407.65,100.022l-4.64,3.043c.6.5,1.029.862,1.47,1.21,1.058.837,1.366,1.811.72,2.553-.865.993-1.794.682-2.659-.025-.885-.723-1.784-1.44-2.593-2.244-1.067-1.06-1.026-1.7.016-2.81a20.756,20.756,0,0,1,24-4.377,37.176,37.176,0,0,1,6.153,4.3c1.3,1.04,1.228,1.825.059,2.984a21.712,21.712,0,0,1-14.883,6.451,7.9,7.9,0,0,1-7.906-9.676C407.449,101.123,407.5,100.814,407.65,100.022Zm12.172,3.123a4.721,4.721,0,1,0-4.77,4.742A4.652,4.652,0,0,0,419.822,103.145Zm7.537,0-4.506-2.883v5.853Z" transform="translate(-92.112 0)" fill="url(#linear-gradient)"/>
      <path id="Trazado_1009594" data-name="Trazado 1009594" d="M498,334.551c-3.2,0-6.408.006-9.611,0-1.491,0-2.279-.572-2.206-1.638.09-1.314,1.008-1.59,2.13-1.589q9.749.009,19.5,0c1.132,0,2.032.316,2.161,1.585.1,1.008-.788,1.639-2.223,1.643C504.5,334.557,501.255,334.551,498,334.551Z" transform="translate(-155.196 -171.101)" fill="url(#linear-gradient)"/>
      <path id="Trazado_1009595" data-name="Trazado 1009595" d="M353.408,334.551c-3.3,0-6.591-.006-9.886,0-1.03,0-1.823-.338-2.02-1.434-.185-1.022.691-1.78,2.066-1.789,3.021-.02,6.042-.007,9.063-.007,3.479,0,6.957-.007,10.436,0,1.484,0,2.241.578,2.226,1.636s-.756,1.582-2.272,1.585Q358.214,334.559,353.408,334.551Z" transform="translate(-50.29 -171.101)" fill="url(#linear-gradient)"/>
      <path id="Trazado_1009596" data-name="Trazado 1009596" d="M353.48,262.108c3.205,0,6.41-.008,9.615,0,1.456,0,2.272.616,2.18,1.677-.113,1.3-1.028,1.581-2.151,1.58-6.5-.007-13,0-19.5-.008-1.315,0-2.14-.649-2.149-1.61s.812-1.632,2.12-1.638C346.887,262.1,350.184,262.108,353.48,262.108Z" transform="translate(-50.285 -120.923)" fill="url(#linear-gradient)"/>
      <path id="Trazado_1009597" data-name="Trazado 1009597" d="M498.117,265.363c-3.251,0-6.5.008-9.752,0-1.45-.005-2.271-.623-2.181-1.678.112-1.3,1.026-1.581,2.148-1.58,6.5.007,13,0,19.5.008,1.314,0,2.14.646,2.152,1.608s-.811,1.634-2.119,1.64C504.618,265.374,501.367,265.363,498.117,265.363Z" transform="translate(-155.192 -120.921)" fill="url(#linear-gradient)"/>
      <path id="Trazado_1009598" data-name="Trazado 1009598" d="M353.436,285.165c3.205,0,6.41-.006,9.615,0,1.482,0,2.243.572,2.24,1.63s-.764,1.621-2.25,1.622c-6.456.006-12.912,0-19.367.008-1.066,0-1.937-.273-2.168-1.438-.2-1.023.681-1.811,2.039-1.819C346.843,285.152,350.14,285.165,353.436,285.165Z" transform="translate(-50.291 -137.638)" fill="url(#linear-gradient)"/>
      <path id="Trazado_1009599" data-name="Trazado 1009599" d="M498.127,288.424c-3.251,0-6.5.007-9.752,0-1.461,0-2.272-.608-2.188-1.67.1-1.3,1.016-1.589,2.14-1.587q9.684.01,19.367.006c1.43,0,2.281.611,2.3,1.6s-.838,1.646-2.249,1.651C504.537,288.43,501.332,288.424,498.127,288.424Z" transform="translate(-155.195 -137.639)" fill="url(#linear-gradient)"/>
      <path id="Trazado_1009600" data-name="Trazado 1009600" d="M353.365,311.491c-3.2,0-6.409.005-9.614,0-1.432,0-2.276-.612-2.284-1.613s.839-1.631,2.264-1.632q9.683-.011,19.366,0c1.452,0,2.272.625,2.176,1.68-.119,1.295-1.035,1.576-2.156,1.572C359.866,311.484,356.615,311.491,353.365,311.491Z" transform="translate(-50.283 -154.368)" fill="url(#linear-gradient)"/>
      <path id="Trazado_1009601" data-name="Trazado 1009601" d="M498.1,308.237c3.2,0,6.409-.007,9.614,0,1.417,0,2.267.645,2.25,1.647s-.864,1.6-2.3,1.6q-9.682.007-19.365.006c-1.061,0-1.941-.251-2.133-1.45-.172-1.07.645-1.791,2.045-1.8C491.509,308.225,494.805,308.237,498.1,308.237Z" transform="translate(-155.169 -154.364)" fill="url(#linear-gradient)"/>
      <path id="Trazado_1009602" data-name="Trazado 1009602" d="M351.807,357.633c-2.7,0-5.4.006-8.095,0-1.452,0-2.319-.622-2.21-1.64.136-1.279,1.051-1.56,2.175-1.557q8.163.019,16.326,0c1.12,0,2.038.273,2.126,1.587.068,1.01-.718,1.6-2.09,1.606C357.3,357.642,354.551,357.633,351.807,357.633Z" transform="translate(-50.302 -187.858)" fill="url(#linear-gradient)"/>
      <path id="Trazado_1009603" data-name="Trazado 1009603" d="M363.394,242.312c-2.651,0-5.3.007-7.954,0-1.5-.005-2.255-.548-2.276-1.594s.756-1.65,2.215-1.652q8.091-.011,16.182,0c1.463,0,2.272.6,2.192,1.658-.1,1.3-1.007,1.6-2.131,1.593C368.879,242.305,366.136,242.311,363.394,242.312Z" transform="translate(-58.762 -104.215)" fill="url(#linear-gradient)"/>
      <path id="Trazado_1009604" data-name="Trazado 1009604" d="M496.464,354.446c2.7,0,5.407-.009,8.11,0,1.469.007,2.286.618,2.179,1.668-.133,1.309-1.07,1.532-2.186,1.529q-8.11-.021-16.221,0c-1.113,0-2.056-.212-2.174-1.535-.095-1.061.7-1.654,2.181-1.661C491.057,354.436,493.761,354.446,496.464,354.446Z" transform="translate(-155.184 -187.864)" fill="url(#linear-gradient)"/>
      <path id="Trazado_1009605" data-name="Trazado 1009605" d="M507.945,242.312c-2.7,0-5.4-.005-8.1,0-1.113,0-2.042-.27-2.161-1.57-.1-1.051.734-1.678,2.176-1.68q8.1-.012,16.2,0c1.422,0,2.272.628,2.266,1.629s-.856,1.612-2.281,1.617C513.345,242.319,510.645,242.312,507.945,242.312Z" transform="translate(-163.529 -104.215)" fill="url(#linear-gradient)"/>
      <path id="Trazado_1009606" data-name="Trazado 1009606" d="M454.379,168.413c0,.729.05,1.463-.01,2.187a1.562,1.562,0,0,1-1.661,1.627,1.518,1.518,0,0,1-1.557-1.586c-.061-1.547-.065-3.1,0-4.648.04-.989.7-1.783,1.639-1.594a2.649,2.649,0,0,1,1.53,1.575A7.515,7.515,0,0,1,454.379,168.413Z" transform="translate(-129.764 -50.069)" fill="url(#linear-gradient)"/>
      <path id="Trazado_1009607" data-name="Trazado 1009607" d="M406.756,165.357c-.287-.239-.875-.5-1.029-.916a1.933,1.933,0,0,1,.114-1.624,27.532,27.532,0,0,1,3.5-3.459,1.871,1.871,0,0,1,1.805.08c.388.322.67,1.451.424,1.744a54.58,54.58,0,0,1-3.907,3.981C407.523,165.3,407.226,165.264,406.756,165.357Z" transform="translate(-96.781 -46.294)" fill="url(#linear-gradient)"/>
      <path id="Trazado_1009608" data-name="Trazado 1009608" d="M490.928,164.746c-1.045,0-4.764-3.741-4.727-4.761.042-1.14,1.393-2.022,2.253-1.31a26.656,26.656,0,0,1,3.827,3.881C492.99,163.446,492.09,164.742,490.928,164.746Z" transform="translate(-155.209 -45.754)" fill="url(#linear-gradient)"/>
    </g>
  </g>
</svg>
