<svg xmlns="http://www.w3.org/2000/svg" xmlns:xlink="http://www.w3.org/1999/xlink" width="154" height="154" viewBox="0 0 154 154">
  <defs>
    <linearGradient id="linear-gradient" x1="0.721" y1="-1.128" x2="0.547" y2="1" gradientUnits="objectBoundingBox">
      <stop offset="0" stop-color="#3ef989"/>
      <stop offset="1" stop-color="#0cebf3"/>
    </linearGradient>
  </defs>
  <g id="Grupo_1198595" data-name="Grupo 1198595" transform="translate(-1139 -2818.852)">
    <g id="Grupo_1192983" data-name="Grupo 1192983" transform="translate(828.941 -4552.148)">
      <path id="Trazado_995327" data-name="Trazado 995327" d="M77,0A77,77,0,1,1,0,77,77,77,0,0,1,77,0Z" transform="translate(310.059 7371)" fill="#1d0736"/>
    </g>
    <g id="Grupo_1198211" data-name="Grupo 1198211" transform="translate(877.915 2730.195)">
      <path id="Trazado_1009609" data-name="Trazado 1009609" d="M335.613,147.418q0,12.249,0,24.5c0,2.494-.5,3.014-2.963,3.016q-19.805.01-39.61,0c-2.409,0-2.935-.524-2.935-2.872,0-12.567-.026-25.134.046-37.7a4.427,4.427,0,0,1,1.117-2.777q5.282-5.506,10.807-10.776a4.219,4.219,0,0,1,2.637-1.062c9.384-.076,18.77-.051,28.155-.044,2.145,0,2.74.591,2.742,2.744Q335.624,134.931,335.613,147.418Zm-41.448-11.943v35.387h37.326V123.767H305.9c0,2.188-.008,4.246,0,6.306.024,5.574.351,5.455-5.332,5.406C298.459,135.46,296.35,135.475,294.165,135.475Zm7.723-8.26-4.2,4.18h4.2Z" transform="translate(0 -0.002)" fill="url(#linear-gradient)"/>
      <path id="Trazado_1009610" data-name="Trazado 1009610" d="M491.01,147.279q0,12.328,0,24.657c0,2.487-.493,2.992-2.975,2.993q-19.8.01-39.609,0c-2.386,0-2.922-.539-2.923-2.894-.005-12.514.01-25.028-.022-37.542a3.974,3.974,0,0,1,1.275-3.091c3.563-3.483,7.03-7.065,10.635-10.5a4.446,4.446,0,0,1,2.758-1.153c9.384-.084,18.77-.055,28.156-.048,2.145,0,2.7.574,2.7,2.766Q491.018,134.871,491.01,147.279ZM449.6,170.855h37.346v-47.1h-25.61c0,2.763,0,5.408,0,8.053,0,3.431-.241,3.666-3.745,3.667H449.6Zm7.666-43.7-4.309,4.187h4.309Z" transform="translate(-105.938 0)" fill="url(#linear-gradient)"/>
      <path id="Trazado_1009611" data-name="Trazado 1009611" d="M395.942,325.517A13.808,13.808,0,1,1,409.5,339.449,13.891,13.891,0,0,1,395.942,325.517Zm23.671.089a9.862,9.862,0,1,0-9.9,9.887A9.835,9.835,0,0,0,419.612,325.606Z" transform="translate(-72.163 -130.98)" fill="url(#linear-gradient)"/>
      <path id="Trazado_1009612" data-name="Trazado 1009612" d="M319.11,328.244v11.813h16.4c.371,0,.744-.02,1.112.01,1.263.1,2.147.651,2.127,2.051-.019,1.332-.884,1.89-2.084,1.894q-9.694.036-19.389,0a1.925,1.925,0,0,1-2.143-2.181q.021-7.628,0-15.257a1.993,1.993,0,0,1,2.23-2.271q9.615-.021,19.23,0c1.285,0,2.171.6,2.149,2s-.894,1.936-2.2,1.935q-7.787,0-15.575,0Z" transform="translate(-17.065 -139.501)" fill="url(#linear-gradient)"/>
      <path id="Trazado_1009613" data-name="Trazado 1009613" d="M506.959,340.04V328.311c-.607-.03-1.167-.08-1.726-.081-4.45-.007-8.9,0-13.352-.007-1.748,0-2.536-.6-2.58-1.887-.046-1.336.812-2.047,2.595-2.052q8.266-.023,16.531,0c1.938.008,2.56.659,2.565,2.6q.021,7.312,0,14.624c-.006,1.838-.629,2.486-2.5,2.5q-8.345.044-16.69,0c-1.728-.007-2.51-.676-2.5-1.981.013-1.284.851-1.974,2.527-1.981,4.45-.018,8.9-.006,13.352-.007Z" transform="translate(-135.814 -139.484)" fill="url(#linear-gradient)"/>
      <path id="Trazado_1009614" data-name="Trazado 1009614" d="M331.736,198.971c1.359-.892,2.539-1.692,3.745-2.451,1.444-.909,2.46-.686,3.251.838,1.85,3.567,3.651,7.161,5.438,10.761,1.209,2.437.473,3.637-2.24,3.644-7.15.019-14.3.007-21.451.007-.953,0-1.908.024-2.86-.008-2.182-.075-2.97-1.218-2.163-3.253,2.281-5.75,4.6-11.482,6.91-17.223a4.9,4.9,0,0,1,.594-1.458c.593-.661,1.3-1.571,2.036-1.645.605-.061,1.558.8,1.939,1.489,1.461,2.634,2.751,5.363,4.11,8.053C331.231,198.094,331.446,198.45,331.736,198.971Zm4.356,1.907c-1.1.71-2.068,1.33-3.029,1.966-2.467,1.631-3.18,1.435-4.493-1.21-1.063-2.143-2.153-4.273-3.394-6.732l-5.1,12.739H339.5Z" transform="translate(-17.078 -46.698)" fill="url(#linear-gradient)"/>
      <path id="Trazado_1009615" data-name="Trazado 1009615" d="M371.655,170.592a6.848,6.848,0,0,1-6.865-6.879,6.991,6.991,0,0,1,6.864-6.939,7.073,7.073,0,0,1,6.981,7.019A6.935,6.935,0,0,1,371.655,170.592Zm.088-9.811a2.861,2.861,0,0,0-2.957,2.845,2.794,2.794,0,0,0,2.788,2.988,2.886,2.886,0,0,0,3.069-2.9A2.955,2.955,0,0,0,371.743,160.781Z" transform="translate(-50.925 -25.285)" fill="url(#linear-gradient)"/>
      <path id="Trazado_1009616" data-name="Trazado 1009616" d="M496.96,185.677a18.191,18.191,0,0,0-2.775.037c-.5.084-.926.569-1.417.807-.745.36-1.582,1.008-2.258.881-.558-.105-1.075-1.1-1.353-1.8a4.822,4.822,0,0,1-.037-1.891,1.843,1.843,0,0,1,2.021-1.967c5.2-.017,10.392-.008,15.588-.007a1.838,1.838,0,0,1,2.052,1.781c.083,1.365.591,3.029-1.061,3.823a3.048,3.048,0,0,1-2.186-.3c-.491-.22-.728-1.191-1.181-1.275a19.416,19.416,0,0,0-3.42-.063c0,5.121-.015,10.041.035,14.961,0,.33.56.622.757.988.394.732,1.111,1.6.955,2.228a2.746,2.746,0,0,1-1.9,1.448,9.36,9.36,0,0,1-3.633,0,2.762,2.762,0,0,1-1.921-1.416c-.168-.626.523-1.51.908-2.245.194-.37.785-.656.789-.985C496.976,195.762,496.96,190.841,496.96,185.677Z" transform="translate(-135.638 -42.3)" fill="url(#linear-gradient)"/>
      <path id="Trazado_1009617" data-name="Trazado 1009617" d="M474.258,247.655c.858.051,1.485.062,2.107.131a1.942,1.942,0,0,1,.089,3.875,21.059,21.059,0,0,1-4.272.011,2.009,2.009,0,0,1-1.863-2.19c-.019-1.163-.043-2.328.006-3.489.054-1.265.65-2.168,2.018-2.159,1.288.009,1.857.852,1.911,2.073C474.277,246.43,474.258,246.953,474.258,247.655Z" transform="translate(-122.859 -84.644)" fill="url(#linear-gradient)"/>
      <path id="Trazado_1009618" data-name="Trazado 1009618" d="M542.967,154.682c-.85-.046-1.531-.037-2.2-.131a1.778,1.778,0,0,1-1.689-1.933,1.739,1.739,0,0,1,1.707-1.912,36.884,36.884,0,0,1,4.269-.008,1.745,1.745,0,0,1,1.782,1.843c.044,1.317.017,2.636.018,3.955a1.811,1.811,0,0,1-1.942,2.019,1.892,1.892,0,0,1-1.943-2.058C542.954,155.933,542.967,155.408,542.967,154.682Z" transform="translate(-169.755 -21.104)" fill="url(#linear-gradient)"/>
      <path id="Trazado_1009619" data-name="Trazado 1009619" d="M424.64,340.713c.327-1.517-.38-3.778,2.1-3.777s1.78,2.259,2.1,3.778c1.554.247,3.809-.306,3.773,2.1-.034,2.3-2.206,1.913-3.832,2.1-.219,1.507.42,3.628-1.969,3.691-2.544.067-1.895-2.144-2.128-3.693-1.621-.184-3.793.209-3.826-2.1C420.832,340.406,423.087,340.963,424.64,340.713Z" transform="translate(-89.157 -148.119)" fill="url(#linear-gradient)"/>
    </g>
  </g>
</svg>
