<svg xmlns="http://www.w3.org/2000/svg" xmlns:xlink="http://www.w3.org/1999/xlink" width="154" height="154" viewBox="0 0 154 154">
  <defs>
    <linearGradient id="linear-gradient" x1="0.361" y1="-0.47" x2="0.5" y2="0.474" gradientUnits="objectBoundingBox">
      <stop offset="0" stop-color="#3ef989"/>
      <stop offset="1" stop-color="#0cebf3"/>
    </linearGradient>
  </defs>
  <g id="Grupo_1198596" data-name="Grupo 1198596" transform="translate(-410.711 -3142.852)">
    <g id="Grupo_1192984" data-name="Grupo 1192984" transform="translate(410.711 3142.852)">
      <path id="Trazado_995327" data-name="Trazado 995327" d="M77,0A77,77,0,1,1,0,77,77,77,0,0,1,77,0Z" fill="#1d0736"/>
    </g>
    <g id="Grupo_1198212" data-name="Grupo 1198212" transform="translate(169.703 3081.914)">
      <path id="Trazado_1009620" data-name="Trazado 1009620" d="M366,167.379H344.319v1.481c0,4.078.012,8.156-.005,12.234a4.51,4.51,0,0,1-4.865,4.854q-26.147.014-52.294,0a4.613,4.613,0,0,1-4.979-4.925c-.007-.357,0-.714,0-1.191-.43-.028-.815-.074-1.2-.075-2.2-.008-4.392.023-6.587-.013a4.494,4.494,0,0,1-4.595-4.588c-.008-.314,0-.627,0-.941q0-37.843,0-75.686c0-3.837,1.74-5.591,5.552-5.592q26.214,0,52.429.014a1.841,1.841,0,0,0,1.921-1.007,3.943,3.943,0,0,1,3.58-2.014c9.455-.01,18.91-.026,28.365.008a4.353,4.353,0,0,1,4.417,4.459c-.012,2.063.519,4.239-.907,6.118-.1.127.051.485.15.707a10.09,10.09,0,0,1,.04,8.284,1.619,1.619,0,0,0,.074,1.167,10.358,10.358,0,0,1,.289,7.339,3.95,3.95,0,0,1-4.023,2.826q-14.182.056-28.365,0a4.394,4.394,0,0,1-4.438-4.193c-.111-2.249-.549-4.6,1.028-6.518-.327-1.5-1.3-1.671-2.6-1.662-8.29.055-16.58.028-24.87.028h-1.63c0,1.255,0,2.406,0,3.557,0,2.33.015,4.661,0,6.99a4.661,4.661,0,0,1-4.96,4.967c-2.957.035-5.915.008-8.873.009h-1.646v1.535q0,27.424,0,54.849c0,2.184.361,2.534,2.605,2.535q25.341,0,50.681,0c2.24,0,2.684-.439,2.685-2.65,0-4.247,0-8.494,0-12.863H328.9v-21.71h2.986v18.5h31.137V145.736H366ZM328.489,96.12h-52.9c-2.5,0-2.772.267-2.772,2.764q0,37.5,0,75c0,.448-.138.987.061,1.322.333.563.864,1.392,1.349,1.417,2.618.14,5.246.066,7.947.066V174.93q0-25.2-.019-50.4a6.108,6.108,0,0,1,1.931-4.662q6.331-6.208,12.553-12.526a6.4,6.4,0,0,1,4.911-2.005c8.512.05,17.025.022,25.538.022h1.371l1.189-4.568ZM347.371,117.8H359.32c3.751,0,3.751,0,3.735-3.72-.009-2.1-.407-2.5-2.523-2.505q-12.351-.005-24.7,0c-3.941,0-3.941,0-3.913,3.912.013,1.844.458,2.308,2.3,2.312C338.6,117.809,342.986,117.8,347.371,117.8Zm.141-9.307h11.831c3.709,0,3.731-.022,3.711-3.752-.01-2.021-.417-2.431-2.444-2.431q-12.436,0-24.871,0c-3.848,0-3.848,0-3.822,3.853.012,1.825.493,2.326,2.286,2.329Q340.858,108.5,347.513,108.5Zm-.122-9.352h11.946c3.736,0,3.736,0,3.718-3.693-.01-2.045-.476-2.511-2.544-2.512q-12.349,0-24.7,0c-3.925,0-3.925,0-3.9,3.956.014,1.849.414,2.246,2.319,2.248Q340.814,99.149,347.391,99.143ZM287.95,120.862c2.626,0,5.313-.005,8,0,1.005,0,1.74-.485,1.769-1.454.083-2.795.029-5.594.029-8.449Z" transform="translate(0 0)" fill="url(#linear-gradient)"/>
      <path id="Trazado_1009621" data-name="Trazado 1009621" d="M518.762,232.352V216.986h2.892V235.53c-1.441,0-2.942-.006-4.442,0-1.744.009-2.006.419-1.142,1.862q3.79,6.334,7.613,12.649c.764,1.264,1.673,1.3,2.423.07q3.9-6.423,7.746-12.881c.71-1.19.4-1.681-1.045-1.7-1.553-.018-3.107,0-4.724,0V216.985h3.036V232.35c.864,0,1.57-.037,2.272.006a4,4,0,0,1,3.333,6.133q-4.015,6.825-8.162,13.57a4.225,4.225,0,0,1-7.266.028q-4.2-6.788-8.211-13.7a3.958,3.958,0,0,1,3.317-6.032C517.112,232.31,517.829,232.352,518.762,232.352Z" transform="translate(-177.447 -92.9)" fill="url(#linear-gradient)"/>
      <path id="Trazado_1009622" data-name="Trazado 1009622" d="M360.874,228.359v21.612h-21.61V228.359ZM342.4,246.808h15.36V231.551H342.4Z" transform="translate(-50.795 -101.215)" fill="url(#linear-gradient)"/>
      <path id="Trazado_1009623" data-name="Trazado 1009623" d="M376.348,343.781v2.947H339.1v-2.947Z" transform="translate(-50.674 -185.602)" fill="url(#linear-gradient)"/>
      <path id="Trazado_1009624" data-name="Trazado 1009624" d="M376.423,366.98v2.865H339.178V366.98Z" transform="translate(-50.733 -202.564)" fill="url(#linear-gradient)"/>
      <path id="Trazado_1009625" data-name="Trazado 1009625" d="M362.27,323.552v-2.991h30.986v2.991Z" transform="translate(-67.616 -168.626)" fill="url(#linear-gradient)"/>
      <path id="Trazado_1009626" data-name="Trazado 1009626" d="M431.877,231.374v-2.982h24.658v2.982Z" transform="translate(-118.506 -101.239)" fill="url(#linear-gradient)"/>
      <path id="Trazado_1009627" data-name="Trazado 1009627" d="M456.587,254.407h-24.6v-3.024h24.6Z" transform="translate(-118.587 -118.049)" fill="url(#linear-gradient)"/>
      <path id="Trazado_1009628" data-name="Trazado 1009628" d="M348.455,390.087v9.028h-9.28v-9.028Zm-6.1,6.024h2.881v-3.023h-2.881Z" transform="translate(-50.73 -219.458)" fill="url(#linear-gradient)"/>
      <path id="Trazado_1009629" data-name="Trazado 1009629" d="M385.547,389.926h9.133v9.065h-9.133ZM391.6,396v-3h-2.914v3Z" transform="translate(-84.634 -219.34)" fill="url(#linear-gradient)"/>
      <path id="Trazado_1009630" data-name="Trazado 1009630" d="M487.282,399.067h-9.188v-9.08h9.188ZM481.2,393v3.018h2.938V393Z" transform="translate(-152.297 -219.385)" fill="url(#linear-gradient)"/>
      <path id="Trazado_1009631" data-name="Trazado 1009631" d="M441.063,390.036v9.032h-9.11v-9.032Zm-3.037,6.035v-2.993h-3.032v2.993Z" transform="translate(-118.562 -219.42)" fill="url(#linear-gradient)"/>
      <path id="Trazado_1009632" data-name="Trazado 1009632" d="M418.84,193.9v2.923H397.228V193.9Z" transform="translate(-93.174 -76.018)" fill="url(#linear-gradient)"/>
      <path id="Trazado_1009633" data-name="Trazado 1009633" d="M435.567,170.846v2.931H420.1v-2.931Z" transform="translate(-109.894 -59.166)" fill="url(#linear-gradient)"/>
      <path id="Trazado_1009634" data-name="Trazado 1009634" d="M431.932,277.406v-3.018H444.2v3.018Z" transform="translate(-118.547 -134.868)" fill="url(#linear-gradient)"/>
      <path id="Trazado_1009635" data-name="Trazado 1009635" d="M444.236,297.57v2.983H431.924V297.57Z" transform="translate(-118.541 -151.817)" fill="url(#linear-gradient)"/>
      <path id="Trazado_1009636" data-name="Trazado 1009636" d="M342.143,323.6H339.13v-3.009h3.013Z" transform="translate(-50.697 -168.648)" fill="url(#linear-gradient)"/>
      <path id="Trazado_1009637" data-name="Trazado 1009637" d="M400.08,170.882V173.8H397.1v-2.915Z" transform="translate(-93.08 -59.193)" fill="url(#linear-gradient)"/>
      <path id="Trazado_1009638" data-name="Trazado 1009638" d="M293.19,124.473h13.794v3.046H296.2v12.346H293.19Z" transform="translate(-17.11 -25.262)" fill="url(#linear-gradient)"/>
      <path id="Trazado_1009639" data-name="Trazado 1009639" d="M296.106,194.092v2.857H293.19v-2.857Z" transform="translate(-17.11 -76.162)" fill="url(#linear-gradient)"/>
    </g>
  </g>
</svg>
