<svg xmlns="http://www.w3.org/2000/svg" xmlns:xlink="http://www.w3.org/1999/xlink" width="154" height="154" viewBox="0 0 154 154">
  <defs>
    <linearGradient id="linear-gradient" x1="0.1" y1="-1.018" x2="0.5" y2="0.755" gradientUnits="objectBoundingBox">
      <stop offset="0" stop-color="#3ef989"/>
      <stop offset="1" stop-color="#0cebf3"/>
    </linearGradient>
  </defs>
  <g id="Grupo_1198597" data-name="Grupo 1198597" transform="translate(-1035 -3142.852)">
    <g id="Grupo_1192985" data-name="Grupo 1192985" transform="translate(1035 3142.852)">
      <path id="Trazado_995327" data-name="Trazado 995327" d="M77,0A77,77,0,1,1,0,77,77,77,0,0,1,77,0Z" fill="#1d0736"/>
    </g>
    <g id="Grupo_1198213" data-name="Grupo 1198213" transform="translate(767.407 3072.553)">
      <path id="Trazado_1009640" data-name="Trazado 1009640" d="M311.928,104.86c0-2.005-.014-3.8,0-5.591s.521-2.313,2.334-2.314q34.419-.009,68.839,0c1.789,0,2.308.54,2.309,2.348q.007,44.018,0,88.036c0,1.78-.637,2.382-2.464,2.393s-3.677,0-5.69,0c0,1.908.01,3.691,0,5.474-.013,1.925-.493,2.44-2.364,2.438q-27.07-.026-54.141-.109a3.513,3.513,0,0,1-2.218-.914q-6.976-6.8-13.8-13.761a3.5,3.5,0,0,1-.923-2.219q-.072-36.669-.036-73.338c0-1.8.626-2.427,2.417-2.442C308.032,104.848,309.874,104.86,311.928,104.86Zm61.757,89.272V108.522h-66.26v71.054c4.067,0,8.01-.006,11.954,0,2,0,2.437.458,2.448,2.49.01,1.95,0,3.9,0,5.849v6.214Zm-58.209-89.279h58.588c2.859,0,3.2.333,3.2,3.161q0,38.085,0,76.17v1.952h4.5V100.423H315.476ZM310.4,183.114l7.934,7.941v-7.941Z" transform="translate(0 0)" fill="url(#linear-gradient)"/>
      <path id="Trazado_1009641" data-name="Trazado 1009641" d="M344.551,176.91c-.921,0-1.659,0-2.4,0a1.7,1.7,0,0,1-1.905-1.847q-.059-6.6.009-13.2a1.744,1.744,0,0,1,1.95-1.824c.45-.005.9,0,1.35,0h44.7c3.458,0,3.483.026,3.483,3.552,0,3.65.007,7.3,0,10.95-.005,1.927-.445,2.364-2.4,2.365-11.25.006-22.5.019-33.75-.022a3.23,3.23,0,0,0-2.6,1.1c-1.68,1.78-3.4,3.534-5.226,5.158a2.661,2.661,0,0,1-2.2.566c-.493-.169-.9-1.211-.959-1.9C344.456,180.235,344.551,178.642,344.551,176.91Zm3.9,1.01c.826-.932,1.695-1.829,2.467-2.8a4.632,4.632,0,0,1,4.051-1.718c10.488.066,20.976.033,31.465.033h1.825v-9.864h-44.4v9.717C347.555,173.8,347.555,173.8,348.455,177.92Z" transform="translate(-25.514 -44.159)" fill="url(#linear-gradient)"/>
      <path id="Trazado_1009642" data-name="Trazado 1009642" d="M433.576,279.638c-3.446,0-6.893.023-10.339-.006-3.131-.027-4.945-1.794-4.961-4.922q-.054-10.264,0-20.528c.018-3.1,1.892-4.888,5-4.893q10.264-.018,20.528,0c3.075.006,4.915,1.854,4.922,4.946q.021,10.264,0,20.528c-.007,3.055-1.76,4.835-4.814,4.866C440.469,279.664,437.022,279.637,433.576,279.638Zm-.109-3.389c3.3,0,6.591-.036,9.886.017,1.407.023,1.981-.528,1.974-1.942q-.049-9.886,0-19.772c.007-1.362-.561-1.873-1.881-1.868q-9.961.037-19.922,0c-1.241,0-1.8.463-1.794,1.776q.056,9.961,0,19.922c-.007,1.341.49,1.9,1.849,1.88C426.875,276.216,430.171,276.248,433.466,276.248Z" transform="translate(-80.132 -106.628)" fill="url(#linear-gradient)"/>
      <path id="Trazado_1009643" data-name="Trazado 1009643" d="M340.878,303.317c.337.02.586.053.834.047a1.617,1.617,0,0,1,1.872,1.686c.006,1.1-.718,1.7-1.87,1.688-1.8-.01-3.6-.005-5.4,0-1.094,0-1.89-.39-1.927-1.6-.039-1.259.691-1.791,1.9-1.779.24,0,.48-.035.73-.054.364-1.192.24-1.818-1.168-2.139a11.982,11.982,0,0,1-8.892-10.844c-.055-1.169.236-2.12,1.569-2.306,1.146-.16,1.849.614,1.982,2.085a8.468,8.468,0,0,0,16.892.346c.032-.248.063-.5.1-.743.153-1.083.684-1.8,1.868-1.689a1.645,1.645,0,0,1,1.572,1.974,11.757,11.757,0,0,1-6.729,10.4,10.8,10.8,0,0,1-2.092.8C340.64,301.6,340.633,301.574,340.878,303.317Z" transform="translate(-16.223 -133.731)" fill="url(#linear-gradient)"/>
      <path id="Trazado_1009644" data-name="Trazado 1009644" d="M358.979,267.988c0,.9.039,1.8,0,2.7a5.928,5.928,0,0,1-5.829,5.7,5.851,5.851,0,0,1-5.937-5.555,49.5,49.5,0,0,1,.01-5.843,5.828,5.828,0,0,1,5.855-5.475,5.941,5.941,0,0,1,5.895,5.63C359.025,266.086,358.977,267.038,358.979,267.988Zm-3.5-.184c0-.849.056-1.7-.013-2.546a2.407,2.407,0,0,0-4.794-.116,53.083,53.083,0,0,0,0,5.541,2.4,2.4,0,0,0,4.793-.033C355.542,269.706,355.48,268.752,355.483,267.8Z" transform="translate(-30.349 -113.789)" fill="url(#linear-gradient)"/>
      <path id="Trazado_1009645" data-name="Trazado 1009645" d="M433.232,396.028q-6.292,0-12.583,0c-.449,0-1.031.146-1.318-.077-.566-.439-1.274-1.055-1.341-1.661-.054-.492.672-1.166,1.191-1.588.289-.235.862-.156,1.306-.156q12.883-.011,25.766-.005c.1,0,.2,0,.3,0,1.461.06,2.388.765,2.256,1.825-.16,1.28-1.035,1.678-2.244,1.671C442.12,396.014,437.676,396.028,433.232,396.028Z" transform="translate(-79.949 -206.902)" fill="url(#linear-gradient)"/>
      <path id="Trazado_1009646" data-name="Trazado 1009646" d="M433.194,368.13c4.442,0,8.886-.044,13.327.047a2.978,2.978,0,0,1,1.895,1.073,1.719,1.719,0,0,1-.212,1.592,2.193,2.193,0,0,1-1.543.679c-8.985.041-17.97.032-26.955.027-1.134,0-2.007-.419-1.985-1.71.021-1.251.834-1.709,2-1.708Q426.456,368.134,433.194,368.13Z" transform="translate(-79.762 -189.813)" fill="url(#linear-gradient)"/>
      <path id="Trazado_1009647" data-name="Trazado 1009647" d="M442.615,279.131c0-2.249-.03-4.5.01-6.748.034-1.925,1.221-2.625,2.871-1.689q5.929,3.36,11.818,6.789c1.722,1.007,1.682,2.414-.066,3.431q-5.76,3.353-11.549,6.658c-1.874,1.072-3.063.357-3.081-1.843S442.614,281.33,442.615,279.131Zm3.506,4.192,7.225-4.167-7.225-4.128Z" transform="translate(-97.181 -121.329)" fill="url(#linear-gradient)"/>
    </g>
  </g>
</svg>
