<svg xmlns="http://www.w3.org/2000/svg" xmlns:xlink="http://www.w3.org/1999/xlink" width="84" height="84" viewBox="0 0 84 84">
  <defs>
    <linearGradient id="linear-gradient" x1="0.116" y1="-0.657" x2="0.63" y2="0.79" gradientUnits="objectBoundingBox">
      <stop offset="0" stop-color="#3ef989"/>
      <stop offset="1" stop-color="#0cebf3"/>
    </linearGradient>
  </defs>
  <g id="Grupo_1198592" data-name="Grupo 1198592" transform="translate(-719 -377.018)">
    <g id="Grupo_1197993" data-name="Grupo 1197993" transform="translate(13 -1301.902)" style="isolation: isolate">
      <g id="Grupo_1119665" data-name="Grupo 1119665" transform="translate(534.111 -3840.08)">
        <rect id="Rectángulo_402006" data-name="Rectángulo 402006" width="84" height="84" rx="5" transform="translate(171.889 5519)" fill="#1d0736"/>
      </g>
    </g>
    <g id="Grupo_1198228" data-name="Grupo 1198228" transform="translate(446.664 345.367)">
      <path id="Trazado_1009754" data-name="Trazado 1009754" d="M320.966,96.26c-.155.6-.293,1.129-.429,1.66a2.841,2.841,0,0,1-2.861,2.277q-3.349.026-6.7,0a2.848,2.848,0,0,1-2.919-2.309c-.4-1.629-.4-1.629-2.045-1.629q-9.428,0-18.855,0c-1.379,0-1.643.265-1.645,1.637,0,.469-.007.938,0,1.406a2.966,2.966,0,0,0,3.016,3.049c.606.014,1.213,0,1.819.006s1.053.3,1.055.914-.441.907-1.058.9c-1.342-.023-2.708.15-3.968-.522a4.436,4.436,0,0,1-2.54-3.359,11.239,11.239,0,0,1-.055-3.365A3.724,3.724,0,0,1,285.033,95a1.486,1.486,0,0,0,.653-1.259q-.026-15.879-.009-31.759a4.788,4.788,0,0,1,3.284-4.753,5.774,5.774,0,0,1,1.786-.246c2.756-.025,5.513-.017,8.27,0a.858.858,0,0,0,.909-.5,2.423,2.423,0,0,1,1-1.049c.591-.267.6-.654.624-1.174a25.391,25.391,0,0,1,.411-4.907,8.523,8.523,0,0,1,8.071-6.214q4.258-.077,8.517,0a8.75,8.75,0,0,1,8.505,8.627c.007.5.024.993,0,1.488-.051,1.014-.155,2.038,1.077,2.5a.324.324,0,0,1,.171.174c.412,1.191,1.384,1.062,2.351,1.051,2.37-.027,4.741-.02,7.112-.005a4.835,4.835,0,0,1,5.159,5.176q.007,15.8-.01,31.593a1.3,1.3,0,0,0,.664,1.255,2.674,2.674,0,0,1,1.1,1.374,7.516,7.516,0,0,1-.188,4.866,4.623,4.623,0,0,1-4.5,2.93c-3.473.031-6.947.009-10.42.009H294.92c-.276,0-.613.094-.813-.03-.328-.2-.78-.549-.785-.84s.415-.677.732-.9c.186-.132.535-.04.81-.04h44.575c2.593,0,3.649-1.061,3.65-3.662,0-2.434,0-2.434-2.421-2.434h-19.7Zm16.194-1.813V68.436c0-1.489.01-2.978-.005-4.467-.009-.841-.381-1.284-1.17-1.293-2.342-.026-4.684-.009-7.049-.009-.692,1.8-2.168,2.123-3.857,2a10.957,10.957,0,0,1-4.63,7.964.7.7,0,0,0-.294.455c-.025,1.176-.013,2.354-.013,3.613,1.143,0,2.184-.009,3.225,0a8.655,8.655,0,0,1,8.449,7.116,35.2,35.2,0,0,1,.205,5.108c.027,2.321-1.058,3.392-3.375,3.393q-10.959,0-21.917,0c-.676,0-1.4.055-1.514-.865-.078-.63.426-.91,1.539-.91h21.5c.248,0,.5.012.744-.007.847-.064,1.2-.406,1.21-1.25.017-1.378.034-2.758-.015-4.135a6.679,6.679,0,0,0-2.882-5.328,7.94,7.94,0,0,0-5.933-1.244c.557.613,1.023,1.119,1.483,1.631,1.09,1.213.967,2.366-.369,3.259-2.45,1.639-4.916,3.253-7.358,4.9a1.3,1.3,0,0,1-1.657.008c-2.418-1.637-4.858-3.24-7.287-4.861-1.446-.966-1.577-2.07-.415-3.358.462-.512.92-1.028,1.486-1.662-.839,0-1.472-.017-2.1,0a6.951,6.951,0,0,0-6.761,6.7c-.049,1.322-.025,2.646-.014,3.97.009.986.356,1.337,1.35,1.362.854.022,1.709,0,2.564.009.582,0,1.068.17,1.071.862,0,.668-.438.9-1.039.9-.992,0-1.986.031-2.977-.013a2.821,2.821,0,0,1-2.777-2.9c-.021-1.158-.007-2.316-.006-3.474.007-5.473,3.763-9.218,9.26-9.232.846,0,1.692,0,2.633,0,0-1.056-.034-2.016.012-2.971a1.4,1.4,0,0,0-.661-1.378,9.711,9.711,0,0,1-1.582-1.445,10.72,10.72,0,0,1-2.712-6.243c-.308,0-.58-.008-.85,0a2.981,2.981,0,0,1-2.857-1.611,1.041,1.041,0,0,0-.775-.366c-1.984-.03-3.97-.018-5.955-.016-1.33,0-1.644.318-1.645,1.661q0,14.64,0,29.28c0,.268.024.535.038.841Zm-31.81-37.7c0,2.629-.089,5.161.02,7.684a8.913,8.913,0,0,0,7.856,8.277,9.023,9.023,0,0,0,9.515-5.859c1.1-3.276.288-6.663.582-9.908a14.535,14.535,0,0,1-3.073-.656,13.969,13.969,0,0,1-2.47-1.848c-1.66,2.03-4.035,2.425-6.611,2.321-1.54-.062-3.085-.011-4.627-.011Zm-1.975-1.854a2.659,2.659,0,0,0,.433.074c3.14-.014,6.282.037,9.418-.079a4.412,4.412,0,0,0,3.923-2.748,8.67,8.67,0,0,0,.522-2.058c.11-.57.3-1.047.969-1,.719.046.876.569.82,1.185-.037.41-.088.821-.166,1.225a2.723,2.723,0,0,0,1.934,3.28,28.793,28.793,0,0,0,4.047.268c0-1.269.034-2.341-.006-3.41a6.939,6.939,0,0,0-6.854-6.682c-2.727-.027-5.455-.01-8.182,0a6.8,6.8,0,0,0-4.942,2.128C303.063,49.286,303.223,52.072,303.374,54.892Zm-3.883,3.862c-.329-.015-.573-.035-.817-.035q-3.844,0-7.688,0c-2.3.005-3.515,1.217-3.516,3.517q0,15.667,0,31.333v.858h2.163V93.393q0-14.674,0-29.349a2.915,2.915,0,0,1,3.133-3.157c.909-.011,1.819,0,2.728,0h4Zm41.6,35.7c.02-.2.044-.335.044-.468q0-16.121-.008-32.242a2.933,2.933,0,0,0-2.841-2.987c-3-.073-6-.011-9.006,0-.045,0-.09.055-.163.1v2.026h.934q2.769,0,5.539,0c2.28,0,3.386,1.114,3.386,3.4q0,14.592,0,29.183v.981Zm-22.7-20.7a11.23,11.23,0,0,1-8.12.02,27.3,27.3,0,0,0,.033,3.6c.186,1.356.71,1.666,2.108,1.666,1.489,0,2.978-.023,4.466.013a1,1,0,0,0,1.006-.631C318.727,76.975,318.229,75.431,318.388,73.758Zm.665,22.541h-9.5c.1.446.176.846.28,1.238a1.071,1.071,0,0,0,1.134.878q3.342,0,6.685,0a1.069,1.069,0,0,0,1.128-.885C318.879,97.137,318.955,96.738,319.053,96.3Zm-15.587-39.46c-1.693-.266-2.123.1-2.125,1.716q0,1.277,0,2.554c0,1.587.487,1.976,2.125,1.663ZM325.12,62.78c1.7.284,2.14-.081,2.143-1.687,0-.906,0-1.813,0-2.719-.008-1.444-.7-1.928-2.142-1.472ZM311.939,80.891l2.366,4.88,2.353-4.88Zm-5.183.861,5.038,3.341.115-.138-2.794-5.773Zm12.73-2.574-2.8,5.81.138.1,5.02-3.346Z" transform="translate(0 0)" fill="url(#linear-gradient)"/>
      <path id="Trazado_1009755" data-name="Trazado 1009755" d="M455.659,171.379a2.9,2.9,0,0,1-2.44-1.316.849.849,0,0,1,.142-1.245.835.835,0,0,1,1.238.125c.854.86,1.124.812,2.1,0a1.19,1.19,0,0,1,1.126-.108,1.171,1.171,0,0,1,.227,1.108A2.624,2.624,0,0,1,455.659,171.379Z" transform="translate(-141.324 -104.742)" fill="url(#linear-gradient)"/>
      <path id="Trazado_1009756" data-name="Trazado 1009756" d="M442.258,140.8a4.293,4.293,0,0,1-.775,1.225,1.121,1.121,0,0,1-.963-.229,6.281,6.281,0,0,1-.026-2.031,1.208,1.208,0,0,1,1.026-.229C441.853,139.78,441.986,140.295,442.258,140.8Z" transform="translate(-130.817 -80.448)" fill="url(#linear-gradient)"/>
      <path id="Trazado_1009757" data-name="Trazado 1009757" d="M487.427,140.533c0-.676-.011-1.318.786-1.371.273-.018.783.205.809.376a6.2,6.2,0,0,1-.006,1.908c-.028.173-.536.4-.8.377C487.359,141.749,487.446,141.05,487.427,140.533Z" transform="translate(-170.045 -80.175)" fill="url(#linear-gradient)"/>
    </g>
  </g>
</svg>
