<svg xmlns="http://www.w3.org/2000/svg" xmlns:xlink="http://www.w3.org/1999/xlink" width="118.117" height="118.117" viewBox="0 0 118.117 118.117">
  <defs>
    <linearGradient id="linear-gradient" x1="1.196" y1="0.927" x2="-0.162" y2="-0.569" gradientUnits="objectBoundingBox">
      <stop offset="0" stop-color="#045e61"/>
      <stop offset="1" stop-color="#3ef989"/>
    </linearGradient>
  </defs>
  <g id="Grupo_1198593" data-name="Grupo 1198593" transform="translate(-740.883 -3987.062)">
    <g id="Grupo_1198578" data-name="Grupo 1198578">
      <g id="Grupo_1192986" data-name="Grupo 1192986" transform="translate(740.883 3987.062)">
        <g id="Trazado_995327" data-name="Trazado 995327" transform="translate(0)" fill="#fff">
          <path d="M 59.05859375 116.1171951293945 C 51.35486221313477 116.1171951293945 43.88261032104492 114.6088409423828 36.84942626953125 111.6340637207031 C 33.46891021728516 110.2042236328125 30.20824432373047 108.4343566894531 27.15799331665039 106.3736572265625 C 24.13620948791504 104.3321914672852 21.29459381103516 101.9876251220703 18.71207618713379 99.40511322021484 C 16.12957763671875 96.82259368896484 13.78501033782959 93.98097991943359 11.74354362487793 90.95919036865234 C 9.682826995849609 87.90895843505859 7.91297721862793 84.64827728271484 6.48314380645752 81.26776123046875 C 3.508343696594238 74.23457336425781 2.00001049041748 66.7623291015625 2.00001049041748 59.05859375 C 2.00001049041748 51.35486221313477 3.508343696594238 43.88261032104492 6.48314380645752 36.84942626953125 C 7.91297721862793 33.46891021728516 9.682826995849609 30.20824432373047 11.74354362487793 27.15799331665039 C 13.78501033782959 24.13620948791504 16.12957763671875 21.29459381103516 18.71207618713379 18.71207618713379 C 21.29459381103516 16.12957763671875 24.13620948791504 13.78501033782959 27.15799331665039 11.74354362487793 C 30.20824432373047 9.682826995849609 33.46891021728516 7.91297721862793 36.84942626953125 6.48314380645752 C 43.88261032104492 3.508343696594238 51.35486221313477 2.00001049041748 59.05859375 2.00001049041748 C 66.7623291015625 2.00001049041748 74.23457336425781 3.508343696594238 81.26776123046875 6.48314380645752 C 84.64827728271484 7.91297721862793 87.90895843505859 9.682826995849609 90.95919036865234 11.74354362487793 C 93.98097991943359 13.78501033782959 96.82259368896484 16.12957763671875 99.40511322021484 18.71207618713379 C 101.9876251220703 21.29459381103516 104.3321914672852 24.13620948791504 106.3736572265625 27.15799331665039 C 108.4343566894531 30.20824432373047 110.2042236328125 33.46891021728516 111.6340637207031 36.84942626953125 C 114.6088409423828 43.88261032104492 116.1171951293945 51.35486221313477 116.1171951293945 59.05859375 C 116.1171951293945 66.7623291015625 114.6088409423828 74.23457336425781 111.6340637207031 81.26776123046875 C 110.2042236328125 84.64827728271484 108.4343566894531 87.90895843505859 106.3736572265625 90.95919036865234 C 104.3321914672852 93.98097991943359 101.9876251220703 96.82259368896484 99.40511322021484 99.40511322021484 C 96.82259368896484 101.9876251220703 93.98097991943359 104.3321914672852 90.95919036865234 106.3736572265625 C 87.90895843505859 108.4343566894531 84.64827728271484 110.2042236328125 81.26776123046875 111.6340637207031 C 74.23457336425781 114.6088409423828 66.7623291015625 116.1171951293945 59.05859375 116.1171951293945 Z" stroke="none"/>
          <path d="M 59.05859375 3.999992370605469 C 51.62397766113281 3.999992370605469 44.41384887695312 5.455177307128906 37.62852478027344 8.325119018554688 C 34.36693572998047 9.704666137695312 31.22083282470703 11.41236114501953 28.27759552001953 13.40077209472656 C 25.36128234863281 15.37099456787109 22.61879730224609 17.63377380371094 20.12628173828125 20.12628173828125 C 17.63377380371094 22.61879730224609 15.37099456787109 25.36128234863281 13.40077209472656 28.27759552001953 C 11.41236114501953 31.22083282470703 9.704666137695312 34.36693572998047 8.325119018554688 37.62852478027344 C 5.455177307128906 44.41384887695312 3.999992370605469 51.62397766113281 3.999992370605469 59.05859375 C 3.999992370605469 66.49320983886719 5.455177307128906 73.70333862304688 8.325119018554688 80.48866271972656 C 9.704666137695312 83.750244140625 11.41236114501953 86.89635467529297 13.40077209472656 89.83959197998047 C 15.37099456787109 92.75590515136719 17.63377380371094 95.49839782714844 20.12628173828125 97.99090576171875 C 22.61879730224609 100.4834136962891 25.36128234863281 102.7461929321289 28.27759552001953 104.7164154052734 C 31.22083282470703 106.704833984375 34.36693572998047 108.4125213623047 37.62852478027344 109.7920684814453 C 44.41384887695312 112.6620101928711 51.62397766113281 114.1171951293945 59.05859375 114.1171951293945 C 66.49320983886719 114.1171951293945 73.70333862304688 112.6620101928711 80.48866271972656 109.7920684814453 C 83.750244140625 108.4125213623047 86.89635467529297 106.704833984375 89.83959197998047 104.7164154052734 C 92.75590515136719 102.7461929321289 95.49839782714844 100.4834136962891 97.99090576171875 97.99090576171875 C 100.4834136962891 95.49839782714844 102.7461929321289 92.75590515136719 104.7164154052734 89.83959197998047 C 106.704833984375 86.89635467529297 108.4125213623047 83.750244140625 109.7920684814453 80.48866271972656 C 112.6620101928711 73.70333862304688 114.1171951293945 66.49320983886719 114.1171951293945 59.05859375 C 114.1171951293945 51.62397766113281 112.6620101928711 44.41384887695312 109.7920684814453 37.62852478027344 C 108.4125213623047 34.36693572998047 106.704833984375 31.22083282470703 104.7164154052734 28.27759552001953 C 102.7461929321289 25.36128234863281 100.4834136962891 22.61879730224609 97.99090576171875 20.12628173828125 C 95.49839782714844 17.63377380371094 92.75590515136719 15.37099456787109 89.83959197998047 13.40077209472656 C 86.89635467529297 11.41236114501953 83.750244140625 9.704666137695312 80.48866271972656 8.325119018554688 C 73.70333862304688 5.455177307128906 66.49320983886719 3.999992370605469 59.05859375 3.999992370605469 M 59.05859375 -7.62939453125e-06 C 91.67575836181641 -7.62939453125e-06 118.1171951293945 26.44142913818359 118.1171951293945 59.05859375 C 118.1171951293945 91.67575836181641 91.67575836181641 118.1171951293945 59.05859375 118.1171951293945 C 26.44142913818359 118.1171951293945 -7.62939453125e-06 91.67575836181641 -7.62939453125e-06 59.05859375 C -7.62939453125e-06 26.44142913818359 26.44142913818359 -7.62939453125e-06 59.05859375 -7.62939453125e-06 Z" stroke="none" fill="#53159b"/>
        </g>
      </g>
      <g id="Grupo_1198575" data-name="Grupo 1198575" transform="translate(636.653 3883.435)">
        <path id="Trazado_1010240" data-name="Trazado 1010240" d="M154.964,196.636a4.03,4.03,0,0,0-.856,4.827c2.018,4.413,2.218,9.015,2.064,13.708-.037,1.137-.356,1.429-1.646,1.431q-9.583.01-19.166,0c-.515,0-1.031.014-1.546-.006-1.076-.041-1.4-.359-1.406-1.458-.014-2.851-.005-5.7-.008-8.553,0-.17-.024-.34-.041-.572-.434-.092-.873-.152-1.291-.28a4.685,4.685,0,0,1-3.434-4.605c-.026-5.152-.049-10.3.006-15.456a7.038,7.038,0,0,1,7.175-7.08c1.507-.023,3.014,0,4.5,0,.453-1.763.308-2.094-1.078-3.061a9.83,9.83,0,0,1-4.572-7.8,38.28,38.28,0,0,1,.319-9.526,10.5,10.5,0,0,1,15.941-6.5,4.186,4.186,0,0,0,2.586.714c.846-.048,1.7-.01,2.7-.01l-.381,2.378-1.578.131c2.421,3.547,1.668,7.48,1.756,11.284a4.86,4.86,0,0,0,1.144,3.525,21.48,21.48,0,0,0,2.447,1.839v-3.625h2.338c0,1.614.04,3.187-.016,4.757-.031.863-.675,1.243-1.731,1.117a7.324,7.324,0,0,1-5.034-2.724,10.038,10.038,0,0,1-.993,1.591,17.817,17.817,0,0,1-2.933,2.841,2.13,2.13,0,0,0-1.151,2.321c.031.2.029.406.052.743h3.893c4.031,0,5.491.973,7.053,4.7a6.629,6.629,0,0,0,.8,1.5c.027-.276.076-.552.077-.827.006-2.4,0-4.809.006-7.213.009-2.3,1.219-3.209,3.468-2.681a1.038,1.038,0,0,0,.842-.286,2.928,2.928,0,0,1,3.092-.872c.97.217,1.952.383,2.927.581a2.384,2.384,0,0,1,1.686,3.7c-.23.415-.476.821-.785,1.351l1.829.1v2.33c-.761,0-1.537.06-2.3-.015-.977-.1-1.314.295-1.187,1.228a9.521,9.521,0,0,1,.007,1.157h3.471v2.394h-3.472c0,2.067.039,4.017-.012,5.963a24.546,24.546,0,0,1-.335,4.8,7.5,7.5,0,0,1-6.486,5.785,7.827,7.827,0,0,1-8.022-4.25C155.45,197.583,155.223,197.138,154.964,196.636Zm5.458-6.148c-1.072-2.64-2.016-5.064-3.041-7.452a3.361,3.361,0,0,0-3.281-2.068c-.618-.012-1.239.032-1.853-.015-.659-.05-.921.189-1.12.85a7.021,7.021,0,0,1-6.235,5.049,7.1,7.1,0,0,1-7.1-4.113c-.81-1.814-.81-1.816-2.834-1.773a6.133,6.133,0,0,0-.924.062,4.479,4.479,0,0,0-3.717,3.023c-.728,2.088-.235,4.249-.361,6.475.884-.043,1.741.158,2.273-.168a10.467,10.467,0,0,0,1.968-2.03c.291-.319.561-.658.936-1.1l1.837,2.082c3.3,0,6.766,0,10.233,0,1.567,0,1.871.3,1.872,1.855q0,8.548,0,17.1v1.187h4.909a42.257,42.257,0,0,0-1.471-5.231,12.455,12.455,0,0,1-1.1-6.184,2.68,2.68,0,0,1,.372-1.237c2.158-3.069,2.2-4.782.17-7.757l1.644-1.852c.562.945,1.045,1.79,1.565,2.612.166.261.422.648.65.657C157.284,190.517,158.749,190.488,160.422,190.488Zm-24.468-26.076c0,.918-.038,1.8.007,2.687a8.34,8.34,0,0,0,15.441,3.93,10.7,10.7,0,0,0,1.257-5.949,2.1,2.1,0,0,0-.933-1.828,47.225,47.225,0,0,1-3.7-3.8,4.48,4.48,0,0,1-.4-.572,39.13,39.13,0,0,1-2.943,2.664,37.409,37.409,0,0,1-3.335,2.007c.579.777.9,1.678.139,2.411a2.471,2.471,0,0,1-1.8.61c-1.3-.179-1.34-1.333-1.339-2.39Zm19.809,28.436c.673,1.35,1.276,2.573,1.892,3.789a5.491,5.491,0,0,0,6.368,3.141,5.341,5.341,0,0,0,4.071-5.58c.006-4.05-.036-8.1.033-12.149a6.124,6.124,0,0,1,.682-2.5c.612-1.243,1.4-2.4,2.18-3.707a10.458,10.458,0,0,1-1.941-.379,2.3,2.3,0,0,0-3,.91c-.7.912-1.532,1.457-2.747.395V195.2h-2.36v-2.355Zm-9.157,4.719c-1.05,0-1.976-.028-2.9.009a4.34,4.34,0,0,0-1.888.254,7.957,7.957,0,0,1-4.532.977c-1.5-.076-3.016-.016-4.524-.016h-2.8c0,.674,0,1.217,0,1.76.005,2.117.871,2.979,3,2.98q6.325,0,12.65,0c.329,0,.658-.029.991-.045Zm-10.641-35.694c.272.015.47.042.667.035A11.39,11.39,0,0,0,146.5,156c.357-.6.64-1.252,1.517-1.141.816.1.951.744,1.16,1.382a9.117,9.117,0,0,0,3.476,4.781c-.124-3.323-1.394-5.817-4.125-7.406a7.917,7.917,0,0,0-8.85.239C136.842,155.727,135.771,158.486,135.966,161.873Zm10.608,33.381V191.71H134.781V196.4c.94,0,1.824.029,2.706-.009a5.285,5.285,0,0,0,2.2-.257,7.533,7.533,0,0,1,4.249-.887C144.786,195.3,145.643,195.254,146.574,195.254Zm-11.81,18.929h19.009v-2.267H134.764Zm5.061-33.173a4.576,4.576,0,0,0,4.71,3.535c2.151-.157,4.073-1.786,4.143-3.512-1.933-.223-2.019-.321-2.019-2.289,0-.506,0-1.013,0-1.463H142C141.556,178.724,142.984,181.2,139.825,181.01Zm-5.057,28.418h11.814v-3.413H134.768Zm-4.734-16.562v3.449h2.3v-3.449Z" transform="translate(0 -18.273)" fill="url(#linear-gradient)"/>
        <path id="Trazado_1010241" data-name="Trazado 1010241" d="M307.342,231.93c-2.165-2.2-2.567-4.777-2.461-7.545.083-2.161,0-4.328.022-6.492a5.839,5.839,0,0,1,6.11-6.075c1.88-.018,3.76,0,5.687,0a21.931,21.931,0,0,0,.113-2.867c-.029-.358-.461-.764-.81-1-2.309-1.564-1.47-3.9-1.471-6.01,0-.267.561-.625.93-.774a4.132,4.132,0,0,1,1.306-.027c0-.756-.014-1.459,0-2.161a2.4,2.4,0,0,1,2.64-2.605c1.718-.014,3.435-.006,5.153,0,2.144,0,2.932.777,2.933,2.9q.006,10.564,0,21.128,0,15.459,0,30.919c0,1.879-.177,2.055-2.069,2.055H291.419c-1.849,0-2.052-.21-2.054-2.1,0-1.168-.016-2.336.006-3.5.021-1.111.394-1.486,1.5-1.491,3.018-.013,6.037,0,9.222,0v-1.762c0-1.443.078-2.891-.015-4.328A7.439,7.439,0,0,1,307.342,231.93Zm-1.111,19.041c.071-.361.143-.691.2-1.024.523-3.078.992-6.165,1.579-9.231a4.539,4.539,0,0,1,4.876-3.94c2.782-.013,5.565-.032,8.347.009,1.284.019,2.565.174,3.868.269V210.678h-5.865c-.109,1.434-.1,1.419.972,2.2a5.634,5.634,0,0,1,2.5,4.72c.009,2.817-.012,5.634.009,8.45a8.5,8.5,0,0,1-1.89,5.326,2.279,2.279,0,0,0-.415,1.193c-.077,1.444-.355,1.76-1.778,1.761-3.676,0-7.351-.009-11.027,0a4.831,4.831,0,0,0-5.122,5.092c-.012,2.783,0,5.565,0,8.347v3.2Zm18.908-.013c0-3.261.054-6.479-.027-9.694a2.331,2.331,0,0,0-2.463-2.168q-4.943-.044-9.886,0a2.3,2.3,0,0,0-2.379,1.767c-.609,3.335-1.143,6.684-1.717,10.094Zm-11.361-24.886c.788,0,1.582-.059,2.364.015a2.984,2.984,0,0,0,2.253-.88,4.945,4.945,0,0,0,2.023-4.983,20.986,20.986,0,0,1-.023-2.363,3.654,3.654,0,0,0-3.716-3.725c-1.919-.035-3.84-.039-5.759,0a3.64,3.64,0,0,0-3.685,3.752c-.026,1.542-.027,3.086.012,4.627a1.669,1.669,0,0,0,.377.99c2.282,2.573,2.29,2.566,5.744,2.566Zm3.109-22.644a2.406,2.406,0,0,0,.754,2.785c.6.451,1.069,1.061,1.621,1.573a1.225,1.225,0,0,0,.679.381c1.7.032,3.409.017,5.165.017v-9.442h-5.927c0,1.155.011,2.245,0,3.336a1.192,1.192,0,0,1-1.319,1.351C317.55,203.428,317.245,203.429,316.887,203.429Zm.944,28.587c.259-2.028,2.577-2.961,2.319-5.169a3.519,3.519,0,0,0-.578.491,2.762,2.762,0,0,1-2.61,1.079c-1.506-.077-3.02-.008-4.53-.022-1.776-.016-3.708.479-4.92-1.775a4.377,4.377,0,0,0,1.465,3.553c.73.678,1.523,1.658,2.376,1.76A55.043,55.043,0,0,0,317.831,232.016ZM291.8,250.929h8.233v-2.253H291.8Z" transform="translate(-128.411 -55.037)" fill="url(#linear-gradient)"/>
        <path id="Trazado_1010242" data-name="Trazado 1010242" d="M281.523,148.394c-1.6,0-3.07.012-4.539,0A4.732,4.732,0,0,1,272,143.406q-.032-5.668,0-11.336a4.74,4.74,0,0,1,4.96-5.016q8.76-.04,17.52,0a4.676,4.676,0,0,1,4.922,4.922q.034,5.771,0,11.543a4.653,4.653,0,0,1-4.855,4.871c-1.924.022-3.848-.025-5.771.029a2.072,2.072,0,0,0-1.249.509c-1.256,1.17-2.461,2.4-3.66,3.624-.476.487-1.064.862-1.622.452a2.246,2.246,0,0,1-.7-1.454A30.337,30.337,0,0,1,281.523,148.394Zm2.541.643c.772-.787,1.451-1.419,2.057-2.114a2.446,2.446,0,0,1,2.084-.858c2.059.051,4.12.032,6.181.011a2.428,2.428,0,0,0,2.648-2.618q.032-5.769,0-11.538a2.355,2.355,0,0,0-2.527-2.513q-8.757-.027-17.513,0a2.356,2.356,0,0,0-2.554,2.572q-.018,5.717,0,11.435a2.425,2.425,0,0,0,2.686,2.666c1.442.015,2.885,0,4.327,0,2.417,0,2.417,0,2.512,2.451A4.641,4.641,0,0,0,284.064,149.037Z" transform="translate(-114.622)" fill="url(#linear-gradient)"/>
        <path id="Trazado_1010243" data-name="Trazado 1010243" d="M130.058,160.321h-2.376v-1.115q0-15.1,0-30.191c0-1.7.22-1.932,1.878-1.932q12.159,0,24.317,0h1.112v2.333H130.058Z" transform="translate(-0.06 -0.039)" fill="url(#linear-gradient)"/>
        <path id="Trazado_1010244" data-name="Trazado 1010244" d="M419.6,138.959h-2.282v-9.414h-5.908v-2.37c2.4,0,4.793-.045,7.178.049a1.469,1.469,0,0,1,.968,1.055C419.634,131.8,419.6,135.332,419.6,138.959Z" transform="translate(-225.308 -0.104)" fill="url(#linear-gradient)"/>
        <path id="Trazado_1010245" data-name="Trazado 1010245" d="M193.1,240.08l1.655-1.529a1.878,1.878,0,0,0,3.022-.011l1.693,1.523A3.948,3.948,0,0,1,193.1,240.08Z" transform="translate(-51.991 -88.522)" fill="url(#linear-gradient)"/>
        <path id="Trazado_1010246" data-name="Trazado 1010246" d="M221.9,213.56a1.746,1.746,0,0,1,1.738,1.788,1.657,1.657,0,0,1-1.767,1.727,1.762,1.762,0,0,1-1.774-1.758A1.82,1.82,0,0,1,221.9,213.56Z" transform="translate(-73.424 -68.691)" fill="url(#linear-gradient)"/>
        <path id="Trazado_1010247" data-name="Trazado 1010247" d="M295.366,175.785V173.6h17.793v2.182Z" transform="translate(-133.18 -36.97)" fill="url(#linear-gradient)"/>
        <path id="Trazado_1010248" data-name="Trazado 1010248" d="M295.36,198.848v-2.177h17.793v2.177Z" transform="translate(-133.175 -55.283)" fill="url(#linear-gradient)"/>
        <path id="Trazado_1010249" data-name="Trazado 1010249" d="M306,152.746h-10.61v-2.213H306Z" transform="translate(-133.198 -18.656)" fill="url(#linear-gradient)"/>
        <path id="Trazado_1010250" data-name="Trazado 1010250" d="M363.948,150.568v2.189h-4.654v-2.189Z" transform="translate(-183.931 -18.683)" fill="url(#linear-gradient)"/>
      </g>
    </g>
  </g>
</svg>
