<svg xmlns="http://www.w3.org/2000/svg" width="107" height="107" viewBox="0 0 107 107">
  <g id="Grupo_1198592" data-name="Grupo 1198592" transform="translate(-241.659 -5325)">
    <g id="Grupo_156312" data-name="Grupo 156312" transform="translate(-47.009 876.563)">
      <path id="Elipse_5845" data-name="Elipse 5845" d="M53.5,0A53.5,53.5,0,1,1,0,53.5,53.5,53.5,0,0,1,53.5,0Z" transform="translate(288.668 4448.437)" fill="#e2e2e0"/>
    </g>
    <g id="Grupo_1198130" data-name="Grupo 1198130" transform="translate(41.068 5248.931)">
      <path id="Trazado_1009350" data-name="Trazado 1009350" d="M280.63,142.029c-.415,5.96-.826,11.866-1.251,17.98h3.006c1.482,0,2.965,0,4.447,0,.786,0,1.494.176,1.513,1.141.02,1-.688,1.127-1.485,1.124-2.585-.009-5.169,0-7.754,0q-28.62,0-57.24-.008c-.825,0-1.884.291-2.021-1.039-.089-.868.519-1.216,2.012-1.217,2.508,0,5.017-.016,7.525.011a1.016,1.016,0,0,0,1.174-.758q4.366-12.218,8.783-24.419c.05-.138.081-.283.156-.548-.453-.023-.847-.06-1.242-.06q-7.241-.006-14.481,0c-1.418,0-1.748-.316-1.749-1.736q-.01-16.192,0-32.383c0-1.485.29-1.75,1.844-1.75q21.665,0,43.329.016a2.056,2.056,0,0,0,2.039-1.01,5.416,5.416,0,0,1,5.9-2.228,5.583,5.583,0,0,1,4.213,4.71,1.23,1.23,0,0,0,.814,1.171,4.305,4.305,0,0,1,2.637,4.066c.056,2.583.067,5.17-.013,7.752a15.219,15.219,0,0,1-.634,2.789c2.526,2.333,3,5.515,2.94,8.936-.081,4.483-.016,8.969-.022,13.454C285.067,140.917,283.6,142.262,280.63,142.029Zm-56.319-10.111H266.93c.293-.875-.1-1.053-.819-1.048-2.66.02-5.32.026-7.98,0a3.353,3.353,0,1,1-.152-6.7c1.5-.053,3.009-.01,4.61-.01a10.548,10.548,0,0,1,1.7-7.218,10.9,10.9,0,0,1,6.168-4.047c-2.182-1.006-2.373-2.8-2.313-4.764.064-2.088.018-4.179.012-6.269,0-.4-.039-.8-.061-1.227H224.311Zm34.3,28.032c-.107-.358-.169-.613-.258-.858q-4-11.07-8.009-22.139c-.983-2.724-.969-2.681-3.866-2.748-.953-.022-1.289.342-1.582,1.173-1.868,5.291-3.794,10.562-5.7,15.84-1.04,2.88-2.076,5.762-3.147,8.732Zm21.932-24.7H282.8c0-4.473.109-8.88-.036-13.279a6.776,6.776,0,0,0-5.555-6.443c-.7,2.027-1.683,2.931-3.261,2.99-1.73.065-2.7-.729-3.638-2.98a6.562,6.562,0,0,0-5.211,4.942,24.633,24.633,0,0,0-.288,4.074c-.05,1.524-.3,1.8-1.787,1.831-.512.009-1.024.046-1.539.07v2.175c1.532,0,3-.043,4.473.016.846.034,1.139-.233,1.1-1.1-.065-1.441-.013-2.888-.015-4.332,0-.762.338-1.282,1.124-1.283s1.11.546,1.118,1.293q.005.456,0,.912,0,4.96,0,9.92c0,.4.039.8.06,1.218h8.919c0-3.561,0-7.05,0-10.538a5.919,5.919,0,0,1,.061-1.809c.137-.407.709-.972,1.031-.938.417.044.851.564,1.135.977.161.234.043.664.043,1.006C280.543,127.7,280.543,131.425,280.543,135.25Zm-25.321-.959c.069.25.106.429.166.6q2.262,6.311,4.529,12.62c1.373,3.813,2.741,7.628,4.147,11.429.148.4.5.976.82,1.016A23.766,23.766,0,0,0,267.9,160c0-1.725.085-3.283-.017-4.829-.234-3.563-.652-7.115-.818-10.679-.14-2.991-.029-5.995-.029-8.993v-1.212Zm17.45,12.2c0-1.383-.006-2.7,0-4.024,0-.736.145-1.425,1.068-1.447.987-.023,1.155.667,1.151,1.468-.006,1.318,0,2.637,0,4H278.2v-8.828h-8.848v8.827ZM270.446,104c0,1.92-.054,3.771.046,5.613a1.508,1.508,0,0,0,.971,1.023,1.392,1.392,0,0,1,1.21,1.62c-.015.947-.017,1.9.019,2.841.026.693.364,1.169,1.124,1.148s1.058-.507,1.068-1.2c.015-.947.008-1.895.009-2.842a1.382,1.382,0,0,1,1.165-1.551c.41-.1.993-.631,1.013-.993.1-1.874.047-3.755.047-5.658Zm4.525,44.841v11.083h2.27c.154-3.735.305-7.388.458-11.083Zm-2.387,11.118V148.881h-2.752c.186,3.733.368,7.383.552,11.077ZM252.156,134.1l-.332.269c.455,1.275.907,2.55,1.367,3.823q3.8,10.525,7.594,21.052c.22.612.462.994,1.2.581-.949-2.625-1.89-5.223-2.828-7.822-2.043-5.664-4.075-11.332-6.146-16.986C252.875,134.66,252.447,134.407,252.156,134.1Zm-9.271.242c-1.063-.42-1.123.418-1.323.968q-2.779,7.641-5.523,15.294-1.67,4.636-3.34,9.281c1.077.42,1.132-.425,1.332-.971q2.418-6.623,4.794-13.26Q240.861,140,242.885,134.346ZM277.075,101.6c.231-1.789-.177-3.2-1.735-3.985a3.218,3.218,0,0,0-3.629.337,3.4,3.4,0,0,0-1.176,3.648Zm3.181,12.472a4.331,4.331,0,0,0,.261-.967c.018-2.732.051-5.466-.02-8.2a4.937,4.937,0,0,0-.7-1.626l-.393.122c0,1.458-.051,2.918.012,4.374.091,2.1.018,4.082-2.563,5.1Zm2.5,23.618h-2.145c-.118,1.515.212,2.146,1.065,2.141S282.867,139.18,282.753,137.69ZM259.1,126.114a11.011,11.011,0,0,0-1.991.893,1.148,1.148,0,0,0,.044,1.075,9.959,9.959,0,0,0,1.947.729Z"/>
      <path id="Trazado_1009351" data-name="Trazado 1009351" d="M244.841,308.786c-.76.578-1.426,1.605-2.366.636-.968-1,.195-1.582.685-2.284-.41-.751-1.707-1.354-.66-2.383.964-.948,1.6.108,2.3.674.782-.42,1.429-1.755,2.465-.59.863.97-.229,1.529-.743,2.288.469.7,1.748,1.374.6,2.384C246.193,310.331,245.572,309.327,244.841,308.786Z" transform="translate(-17.186 -161.643)"/>
      <path id="Trazado_1009352" data-name="Trazado 1009352" d="M319.1,139.884c-3,0-6,.005-9,0-1.365,0-1.7-.328-1.717-1.661-.013-.873-.008-1.747,0-2.62a1.2,1.2,0,0,1,1.316-1.365q9.343-.005,18.685,0a1.233,1.233,0,0,1,1.378,1.422c-.011.911-.018,1.823,0,2.734.023,1.075-.54,1.5-1.551,1.494C325.18,139.879,322.141,139.884,319.1,139.884Zm8.295-2.314c.2-.721.1-1.089-.744-1.085q-7.621.035-15.243,0c-.892,0-.893.42-.655,1.081Z" transform="translate(-68.347 -30.304)"/>
      <path id="Trazado_1009353" data-name="Trazado 1009353" d="M315.659,169.526c-1.9,0-3.795.011-5.692,0-1.266-.009-1.566-.3-1.591-1.525-.02-.948-.02-1.9.009-2.846a1.1,1.1,0,0,1,1.221-1.194q6.091,0,12.181,0a1.048,1.048,0,0,1,1.166,1.116q.048,1.649,0,3.3c-.025.861-.573,1.158-1.375,1.153C319.606,169.518,317.633,169.526,315.659,169.526Zm.03-2.248c1.442,0,2.885.028,4.324-.026.258-.01.5-.361.755-.555-.229-.176-.457-.5-.688-.506q-4.381-.052-8.764,0c-.233,0-.463.323-.694.5.247.2.488.555.742.564C312.8,167.306,314.247,167.278,315.689,167.278Z" transform="translate(-68.335 -53.251)"/>
      <path id="Trazado_1009354" data-name="Trazado 1009354" d="M252.533,138.016c-.194-1.09.138-1.884,1.623-2.091a2.078,2.078,0,0,0,1.714-2.344,2.274,2.274,0,0,0-2.126-2.022,2.217,2.217,0,0,0-2.305,1.932c-.122.863-.416,1.572-1.383,1.383-.938-.183-1.024-1-.87-1.82a4.509,4.509,0,0,1,8.773-.534,4.484,4.484,0,0,1-2.223,5.236c-.477.263-1.065.351-.96,1.171s-.176,1.576-1.2,1.537c-.993-.037-1.06-.8-1.04-1.572C252.539,138.665,252.533,138.437,252.533,138.016Z" transform="translate(-22.607 -26.486)"/>
      <path id="Trazado_1009355" data-name="Trazado 1009355" d="M258.745,239.868c-2.616,0-5.232-.007-7.847,0-.835,0-1.611-.148-1.592-1.16.018-.934.758-1.087,1.551-1.086q7.961.011,15.922,0c.833,0,1.6.125,1.579,1.159-.018.955-.747,1.091-1.538,1.088C264.128,239.861,261.436,239.868,258.745,239.868Z" transform="translate(-22.747 -110.119)"/>
      <path id="Trazado_1009356" data-name="Trazado 1009356" d="M257.788,208.117c2.238,0,4.476.005,6.714,0,.819,0,1.624.1,1.616,1.129s-.811,1.126-1.63,1.125q-6.771-.009-13.542,0c-.827,0-1.628-.136-1.625-1.139s.818-1.12,1.639-1.116C253.236,208.124,255.512,208.117,257.788,208.117Z" transform="translate(-22.759 -87.337)"/>
      <path id="Trazado_1009357" data-name="Trazado 1009357" d="M315.2,225.11c-1.71,0-3.42,0-5.13,0-.8,0-1.506-.194-1.476-1.157.027-.87.668-1.086,1.442-1.084q5.3.014,10.6,0c.8,0,1.375.3,1.364,1.157-.01.807-.595,1.078-1.329,1.078Z" transform="translate(-68.514 -98.729)"/>
      <path id="Trazado_1009358" data-name="Trazado 1009358" d="M255.386,225.119q-2.333,0-4.665,0c-.759,0-1.422-.228-1.428-1.1-.006-.855.611-1.135,1.394-1.134q4.779.006,9.558,0c.779,0,1.376.267,1.36,1.152-.015.827-.608,1.073-1.326,1.077C258.648,225.125,257.017,225.118,255.386,225.119Z" transform="translate(-22.738 -98.739)"/>
      <path id="Trazado_1009359" data-name="Trazado 1009359" d="M265.573,182.815c.282.45.807.918.774,1.344-.029.369-.649.9-1.078.982a.878.878,0,0,1-1.03-1.112c.089-.444.552-.812.847-1.214Z" transform="translate(-34.257 -67.807)"/>
      <path id="Trazado_1009360" data-name="Trazado 1009360" d="M321.96,342.325c.321.465.9.941.885,1.393-.015.4-.649.993-1.1,1.1a.972.972,0,0,1-1.171-1.146c.058-.474.571-.892.881-1.335Z" transform="translate(-77.752 -190.94)"/>
    </g>
  </g>
</svg>
