<svg xmlns="http://www.w3.org/2000/svg" xmlns:xlink="http://www.w3.org/1999/xlink" width="84" height="84" viewBox="0 0 84 84">
  <defs>
    <linearGradient id="linear-gradient" x1="0.531" y1="0.539" x2="0.423" y2="-0.17" gradientUnits="objectBoundingBox">
      <stop offset="0" stop-color="#0cebf3"/>
      <stop offset="1" stop-color="#3ef989"/>
    </linearGradient>
  </defs>
  <g id="Grupo_1198592" data-name="Grupo 1198592" transform="translate(-719 -377.018)">
    <g id="Grupo_1193068" data-name="Grupo 1193068" transform="translate(13 -1301.902)" style="isolation: isolate">
      <g id="Grupo_1119665" data-name="Grupo 1119665" transform="translate(534.111 -3840.08)">
        <rect id="Rectángulo_402006" data-name="Rectángulo 402006" width="84" height="84" rx="5" transform="translate(171.889 5519)" fill="#1d0736"/>
      </g>
    </g>
    <g id="Grupo_1198122" data-name="Grupo 1198122" transform="translate(539.057 288.488)">
      <path id="Trazado_1009343" data-name="Trazado 1009343" d="M231.393,150.236a22.2,22.2,0,0,1-18.884.005c-.241.578-.157.92.409,1.218,1.07.564,1.222,1.186.628,2.22q-.985,1.714-2.012,3.4c-.6.991-1.2,1.178-2.188.578a.894.894,0,0,0-1.233.079,2.233,2.233,0,0,1-.7.423,1.476,1.476,0,0,0-1.171,1.663c.048.726-.556,1.122-1.266,1.136q-2.308.047-4.617,0a1.262,1.262,0,0,1-1.321-1.453,1.028,1.028,0,0,0-.752-1.167,2.74,2.74,0,0,1-.724-.387,1.39,1.39,0,0,0-1.885-.159,1.179,1.179,0,0,1-1.762-.5q-1.146-1.858-2.219-3.761a1.263,1.263,0,0,1,.573-1.995,1.01,1.01,0,0,0,.639-1.229,2.45,2.45,0,0,1-.008-.74,1.4,1.4,0,0,0-.833-1.715,1.135,1.135,0,0,1-.446-1.7c.754-1.34,1.527-2.671,2.338-3.977a1.212,1.212,0,0,1,1.8-.415,1.176,1.176,0,0,0,1.668-.1,1.3,1.3,0,0,1,.423-.253c.793-.3,1.318-.689,1.228-1.715-.056-.64.52-1.062,1.21-1.115.379-.029.762-.005,1.292-.005a22.485,22.485,0,0,1,.01-16.077c-.444,0-.784.014-1.123,0-.93-.046-1.464-.529-1.424-1.444a1.014,1.014,0,0,0-.814-1.2,1.62,1.62,0,0,1-.574-.317,1.493,1.493,0,0,0-2.036-.176,1.178,1.178,0,0,1-1.7-.526c-.774-1.265-1.53-2.542-2.254-3.836a1.232,1.232,0,0,1,.53-1.882,1.131,1.131,0,0,0,.713-1.365,2.087,2.087,0,0,1-.006-.658,1.391,1.391,0,0,0-.824-1.708,1.133,1.133,0,0,1-.456-1.7c.753-1.341,1.525-2.672,2.339-3.976a1.251,1.251,0,0,1,1.937-.346.986.986,0,0,0,1.375-.078,1.688,1.688,0,0,1,.558-.347c.808-.287,1.313-.683,1.242-1.7-.049-.692.558-1.122,1.278-1.134,1.539-.026,3.079-.031,4.617,0a1.212,1.212,0,0,1,1.3,1.373,1.1,1.1,0,0,0,.843,1.272,1.861,1.861,0,0,1,.579.31,1.483,1.483,0,0,0,2.028.18,1.123,1.123,0,0,1,1.64.453c.815,1.3,1.59,2.634,2.338,3.977.441.793.2,1.435-.761,1.935a.8.8,0,0,0-.421,1.217,22.176,22.176,0,0,1,18.819-.021c.294-.787.294-.787-.324-1.155-1.092-.649-1.262-1.222-.643-2.293q.99-1.712,2.014-3.4c.57-.943,1.184-1.136,2.13-.565a.948.948,0,0,0,1.3-.078,2.2,2.2,0,0,1,.706-.418,1.41,1.41,0,0,0,1.132-1.6c-.057-.772.561-1.17,1.307-1.183q2.267-.042,4.535,0a1.286,1.286,0,0,1,1.369,1.493.963.963,0,0,0,.712,1.1,2.044,2.044,0,0,1,.654.341,1.547,1.547,0,0,0,2.1.184,1.125,1.125,0,0,1,1.624.507c.8,1.283,1.567,2.584,2.3,3.9a1.224,1.224,0,0,1-.588,1.864,1.051,1.051,0,0,0-.674,1.293,1.933,1.933,0,0,1,.006.658,1.449,1.449,0,0,0,.865,1.78,1.115,1.115,0,0,1,.429,1.644c-.765,1.365-1.548,2.722-2.378,4.048a1.21,1.21,0,0,1-1.808.361,1.135,1.135,0,0,0-1.6.1,1.727,1.727,0,0,1-.639.368,1.283,1.283,0,0,0-1.024,1.5c.035.753-.511,1.183-1.272,1.242-.377.03-.759.005-1.16.005,2.159,8.943,1.612,8.848-.005,16.072.343,0,.665-.011.987,0,.978.04,1.5.518,1.467,1.486a.978.978,0,0,0,.775,1.144,1.816,1.816,0,0,1,.576.314,1.563,1.563,0,0,0,2.112.187c.612-.42,1.287-.079,1.679.569.753,1.245,1.5,2.5,2.213,3.764a1.254,1.254,0,0,1-.547,1.941,1.076,1.076,0,0,0-.68,1.3,2.229,2.229,0,0,1,.006.74,1.334,1.334,0,0,0,.8,1.64,1.164,1.164,0,0,1,.47,1.765q-1.1,1.98-2.3,3.906a1.249,1.249,0,0,1-1.926.4,1.033,1.033,0,0,0-1.448.083,1.732,1.732,0,0,1-.559.344c-.764.289-1.264.659-1.2,1.645.049.741-.568,1.165-1.325,1.176-1.511.021-3.024.028-4.535,0a1.236,1.236,0,0,1-1.34-1.42,1.047,1.047,0,0,0-.806-1.214,1.849,1.849,0,0,1-.582-.3,1.565,1.565,0,0,0-2.1-.187c-.648.42-1.279.071-1.668-.572q-1.089-1.8-2.137-3.618c-.572-1-.422-1.631.6-2.166A.847.847,0,0,0,231.393,150.236Zm-24.841-29.56c-.394,1.528-.719,1.812-2.081,1.822a2.152,2.152,0,0,1-.329,0c-.457-.069-.682.139-.847.564a20.372,20.372,0,0,0-.3,14.2c.317.955.718,1.467,1.833,1.332a1.133,1.133,0,0,1,1.411,1.141,1.394,1.394,0,0,0,1.113,1.612,2.035,2.035,0,0,1,.7.422,1.009,1.009,0,0,0,1.39.061,1.254,1.254,0,0,1,1.929.377c.808,1.308,1.574,2.643,2.337,3.979a1.216,1.216,0,0,1-.4,1.67c-.176.146-.376.263-.67.465l2.228.984c1.957-2.81,1.678-5.646-.694-7.873-.641-.6-1.313-1.174-1.92-1.808a7.8,7.8,0,0,1-1.9-8.219c.41-1.334.758-2.688,1.111-4.039a.87.87,0,0,1,1-.764.767.767,0,0,1,.734.988,22.362,22.362,0,0,1-.772,3.185c-1.347,3.774-.863,5.852,2.087,8.553.547.5,1.1,1,1.608,1.538a6.265,6.265,0,0,1,1.723,5.614,32.369,32.369,0,0,1-1,3.428,18.761,18.761,0,0,0,7.237.523,1.407,1.407,0,0,0,.712-.493,7.437,7.437,0,0,0,1.851-7.683,3.267,3.267,0,0,1,1.3-3.994,6.256,6.256,0,0,1,8.824,1.992l.419.744.294-.036c.037-.339.086-.678.107-1.018a1.286,1.286,0,0,1,1.332-1.372,6.823,6.823,0,0,0,.985-.028.913.913,0,0,0,.595-.408,19.39,19.39,0,0,0,1.059-11.632,1.007,1.007,0,0,0-.62-.6,21.169,21.169,0,0,0-7.752-.7c-3.173.287-5.066-.9-5.947-3.936a7.419,7.419,0,0,0-5.367-5.289c-.813-.25-1.624-.507-2.423-.8a3.985,3.985,0,0,1-2.788-3.363c-.026-.176-.065-.349-.127-.676l-3.936,1.569c1.47,1.011,1.558,1.44.741,2.817-.617,1.039-1.22,2.087-1.849,3.119-.556.913-1.182,1.12-2.065.57a1,1,0,0,0-1.546.307c.184.142.365.261.522.406,1.065.989,2.14,1.968,3.177,2.985a.829.829,0,0,1-.018,1.309c-.462.428-.906.276-1.3-.125-.193-.2-.354-.424-.557-.607C208.666,122.552,207.607,121.616,206.552,120.676Zm42.107,22.844c-1.5.76-1.485.739-2.82-.13a13.682,13.682,0,0,0-1.82-.943,1.425,1.425,0,0,1-.939-1.324c-.01-.238-.035-.475-.054-.731h-3.662c.284,1.4-.512,1.99-1.642,2.361a2.781,2.781,0,0,0-.927.523c-.917.793-1.855,1.189-2.97.2l-1.874,3.18c1.436.426,1.5,1.433,1.332,2.6a6.894,6.894,0,0,0,.05,1.723,1.487,1.487,0,0,1-.874,1.687,3.292,3.292,0,0,0-.46.334l1.841,3.08a1.884,1.884,0,0,1,2.764.059,3.119,3.119,0,0,0,1.059.624c1.148.381,1.981.966,1.723,2.373h3.709c-.259-1.371.5-1.983,1.649-2.336a2.764,2.764,0,0,0,.991-.577,1.953,1.953,0,0,1,2.9-.147l1.821-3.085C249.1,152,249.1,152,249.2,150.405a5.086,5.086,0,0,0,0-1.069c-.186-1.2-.152-2.281,1.292-2.717Zm-38.611-38.55c-1.074.983-2,.622-2.907-.148a2.736,2.736,0,0,0-.922-.533c-1.165-.362-1.964-.974-1.723-2.359h-3.721c.282,1.338-.427,1.959-1.565,2.3a2.776,2.776,0,0,0-1,.564c-.926.816-1.875,1.129-2.953.185l-1.844,3.13c.717.424,1.422.75,1.353,1.734-.067.955-.034,1.919-.007,2.877a1.347,1.347,0,0,1-.724,1.363c-.21.113-.4.262-.617.406l1.829,3.06c.788-.469,1.445-.867,2.287-.277.756.531,1.648.869,2.4,1.4a3.339,3.339,0,0,1,.85,1.195,2.137,2.137,0,0,1,.074.788h3.606c.038-.84.02-1.633.949-2.047a18.016,18.016,0,0,0,2.356-1.322,1.4,1.4,0,0,1,1.68-.081,5.96,5.96,0,0,0,.646.314l1.836-3.123c-1.376-.425-1.531-1.378-1.326-2.523a3.218,3.218,0,0,0,.01-1.066c-.192-1.178-.144-2.226,1.321-2.648Zm1.913,47.892c-1.443-.378-1.519-1.355-1.358-2.494a5.858,5.858,0,0,0-.038-1.64,1.615,1.615,0,0,1,.937-1.9,2.223,2.223,0,0,0,.376-.3l-1.752-2.939c-.564.2-1.149.62-1.462.472a29.669,29.669,0,0,1-3.939-2.259c-.288-.2-.227-.906-.335-1.416h-3.531c-.079.782.012,1.582-.863,2.008s-1.692,1.015-2.589,1.408a3.2,3.2,0,0,1-1.45.076,2.4,2.4,0,0,1-.738-.348l-1.841,3.125c1.428.369,1.5,1.388,1.315,2.545a3.392,3.392,0,0,0,0,1.068c.2,1.186.1,2.217-1.3,2.642l1.875,3.167a1.919,1.919,0,0,1,2.846.106,2.889,2.889,0,0,0,.99.579c1.158.372,1.966.976,1.708,2.364h3.711c-.266-1.387.527-1.977,1.663-2.337a2.639,2.639,0,0,0,.924-.53c.923-.818,1.875-1.137,2.952-.186Zm36.672-47.874a1.888,1.888,0,0,1-2.742-.04,3.444,3.444,0,0,0-1.2-.706c-1.134-.357-1.849-.965-1.585-2.305h-3.761c.284,1.315-.406,1.922-1.513,2.278a3.364,3.364,0,0,0-1.136.653,1.954,1.954,0,0,1-2.862.121l-1.882,3.168a1.867,1.867,0,0,1,1.333,2.478,2.911,2.911,0,0,0-.025.984c.182,1.212.211,2.341-1.3,2.817l1.852,3.113c.8-.452,1.457-.866,2.3-.271.754.534,1.647.87,2.4,1.4a3.349,3.349,0,0,1,.853,1.192,2.162,2.162,0,0,1,.078.791h3.67c-.279-1.349.435-1.969,1.564-2.33a3.039,3.039,0,0,0,1.069-.6,1.92,1.92,0,0,1,2.886-.143l1.879-3.178c-1.419-.405-1.507-1.415-1.311-2.573a3.067,3.067,0,0,0,.005-.986c-.195-1.2-.137-2.271,1.292-2.712Zm-17.529,7.86c-2.544-1.946-9.63-3.074-12.607-1.9a2.2,2.2,0,0,0,1.656,2.585c.436.164.881.308,1.33.433,3.624,1.009,6.41,2.893,7.479,6.774.615,2.231,1.822,2.864,4.122,2.721a42.714,42.714,0,0,1,4.93.056,27.709,27.709,0,0,1,2.889.45c-.477-1.377-.477-1.382-1.91-1.472-.711-.045-1.377-.365-1.324-1.074.082-1.1-.514-1.489-1.334-1.827a1.892,1.892,0,0,1-.561-.341.906.906,0,0,0-1.245-.068c-.987.586-1.574.4-2.183-.6-.626-1.033-1.233-2.078-1.849-3.118C229.716,114.154,229.823,113.693,231.1,112.849Zm.2,35.5c-1.483-.99-1.585-1.436-.806-2.753.587-.992,1.165-1.99,1.758-2.979.717-1.194,1.167-1.305,2.426-.684a2.248,2.248,0,0,0,.734.086,2.48,2.48,0,0,0-.121-.751,4.337,4.337,0,0,0-5.367-2.022c-1.348.517-2.017,1.126-1.491,2.839a7.32,7.32,0,0,1,.238,4.3c-.341,1.135-.811,2.231-1.278,3.493Z" transform="translate(0 0)" fill="url(#linear-gradient)"/>
      <path id="Trazado_1009344" data-name="Trazado 1009344" d="M364.52,266.3c0,1.592.009,3.185,0,4.777a2.969,2.969,0,1,1-5.928-.032q-.014-4.777,0-9.554a2.972,2.972,0,1,1,5.929.032C364.526,263.113,364.52,264.706,364.52,266.3Zm-1.8,0c0-1.593.006-3.186,0-4.779,0-.929-.387-1.395-1.125-1.414-.781-.02-1.2.457-1.2,1.423q-.009,4.737,0,9.475c0,.878.434,1.413,1.125,1.436.72.025,1.194-.534,1.2-1.446C362.723,269.432,362.717,267.866,362.717,266.3Z" transform="translate(-139.61 -132.157)" fill="url(#linear-gradient)"/>
      <path id="Trazado_1009345" data-name="Trazado 1009345" d="M361.582,214.965a2.921,2.921,0,0,1,2.971,2.958,2.963,2.963,0,0,1-5.926.016A2.921,2.921,0,0,1,361.582,214.965Zm1.165,2.968a1.158,1.158,0,1,0-2.314-.048,1.158,1.158,0,1,0,2.314.048Z" transform="translate(-139.646 -95.951)" fill="url(#linear-gradient)"/>
      <path id="Trazado_1009346" data-name="Trazado 1009346" d="M457.673,372.419a5.934,5.934,0,0,1,7.587-5.483c.569.182,1.059.465.866,1.159-.2.719-.716.742-1.375.556a4.071,4.071,0,0,0-5.073,2.768,4.016,4.016,0,0,0,7.79,1.956,5.1,5.1,0,0,0-.031-2.021c-.1-.637-.149-1.208.569-1.408.735-.2,1.009.343,1.191.941a5.71,5.71,0,0,1-3.531,6.868,5.833,5.833,0,0,1-7.383-3.057A17.184,17.184,0,0,1,457.673,372.419Z" transform="translate(-222.362 -222.646)" fill="url(#linear-gradient)"/>
      <path id="Trazado_1009347" data-name="Trazado 1009347" d="M230.17,144.733a5.727,5.727,0,0,1-5.786-5.718,5.8,5.8,0,0,1,11.6.047A5.691,5.691,0,0,1,230.17,144.733Zm4.051-5.642a4.026,4.026,0,1,0-4.077,3.882A3.983,3.983,0,0,0,234.222,139.092Z" transform="translate(-27.537 -27.752)" fill="url(#linear-gradient)"/>
      <path id="Trazado_1009348" data-name="Trazado 1009348" d="M235.986,372.65a5.8,5.8,0,1,1-5.816-5.671A5.69,5.69,0,0,1,235.986,372.65Zm-5.8-3.911a3.933,3.933,0,1,0,4.031,3.926A3.985,3.985,0,0,0,230.191,368.739Z" transform="translate(-27.537 -222.901)" fill="url(#linear-gradient)"/>
      <path id="Trazado_1009349" data-name="Trazado 1009349" d="M464.241,144.734a5.69,5.69,0,0,1-5.8-5.69,5.8,5.8,0,1,1,5.8,5.69Zm4.018-5.7a4.025,4.025,0,1,0-4.023,3.937A3.985,3.985,0,0,0,468.26,139.037Z" transform="translate(-223.006 -27.752)" fill="url(#linear-gradient)"/>
    </g>
  </g>
</svg>
