<svg xmlns="http://www.w3.org/2000/svg" xmlns:xlink="http://www.w3.org/1999/xlink" width="118.117" height="118.117" viewBox="0 0 118.117 118.117">
  <defs>
    <linearGradient id="linear-gradient" x1="0.5" y1="0.609" x2="0.5" y2="-0.304" gradientUnits="objectBoundingBox">
      <stop offset="0" stop-color="#045e61"/>
      <stop offset="1" stop-color="#3ef989"/>
    </linearGradient>
  </defs>
  <g id="Grupo_1198593" data-name="Grupo 1198593" transform="translate(-740.883 -706.941)">
    <g id="Grupo_1192986" data-name="Grupo 1192986" transform="translate(740.883 706.941)">
      <g id="Trazado_995327" data-name="Trazado 995327" transform="translate(0)" fill="#fff">
        <path d="M 59.05859375 116.1171951293945 C 51.35486221313477 116.1171951293945 43.88261032104492 114.6088409423828 36.84942626953125 111.6340637207031 C 33.46891021728516 110.2042236328125 30.20824432373047 108.4343566894531 27.15799331665039 106.3736572265625 C 24.13620948791504 104.3321914672852 21.29459381103516 101.9876251220703 18.71207618713379 99.40511322021484 C 16.12957763671875 96.82259368896484 13.78501033782959 93.98097991943359 11.74354362487793 90.95919036865234 C 9.682826995849609 87.90895843505859 7.91297721862793 84.64827728271484 6.48314380645752 81.26776123046875 C 3.508343696594238 74.23457336425781 2.00001049041748 66.7623291015625 2.00001049041748 59.05859375 C 2.00001049041748 51.35486221313477 3.508343696594238 43.88261032104492 6.48314380645752 36.84942626953125 C 7.91297721862793 33.46891021728516 9.682826995849609 30.20824432373047 11.74354362487793 27.15799331665039 C 13.78501033782959 24.13620948791504 16.12957763671875 21.29459381103516 18.71207618713379 18.71207618713379 C 21.29459381103516 16.12957763671875 24.13620948791504 13.78501033782959 27.15799331665039 11.74354362487793 C 30.20824432373047 9.682826995849609 33.46891021728516 7.91297721862793 36.84942626953125 6.48314380645752 C 43.88261032104492 3.508343696594238 51.35486221313477 2.00001049041748 59.05859375 2.00001049041748 C 66.7623291015625 2.00001049041748 74.23457336425781 3.508343696594238 81.26776123046875 6.48314380645752 C 84.64827728271484 7.91297721862793 87.90895843505859 9.682826995849609 90.95919036865234 11.74354362487793 C 93.98097991943359 13.78501033782959 96.82259368896484 16.12957763671875 99.40511322021484 18.71207618713379 C 101.9876251220703 21.29459381103516 104.3321914672852 24.13620948791504 106.3736572265625 27.15799331665039 C 108.4343566894531 30.20824432373047 110.2042236328125 33.46891021728516 111.6340637207031 36.84942626953125 C 114.6088409423828 43.88261032104492 116.1171951293945 51.35486221313477 116.1171951293945 59.05859375 C 116.1171951293945 66.7623291015625 114.6088409423828 74.23457336425781 111.6340637207031 81.26776123046875 C 110.2042236328125 84.64827728271484 108.4343566894531 87.90895843505859 106.3736572265625 90.95919036865234 C 104.3321914672852 93.98097991943359 101.9876251220703 96.82259368896484 99.40511322021484 99.40511322021484 C 96.82259368896484 101.9876251220703 93.98097991943359 104.3321914672852 90.95919036865234 106.3736572265625 C 87.90895843505859 108.4343566894531 84.64827728271484 110.2042236328125 81.26776123046875 111.6340637207031 C 74.23457336425781 114.6088409423828 66.7623291015625 116.1171951293945 59.05859375 116.1171951293945 Z" stroke="none"/>
        <path d="M 59.05859375 3.999992370605469 C 51.62397766113281 3.999992370605469 44.41384887695312 5.455177307128906 37.62852478027344 8.325119018554688 C 34.36693572998047 9.704666137695312 31.22083282470703 11.41236114501953 28.27759552001953 13.40077209472656 C 25.36128234863281 15.37099456787109 22.61879730224609 17.63377380371094 20.12628173828125 20.12628173828125 C 17.63377380371094 22.61879730224609 15.37099456787109 25.36128234863281 13.40077209472656 28.27759552001953 C 11.41236114501953 31.22083282470703 9.704666137695312 34.36693572998047 8.325119018554688 37.62852478027344 C 5.455177307128906 44.41384887695312 3.999992370605469 51.62397766113281 3.999992370605469 59.05859375 C 3.999992370605469 66.49320983886719 5.455177307128906 73.70333862304688 8.325119018554688 80.48866271972656 C 9.704666137695312 83.750244140625 11.41236114501953 86.89635467529297 13.40077209472656 89.83959197998047 C 15.37099456787109 92.75590515136719 17.63377380371094 95.49839782714844 20.12628173828125 97.99090576171875 C 22.61879730224609 100.4834136962891 25.36128234863281 102.7461929321289 28.27759552001953 104.7164154052734 C 31.22083282470703 106.704833984375 34.36693572998047 108.4125213623047 37.62852478027344 109.7920684814453 C 44.41384887695312 112.6620101928711 51.62397766113281 114.1171951293945 59.05859375 114.1171951293945 C 66.49320983886719 114.1171951293945 73.70333862304688 112.6620101928711 80.48866271972656 109.7920684814453 C 83.750244140625 108.4125213623047 86.89635467529297 106.704833984375 89.83959197998047 104.7164154052734 C 92.75590515136719 102.7461929321289 95.49839782714844 100.4834136962891 97.99090576171875 97.99090576171875 C 100.4834136962891 95.49839782714844 102.7461929321289 92.75590515136719 104.7164154052734 89.83959197998047 C 106.704833984375 86.89635467529297 108.4125213623047 83.750244140625 109.7920684814453 80.48866271972656 C 112.6620101928711 73.70333862304688 114.1171951293945 66.49320983886719 114.1171951293945 59.05859375 C 114.1171951293945 51.62397766113281 112.6620101928711 44.41384887695312 109.7920684814453 37.62852478027344 C 108.4125213623047 34.36693572998047 106.704833984375 31.22083282470703 104.7164154052734 28.27759552001953 C 102.7461929321289 25.36128234863281 100.4834136962891 22.61879730224609 97.99090576171875 20.12628173828125 C 95.49839782714844 17.63377380371094 92.75590515136719 15.37099456787109 89.83959197998047 13.40077209472656 C 86.89635467529297 11.41236114501953 83.750244140625 9.704666137695312 80.48866271972656 8.325119018554688 C 73.70333862304688 5.455177307128906 66.49320983886719 3.999992370605469 59.05859375 3.999992370605469 M 59.05859375 -7.62939453125e-06 C 91.67575836181641 -7.62939453125e-06 118.1171951293945 26.44142913818359 118.1171951293945 59.05859375 C 118.1171951293945 91.67575836181641 91.67575836181641 118.1171951293945 59.05859375 118.1171951293945 C 26.44142913818359 118.1171951293945 -7.62939453125e-06 91.67575836181641 -7.62939453125e-06 59.05859375 C -7.62939453125e-06 26.44142913818359 26.44142913818359 -7.62939453125e-06 59.05859375 -7.62939453125e-06 Z" stroke="none" fill="#53159b"/>
      </g>
    </g>
    <g id="Grupo_1198119" data-name="Grupo 1198119" transform="translate(630.138 625.275)">
      <path id="Trazado_1009327" data-name="Trazado 1009327" d="M145.95,155.249a9.735,9.735,0,0,1-4.524-6.513,4.657,4.657,0,0,1-4.451-2.977,4.432,4.432,0,0,1-.042-3.185,2.441,2.441,0,0,0,.009-1.426,4.774,4.774,0,0,1,.04-3.283A1.844,1.844,0,0,0,137,136.7a4.483,4.483,0,0,1,1.836-5.606c.226-.149.439-.318.9-.654h-5.3V105.287h70.954v25.081h-6.426c.84,2.309,1.55,4.49,2.422,6.6,1.123,2.719,2.378,5.382,3.571,8.072a5.256,5.256,0,0,1-1.294,6.22,1.619,1.619,0,0,0-.529.743,7.367,7.367,0,0,1-2.777,4.519c2.839,2.93,3.046,6.571,2.8,9.892.88.853,1.9,1.381,2.058,2.1a10.667,10.667,0,0,1-.04,4.045,1.877,1.877,0,0,1-2.03,1.3c-1.121.006-2.242,0-3.363,0q-16.239,0-32.478-.012a1.406,1.406,0,0,0-1.463.752,3.074,3.074,0,0,1-2.816,1.542c-7.335.011-14.67.04-22-.016a6.539,6.539,0,0,1-6.484-5.6,16.946,16.946,0,0,1,.446-8.166,10.242,10.242,0,0,1,9.554-6.789c.4-.006.81,0,1.215,0Zm-9.255-27.2h43.472V107.592H136.7Zm45.912-.007H203.1V107.6H182.607Zm-6.416,28.5a7.355,7.355,0,0,1-2.793-4.579,1.811,1.811,0,0,0-.614-.8,5.177,5.177,0,0,1-1.3-5.887c1.134-2.644,2.38-5.24,3.477-7.9.93-2.254,1.718-4.567,2.586-6.9H163.7c.2.348.513.475.7.7a12.633,12.633,0,0,1,1.782,2.3c.632,1.255-.2,2.574-.156,3.791.047,1.288.641,2.552.151,3.913a2.151,2.151,0,0,0,0,1.319,4.558,4.558,0,0,1-2.685,5.889,12.413,12.413,0,0,1-1.785.4,10.563,10.563,0,0,1-4.479,6.579,2.966,2.966,0,0,0,1.077.186c3.394,0,6.787,0,10.181.006a2.344,2.344,0,0,1,2.589,2.622c.007,2.561,0,5.122,0,7.683v1.045h2.312C173.187,163.169,173.272,159.524,176.191,156.546ZM144.232,138.24a12.419,12.419,0,0,0-.641,2.464c-.078,2.174-.04,4.352-.022,6.528a5.694,5.694,0,0,0,2.518,5.129c1.908,1.111,2.193,2.5,2.094,4.436a3.262,3.262,0,0,0,3.36,3.333,3.4,3.4,0,0,0,3.44-3.2,13.31,13.31,0,0,0,.017-2.205,1.359,1.359,0,0,1,.87-1.485,6.612,6.612,0,0,0,3.676-5.7c.124-2.33.085-4.673,0-7.006a9.144,9.144,0,0,0-.7-2.233,4.614,4.614,0,0,1-3.577,1.274q-3.744-.047-7.489,0A4.515,4.515,0,0,1,144.232,138.24Zm36.015-.922c0,2.557-.029,5.015.008,7.472a6.7,6.7,0,0,0,3.553,6.066,1.724,1.724,0,0,1,1.036,1.871,1.807,1.807,0,0,0,.3,1.3c.977.858,2.065,1.589,3.13,2.381a19.873,19.873,0,0,1,2.055-1.507,2.368,2.368,0,0,0,1.372-2.725c-.1-.553.162-.845.666-1.1a6.245,6.245,0,0,0,3.751-5.009c.248-2.879.06-5.795.06-8.752Zm6.985,25.079a3.482,3.482,0,0,1-.082-.434c-.055-1.2.263-2.608-.255-3.557-.544-1-1.888-1.558-2.882-2.309-.076-.058-.154-.114-.232-.17a3.967,3.967,0,0,0-3.4.427,1,1,0,0,0-.129.537,22.087,22.087,0,0,0,1.545,9.385.984.984,0,0,0,1.058.723q5.422-.04,10.844,0a.964.964,0,0,0,1.044-.719,21.71,21.71,0,0,0,1.529-9.384,1.05,1.05,0,0,0-.115-.542c-.421-.584-2.789-.871-3.4-.421-.927.682-1.878,1.339-2.747,2.089a1.888,1.888,0,0,0-.58,1.173c-.081,1.042-.027,2.1-.027,3.2ZM139.072,140a11.412,11.412,0,0,0,1.652-.4,2,2,0,0,0,.818-.7c.544-.775,1.036-1.588,1.542-2.391a2.883,2.883,0,0,0,.486-.87,3.432,3.432,0,0,1,4.494-2.771v2.09c-.323.016-.577.043-.829.038-.779-.015-1.355.27-1.362,1.12s.566,1.147,1.343,1.147c1.088,0,2.176,0,3.264,0,1.856,0,3.712.009,5.569-.01.75-.008,1.224-.382,1.2-1.182-.023-.756-.5-1.053-1.205-1.073-.31-.009-.619-.03-.974-.047v-2.167c1.622-.269,3.206-.037,3.864,1.453s1.688,2.719,2.433,4.13c.133.251.169.554.308.8a.857.857,0,0,0,.443.409c.64.163,1.294.268,1.943.394.163-.935.163-.935-1.071-2.736.143-.182.292-.382.452-.573,1.272-1.519.845-3.148-.974-3.916a1.687,1.687,0,0,1-.74-.852,2.242,2.242,0,0,0-3.555-.971c-.3.224-.569.48-.864.731-.945-.8-1.888-1.811-3.086-1.033-1.228.8-2.163-.7-3.26-.139a2.766,2.766,0,0,0-.435.2,1.122,1.122,0,0,1-1.4-.008,2.073,2.073,0,0,0-2.491.3c-.272.215-.527.451-.8.684-.2-.163-.353-.28-.5-.4-1.649-1.4-3.158-1.059-4.056.88a1.587,1.587,0,0,1-.784.683,2.268,2.268,0,0,0-.938,3.693c.2.244.4.485.617.75C139.554,138.084,138.684,138.783,139.072,140Zm.234,29.481c.562-.518,1.147-1.015,1.678-1.565.3-.314.547-.844-.152-.891-1.36-.091-2.73-.027-4.178-.027,0,.731,0,1.335,0,1.939a4.584,4.584,0,0,0,4.9,4.931q6.673.012,13.346,0c2.592,0,5.185.006,7.777,0,1.131,0,1.472-.358,1.488-1.5q.011-.768,0-1.536c-.015-1.182-.352-1.52-1.561-1.536-.978-.013-1.955,0-3.021,0,0-.623.032-1.1-.014-1.57-.022-.22-.149-.544-.31-.6a.835.835,0,0,0-.653.223,8.337,8.337,0,0,0-1.157,1.147,2.26,2.26,0,0,1-2.013.82c-3.264-.041-6.532.065-9.792-.049-1.817-.064-3.411.1-4.51,1.743-.046.068-.155.093-.259.152Zm20.244-11.6a10.609,10.609,0,0,0-1.727.026,1.167,1.167,0,0,0-.774.57,5.913,5.913,0,0,1-5.477,3.967,5.84,5.84,0,0,1-5.5-4.052.912.912,0,0,0-.641-.491,7.8,7.8,0,0,0-7.561,3.789,19.619,19.619,0,0,0-1.23,2.917h4.618V160.22h2.316V166.9a3.16,3.16,0,0,0,.447.076c3.713.005,7.426.023,11.138-.018a1.838,1.838,0,0,0,1.117-.577c.913-.922,1.8-1.846,3.272-1.649Zm2.356,9.111a4.384,4.384,0,0,1,3.565,1.021,4.446,4.446,0,0,1,1.032,3.458h2.2V157.959h-6.8Zm41.23,2.381H171.157v2.119h31.979Zm-25.169-32.008-.241-.089c-.119.126-.284.233-.351.382-1.277,2.862-2.582,5.712-3.795,8.6a2.777,2.777,0,0,0,1.4,3.663,1.141,1.141,0,0,1,.7,1.179,4.107,4.107,0,0,0,1.756,3.456,1.368,1.368,0,0,0,1.062.088c1.154-.353,2.286-.779,3.421-1.193a4.36,4.36,0,0,0,.623-.346,2.377,2.377,0,0,0-.435-.559,8.86,8.86,0,0,1-3.642-4.8,13.537,13.537,0,0,1-.477-3.4C177.918,142.019,177.968,139.691,177.968,137.365Zm22.893,12.941c2.4-1.281,2.829-2.519,1.746-4.951q-1.638-3.68-3.295-7.351c-.116-.258-.268-.5-.4-.749l-.259.071c-.019.3-.054.6-.055.9,0,2.017-.022,4.035,0,6.052a9.485,9.485,0,0,1-4.1,8.234,2.646,2.646,0,0,0-.471.637,6.731,6.731,0,0,0,.653.316c1.076.388,2.192.69,3.223,1.174a1.047,1.047,0,0,0,1.34-.141A4.764,4.764,0,0,0,200.861,150.306Zm-12.587-15.615,5.642-4.248H182.6Zm-10.573,23.7c-2.1,1.786-2.33,5.068-1.873,8.513h3.452Zm23.095,8.555c.377-4.419-.336-7.316-1.946-8.537l-1.609,8.537Zm-3.933-35.823-5.1,3.825h6.357Zm-18.439,3.788h6.319l-5.065-3.773ZM161.911,146.3a2.094,2.094,0,0,0,2.251-2.068,2.139,2.139,0,0,0-2.251-2.3Zm-20.755.008V141.9a2.177,2.177,0,0,0-2.177,2.352A2.081,2.081,0,0,0,141.156,146.306Z" fill="url(#linear-gradient)"/>
      <path id="Trazado_1009328" data-name="Trazado 1009328" d="M254.225,135.985v-6.692h20.592v6.692Zm18.3-4.426H256.545c-.017.374-.041.687-.043,1-.008,1.232-.005,1.233,1.247,1.233h14.776Z" transform="translate(-96.91 -19.392)" fill="url(#linear-gradient)"/>
      <path id="Trazado_1009329" data-name="Trazado 1009329" d="M174.831,144.809h-2a21.591,21.591,0,0,0-1.368-2.826,3.625,3.625,0,0,0-2.831-1.6,22.626,22.626,0,0,0-3.446-.023c-2.28.2-3.59,1.628-4.21,4.448h-2.162a6.911,6.911,0,0,1,3.871-6.16c-2.228-3.328-2.1-6.211.353-8.365a5.736,5.736,0,0,1,7.552,0c2.416,2.133,2.552,5.118.356,8.368A6.988,6.988,0,0,1,174.831,144.809Zm-8.054-6.838a3.4,3.4,0,0,0,3.477-3.34,3.439,3.439,0,0,0-3.456-3.475,3.377,3.377,0,0,0-3.4,3.407A3.336,3.336,0,0,0,166.777,137.971Z" transform="translate(-19.836 -19.047)" fill="url(#linear-gradient)"/>
      <path id="Trazado_1009330" data-name="Trazado 1009330" d="M274.979,200.37v2.174H254.392V200.37Z" transform="translate(-97.045 -76.808)" fill="url(#linear-gradient)"/>
      <path id="Trazado_1009331" data-name="Trazado 1009331" d="M303.95,176.751V178.9H290.282v-2.153Z" transform="translate(-126.037 -57.729)" fill="url(#linear-gradient)"/>
      <path id="Trazado_1009332" data-name="Trazado 1009332" d="M258.832,178.825h-4.439v-2.216h4.439Z" transform="translate(-97.046 -57.614)" fill="url(#linear-gradient)"/>
      <path id="Trazado_1009333" data-name="Trazado 1009333" d="M418.3,154h-8.552v-2.22h8.59l-1.313-1.43,1.441-1.655,4.113,4.133-4.138,4.144-1.4-1.548Z" transform="translate(-222.545 -35.066)" fill="url(#linear-gradient)"/>
      <path id="Trazado_1009334" data-name="Trazado 1009334" d="M201.4,323.843a4.342,4.342,0,0,1,.433-.293c.481-.242.968-.473,1.436-.7,1.938,2.116,3.375,2.123,5.015-.027l1.962.965a4.827,4.827,0,0,1-8.847.056Z" transform="translate(-54.236 -175.725)" fill="url(#linear-gradient)"/>
      <path id="Trazado_1009335" data-name="Trazado 1009335" d="M195.485,297.842c-.2-.293-.658-.69-.729-1.147-.11-.707.415-1.146,1.121-1.126a1.036,1.036,0,0,1,1.087,1.109C196.956,297.394,196.524,297.775,195.485,297.842Z" transform="translate(-48.859 -153.709)" fill="url(#linear-gradient)"/>
      <path id="Trazado_1009336" data-name="Trazado 1009336" d="M244.658,297.063c-.26.177-.652.636-1.1.706-.708.11-1.111-.4-1.1-1.122a1.011,1.011,0,0,1,1.089-1.085C244.235,295.565,244.652,295.979,244.658,297.063Z" transform="translate(-87.399 -153.705)" fill="url(#linear-gradient)"/>
      <path id="Trazado_1009337" data-name="Trazado 1009337" d="M399.191,310.87l1.819.928a4.359,4.359,0,0,1-3.686,2.926,4.8,4.8,0,0,1-5.068-2.849l1.888-1C395.485,312.867,397.608,313.142,399.191,310.87Z" transform="translate(-208.412 -166.07)" fill="url(#linear-gradient)"/>
      <path id="Trazado_1009338" data-name="Trazado 1009338" d="M435.707,285.1c-.4.3-.773.764-1.223.863a.956.956,0,0,1-1.192-1.027,1.018,1.018,0,0,1,1.134-1.127C435.116,283.805,435.461,284.2,435.707,285.1Z" transform="translate(-241.56 -144.21)" fill="url(#linear-gradient)"/>
      <path id="Trazado_1009339" data-name="Trazado 1009339" d="M387.9,284.884A1.012,1.012,0,0,1,386.872,286a.992.992,0,0,1-1.175-1.058.977.977,0,0,1,1.016-1.122A1.027,1.027,0,0,1,387.9,284.884Z" transform="translate(-203.113 -144.216)" fill="url(#linear-gradient)"/>
    </g>
  </g>
</svg>
