<svg xmlns="http://www.w3.org/2000/svg" xmlns:xlink="http://www.w3.org/1999/xlink" width="1228" height="227" viewBox="0 0 1228 227">
  <defs>
    <clipPath id="clip-path">
      <path id="Rectángulo_33824" data-name="Rectángulo 33824" d="M0,0H1228V227H0Z" transform="translate(186 2189.497)" fill="#fff7da"/>
    </clipPath>
    <clipPath id="clip-path-2">
      <rect id="SVGID" width="936.988" height="648.603" fill="none"/>
    </clipPath>
    <linearGradient id="linear-gradient" x1="3.703" y1="0.356" x2="4.621" y2="0.356" gradientUnits="objectBoundingBox">
      <stop offset="0" stop-color="#00d0de"/>
      <stop offset="1" stop-color="#1062ba"/>
    </linearGradient>
    <linearGradient id="linear-gradient-2" x1="1.846" y1="27.459" x2="2.804" y2="27.459" xlink:href="#linear-gradient"/>
    <linearGradient id="linear-gradient-3" x1="-0.026" y1="18.103" x2="1.126" y2="18.103" gradientUnits="objectBoundingBox">
      <stop offset="0" stop-color="#ffb155"/>
      <stop offset="1" stop-color="#61ccff"/>
    </linearGradient>
    <linearGradient id="linear-gradient-4" x1="0.367" y1="21.764" x2="1.48" y2="21.764" xlink:href="#linear-gradient"/>
    <linearGradient id="linear-gradient-5" x1="2.291" y1="26.901" x2="3.231" y2="26.901" xlink:href="#linear-gradient-3"/>
    <linearGradient id="linear-gradient-6" x1="2.662" y1="25.372" x2="3.574" y2="25.372" xlink:href="#linear-gradient"/>
    <linearGradient id="linear-gradient-7" x1="0.482" y1="27.81" x2="1.558" y2="27.81" xlink:href="#linear-gradient-3"/>
    <linearGradient id="linear-gradient-8" x1="0.39" y1="34.382" x2="1.443" y2="34.382" xlink:href="#linear-gradient"/>
    <linearGradient id="linear-gradient-9" x1="2.842" y1="24.338" x2="3.73" y2="24.338" xlink:href="#linear-gradient-3"/>
    <linearGradient id="linear-gradient-10" x1="2.893" y1="22.682" x2="3.742" y2="22.682" xlink:href="#linear-gradient"/>
    <linearGradient id="linear-gradient-11" x1="0.137" y1="43.603" x2="1.164" y2="43.603" xlink:href="#linear-gradient-3"/>
    <linearGradient id="linear-gradient-12" x1="-0.242" y1="51.19" x2="0.766" y2="51.19" xlink:href="#linear-gradient"/>
    <linearGradient id="linear-gradient-13" x1="2.627" y1="22.125" x2="3.457" y2="22.125" xlink:href="#linear-gradient-3"/>
    <linearGradient id="linear-gradient-14" x1="1.631" y1="21.501" x2="2.552" y2="21.501" xlink:href="#linear-gradient"/>
    <linearGradient id="linear-gradient-15" x1="-0.803" y1="57.175" x2="0.184" y2="57.175" xlink:href="#linear-gradient-3"/>
    <linearGradient id="linear-gradient-16" x1="-1.494" y1="57.62" x2="-0.525" y2="57.62" xlink:href="#linear-gradient"/>
    <linearGradient id="linear-gradient-17" x1="-0.378" y1="21.586" x2="0.638" y2="21.586" xlink:href="#linear-gradient-3"/>
    <linearGradient id="linear-gradient-20" x1="0.099" y1="3.548" x2="1.212" y2="3.548" xlink:href="#linear-gradient"/>
    <linearGradient id="linear-gradient-21" x1="307.273" y1="21.391" x2="308.654" y2="21.391" xlink:href="#linear-gradient"/>
    <linearGradient id="linear-gradient-22" x1="909.716" y1="216.212" x2="910.714" y2="216.212" gradientUnits="objectBoundingBox">
      <stop offset="0" stop-color="#1fb5ff"/>
      <stop offset="1" stop-color="#a3dcff"/>
    </linearGradient>
    <linearGradient id="linear-gradient-23" x1="910.29" y1="213.449" x2="911.288" y2="213.449" xlink:href="#linear-gradient-22"/>
    <linearGradient id="linear-gradient-24" x1="910.742" y1="211.866" x2="911.739" y2="211.866" xlink:href="#linear-gradient-22"/>
    <linearGradient id="linear-gradient-25" x1="901.212" y1="201.032" x2="902.206" y2="201.032" xlink:href="#linear-gradient-22"/>
    <linearGradient id="linear-gradient-26" x1="1313.047" y1="288.875" x2="1314.04" y2="288.875" xlink:href="#linear-gradient-22"/>
    <linearGradient id="linear-gradient-27" x1="1311.021" y1="295.573" x2="1312.014" y2="295.573" xlink:href="#linear-gradient-22"/>
    <linearGradient id="linear-gradient-28" x1="1311.507" y1="294.047" x2="1312.5" y2="294.047" xlink:href="#linear-gradient-22"/>
    <linearGradient id="linear-gradient-29" x1="1308.834" y1="302.677" x2="1309.828" y2="302.677" xlink:href="#linear-gradient-22"/>
    <linearGradient id="linear-gradient-30" x1="912.643" y1="205.612" x2="913.64" y2="205.612" xlink:href="#linear-gradient-22"/>
    <linearGradient id="linear-gradient-31" x1="910.986" y1="211.063" x2="911.983" y2="211.063" xlink:href="#linear-gradient-22"/>
    <linearGradient id="linear-gradient-32" x1="259.493" y1="21.313" x2="260.035" y2="19.96" xlink:href="#linear-gradient"/>
    <linearGradient id="linear-gradient-33" x1="806.319" y1="312.068" x2="807.316" y2="312.068" xlink:href="#linear-gradient-22"/>
    <linearGradient id="linear-gradient-34" x1="806.952" y1="309.159" x2="807.949" y2="309.159" xlink:href="#linear-gradient-22"/>
    <linearGradient id="linear-gradient-35" x1="807.415" y1="307.751" x2="808.412" y2="307.751" xlink:href="#linear-gradient-22"/>
    <linearGradient id="linear-gradient-36" x1="797.774" y1="294.132" x2="798.765" y2="294.132" xlink:href="#linear-gradient-22"/>
    <linearGradient id="linear-gradient-37" x1="1162.461" y1="424.532" x2="1163.452" y2="424.532" xlink:href="#linear-gradient-22"/>
    <linearGradient id="linear-gradient-38" x1="1160.143" y1="431.13" x2="1161.134" y2="431.13" xlink:href="#linear-gradient-22"/>
    <linearGradient id="linear-gradient-39" x1="1160.615" y1="429.793" x2="1161.605" y2="429.793" xlink:href="#linear-gradient-22"/>
    <linearGradient id="linear-gradient-40" x1="1157.663" y1="438.29" x2="1158.653" y2="438.29" xlink:href="#linear-gradient-22"/>
    <linearGradient id="linear-gradient-41" x1="809.53" y1="301.561" x2="810.527" y2="301.561" xlink:href="#linear-gradient-22"/>
    <linearGradient id="linear-gradient-42" x1="807.754" y1="306.76" x2="808.751" y2="306.76" xlink:href="#linear-gradient-22"/>
    <linearGradient id="linear-gradient-43" x1="2.465" y1="3.186" x2="3.204" y2="3.186" xlink:href="#linear-gradient-3"/>
    <linearGradient id="linear-gradient-44" x1="1.907" y1="3.178" x2="2.777" y2="3.178" xlink:href="#linear-gradient-3"/>
    <linearGradient id="linear-gradient-45" x1="13.414" y1="-3.077" x2="14.381" y2="-3.077" xlink:href="#linear-gradient-3"/>
    <linearGradient id="linear-gradient-46" x1="10.019" y1="-3.077" x2="10.869" y2="-3.077" xlink:href="#linear-gradient-3"/>
    <linearGradient id="linear-gradient-47" x1="2.237" y1="-1.142" x2="3.237" y2="-1.142" gradientUnits="objectBoundingBox">
      <stop offset="0.218" stop-color="#e6ab81"/>
      <stop offset="0.62" stop-color="#42107c"/>
      <stop offset="1" stop-color="#61ccff"/>
    </linearGradient>
    <linearGradient id="linear-gradient-48" x1="6.042" y1="5.653" x2="5.731" y2="4.383" xlink:href="#linear-gradient-47"/>
    <linearGradient id="linear-gradient-49" x1="0.325" y1="-0.642" x2="0.656" y2="-2.381" gradientUnits="objectBoundingBox">
      <stop offset="0" stop-color="#0cebf3"/>
      <stop offset="1" stop-color="#ff5571"/>
    </linearGradient>
    <linearGradient id="linear-gradient-50" x1="0" y1="4.001" x2="1" y2="4.001" xlink:href="#linear-gradient-49"/>
    <linearGradient id="linear-gradient-51" x1="-6.389" y1="-1.835" x2="-5.697" y2="-1.835" xlink:href="#linear-gradient-3"/>
    <linearGradient id="linear-gradient-52" x1="-6.21" y1="-1.835" x2="-5.555" y2="-1.835" xlink:href="#linear-gradient-3"/>
    <linearGradient id="linear-gradient-53" x1="-15.967" y1="-0.336" x2="-14.967" y2="-0.336" xlink:href="#linear-gradient-3"/>
    <linearGradient id="linear-gradient-54" x1="-14.855" y1="-0.336" x2="-13.855" y2="-0.336" xlink:href="#linear-gradient-3"/>
    <linearGradient id="linear-gradient-55" x1="1.066" y1="3.363" x2="-0.32" y2="1.033" xlink:href="#linear-gradient-22"/>
    <linearGradient id="linear-gradient-56" x1="0" y1="-34.452" x2="1" y2="-34.452" xlink:href="#linear-gradient-22"/>
    <linearGradient id="linear-gradient-58" y1="-1.355" x2="1" y2="-1.355" gradientUnits="objectBoundingBox">
      <stop offset="0" stop-color="#493d60"/>
      <stop offset="1" stop-color="#3ef989"/>
    </linearGradient>
    <linearGradient id="linear-gradient-61" x1="2.292" y1="1.243" x2="0.082" y2="0.116" xlink:href="#linear-gradient-22"/>
    <linearGradient id="linear-gradient-62" x1="3.266" y1="1.239" x2="0.36" y2="0.121" xlink:href="#linear-gradient-22"/>
    <linearGradient id="linear-gradient-63" x1="0" y1="-8.864" x2="1" y2="-8.864" xlink:href="#linear-gradient-22"/>
  </defs>
  <g id="Enmascarar_grupo_1179264" data-name="Enmascarar grupo 1179264" transform="translate(-186 -2189.497)" clip-path="url(#clip-path)">
    <g id="OBJECTS" transform="translate(33.519 1956.038)">
      <ellipse id="Elipse_13660" data-name="Elipse 13660" cx="573.729" cy="28.369" rx="573.729" ry="28.369" transform="translate(158.308 805.472)" fill="#fff"/>
      <g id="Grupo_1198081" data-name="Grupo 1198081" transform="translate(443.493 72.624)">
        <g id="Grupo_1198080" data-name="Grupo 1198080">
          <g id="Grupo_1198079" data-name="Grupo 1198079" clip-path="url(#clip-path-2)">
            <g id="Grupo_1198078" data-name="Grupo 1198078">
              <rect id="Rectángulo_461347" data-name="Rectángulo 461347" width="936.988" height="648.603" fill="#051c46"/>
              <path id="Trazado_1009224" data-name="Trazado 1009224" d="M309.454,569.7c15.9-25.793,17.88-56.165,3.738-83.208-7.59-14.513-16.538-33.111-1.506-46.663,12.579-11.342,30.608-4.513,37.675,9.059,11.64,22.355,5.2,48.686-5.726,71.229a469.934,469.934,0,0,0,26.712-46.2c7.183-22.982,2.8-46.756-13.411-64.79-8.69-9.666-19.23-22.208-10.336-35.586,7.443-11.2,22.651-9.488,30.753-.445,20.209,22.562,10.336,60.275,1.384,83.145a366.109,366.109,0,0,0,13.029-34.709c4.864-14.949,5.875-31.106,1.649-46.247a81.17,81.17,0,0,0-23.345-37.929c-12.016-11.131-26.68-25.655-17.059-43.459,8.051-14.9,27.326-14.508,38.532-4.092,18.46,17.159,21.215,44.128,18.478,69.029a469.925,469.925,0,0,0,9.682-52.48c-.935-24.059-13.035-44.99-34.353-56.547-11.429-6.2-25.561-14.477-21.665-30.063,3.262-13.042,18.16-16.533,28.826-10.726,26.6,14.482,29.943,53.323,29.173,77.872a382.3,382.3,0,0,0,.276-55.368c-7.174-26.364-29.627-32.533-32.277-50.788-1.673-11.516,7.617-24.008,20.339-22.143,26.042,3.816,21.3,54.872,14.3,75.529.472,4.571.788,9.148,1.035,13.723,3.269-22.381,12.615-47.2,31.142-45.326,12.793,1.3,18.754,15.679,14.322,26.438-7.294,17.708-32.074,17.65-45.152,44.293q-.487,17.146-2.617,34.222c10.683-32.5,32.43-70.419,59.841-61.728,17.657,5.6,21.747,27.751,12.265,41.705-15.561,22.906-50.346,15.646-76.759,49.26-2.259,11.776-4.933,23.474-7.928,35.061,12.185-25.548,31.761-52.562,60.931-56.267,15.178-1.927,31.064,8.994,28.917,25.795-2.568,20.074-22.949,23.323-39.2,25.356a81.326,81.326,0,0,0-58.626,36.538,42.9,42.9,0,0,0-5.134,10.859c-.741,2.372-1.54,4.842-2.072,6.633,10.583-19.991,27.706-40.245,44.533-32.268,11.618,5.51,12.412,21.057,4.631,29.709-12.808,14.239-36.135,5.879-57.386,26.6q-6.205,15.995-13.937,31.365c20.959-27.041,54.157-55.477,77.066-38.1,14.758,11.2,11.186,33.434-2.421,43.4-22.339,16.367-52.675-2.134-88.829,20.681-6.075,10.338-12.517,20.463-19.221,30.374,20.045-19.985,47.54-38.875,76.265-32.588,14.947,3.271,26.253,18.885,18.6,33.995-9.148,18.053-29.44,14.281-45.432,10.752-29.809-6.58-58.615,3.289-79.351,25.39-1.019,1.142-1.6,1.76-1.6,1.76.042-.065.08-.136.122-.2-.053.06-.111.114-.165.174C308.155,571.731,308.6,571,309.454,569.7Z" transform="translate(-174.015 32.48)" fill="url(#linear-gradient)"/>
              <g id="Grupo_1198050" data-name="Grupo 1198050" transform="translate(293.769 153.857)">
                <g id="Grupo_1198049" data-name="Grupo 1198049">
                  <g id="Grupo_1198040" data-name="Grupo 1198040" transform="translate(15.009 250.859)">
                    <path id="Trazado_1009225" data-name="Trazado 1009225" d="M444.824,288.98a2.678,2.678,0,0,0-.556-1.782.365.365,0,0,0-.12-.116c-15.258-12.722-31.9-20.792-46.616-19.546a27.114,27.114,0,0,0-10.594,3.155c-.935.516-3.28,1-2.773,3.407.505,2.379,3.133,4.3,4.357,5.432,9.246,8.629,19.384,14.5,28.957,16.6a33.427,33.427,0,0,0,16.182-.18C435.5,295.482,444.552,292.669,444.824,288.98Z" transform="translate(-384.093 -238.685)" fill="url(#linear-gradient-2)"/>
                    <path id="Trazado_1009226" data-name="Trazado 1009226" d="M415.013,301.383a2.479,2.479,0,0,1-1.119-1.424.325.325,0,0,1-.022-.16c-1.32-19.609,8.147-34.489,20.933-41.055a39.976,39.976,0,0,1,10.4-3.729c1.037-.22,3.227-1.128,3.992.176.754,1.279-.394,3.429-.768,4.566-2.866,8.52-6.313,17.114-11.115,24.615a48.144,48.144,0,0,1-10.258,11.7C425.579,297.206,418.18,303.132,415.013,301.383Z" transform="translate(-347.758 -254.501)" fill="url(#linear-gradient-3)"/>
                  </g>
                  <g id="Grupo_1198041" data-name="Grupo 1198041" transform="translate(4.488 225.302)">
                    <path id="Trazado_1009227" data-name="Trazado 1009227" d="M408.817,284.255a2.4,2.4,0,0,1-.879-1.547.321.321,0,0,1,0-.16c1.756-19.342,13.331-32.617,26.959-37.21a40.221,40.221,0,0,1,10.839-2.152c1.057-.067,3.358-.634,3.916.752.55,1.362-.912,3.3-1.455,4.359-4.132,7.924-8.868,15.824-14.771,22.466a49.054,49.054,0,0,1-11.932,9.976C419.863,281.642,411.656,286.4,408.817,284.255Z" transform="translate(-344.368 -243.015)" fill="url(#linear-gradient-4)"/>
                    <path id="Trazado_1009228" data-name="Trazado 1009228" d="M436.862,277.8a2.6,2.6,0,0,0-.269-1.816.321.321,0,0,0-.1-.129c-13.026-14.535-28.249-24.778-42.956-25.554a27.3,27.3,0,0,0-10.924,1.667c-1,.381-3.385.541-3.242,2.977.145,2.408,2.45,4.646,3.487,5.924,7.826,9.722,16.909,16.836,26,20.194a33.4,33.4,0,0,0,15.939,2.023C426.677,282.868,436.019,281.363,436.862,277.8Z" transform="translate(-379.365 -234.129)" fill="url(#linear-gradient-5)"/>
                  </g>
                  <g id="Grupo_1198042" data-name="Grupo 1198042" transform="translate(0 196.622)">
                    <path id="Trazado_1009229" data-name="Trazado 1009229" d="M429.956,265.584a2.549,2.549,0,0,0,.058-1.816.342.342,0,0,0-.076-.145c-10.252-16.478-23.463-29.264-37.8-32.724a27.476,27.476,0,0,0-11.046-.383c-1.05.187-3.427-.1-3.714,2.31-.28,2.381,1.6,4.993,2.39,6.433,5.992,10.941,13.676,19.535,22.03,24.453a33.684,33.684,0,0,0,15.336,4.849C419.026,268.7,428.492,268.9,429.956,265.584Z" transform="translate(-377.348 -230.127)" fill="url(#linear-gradient-6)"/>
                    <path id="Trazado_1009230" data-name="Trazado 1009230" d="M404.584,264.211a2.354,2.354,0,0,1-.59-1.662.331.331,0,0,1,.031-.156c5.154-18.523,18.841-29.471,33.06-31.576a40.551,40.551,0,0,1,11.046-.214c1.052.12,3.416-.038,3.725,1.42.3,1.431-1.471,3.075-2.19,4.017-5.443,7.038-11.487,13.93-18.467,19.373a48.862,48.862,0,0,1-13.507,7.621C415.923,263.628,407,266.805,404.584,264.211Z" transform="translate(-344.701 -229.884)" fill="url(#linear-gradient-7)"/>
                  </g>
                  <g id="Grupo_1198043" data-name="Grupo 1198043" transform="translate(2.58 156.457)">
                    <path id="Trazado_1009231" data-name="Trazado 1009231" d="M403.329,246.249a2.33,2.33,0,0,1-.338-1.72.321.321,0,0,1,.053-.149c7.822-17.526,22.973-26.418,37.353-26.427a40.287,40.287,0,0,1,10.959,1.4c1.024.274,3.385.465,3.476,1.952.091,1.46-1.909,2.824-2.757,3.649-6.422,6.159-13.416,12.07-21.124,16.424a49.284,49.284,0,0,1-14.484,5.568C414.628,247.282,405.333,249.144,403.329,246.249Z" transform="translate(-348.554 -204.88)" fill="url(#linear-gradient-8)"/>
                    <path id="Trazado_1009232" data-name="Trazado 1009232" d="M425.921,253.526a2.525,2.525,0,0,0,.325-1.78.33.33,0,0,0-.053-.154c-7.715-17.682-18.934-32.195-32.635-37.584a27.4,27.4,0,0,0-10.886-1.891c-1.068.042-3.38-.563-4.014,1.782-.623,2.316.857,5.158,1.435,6.691,4.35,11.638,10.706,21.169,18.251,27.172a33.548,33.548,0,0,0,14.46,6.9C414.653,255.062,423.983,256.591,425.921,253.526Z" transform="translate(-378.508 -212.077)" fill="url(#linear-gradient-9)"/>
                  </g>
                  <g id="Grupo_1198044" data-name="Grupo 1198044" transform="translate(12.841 111.06)">
                    <path id="Trazado_1009233" data-name="Trazado 1009233" d="M423.071,240.9a2.535,2.535,0,0,0,.63-1.7.352.352,0,0,0-.024-.16c-4.526-18.837-12.989-35.256-25.481-43.116a27.313,27.313,0,0,0-10.352-3.879c-1.055-.154-3.218-1.182-4.259,1.024-1.026,2.181-.078,5.269.22,6.9,2.207,12.332,6.782,22.92,13.153,30.23a33.734,33.734,0,0,0,13.013,9.453C411.72,240.373,420.632,243.573,423.071,240.9Z" transform="translate(-383.119 -191.676)" fill="url(#linear-gradient-10)"/>
                    <path id="Trazado_1009234" data-name="Trazado 1009234" d="M404.437,226.43a2.35,2.35,0,0,1-.036-1.758.341.341,0,0,1,.078-.138c10.732-15.888,27.194-22.005,41.349-19.489a40.314,40.314,0,0,1,10.541,3.309c.961.45,3.251,1.05,3.082,2.539-.165,1.462-2.372,2.463-3.353,3.133-7.4,4.976-15.3,9.591-23.643,12.528a48.753,48.753,0,0,1-15.218,2.922C415.376,229.475,405.908,229.646,404.437,226.43Z" transform="translate(-357.229 -175.963)" fill="url(#linear-gradient-11)"/>
                  </g>
                  <g id="Grupo_1198045" data-name="Grupo 1198045" transform="translate(28.145 72.854)">
                    <path id="Trazado_1009235" data-name="Trazado 1009235" d="M408.014,209.306a2.358,2.358,0,0,1,.227-1.749.3.3,0,0,1,.1-.125c13.006-14.255,30.305-18.022,43.955-13.46a39.647,39.647,0,0,1,9.94,4.831c.883.587,3.06,1.522,2.659,2.982-.392,1.435-2.733,2.112-3.807,2.635-8.1,3.879-16.625,7.316-25.328,9.028a48.968,48.968,0,0,1-15.512.71C418.4,213.885,408.993,212.706,408.014,209.306Z" transform="translate(-368.019 -152.901)" fill="url(#linear-gradient-12)"/>
                    <path id="Trazado_1009236" data-name="Trazado 1009236" d="M422.984,228.648a2.565,2.565,0,0,0,.877-1.6.328.328,0,0,0,0-.162c-1.682-19.339-7.577-36.881-18.812-46.416a26.947,26.947,0,0,0-9.713-5.276c-1.026-.3-3.024-1.613-4.393.441-1.351,2.032-.872,5.234-.819,6.889.343,12.566,3.316,23.71,8.552,31.847a33.434,33.434,0,0,0,11.509,11.191C411.811,226.527,420.172,230.955,422.984,228.648Z" transform="translate(-389.997 -174.506)" fill="url(#linear-gradient-13)"/>
                  </g>
                  <g id="Grupo_1198046" data-name="Grupo 1198046" transform="translate(51.195 32.237)">
                    <path id="Trazado_1009237" data-name="Trazado 1009237" d="M425.1,215.822a2.614,2.614,0,0,0,1.155-1.437.35.35,0,0,0,.029-.162c1.907-19.589-.507-38.2-9.706-49.765a26.444,26.444,0,0,0-8.529-7.032c-.952-.483-2.661-2.163-4.41-.352-1.727,1.791-1.878,5.085-2.15,6.754-2.1,12.646-1.277,24.319,2.352,33.389a33.381,33.381,0,0,0,9.237,13.24C414.505,211.712,421.913,217.622,425.1,215.822Z" transform="translate(-400.355 -156.253)" fill="url(#linear-gradient-14)"/>
                    <path id="Trazado_1009238" data-name="Trazado 1009238" d="M414.394,191.18a2.419,2.419,0,0,1,.545-1.7.345.345,0,0,1,.118-.107c15.425-11.912,33.243-12.666,45.86-5.75a38.977,38.977,0,0,1,8.908,6.538c.761.739,2.737,2.047,2.063,3.436-.659,1.366-3.1,1.64-4.264,1.976-8.736,2.483-17.784,4.435-26.674,4.622a48.212,48.212,0,0,1-15.41-2.012C423.776,197.584,414.732,194.745,414.394,191.18Z" transform="translate(-383.165 -128.113)" fill="url(#linear-gradient-15)"/>
                  </g>
                  <g id="Grupo_1198047" data-name="Grupo 1198047" transform="translate(75.709)">
                    <path id="Trazado_1009239" data-name="Trazado 1009239" d="M422.72,176.3a2.511,2.511,0,0,1,.819-1.627.349.349,0,0,1,.136-.091c17.321-9.731,35.363-8,46.819.73a37.629,37.629,0,0,1,7.8,7.828c.634.85,2.388,2.443,1.471,3.743-.9,1.277-3.389,1.2-4.608,1.373-9.168,1.239-18.518,1.9-27.413.812a48.016,48.016,0,0,1-15.034-4.206C431.042,184.021,422.484,179.909,422.72,176.3Z" transform="translate(-397.473 -109.629)" fill="url(#linear-gradient-16)"/>
                    <path id="Trazado_1009240" data-name="Trazado 1009240" d="M430.719,204.03a2.728,2.728,0,0,0,1.386-1.273.385.385,0,0,0,.056-.158c5.062-19.3,5.79-38.265-1.54-51.087a25.6,25.6,0,0,0-7.417-8.191c-.879-.612-2.321-2.521-4.384-.948-2.036,1.558-2.73,4.829-3.278,6.46-4.19,12.354-5.243,24.119-3.071,33.672A32.789,32.789,0,0,0,419.582,197C420.8,198.447,427.247,205.381,430.719,204.03Z" transform="translate(-411.371 -141.766)" fill="url(#linear-gradient-17)"/>
                  </g>
                  <g id="Grupo_1198048" data-name="Grupo 1198048" transform="translate(75.709)">
                    <path id="Trazado_1009241" data-name="Trazado 1009241" d="M422.72,176.3a2.511,2.511,0,0,1,.819-1.627.349.349,0,0,1,.136-.091c17.321-9.731,35.363-8,46.819.73a37.629,37.629,0,0,1,7.8,7.828c.634.85,2.388,2.443,1.471,3.743-.9,1.277-3.389,1.2-4.608,1.373-9.168,1.239-18.518,1.9-27.413.812a48.016,48.016,0,0,1-15.034-4.206C431.042,184.021,422.484,179.909,422.72,176.3Z" transform="translate(-397.473 -109.629)" fill="url(#linear-gradient-16)"/>
                    <path id="Trazado_1009242" data-name="Trazado 1009242" d="M430.719,204.03a2.728,2.728,0,0,0,1.386-1.273.385.385,0,0,0,.056-.158c5.062-19.3,5.79-38.265-1.54-51.087a25.6,25.6,0,0,0-7.417-8.191c-.879-.612-2.321-2.521-4.384-.948-2.036,1.558-2.73,4.829-3.278,6.46-4.19,12.354-5.243,24.119-3.071,33.672A32.789,32.789,0,0,0,419.582,197C420.8,198.447,427.247,205.381,430.719,204.03Z" transform="translate(-411.371 -141.766)" fill="url(#linear-gradient-17)"/>
                  </g>
                </g>
                <path id="Trazado_1009243" data-name="Trazado 1009243" d="M384.046,385.824a.511.511,0,0,1,.523-.109A337.436,337.436,0,0,1,440.3,408.276a218.7,218.7,0,0,1-8.8-33.97.67.67,0,0,1-.1-.044c-14.949-11.527-31.923-22.2-51.89-32.624a.951.951,0,0,1-.441-.854,1.106,1.106,0,0,1,.374-.966.476.476,0,0,1,.536-.011,353.044,353.044,0,0,1,51.158,32.321c-.661-4-1.253-8.011-1.7-12.061-.717-6.555-1.1-13.107-1.242-19.638a338.12,338.12,0,0,0-46.467-39.289.945.945,0,0,1-.316-.892,1.137,1.137,0,0,1,.51-.915h0a.518.518,0,0,1,.534.062v0a343.6,343.6,0,0,1,45.7,38.8,220.187,220.187,0,0,1,2.354-34.738c-.009-.011-.02-.011-.029-.022A357.42,357.42,0,0,0,391.6,255.977a.961.961,0,0,1-.142-.957c.094-.316.345-.725.661-.8a.527.527,0,0,1,.512.158,363.7,363.7,0,0,1,38.227,46.87,218.254,218.254,0,0,1,7.27-31.011A351.468,351.468,0,0,0,406.739,217.9a.958.958,0,0,1,0-.964c.142-.3.427-.672.783-.7a.523.523,0,0,1,.483.234v0a357.609,357.609,0,0,1,30.826,51.683,219.863,219.863,0,0,1,13.5-32.464c-.018-.038-.056-.051-.067-.1a378.949,378.949,0,0,0-21.066-58.176,1,1,0,0,1,.2-.986,1.117,1.117,0,0,1,.892-.534.517.517,0,0,1,.423.32,386.07,386.07,0,0,1,20.63,57.471c.182-.345.345-.7.53-1.039a218.435,218.435,0,0,1,16.765-26.6,378.721,378.721,0,0,0-11.585-60.893,1,1,0,0,1,.356-.943,1.155,1.155,0,0,1,.992-.4.509.509,0,0,1,.365.378,385.235,385.235,0,0,1,11.244,60.034,220.651,220.651,0,0,1,29.266-31.972.709.709,0,1,1,.919,1.026,219.988,219.988,0,0,0-29.211,31.87c18.369-3.52,36.87-.719,56.518,8.585a.635.635,0,0,1,.283.879.9.9,0,0,1-.432.434.694.694,0,0,1-.594,0c-19.882-9.306-38.543-11.945-57.048-8.071-.022,0-.033-.007-.051,0a215.883,215.883,0,0,0-17.012,27.183c17.306-5.863,35.768-5.668,56.4.632a.642.642,0,0,1,.412.841.846.846,0,0,1-.443.521.691.691,0,0,1-.485.031c-20.881-6.275-39.5-6.286-56.9-.04a216.633,216.633,0,0,0-13.516,32.628c16.037-8.83,34.251-11.838,55.706-9.2a.642.642,0,0,1,.554.754.813.813,0,0,1-.447.634.672.672,0,0,1-.367.056c-21.691-2.566-40.032.656-56.073,9.862-.029.016-.047.007-.073.018q-2.53,8.144-4.439,16.536c-1.05,4.622-1.918,9.259-2.666,13.905,14.435-10.81,31.905-16.335,53.39-16.845a.647.647,0,0,1,.665.668.79.79,0,0,1-.429.737.684.684,0,0,1-.269.06c-21.745.612-39.322,6.375-53.73,17.59a219.089,219.089,0,0,0-2.419,34.865c12.37-13.365,28.7-21.947,49.91-26.211a.644.644,0,0,1,.763.541.749.749,0,0,1-.55.9h0c-21.38,4.386-37.738,13.189-50.007,26.9a.58.58,0,0,1-.073.056,217.028,217.028,0,0,0,2.877,31.164c10.236-14.871,25.074-25.7,45.332-33a.624.624,0,0,1,.545.049.706.706,0,0,1,.294.376.747.747,0,0,1-.354.948c-.018.009-.036.013-.056.022-20.45,7.452-35.314,18.518-45.4,33.754a217.728,217.728,0,0,0,8.89,34.159c7.372-16.738,20.078-30.185,38.89-41.038a.656.656,0,0,1,.9.271.743.743,0,0,1-.236,1.03c-18.937,11.044-31.62,24.7-38.772,41.738-.007.018-.018.025-.027.042.708,1.965,1.42,3.93,2.185,5.881a216.716,216.716,0,0,0,10.85,23.32c4.689-17.584,15.154-32.758,32.048-46.307a.632.632,0,0,1,.926.127.752.752,0,0,1-.069,1.066c-17.03,13.787-27.444,29.2-31.852,47.112A218.967,218.967,0,0,0,484.559,481a.77.77,0,0,1,.069,1.113.557.557,0,0,1-.149.1.821.821,0,0,1-.948-.294,221.057,221.057,0,0,1-28.122-39.789c-.033-.007-.058.013-.091,0-18.3-6.513-37.364-11.277-60-15a.977.977,0,0,1-.7-.688,1.119,1.119,0,0,1,.049-1.039.519.519,0,0,1,.5-.178c22.317,3.767,41.135,8.516,59.113,14.9a217.236,217.236,0,0,1-13.238-29.716,332.347,332.347,0,0,0-56.614-22.793.943.943,0,0,1-.581-.757A1.126,1.126,0,0,1,384.046,385.824Z" transform="translate(-375.243 -139.302)" fill="url(#linear-gradient-20)"/>
              </g>
              <g id="Grupo_1198051" data-name="Grupo 1198051" transform="translate(102.579 132.323)">
                <path id="Trazado_1009244" data-name="Trazado 1009244" d="M302.143,327.771c6.413-30.181,7.621-60.929,9.691-91.608.024-.051.08-.047.1-.1,8.552-20.4,32.455-26.783,44.82-44.249,1.469-2.076-1.7-4.444-3.167-2.365-10.981,15.512-30.414,22.295-41.118,37.588,2.256-29.927,6.371-61.149,24.711-85.531a11.238,11.238,0,0,1-3.465-1.756c-17.292,23.271-22.357,52.738-24.745,81.265-2.975,35.552-3.32,71.316-10.763,106.348C297.686,329.841,301.618,330.239,302.143,327.771Z" transform="translate(-283.175 -122.704)" fill="url(#linear-gradient-21)"/>
                <path id="Trazado_1009245" data-name="Trazado 1009245" d="M319.715,150.888c4.442,1.362,9.662.042,11.845-5.539,4.631-11.836-13.758-19.052-18.4-7.2a9.013,9.013,0,0,0,3.086,10.979A11.238,11.238,0,0,0,319.715,150.888Z" transform="translate(-265.702 -132.089)" fill="url(#linear-gradient-22)"/>
                <path id="Trazado_1009246" data-name="Trazado 1009246" d="M314.8,150.23c-4.631,11.838,13.759,19.052,18.4,7.2C337.822,145.59,319.435,138.374,314.8,150.23Z" transform="translate(-263.706 -117.292)" fill="url(#linear-gradient-23)"/>
                <path id="Trazado_1009247" data-name="Trazado 1009247" d="M315.569,159.43c4.631-11.838-13.759-19.052-18.4-7.2C292.543,164.072,310.932,171.286,315.569,159.43Z" transform="translate(-285.299 -114.837)" fill="url(#linear-gradient-24)"/>
                <path id="Trazado_1009248" data-name="Trazado 1009248" d="M316.059,179.321l-.24.612c-4.631,11.838,13.758,19.052,18.4,7.2l.24-.612C339.085,174.679,320.7,167.465,316.059,179.321Z" transform="translate(-262.455 -81.649)" fill="url(#linear-gradient-25)"/>
                <path id="Trazado_1009249" data-name="Trazado 1009249" d="M307.091,187.649l-.165.421c-3.18,8.131,9.451,13.089,12.637,4.942l.165-.421C322.91,184.46,310.277,179.5,307.091,187.649Z" transform="translate(-273.065 -69.12)" fill="url(#linear-gradient-26)"/>
                <path id="Trazado_1009250" data-name="Trazado 1009250" d="M309.761,165.781l-.165.421c-3.18,8.131,9.45,13.089,12.637,4.942l.165-.421C325.578,162.592,312.947,157.635,309.761,165.781Z" transform="translate(-269.793 -95.914)" fill="url(#linear-gradient-27)"/>
                <path id="Trazado_1009251" data-name="Trazado 1009251" d="M292.936,165.743l-.165.421c-3.18,8.131,9.451,13.089,12.637,4.942l.165-.421C308.753,162.554,296.12,157.6,292.936,165.743Z" transform="translate(-290.408 -95.96)" fill="url(#linear-gradient-28)"/>
                <path id="Trazado_1009252" data-name="Trazado 1009252" d="M301.753,139.384l-.165.421c-3.18,8.131,9.45,13.089,12.637,4.942l.165-.421C317.57,136.2,304.937,131.24,301.753,139.384Z" transform="translate(-279.605 -128.254)" fill="url(#linear-gradient-29)"/>
                <path id="Trazado_1009253" data-name="Trazado 1009253" d="M310.566,187.657c4.631-11.836-13.758-19.052-18.4-7.2C287.54,192.3,305.927,199.515,310.566,187.657Z" transform="translate(-291.429 -80.252)" fill="url(#linear-gradient-30)"/>
                <path id="Trazado_1009254" data-name="Trazado 1009254" d="M321.314,163.564c-4.631,11.838,13.759,19.052,18.4,7.2C344.341,158.923,325.952,151.706,321.314,163.564Z" transform="translate(-255.721 -100.956)" fill="url(#linear-gradient-31)"/>
              </g>
              <g id="Grupo_1198052" data-name="Grupo 1198052" transform="translate(793.941 299.463)">
                <path id="Trazado_1009255" data-name="Trazado 1009255" d="M609.706,400.09c8.471-29.671,11.787-60.261,15.957-90.727.029-.049.085-.042.111-.094,9.933-19.767,34.217-24.491,47.753-41.066,1.609-1.969-1.386-4.548-3-2.577-12.021,14.72-31.874,20.154-43.6,34.676,4.306-29.7,10.552-60.566,30.526-83.633a11.28,11.28,0,0,1-3.338-1.989c-18.848,22.03-25.926,51.078-30.265,79.374-5.41,35.265-8.209,70.92-18.04,105.358C605.115,401.85,609.012,402.518,609.706,400.09Z" transform="translate(-597.701 -198.037)" fill="url(#linear-gradient-32)"/>
                <path id="Trazado_1009256" data-name="Trazado 1009256" d="M632.65,225.833c4.337,1.664,9.635.705,12.2-4.711,5.432-11.491-12.419-19.951-17.86-8.44a9.01,9.01,0,0,0,2.325,11.164A11.4,11.4,0,0,0,632.65,225.833Z" transform="translate(-572.896 -207.201)" fill="url(#linear-gradient-33)"/>
                <path id="Trazado_1009257" data-name="Trazado 1009257" d="M627.789,224.841c-5.432,11.491,12.419,19.951,17.86,8.443C651.078,221.79,633.229,213.33,627.789,224.841Z" transform="translate(-571.92 -192.303)" fill="url(#linear-gradient-34)"/>
                <path id="Trazado_1009258" data-name="Trazado 1009258" d="M627.928,234.072c5.432-11.491-12.419-19.951-17.86-8.443C604.637,237.12,622.488,245.581,627.928,234.072Z" transform="translate(-593.631 -191.336)" fill="url(#linear-gradient-35)"/>
                <path id="Trazado_1009259" data-name="Trazado 1009259" d="M627.073,253.941l-.28.594c-5.432,11.491,12.419,19.951,17.86,8.442l.28-.594C650.362,250.89,632.514,242.43,627.073,253.941Z" transform="translate(-573.141 -156.649)" fill="url(#linear-gradient-36)"/>
                <path id="Trazado_1009260" data-name="Trazado 1009260" d="M617.429,261.742l-.193.409c-3.732,7.893,8.529,13.705,12.268,5.8l.194-.409C633.428,259.648,621.165,253.836,617.429,261.742Z" transform="translate(-584.461 -144.988)" fill="url(#linear-gradient-37)"/>
                <path id="Trazado_1009261" data-name="Trazado 1009261" d="M621.593,240.11l-.194.409c-3.732,7.9,8.529,13.705,12.268,5.8l.193-.409C637.592,238.013,625.331,232.2,621.593,240.11Z" transform="translate(-579.359 -171.494)" fill="url(#linear-gradient-38)"/>
                <path id="Trazado_1009262" data-name="Trazado 1009262" d="M604.81,238.917l-.194.409c-3.732,7.893,8.529,13.705,12.268,5.8l.193-.409C620.809,236.821,608.549,231.008,604.81,238.917Z" transform="translate(-599.922 -172.956)" fill="url(#linear-gradient-39)"/>
                <path id="Trazado_1009263" data-name="Trazado 1009263" d="M615.416,213.226l-.193.409c-3.732,7.9,8.529,13.705,12.268,5.8l.194-.409C631.415,211.13,619.154,205.32,615.416,213.226Z" transform="translate(-586.927 -204.431)" fill="url(#linear-gradient-40)"/>
                <path id="Trazado_1009264" data-name="Trazado 1009264" d="M621,261.888c5.432-11.491-12.419-19.951-17.86-8.44C597.707,264.938,615.557,273.4,621,261.888Z" transform="translate(-602.122 -157.254)" fill="url(#linear-gradient-41)"/>
                <path id="Trazado_1009265" data-name="Trazado 1009265" d="M633.375,238.59c-5.432,11.491,12.419,19.951,17.86,8.443C656.666,235.541,638.815,227.079,633.375,238.59Z" transform="translate(-565.076 -175.457)" fill="url(#linear-gradient-42)"/>
              </g>
              <g id="Grupo_1198053" data-name="Grupo 1198053" transform="translate(377.972 346.585)">
                <path id="Trazado_1009266" data-name="Trazado 1009266" d="M480.9,469.013a244.6,244.6,0,0,0,11.88-40.379,398.81,398.81,0,0,0,6.76-50.8c1.522-18.845,2.121-39.914,3.4-64.242,1.375-24.366,3.042-52.15,10.04-85.215-16.7,21.22-30.029,44.954-40.457,69.8a422.864,422.864,0,0,0-23.558,77.206c-6.453,30.9-10.1,62.211-12.579,93.631H480.9Z" transform="translate(-389.217 -228.377)" fill="url(#linear-gradient-43)"/>
                <path id="Trazado_1009267" data-name="Trazado 1009267" d="M420.025,469.011h42.33c2.483-31.422,6.126-62.731,12.579-93.631a422.82,422.82,0,0,1,23.558-77.206c10.427-24.842,23.752-48.577,40.457-69.8-30.466,14.822-54.9,36.787-72.892,59.376a238.237,238.237,0,0,0-37.913,67.934A218.609,218.609,0,0,0,415.6,415.223a180.362,180.362,0,0,0,2.8,46.552C418.9,464.267,419.451,466.664,420.025,469.011Z" transform="translate(-415.188 -228.376)" fill="url(#linear-gradient-44)"/>
              </g>
              <g id="Grupo_1198054" data-name="Grupo 1198054" transform="translate(43.254 237.681)">
                <path id="Trazado_1009268" data-name="Trazado 1009268" d="M327.207,539.661s.474-2.13.952-6.037c.24-1.951.49-4.337.7-7.09s.643-6.039.879-9.548c.18-3.476.61-7.446.919-11.662.185-4.141.75-8.823.984-13.625.783-9.8,1.469-20.766,2.138-33.476.652-12.719,1.266-27.206,1.5-44.264.031-8.482.176-17.739-.045-27.628-.1-10.011-.438-20.528-1.028-32.366-.612-11.778-1.6-24.455-3.269-38.054a389.323,389.323,0,0,0-7.724-43.412A277.525,277.525,0,0,0,307.56,225.32a194.248,194.248,0,0,0-27.922-45.882c10.543,28.912,14.213,59.856,14.858,90.518.663,30.748-1.549,61.463-2.853,92.18-1.284,30.695-1.266,61.616,3.4,92.04a237.1,237.1,0,0,0,11.126,44.66A172.441,172.441,0,0,0,327.207,539.661Z" transform="translate(-246.55 -179.434)" fill="url(#linear-gradient-45)"/>
                <path id="Trazado_1009269" data-name="Trazado 1009269" d="M345.425,539.664a39.639,39.639,0,0,1-5.866-1.493c-1.911-.61-4.272-1.46-7.063-2.661a75.913,75.913,0,0,1-9.179-5.018c-1.68-1.077-3.571-2.223-5.336-3.6s-3.632-2.871-5.561-4.526A103.36,103.36,0,0,1,300.6,510.362a140.613,140.613,0,0,1-22.083-37.495c-6.289-15.541-10.844-34.064-12.726-54.807a256.446,256.446,0,0,1-.863-32.682,333.066,333.066,0,0,1,3.293-35.23c3.425-24.03,9.424-49.229,15.85-76.626,3.184-13.743,6.458-28.1,9.108-43.577a300.294,300.294,0,0,0,4.673-50.51c10.543,28.912,14.213,59.856,14.858,90.518.663,30.748-1.549,61.463-2.853,92.18-1.284,30.695-1.266,61.616,3.4,92.04a237.1,237.1,0,0,0,11.126,44.66A172.656,172.656,0,0,0,345.425,539.664Z" transform="translate(-264.769 -179.436)" fill="url(#linear-gradient-46)"/>
              </g>
              <g id="Grupo_1198055" data-name="Grupo 1198055" transform="translate(313.07 444.299)">
                <path id="Trazado_1009270" data-name="Trazado 1009270" d="M478.711,272.289s35.178,60.219,15.554,106.737c-19.173,45.446-76.042,47.945-80.551,48.071q4.359-9.757,8.641-19.549l14.152-4.132c4.8-1.413,9.62-2.775,14.384-4.248,9.562-2.884,19.11-5.792,28.565-8.872-9.8,2.434-19.513,5.04-29.211,7.673-4.864,1.284-9.671,2.681-14.5,4.025L423.254,405.5c.656-1.5,1.32-3.006,1.976-4.51l7.029-16.407,13.974-4.081c4.818-1.42,9.664-2.788,14.451-4.266,9.606-2.9,19.2-5.817,28.7-8.91-9.847,2.448-19.6,5.067-29.344,7.71-4.887,1.291-9.715,2.695-14.571,4.043l-12.337,3.462,8.356-19.5.581-1.4,11.34-3.325c3.99-1.184,8.009-2.314,11.967-3.556,7.951-2.421,15.886-4.869,23.73-7.488-8.191,1.974-16.291,4.117-24.375,6.288-4.059,1.055-8.058,2.219-12.085,3.331l-9.733,2.721,8.649-20.819c6.177-1.791,12.35-3.585,18.463-5.5,6.28-1.943,12.544-3.912,18.719-6.053-6.52,1.5-12.949,3.16-19.364,4.853-5.694,1.484-11.335,3.069-16.972,4.66l4.922-11.849,3.632-8.939c3.6-1.044,7.185-2.1,10.714-3.269l5.4-1.8c1.767-.659,3.565-1.26,5.307-1.965-1.934.347-3.814.8-5.723,1.193l-5.634,1.36c-3.113.757-6.182,1.6-9.241,2.459l3.318-8.164,7.581-19.206-8.467,18.832-3.687,8.429c-1.573-2.879-3.155-5.754-4.844-8.6-1.9-3.238-3.825-6.467-5.937-9.642,1.413,3.376,3.008,6.7,4.635,10.016,1.6,3.322,3.344,6.6,5.085,9.887l.185.347-3.709,8.478-5.2,12.152c-2.888-5.332-5.788-10.661-8.8-15.957l-4.929-8.654c-1.7-2.866-3.351-5.75-5.109-8.6,1.371,2.962,2.851,5.895,4.272,8.841l4.453,8.79c2.973,5.859,6.077,11.68,9.186,17.5l.06.114L441,359.228l-5.14-9.417c-2.016-3.661-3.968-7.341-6.046-10.982l-6.164-10.948c-2.116-3.632-4.175-7.281-6.344-10.9,1.782,3.727,3.674,7.423,5.505,11.137l5.688,11.086c1.871,3.7,3.872,7.368,5.806,11.053l5.828,11-.438,1.026L431.4,382.242l-6.426-11.8c-2.423-4.419-4.784-8.856-7.27-13.258l-7.388-13.224c-2.526-4.39-4.991-8.8-7.568-13.173,2.19,4.486,4.488,8.941,6.729,13.414l6.912,13.36c2.279,4.462,4.686,8.885,7.029,13.327l7.074,13.314.056.1-6.694,16.113c-.67,1.64-1.331,3.287-2,4.929l-6.5-11.949c-2.412-4.4-4.762-8.816-7.236-13.2l-7.357-13.164c-2.515-4.37-4.969-8.756-7.535-13.113,2.179,4.466,4.468,8.9,6.7,13.351l6.878,13.3c2.267,4.442,4.664,8.845,7,13.267l7.041,13.253.176.329q-3.952,9.71-7.822,19.457c-3.053-3.318-40.951-45.8-21.776-91.241C411.029,289.116,478.711,272.289,478.711,272.289Z" transform="translate(-386.022 -272.289)" fill="url(#linear-gradient-47)"/>
                <path id="Trazado_1009271" data-name="Trazado 1009271" d="M416.867,399.215l-7.041-13.253c-2.332-4.422-4.729-8.825-7-13.267l-6.878-13.3c-2.23-4.45-4.519-8.885-6.7-13.351,2.566,4.355,5.022,8.743,7.535,13.113l7.357,13.164c2.477,4.381,4.824,8.8,7.236,13.2l6.5,11.949c.67-1.642,1.331-3.287,2-4.929l6.693-16.113-.056-.1-7.074-13.314c-2.343-4.442-4.751-8.868-7.029-13.327l-6.912-13.36c-2.241-4.47-4.539-8.925-6.729-13.414,2.577,4.375,5.042,8.783,7.568,13.173l7.388,13.224c2.486,4.4,4.846,8.839,7.27,13.258l6.426,11.8,8.289-19.956.438-1.026-5.828-11c-1.934-3.685-3.934-7.35-5.806-11.053l-5.688-11.086c-1.834-3.714-3.725-7.41-5.505-11.137,2.169,3.616,4.228,7.265,6.344,10.9l6.164,10.948c2.078,3.643,4.03,7.321,6.046,10.982l5.14,9.417,8.872-20.715-.06-.114c-3.109-5.819-6.213-11.64-9.186-17.5l-4.453-8.79c-1.422-2.948-2.9-5.879-4.272-8.841,1.758,2.851,3.4,5.734,5.109,8.6l4.929,8.654c3.013,5.3,5.91,10.625,8.8,15.957l5.2-12.152,3.709-8.478-.185-.347c-1.74-3.282-3.48-6.567-5.085-9.887-1.627-3.316-3.222-6.638-4.635-10.016,2.112,3.175,4.041,6.4,5.937,9.642,1.691,2.846,3.271,5.721,4.844,8.6l3.687-8.429,8.467-18.832-7.581,19.206-3.318,8.164c3.06-.857,6.128-1.7,9.241-2.459l5.634-1.36c1.909-.4,3.79-.846,5.723-1.193-1.742.705-3.54,1.308-5.307,1.965l-5.4,1.8c-3.529,1.168-7.119,2.225-10.714,3.269l-3.632,8.939-4.922,11.849c5.636-1.591,11.277-3.175,16.972-4.66,6.415-1.691,12.842-3.358,19.364-4.853-6.173,2.141-12.439,4.11-18.719,6.053-6.11,1.911-12.285,3.7-18.463,5.5l-8.649,20.819,9.733-2.721c4.028-1.113,8.026-2.279,12.085-3.331,8.084-2.17,16.184-4.315,24.375-6.288-7.844,2.619-15.779,5.067-23.73,7.488-3.959,1.242-7.977,2.372-11.967,3.556l-11.34,3.325-.581,1.4-8.356,19.5,12.337-3.462c4.855-1.351,9.684-2.753,14.571-4.043,9.742-2.646,19.5-5.263,29.344-7.71-9.5,3.093-19.092,6.015-28.7,8.91-4.786,1.48-9.633,2.846-14.451,4.266l-13.974,4.081-7.029,16.407c-.654,1.5-1.32,3.006-1.976,4.51l12.488-3.507c4.833-1.344,9.64-2.739,14.5-4.025,9.7-2.632,19.408-5.238,29.21-7.673-9.455,3.08-19,5.988-28.565,8.872-4.764,1.473-9.589,2.835-14.384,4.248l-14.152,4.132q-4.279,9.793-8.641,19.549l-.316.009-.216-.234q3.872-9.746,7.822-19.457Z" transform="translate(-382.062 -264.418)" fill="#2b2438"/>
              </g>
              <g id="Grupo_1198056" data-name="Grupo 1198056" transform="translate(235.874 400.331)">
                <path id="Trazado_1009272" data-name="Trazado 1009272" d="M407.579,252.53s3.253,3.531,8.078,9.646c2.39,3.055,5.252,6.756,8.316,10.968,3.029,4.212,6.324,8.943,9.66,14.075a234.345,234.345,0,0,1,18.852,34.876c5.4,12.786,9.417,26.5,10.485,41a101.693,101.693,0,0,1-4.395,38.109,111.667,111.667,0,0,1-6.313,15.928,126.712,126.712,0,0,1-7.721,13.792A140.277,140.277,0,0,1,420.011,460.1l-2.247-13.08L415.7,433.91q4.77-6.619,9.564-13.069l9.929-13.011c6.658-8.6,13.387-17,20.14-25.3-7.379,7.826-14.4,16-21.331,24.417-3.451,4.181-6.785,8.5-10.163,12.846l-8.529,11.366-.859-6.053c-.572-3.649-1.01-7.314-1.5-10.975s-.948-7.323-1.346-10.995c3.293-4.224,6.56-8.389,9.953-12.51l10.479-12.655c7-8.362,14.155-16.518,21.222-24.573-7.661,7.552-15.123,15.474-22.366,23.643-3.7,4.063-7.163,8.262-10.712,12.484q-4.513,5.381-8.89,10.877-1.479-13.081-2.47-26.211l-.165-1.871c2.757-3.318,5.645-6.609,8.471-9.858l9.037-10.22,9.057-10.074,9.088-9.956c-6.6,6.088-13.009,12.481-19.253,19.052-3.191,3.262-6.222,6.653-9.266,10.04l-7.37,8.3-.979-13.954c-.238-4.657-.543-9.31-.725-13.97l14.439-15.47q7.377-7.807,14.76-15.617c-5.458,4.657-10.69,9.564-15.837,14.6-4.631,4.448-9.048,9.059-13.465,13.759l-.3-7.957-.167-7.962c-.133-3.99-.182-7.982-.209-11.976,2.922-2.926,5.777-5.832,8.649-8.8l4.355-4.531c1.4-1.553,2.851-3.049,4.208-4.626-1.669,1.259-3.251,2.621-4.88,3.941l-4.738,4.141c-2.63,2.31-5.149,4.72-7.624,7.167-.065-3.647,0-7.294.016-10.941-.031-4.272.025-8.547.107-12.82.042-4.275.162-8.547.323-12.82-.32,4.264-.6,8.532-.8,12.8-.243,4.27-.458,8.543-.587,12.817-.107,3.812-.238,7.621-.254,11.435-2.575-2.548-5.14-5.114-7.744-7.617-2.955-2.862-5.937-5.73-9.068-8.483,2.555,3.318,5.263,6.458,8,9.537,2.69,3.1,5.621,6.055,8.48,8.979l.3.309c-.06,3.836-.087,7.67-.04,11.507.031,5.481.16,10.959.343,16.438L390.3,325.718l-8.029-7.61-8.051-7.612c2.419,2.844,4.9,5.57,7.381,8.32l7.648,8.011c5.06,5.287,10.439,10.354,15.708,15.318l.1.1.612,14,.872,13.99-8.941-7.744-10.4-9.237c-3.462-3.086-6.963-6.215-10.4-9.386l-10.4-9.479c3.207,3.494,6.5,6.847,9.746,10.214l10.042,9.8c3.307,3.249,6.811,6.34,10.238,9.446,3.438,3.082,6.827,6.126,10.332,9.119l.111,1.382q1.142,13.392,2.771,26.736-5.861-4.563-11.594-9.284c-4.321-3.523-8.645-7.159-12.933-10.75-4.284-3.614-8.647-7.281-12.875-11.017l-12.86-11.224c4.017,4.106,8.16,8.046,12.23,11.983,4.134,3.879,8.365,7.69,12.535,11.447,4.139,3.781,8.529,7.37,12.777,10.966s8.627,7.094,12.955,10.55l.1.08c.421,3.594.9,7.176,1.422,10.757s.977,7.167,1.567,10.737l1.073,6.527q-6.048-4.383-12.119-8.91L388.635,412.77c-4.433-3.418-8.814-6.9-13.231-10.441-4.477-3.48-8.767-7.09-13.224-10.645,4.177,3.919,8.347,7.684,12.635,11.429,4.315,3.687,8.556,7.323,12.913,10.884,4.344,3.585,8.741,6.994,13.135,10.4q6.662,5.077,13.3,9.976l.332.245,2.343,12.824,2.606,12.771a104.618,104.618,0,0,1-33.318-19.751,108.483,108.483,0,0,1-11.7-11.976,102.521,102.521,0,0,1-10.552-15.459,101.5,101.5,0,0,1-12.252-41.908,119.566,119.566,0,0,1,6.678-47.675,155.5,155.5,0,0,1,19.544-38.074,165.74,165.74,0,0,1,10.855-14.041c3.478-4.068,6.716-7.51,9.553-10.289C403.878,255.478,407.579,252.53,407.579,252.53Z" transform="translate(-351.331 -252.53)" fill="url(#linear-gradient-48)"/>
                <path id="Trazado_1009273" data-name="Trazado 1009273" d="M409.731,423.776q-6.636-4.9-13.3-9.976c-4.395-3.4-8.792-6.814-13.135-10.4-4.357-3.56-8.6-7.2-12.913-10.884-4.288-3.743-8.456-7.508-12.635-11.429,4.457,3.556,8.747,7.165,13.224,10.645,4.419,3.538,8.8,7.023,13.231,10.441l13.287,10.174c4.034,3.02,8.086,5.988,12.119,8.91l-1.073-6.527c-.59-3.569-1.057-7.156-1.567-10.737s-1-7.165-1.422-10.757l-.1-.08c-4.326-3.456-8.7-6.965-12.955-10.55s-8.638-7.185-12.777-10.966c-4.172-3.756-8.4-7.568-12.535-11.447-4.07-3.936-8.213-7.88-12.23-11.983l12.86,11.224c4.228,3.736,8.592,7.4,12.875,11.017,4.288,3.591,8.612,7.227,12.933,10.75q5.731,4.72,11.593,9.284-1.642-13.338-2.77-26.736l-.111-1.382c-3.5-3-6.892-6.039-10.332-9.119-3.427-3.106-6.932-6.2-10.238-9.446l-10.042-9.8c-3.247-3.365-6.54-6.72-9.746-10.214l10.4,9.479c3.436,3.171,6.936,6.3,10.4,9.386l10.4,9.237,8.941,7.744-.872-13.99-.612-14-.1-.1c-5.267-4.964-10.648-10.031-15.708-15.318l-7.648-8.011c-2.483-2.748-4.964-5.474-7.381-8.32l8.051,7.612,8.029,7.61L400.551,328.9c-.182-5.478-.309-10.957-.343-16.438-.044-3.836-.018-7.673.04-11.507l-.3-.309c-2.859-2.922-5.79-5.879-8.48-8.979-2.733-3.08-5.441-6.217-8-9.537,3.131,2.753,6.113,5.623,9.068,8.483,2.6,2.5,5.169,5.069,7.744,7.617.016-3.814.147-7.624.254-11.435.129-4.277.345-8.547.587-12.817.2-4.272.483-8.538.8-12.8-.16,4.272-.28,8.545-.323,12.82-.082,4.272-.138,8.545-.107,12.82-.02,3.647-.08,7.294-.016,10.941,2.474-2.448,5-4.858,7.624-7.167l4.737-4.141c1.629-1.32,3.211-2.679,4.88-3.941-1.36,1.578-2.808,3.073-4.208,4.626l-4.355,4.531c-2.875,2.971-5.728,5.875-8.649,8.8.027,3.992.076,7.984.209,11.976l.167,7.962.3,7.957c4.417-4.7,8.836-9.31,13.465-13.759,5.147-5.031,10.376-9.938,15.837-14.6l-14.76,15.617-14.44,15.47c.182,4.66.487,9.315.725,13.97l.979,13.954,7.37-8.3c3.042-3.387,6.075-6.778,9.266-10.04,6.244-6.571,12.653-12.964,19.253-19.052l-9.088,9.956-9.057,10.074-9.037,10.22c-2.826,3.249-5.714,6.54-8.471,9.858l.165,1.871q1,13.124,2.47,26.211,4.362-5.494,8.89-10.877c3.549-4.221,7.009-8.42,10.712-12.484,7.241-8.169,14.7-16.091,22.366-23.643-7.067,8.055-14.219,16.211-21.222,24.573l-10.479,12.655c-3.393,4.123-6.66,8.287-9.953,12.51q.6,5.507,1.346,10.995c.49,3.66.93,7.325,1.5,10.975l.859,6.053,8.529-11.366c3.378-4.344,6.711-8.665,10.163-12.846,6.932-8.42,13.952-16.591,21.331-24.417-6.751,8.3-13.483,16.7-20.141,25.3l-9.929,13.011q-4.793,6.449-9.564,13.069l2.063,13.107,2.247,13.08-.254.216-.314-.1-2.606-12.771-2.343-12.824Z" transform="translate(-346.896 -241.938)" fill="#2b2438"/>
              </g>
              <g id="Grupo_1198072" data-name="Grupo 1198072" transform="translate(464.552 97.839)">
                <path id="Trazado_1009274" data-name="Trazado 1009274" d="M725.17,477.677c-38.41,38.41-178.868,38.41-217.277,0-53.744-53.744,2.283-324.457,2.283-324.457l212.963,1.2S778.914,423.934,725.17,477.677Z" transform="translate(-416.743 -71.715)" fill="#0d47ae"/>
                <g id="Grupo_1198071" data-name="Grupo 1198071">
                  <g id="Grupo_1198070" data-name="Grupo 1198070">
                    <g id="Grupo_1198068" data-name="Grupo 1198068">
                      <g id="Grupo_1198065" data-name="Grupo 1198065" transform="translate(0 9.305)">
                        <g id="Grupo_1198061" data-name="Grupo 1198061" transform="translate(0.002)">
                          <g id="Grupo_1198060" data-name="Grupo 1198060">
                            <g id="Grupo_1198057" data-name="Grupo 1198057" transform="translate(0 265.743)">
                              <path id="Trazado_1009275" data-name="Trazado 1009275" d="M844.434,372.119c-12.486-22.259-51.307-31.487-89.714-58.632s-53.608-37.459-50.893-73.29h-99.89c2.715,35.831-12.486,46.144-50.893,73.29s-77.229,36.373-89.714,58.632-8.687,73.29-8.687,73.29H853.121S856.919,394.376,844.434,372.119Z" transform="translate(-454.098 -240.197)" fill="#ffbe8f"/>
                              <path id="Trazado_1009276" data-name="Trazado 1009276" d="M510.479,294.006c47.613-26.905,58.93,19.482,130.727-19.117-5.541-9.168-7.6-19.68-6.46-34.691h-99.89C536.821,266.151,529.327,278.732,510.479,294.006Z" transform="translate(-385.018 -240.196)" fill="#cbb8e1"/>
                            </g>
                            <g id="Grupo_1198059" data-name="Grupo 1198059" transform="translate(87.05)">
                              <g id="Grupo_1198058" data-name="Grupo 1198058" transform="translate(0 143.389)">
                                <path id="Trazado_1009277" data-name="Trazado 1009277" d="M505.729,189.124c-2.962-2.626-6.144-5.89-9.511-1.985-4.045,4.691-3.064,13.986-2.359,19.553,1.5,11.9,8.242,29.616,23.14,26.87C517.324,234,506.332,188.913,505.729,189.124Z" transform="translate(-493.218 -185.061)" fill="#ffbe8f"/>
                                <path id="Trazado_1009278" data-name="Trazado 1009278" d="M595.194,189.044c3-2.655,6.213-5.957,9.62-2.007,4.092,4.744,3.1,14.143,2.385,19.773-1.52,12.041-8.336,29.952-23.4,27.174C583.468,234.423,594.585,188.83,595.194,189.044Z" transform="translate(-382.246 -185.212)" fill="#ffbe8f"/>
                              </g>
                              <path id="Trazado_1009279" data-name="Trazado 1009279" d="M497.4,242.661c0-57.117,30.13-121.887,103.42-121.887,81.432,0,103.419,64.77,103.419,121.887s-30.13,170.459-103.419,170.459C526.718,413.119,497.4,299.778,497.4,242.661Z" transform="translate(-488.089 -120.774)" fill="#ffbe8f"/>
                            </g>
                          </g>
                        </g>
                        <g id="Grupo_1198064" data-name="Grupo 1198064" transform="translate(0 326.033)">
                          <path id="Trazado_1009280" data-name="Trazado 1009280" d="M844.435,338.923c-12.486-22.259-51.307-31.487-89.714-58.632-6.769-4.784-12.779-9.028-18.136-13,0,0-26.3,50.143-88.37,50.457-52.224.265-77.037-50.457-77.037-50.457-5.356,3.97-11.366,8.216-18.135,13-38.407,27.143-77.229,36.373-89.714,58.632s-8.687,73.29-8.687,73.29H853.12S856.92,361.18,844.435,338.923Z" transform="translate(-454.097 -267.291)" fill="#fff"/>
                          <g id="Grupo_1198063" data-name="Grupo 1198063" transform="translate(0 13)">
                            <g id="Grupo_1198062" data-name="Grupo 1198062">
                              <path id="Trazado_1009281" data-name="Trazado 1009281" d="M844.435,331.765c-12.486-22.259-51.307-31.487-89.714-58.632-41.409,72.667-164.644,77.7-201.679,0-38.407,27.143-77.229,36.373-89.714,58.632s-8.687,73.29-8.687,73.29H853.12S856.92,354.022,844.435,331.765Z" transform="translate(-454.097 -273.133)" fill="url(#linear-gradient-49)"/>
                            </g>
                          </g>
                        </g>
                      </g>
                      <g id="Grupo_1198067" data-name="Grupo 1198067" transform="translate(91.145)">
                        <g id="Grupo_1198066" data-name="Grupo 1198066">
                          <path id="Trazado_1009282" data-name="Trazado 1009282" d="M709.576,260.263c.785-10.939.725-19.651,2.085-30.621a88.662,88.662,0,0,0-.024-22.085c-7.21-56.908-65.826-96.986-121.295-90.219-30.559,3.727-58.775,20.986-76.61,46-10.085,14.146-17.259,31.4-18.5,48.857-1.173,16.571,3.734,31.928,5.374,48.069h49.676l1.2-28.877,4.212,28.877H673.614l1.8-27.372,2.808,27.372h2.808l3.109-24.064,2.508,24.064h22.924Z" transform="translate(-495.056 -116.592)" fill="#0d47ae"/>
                        </g>
                      </g>
                    </g>
                    <g id="Grupo_1198069" data-name="Grupo 1198069" transform="translate(114.319 147.347)">
                      <path id="Trazado_1009283" data-name="Trazado 1009283" d="M639.854,182.809c-21.14,0-34.769,10.054-36.382,26.478-10.347-5.806-20.33-2.245-25.056.165-1.542-16.52-15.185-26.643-36.4-26.643-22.546,0-36.549,11.431-36.549,29.834a36.53,36.53,0,0,0,73.045,1.044c2.866-1.8,13.727-7.564,24.847.013a36.528,36.528,0,0,0,73.041-1.057C676.4,194.242,662.4,182.809,639.854,182.809ZM542.02,245.42a32.814,32.814,0,0,1-32.777-32.777c0-16.318,12.254-26.062,32.777-26.062s32.778,9.742,32.778,26.062A32.815,32.815,0,0,1,542.02,245.42Zm97.834,0a32.811,32.811,0,0,1-32.773-32.777c0-16.318,12.254-26.062,32.773-26.062s32.777,9.742,32.777,26.062A32.812,32.812,0,0,1,639.854,245.42Z" transform="translate(-505.471 -182.809)" fill="url(#linear-gradient-50)"/>
                      <path id="Trazado_1009284" data-name="Trazado 1009284" d="M539.943,184.505c-20.523,0-32.777,9.742-32.777,26.062a32.778,32.778,0,1,0,65.555,0C572.719,194.247,560.467,184.505,539.943,184.505Z" transform="translate(-503.394 -180.731)" fill="#53159b"/>
                      <path id="Trazado_1009285" data-name="Trazado 1009285" d="M554.026,186.5a35.4,35.4,0,0,0-3.932-1.306,4.079,4.079,0,0,1-1.119,1.963l-39.629,39.629c.552.9,1.182,1.742,1.816,2.581Q532.591,207.938,554.026,186.5Z" transform="translate(-500.723 -179.883)" fill="#fff" stroke="#fff" stroke-miterlimit="10" stroke-width="1" opacity="0.45" style="isolation: isolate"/>
                      <path id="Trazado_1009286" data-name="Trazado 1009286" d="M523.45,185.623c-8.156,2.922-13.619,8.345-15.8,15.8Z" transform="translate(-502.798 -179.361)" fill="#fff" stroke="#fff" stroke-miterlimit="10" stroke-width="1" opacity="0.45" style="isolation: isolate"/>
                      <path id="Trazado_1009287" data-name="Trazado 1009287" d="M546.218,184.879a57.027,57.027,0,0,0-6.5-.374c-.514,0-1,.033-1.5.044l-30.875,30.875a32.486,32.486,0,0,0,1.736,6.591Z" transform="translate(-503.174 -180.731)" fill="#fff" stroke="#fff" stroke-miterlimit="10" stroke-width="1" opacity="0.45" style="isolation: isolate"/>
                      <path id="Trazado_1009288" data-name="Trazado 1009288" d="M583.907,184.505c-20.521,0-32.773,9.742-32.773,26.062a32.775,32.775,0,1,0,65.551,0C616.685,194.247,604.433,184.505,583.907,184.505Z" transform="translate(-449.524 -180.731)" fill="#53159b"/>
                      <path id="Trazado_1009289" data-name="Trazado 1009289" d="M573.331,184.945c-12.982,2.61-20.91,10.361-22.121,21.914Q562.225,195.854,573.331,184.945Z" transform="translate(-449.43 -180.192)" fill="#fff" stroke="#fff" stroke-miterlimit="10" stroke-width="1" opacity="0.45" style="isolation: isolate"/>
                      <path id="Trazado_1009290" data-name="Trazado 1009290" d="M592.925,185.306a51.959,51.959,0,0,0-7.139-.768q-17.17,16.9-34.2,33.95a32.506,32.506,0,0,0,2.167,5.984Q573.345,204.889,592.925,185.306Z" transform="translate(-448.964 -180.691)" fill="#fff" stroke="#fff" stroke-miterlimit="10" stroke-width="1" opacity="0.45" style="isolation: isolate"/>
                      <path id="Trazado_1009291" data-name="Trazado 1009291" d="M599.084,186.6c-.278-.14-.525-.309-.81-.443l-43.6,43.6c.191.225.412.425.607.643Q577.183,208.5,599.084,186.6Z" transform="translate(-445.188 -178.712)" fill="#fff" stroke="#fff" stroke-miterlimit="10" stroke-width="1" opacity="0.45" style="isolation: isolate"/>
                    </g>
                  </g>
                </g>
              </g>
              <g id="Grupo_1198073" data-name="Grupo 1198073" transform="translate(42.182 578.007)">
                <rect id="Rectángulo_461348" data-name="Rectángulo 461348" width="851.806" height="28.004" transform="translate(0 0)" fill="#fff"/>
                <rect id="Rectángulo_461349" data-name="Rectángulo 461349" width="234.247" height="28.004" transform="translate(0 0.002)" fill="#b5f9fc"/>
              </g>
              <g id="Grupo_1198074" data-name="Grupo 1198074" transform="translate(371.977 206.671)">
                <circle id="Elipse_13661" data-name="Elipse 13661" cx="57.599" cy="57.599" r="57.599" transform="translate(0 81.458) rotate(-45)" fill="#0cebf3"/>
                <path id="Trazado_1009292" data-name="Trazado 1009292" d="M495.527,219.149l-26.807,15.476L441.912,250.1V188.194l26.807,15.479Z" transform="translate(-376.451 -137.695)" fill="#fff" stroke="#fff" stroke-miterlimit="10" stroke-width="1"/>
              </g>
              <g id="Grupo_1198077" data-name="Grupo 1198077" transform="translate(782.916 368.982)">
                <g id="Grupo_1198075" data-name="Grupo 1198075" transform="translate(0 140.178)">
                  <path id="Trazado_1009293" data-name="Trazado 1009293" d="M706.5,477.957s-1.653-.7-4.348-1.932c-2.713-1.219-6.569-2.891-11.055-4.522-4.486-1.651-9.631-3.2-15-4.778a153.786,153.786,0,0,1-16.978-5.8,80.211,80.211,0,0,1-20.428-12.6,114.8,114.8,0,0,1-12.757-12.37c-2.272-2.583-4.575-5.39-6.9-8.556-2.339-3.149-4.6-6.722-6.789-10.392A114.871,114.871,0,0,1,613.3,301.437a154.441,154.441,0,0,0,35.737,94.073c11,13.129,24.128,24.275,35.337,37.2a110.892,110.892,0,0,1,14.64,20.968A64.475,64.475,0,0,1,706.5,477.957Z" transform="translate(-597.168 -301.437)" fill="url(#linear-gradient-51)"/>
                  <path id="Trazado_1009294" data-name="Trazado 1009294" d="M697.615,477.956a26.26,26.26,0,0,0,3.772-3.022,37.571,37.571,0,0,0,7.906-10.9,51.148,51.148,0,0,0,4.942-21.042,72.29,72.29,0,0,0-5.278-28.583,105.01,105.01,0,0,0-17.17-28.26,131.209,131.209,0,0,0-10.879-11.5c-1.813-1.718-3.694-3.373-5.505-4.911-1.847-1.533-3.572-3.017-5.532-4.5-7.595-6.124-17.036-12.993-28.162-22.737-11.084-9.775-24.164-22.274-37.292-41.06a154.44,154.44,0,0,0,35.737,94.074c11,13.129,24.128,24.275,35.337,37.2a110.891,110.891,0,0,1,14.64,20.968A64.417,64.417,0,0,1,697.615,477.956Z" transform="translate(-588.287 -301.436)" fill="url(#linear-gradient-52)"/>
                </g>
                <g id="Grupo_1198076" data-name="Grupo 1198076" transform="translate(57.16)">
                  <path id="Trazado_1009295" data-name="Trazado 1009295" d="M685.1,550.478s-1.035-1.745-2.555-5.02c-1.54-3.273-3.649-8.091-6.066-14.063-4.893-11.936-11.05-28.6-18.81-46.133-1.974-4.424-4.012-8.661-6.3-13.638-2.316-4.98-4.88-10.605-7.693-17.225-2.842-6.676-5.935-14.293-9.079-23.423-1.557-4.546-3.117-9.444-4.575-14.8-1.4-5.354-2.786-10.995-3.805-16.792a211.986,211.986,0,0,1,.412-77.411,217.543,217.543,0,0,1,35.1-83.533,305.708,305.708,0,0,0,7.546,157.677c8,25.347,20.138,49.513,24.455,75.927C698.043,498.364,694.4,525.62,685.1,550.478Z" transform="translate(-622.855 -238.442)" fill="url(#linear-gradient-53)"/>
                  <path id="Trazado_1009296" data-name="Trazado 1009296" d="M667.513,550.478a38.083,38.083,0,0,0,5.178-2.314,64.76,64.76,0,0,0,13.323-9.446,82.591,82.591,0,0,0,16.771-21.471,101.43,101.43,0,0,0,11.921-38.559,121.556,121.556,0,0,0-.169-26.066,162.966,162.966,0,0,0-5.507-27,254.61,254.61,0,0,0-9.088-25.61c-3.454-8.311-6.707-15.719-10.314-23.906-7.139-16.364-15.16-34.96-23.314-57.293a501.431,501.431,0,0,1-22.172-80.371,305.708,305.708,0,0,0,7.546,157.677c8,25.347,20.138,49.513,24.455,75.927C680.457,498.364,676.812,525.62,667.513,550.478Z" transform="translate(-605.269 -238.442)" fill="url(#linear-gradient-54)"/>
                </g>
              </g>
            </g>
          </g>
        </g>
      </g>
      <g id="Grupo_1198084" data-name="Grupo 1198084" transform="translate(1207.109 88.701)">
        <g id="Grupo_1198082" data-name="Grupo 1198082" transform="translate(0 45.072)">
          <path id="Trazado_1009297" data-name="Trazado 1009297" d="M657.712,127.4l-2.835-8.16-8.245,2.864a26.523,26.523,0,0,0-8.046-9.148l3.818-7.886-7.775-3.765-3.8,7.851a26.56,26.56,0,0,0-12.159-.772l-2.877-8.282-8.16,2.835,2.864,8.244a26.521,26.521,0,0,0-9.148,8.046l-7.886-3.818-3.765,7.773,7.851,3.8a26.53,26.53,0,0,0-.772,12.159l-8.282,2.877,2.835,8.158,8.242-2.864a26.524,26.524,0,0,0,8.046,9.148l-3.818,7.886,7.773,3.765,3.8-7.853a26.53,26.53,0,0,0,12.159.772l2.877,8.282,8.16-2.835-2.864-8.242a26.524,26.524,0,0,0,9.148-8.046l7.886,3.818,3.765-7.773-7.853-3.8a26.558,26.558,0,0,0,.772-12.159ZM625.74,142.3a8.03,8.03,0,1,1,4.949-10.22A8.03,8.03,0,0,1,625.74,142.3Z" transform="translate(-588.494 -100.104)" fill="none" stroke="#fff" stroke-miterlimit="10" stroke-width="1"/>
        </g>
        <g id="Grupo_1198083" data-name="Grupo 1198083" transform="translate(58.839)">
          <path id="Trazado_1009298" data-name="Trazado 1009298" d="M702.688,122.146l-1.731-10.581-10.69,1.749a32.96,32.96,0,0,0-7.9-12.9l6.349-8.832-8.705-6.257-6.32,8.794a32.951,32.951,0,0,0-14.7-3.529l-1.758-10.741L646.652,81.58,648.4,92.27a32.958,32.958,0,0,0-12.9,7.9l-8.832-6.349-6.257,8.707,8.794,6.32a32.953,32.953,0,0,0-3.529,14.7l-10.741,1.758,1.731,10.581,10.69-1.749a32.96,32.96,0,0,0,7.9,12.9l-6.348,8.832,8.707,6.257,6.32-8.794a32.952,32.952,0,0,0,14.7,3.529l1.758,10.741,10.581-1.731-1.749-10.69a32.958,32.958,0,0,0,12.9-7.9l8.832,6.349,6.257-8.707-8.794-6.32a32.953,32.953,0,0,0,3.529-14.7ZM660.42,133.564a9.967,9.967,0,1,1,8.227-11.447A9.968,9.968,0,0,1,660.42,133.564Z" transform="translate(-614.936 -79.849)" fill="none" stroke="#fff" stroke-miterlimit="10" stroke-width="1"/>
        </g>
      </g>
      <g id="Grupo_1198105" data-name="Grupo 1198105" transform="translate(548.325 131.15)">
        <path id="Trazado_1009299" data-name="Trazado 1009299" d="M336.917,169.295c10.646-.616,21.794,1.84,30.41,8.187a21.964,21.964,0,0,1,8.055,10.97c1.5,4.769,1.635,9.753,2.454,14.633,1.451,8.641,10.692,11.338,15.419,17.844a18,18,0,0,1,3.124,6.974c.621,3.055.036,5.621-.8,8.543-1.206,4.235-1.315,7.557,1.671,11.017,3.522,4.081,7.1,7.69,7.646,13.4q.01.11.02.307a28.3,28.3,0,0,1-28.385,29.346H365.32a28.4,28.4,0,0,1-28.4-28.4V169.295Z" transform="translate(-237.948 -12.819)" fill="#0d47ae"/>
        <g id="Grupo_1198104" data-name="Grupo 1198104">
          <g id="Grupo_1198100" data-name="Grupo 1198100" transform="translate(0 152.086)">
            <path id="Trazado_1009300" data-name="Trazado 1009300" d="M423.232,229.767c5.648-7.2,10.327-13.54,13.006-17.243a7.605,7.605,0,0,0,6.923.995,16.051,16.051,0,0,0,3.516-1.825c.409-.276.812-.572,1.208-.881a7.529,7.529,0,0,0,2.138-.454,17.506,17.506,0,0,0,3.754-1.9c.145-.1.292-.2.438-.307a24.182,24.182,0,0,0,2.141,2.414,6.92,6.92,0,0,0,8.556,1.148,5,5,0,0,0,1.337-7.065c-.743-1.057-1.4-2.063-2.058-3.075-3.436-5.254-7.71-11.794-15.921-13.009-3.218-.474-6.947-.846-10.5.77A16.63,16.63,0,0,0,435.4,190.7c-.082.056-6.789,5.131-9.62,8.843l-.016-.016c-1.687,1.629-9.408,9.063-18.605,17.55Q415.4,223.172,423.232,229.767Z" transform="translate(-151.891 -141.68)" fill="#cbb8e1"/>
            <g id="Grupo_1198099" data-name="Grupo 1198099">
              <g id="Grupo_1198087" data-name="Grupo 1198087" transform="translate(95.001 60.992)">
                <g id="Grupo_1198086" data-name="Grupo 1198086">
                  <g id="Grupo_1198085" data-name="Grupo 1198085">
                    <path id="Trazado_1009301" data-name="Trazado 1009301" d="M341.291,245.708a276.653,276.653,0,0,0,162.8-51.027c6.769,8.814,10.993,19.751,9.956,29.994A278.756,278.756,0,0,1,336.8,278.628C333.325,266.42,335.51,255.541,341.291,245.708Z" transform="translate(-335.134 -194.681)" fill="url(#linear-gradient-55)"/>
                  </g>
                </g>
              </g>
              <g id="Grupo_1198096" data-name="Grupo 1198096" transform="translate(0 103.859)">
                <g id="Grupo_1198092" data-name="Grupo 1198092" transform="translate(0 174.146)">
                  <g id="Grupo_1198090" data-name="Grupo 1198090" transform="translate(0 218.354)">
                    <g id="Grupo_1198088" data-name="Grupo 1198088" transform="translate(141.455)">
                      <path id="Trazado_1009302" data-name="Trazado 1009302" d="M356.907,390.332h22.446l.452,34.8,37.96,13.36v7.092H356.01l2.926-7.092Z" transform="translate(-356.01 -390.332)" fill="#cbb8e1"/>
                      <path id="Trazado_1009303" data-name="Trazado 1009303" d="M379.8,405.972l37.96,13.36v7.092H356.01v-7.092l1.471-13.36Z" transform="translate(-356.01 -371.17)" fill="url(#linear-gradient-56)"/>
                    </g>
                    <g id="Grupo_1198089" data-name="Grupo 1198089">
                      <path id="Trazado_1009304" data-name="Trazado 1009304" d="M306.462,390.332h22.446l-12.673,34.8,37.96,13.36v7.092H292.441l2.928-7.092Z" transform="translate(-292.441 -390.332)" fill="#cbb8e1"/>
                      <path id="Trazado_1009305" data-name="Trazado 1009305" d="M316.235,405.972l37.96,13.36v7.092H292.441v-7.092l4.455-13.36Z" transform="translate(-292.441 -371.17)" fill="url(#linear-gradient-56)"/>
                    </g>
                  </g>
                  <g id="Grupo_1198091" data-name="Grupo 1198091" transform="translate(11.789)">
                    <path id="Trazado_1009306" data-name="Trazado 1009306" d="M339.124,315.821V292.2H390.56s12.261,70.172,10.915,219.954H375.442s-9.993-96.715-36.127-197.718h0C339.255,314.9,339.184,315.361,339.124,315.821Z" transform="translate(-247.033 -292.205)" fill="url(#linear-gradient-58)"/>
                    <path id="Trazado_1009307" data-name="Trazado 1009307" d="M340.161,292.2h58.379c-22.021,97.331-74.672,219.954-74.672,219.954H297.739S333.234,368.339,340.161,292.2Z" transform="translate(-297.739 -292.205)" fill="url(#linear-gradient-58)"/>
                    <path id="Trazado_1009308" data-name="Trazado 1009308" d="M356.117,292.2h14.3c-22.021,97.331-61.625,219.954-61.625,219.954h-7.394S349.189,368.339,356.117,292.2Z" transform="translate(-293.261 -292.205)" fill="url(#linear-gradient-58)"/>
                  </g>
                </g>
                <g id="Grupo_1198095" data-name="Grupo 1198095" transform="translate(14.509)">
                  <path id="Trazado_1009309" data-name="Trazado 1009309" d="M369.881,213.945h3.162q1.252,0,2.492.067c20.347,1.09,36.2,20.334,37.528,40.479.1,1.5,13,133.6,13,133.6H313.69l12.7-133.6c.677-22.548,18.24-39.373,41.213-40.49C368.362,213.965,369.12,213.945,369.881,213.945Z" transform="translate(-280.915 -213.945)" fill="url(#linear-gradient-61)"/>
                  <g id="Grupo_1198094" data-name="Grupo 1198094" transform="translate(0 13.196)">
                    <path id="Trazado_1009310" data-name="Trazado 1009310" d="M324.883,299.2c1.362-1.475,11.921-9.028,16.015-10.792.171-.076.349-.138.521-.211a169.711,169.711,0,0,0,13.732,16.829c.089-.009.178-.016.267-.022.2-.018.412-.022.616-.029s.394-.018.592-.013c.214,0,.429.022.643.038.189.013.378.022.567.044.223.027.447.073.67.116.178.033.358.058.536.1.236.056.47.136.705.209.165.051.329.091.492.151.265.1.525.22.785.34.131.06.265.109.4.176a11.811,11.811,0,0,1,1.166.679,15.236,15.236,0,0,1,3.963,3.816,13.259,13.259,0,0,1,.957,1.56,5.651,5.651,0,0,1,.665,2.615,6.7,6.7,0,0,1-.245,1.727l1.6,2.314c6.38,9.146-17.5,22.78-24.84,12.57l-3.164-4.588c-.34-.452-.677-.937-1-1.451l-.463-.67a3.439,3.439,0,0,1-.423-.879,12.244,12.244,0,0,1-1.549-4.7,6.532,6.532,0,0,1,.959-3.556A172.932,172.932,0,0,1,324.883,299.2Z" transform="translate(-267.201 -136.163)" fill="#cbb8e1"/>
                    <g id="Grupo_1198093" data-name="Grupo 1198093">
                      <path id="Trazado_1009311" data-name="Trazado 1009311" d="M355.76,219.875l-1.346,44.747c-12.953,14.591-22.871,29.894-22.074,45.82.728,7.437,31.44,43.728,52.086,67.489a35.666,35.666,0,0,1-24.836,17.4c-19.6-23.667-59.189-62.075-60.546-85.124C297.165,278.3,327.846,243.082,355.76,219.875Z" transform="translate(-298.961 -219.875)" fill="url(#linear-gradient-62)"/>
                      <path id="Trazado_1009312" data-name="Trazado 1009312" d="M337.952,239.984C325,254.575,315.082,269.878,315.878,285.8c.728,7.437,31.44,43.728,52.086,67.489,0,0-54.209-47.277-55.566-70.326C313.219,259.279,337.952,239.984,337.952,239.984Z" transform="translate(-282.498 -195.237)" fill="#c4fddb"/>
                    </g>
                  </g>
                </g>
              </g>
              <g id="Grupo_1198098" data-name="Grupo 1198098" transform="translate(41.257)">
                <g id="Grupo_1198097" data-name="Grupo 1198097">
                  <path id="Trazado_1009313" data-name="Trazado 1009313" d="M328.215,204.119a34.875,34.875,0,0,1,34.2-34.869c19.551-.374,35.555,16,35.555,35.555v22.987a31.991,31.991,0,0,1-31.994,31.99h-1.3v12.5a15.763,15.763,0,0,1-15.763,15.763h0a15.765,15.765,0,0,1-15.766-15.763V251.009a172.006,172.006,0,0,0-4.023-38.979A34.962,34.962,0,0,1,328.215,204.119Z" transform="translate(-289.866 -164.856)" fill="#cbb8e1"/>
                  <path id="Trazado_1009314" data-name="Trazado 1009314" d="M311.029,263.226c.545-5.71,4.123-9.321,7.646-13.4,2.986-3.46,2.877-6.782,1.671-11.017-.832-2.922-1.417-5.485-.8-8.543a18.017,18.017,0,0,1,3.124-6.974c4.726-6.507,13.968-9.2,15.416-17.844,1.037-6.171,1.5-12.539,4.094-18.318,7.715-17.181,33.356-22.4,50.132-18.768,18,3.894,30.924,20.559,30.924,38.857v7.263H379.012v50.132a33.663,33.663,0,0,1-33.663,33.663h-.69c-19.03,0-34.482-15.768-33.645-34.778C311.018,263.382,311.025,263.291,311.029,263.226Z" transform="translate(-310.981 -167.272)" fill="#0d47ae"/>
                </g>
                <path id="Trazado_1009315" data-name="Trazado 1009315" d="M341.1,192.442a7.714,7.714,0,0,1,5.06,1.914v11.729a7.765,7.765,0,1,1-5.06-13.643Z" transform="translate(-283.615 -136.432)" fill="#cbb8e1"/>
              </g>
            </g>
          </g>
          <g id="Grupo_1198103" data-name="Grupo 1198103" transform="translate(158.674)">
            <g id="Grupo_1198102" data-name="Grupo 1198102">
              <g id="Grupo_1198101" data-name="Grupo 1198101">
                <path id="Trazado_1009316" data-name="Trazado 1009316" d="M377.075,98.925H508.8a13.33,13.33,0,0,1,13.329,13.329V173.2A13.33,13.33,0,0,1,508.8,186.525H393.831l-14.317,30.285V186.525h-2.437A13.33,13.33,0,0,1,363.748,173.2V112.254A13.326,13.326,0,0,1,377.075,98.925Z" transform="translate(-363.748 -98.925)" fill="none" stroke="#fff" stroke-linecap="round" stroke-linejoin="round" stroke-width="1.378"/>
              </g>
              <line id="Línea_3639" data-name="Línea 3639" x2="107.202" transform="translate(24.947 25.737)" fill="none" stroke="#fff" stroke-linecap="round" stroke-linejoin="round" stroke-width="1.378"/>
              <line id="Línea_3640" data-name="Línea 3640" x2="107.202" transform="translate(24.947 43.984)" fill="none" stroke="#fff" stroke-linecap="round" stroke-linejoin="round" stroke-width="1.378"/>
            </g>
            <line id="Línea_3641" data-name="Línea 3641" x2="107.202" transform="translate(24.947 62.233)" fill="none" stroke="#fff" stroke-linecap="round" stroke-linejoin="round" stroke-width="1.378"/>
          </g>
        </g>
      </g>
      <g id="Grupo_1198117" data-name="Grupo 1198117" transform="translate(83.594 74.022)">
        <g id="Grupo_1198116" data-name="Grupo 1198116">
          <g id="Grupo_1198115" data-name="Grupo 1198115" transform="translate(0 152.136)">
            <g id="Grupo_1198107" data-name="Grupo 1198107">
              <path id="Trazado_1009323" data-name="Trazado 1009323" d="M0,0H130.692V27.953H0Z" transform="translate(168.621 0.863)" fill="#3ef989"/>
              <g id="Grupo_1198106" data-name="Grupo 1198106" transform="translate(168.621 47.624)">
                <rect id="Rectángulo_461351" data-name="Rectángulo 461351" width="157.067" height="7.637" fill="#051c46"/>
                <rect id="Rectángulo_461352" data-name="Rectángulo 461352" width="157.067" height="7.639" transform="translate(0 19.838)" fill="#051c46"/>
                <rect id="Rectángulo_461353" data-name="Rectángulo 461353" width="157.067" height="7.639" transform="translate(0 39.676)" fill="#051c46"/>
                <rect id="Rectángulo_461354" data-name="Rectángulo 461354" width="157.067" height="7.637" transform="translate(0 59.514)" fill="#051c46"/>
                <rect id="Rectángulo_461355" data-name="Rectángulo 461355" width="157.067" height="7.639" transform="translate(0 79.351)" fill="#051c46"/>
              </g>
              <rect id="Rectángulo_461356" data-name="Rectángulo 461356" width="138.155" height="138.155" fill="#53159b"/>
            </g>
            <g id="Grupo_1198109" data-name="Grupo 1198109" transform="translate(0 178.538)">
              <rect id="Rectángulo_461357" data-name="Rectángulo 461357" width="130.692" height="27.953" transform="translate(168.621 0.866)" fill="#3ef989"/>
              <g id="Grupo_1198108" data-name="Grupo 1198108" transform="translate(168.621 47.626)">
                <rect id="Rectángulo_461358" data-name="Rectángulo 461358" width="157.067" height="7.637" fill="#051c46"/>
                <rect id="Rectángulo_461359" data-name="Rectángulo 461359" width="157.067" height="7.639" transform="translate(0 19.836)" fill="#051c46"/>
                <rect id="Rectángulo_461360" data-name="Rectángulo 461360" width="157.067" height="7.639" transform="translate(0 39.674)" fill="#051c46"/>
                <rect id="Rectángulo_461361" data-name="Rectángulo 461361" width="157.067" height="7.637" transform="translate(0 59.511)" fill="#051c46"/>
                <rect id="Rectángulo_461362" data-name="Rectángulo 461362" width="157.067" height="7.639" transform="translate(0 79.349)" fill="#051c46"/>
              </g>
              <rect id="Rectángulo_461363" data-name="Rectángulo 461363" width="138.155" height="138.155" fill="#53159b"/>
            </g>
            <g id="Grupo_1198111" data-name="Grupo 1198111" transform="translate(0 357.079)">
              <rect id="Rectángulo_461364" data-name="Rectángulo 461364" width="130.692" height="27.953" transform="translate(168.621 0.863)" fill="url(#linear-gradient-63)"/>
              <g id="Grupo_1198110" data-name="Grupo 1198110" transform="translate(168.621 47.624)">
                <rect id="Rectángulo_461365" data-name="Rectángulo 461365" width="157.067" height="7.637" fill="#051c46"/>
                <rect id="Rectángulo_461366" data-name="Rectángulo 461366" width="157.067" height="7.639" transform="translate(0 19.838)" fill="#051c46"/>
                <rect id="Rectángulo_461367" data-name="Rectángulo 461367" width="157.067" height="7.639" transform="translate(0 39.676)" fill="#051c46"/>
                <rect id="Rectángulo_461368" data-name="Rectángulo 461368" width="157.067" height="7.639" transform="translate(0 59.514)" fill="#051c46"/>
                <rect id="Rectángulo_461369" data-name="Rectángulo 461369" width="157.067" height="7.639" transform="translate(0 79.351)" fill="#051c46"/>
              </g>
              <rect id="Rectángulo_461370" data-name="Rectángulo 461370" width="138.155" height="138.155" fill="#53159b"/>
            </g>
            <g id="Grupo_1198112" data-name="Grupo 1198112" transform="translate(41.494 43.572)">
              <path id="Trazado_1009317" data-name="Trazado 1009317" d="M102.241,188.343a27.141,27.141,0,1,1,27.141,27.141A27.14,27.14,0,0,1,102.241,188.343Z" transform="translate(-102.241 -161.202)" fill="#0cebf3"/>
              <path id="Trazado_1009318" data-name="Trazado 1009318" d="M136.313,181.43l-12.633,7.292-12.633,7.294V166.844l12.633,7.294Z" transform="translate(-91.45 -154.289)" fill="#0cebf3" stroke="#fff" stroke-miterlimit="10" stroke-width="1"/>
            </g>
            <g id="Grupo_1198113" data-name="Grupo 1198113" transform="translate(41.494 219.988)">
              <path id="Trazado_1009319" data-name="Trazado 1009319" d="M102.241,267.623a27.141,27.141,0,1,1,27.141,27.141A27.14,27.14,0,0,1,102.241,267.623Z" transform="translate(-102.241 -240.482)" fill="#0cebf3"/>
              <path id="Trazado_1009320" data-name="Trazado 1009320" d="M136.313,260.71,123.681,268l-12.633,7.292v-29.17l12.633,7.292Z" transform="translate(-91.45 -233.569)" fill="#0cebf3" stroke="#fff" stroke-miterlimit="10" stroke-width="1"/>
            </g>
            <g id="Grupo_1198114" data-name="Grupo 1198114" transform="translate(41.494 396.401)">
              <path id="Trazado_1009321" data-name="Trazado 1009321" d="M102.241,346.9a27.141,27.141,0,1,1,27.141,27.141A27.14,27.14,0,0,1,102.241,346.9Z" transform="translate(-102.241 -319.761)" fill="#0cebf3"/>
              <path id="Trazado_1009322" data-name="Trazado 1009322" d="M136.313,339.989l-12.633,7.292-12.633,7.294V325.4l12.633,7.294Z" transform="translate(-91.45 -312.848)" fill="#fff" stroke="#fff" stroke-miterlimit="10" stroke-width="1"/>
            </g>
          </g>
          <rect id="Rectángulo_461371" data-name="Rectángulo 461371" width="338.118" height="76.857" fill="#b5f9fc"/>
        </g>
        <line id="Línea_3642" data-name="Línea 3642" x2="284.239" transform="translate(26.402 37.951)" fill="none" stroke="#fff" stroke-linecap="round" stroke-linejoin="round" stroke-width="1.43"/>
      </g>
    </g>
  </g>
</svg>
