<svg xmlns="http://www.w3.org/2000/svg" width="154" height="154" viewBox="0 0 154 154">
  <g id="Grupo_1198594" data-name="Grupo 1198594" transform="translate(-1128.352 -3267.42)">
    <g id="Grupo_1197989" data-name="Grupo 1197989" transform="translate(818.293 -4103.58)">
      <circle id="Elipse_13624" data-name="Elipse 13624" cx="77" cy="77" r="77" transform="translate(310.059 7371)" fill="#fff"/>
    </g>
    <g id="Grupo_1198204" data-name="Grupo 1198204" transform="translate(809.09 3193.309)">
      <path id="Trazado_1009556" data-name="Trazado 1009556" d="M401.428,186.977v3.352c2.189,0,4.383-.034,6.576.009a5.03,5.03,0,0,1,4.863,3c1.638,3.6-.862,7.265-5,7.294-5.72.041-11.44.011-17.16.011-2.021,0-4.044.022-6.065-.006a5.286,5.286,0,0,1-5.525-5.18c.014-2.91,2.378-5.1,5.564-5.13,2.021-.021,4.042-.02,6.063-.037.087,0,.174-.07.344-.144v-3.173h-1.808q-18.417,0-36.834-.005c-3.466,0-5.975-1.6-7.051-4.574a8.231,8.231,0,0,1-.414-2.75q-.032-36.254-.012-72.508c0-3.426,2.11-5.568,5.517-5.569q45.784-.019,91.567,0a5.115,5.115,0,0,1,5.5,5.436q.021,36.4,0,72.8c0,4.357-2.958,7.153-7.488,7.159q-18.417.025-36.834.006Zm-5.1-81.91H351.057c-2.337,0-2.737.4-2.737,2.759q0,35.67,0,71.34c0,3.036,1.3,4.352,4.291,4.352q43.648,0,87.3,0c2.993,0,4.292-1.319,4.292-4.353q0-35.67,0-71.339c0-2.354-.4-2.758-2.739-2.758Zm-.221,92.076c3.846,0,7.692.006,11.538,0,1.58,0,2.282-.537,2.229-1.7-.062-1.386-1-1.633-2.156-1.631q-11.465.017-22.929,0c-1.16,0-2.094.243-2.155,1.632-.051,1.163.648,1.694,2.229,1.7C388.617,197.15,392.365,197.144,396.112,197.144Zm-1.5-10.084v3.184h3.328V187.06Z" transform="translate(0 0)"/>
      <path id="Trazado_1009557" data-name="Trazado 1009557" d="M412.586,196.393q-20.782,0-41.564,0c-2.6,0-2.86-.268-2.86-2.9q0-33,0-65.991c0-2.47.359-2.835,2.806-2.835q41.638,0,83.276,0c2.432,0,2.788.367,2.788,2.855q0,33.069,0,66.139c0,2.4-.327,2.736-2.734,2.736Q433.443,196.4,412.586,196.393ZM381.82,165.712v-1.745q0-13.245,0-26.49c0-2.061.456-2.517,2.515-2.518q10.948-.007,21.9,0c2.629,0,2.916.278,2.917,2.852q0,13.023,0,26.046v1.758c.437.046.675.087.914.095,4.209.132,5.973,1.934,5.981,6.12,0,1.309,0,2.618,0,4.033a15.833,15.833,0,0,1,2.273.019c1.287.205,1.818-.412,2.167-1.554.806-2.637,1.7-5.246,2.575-7.861,1.088-3.257,2.191-6.509,3.323-9.869l3.214,1.1L423.6,175.711c2.41.4,2.631.653,2.634,2.881,0,1.727.008,3.453,0,5.18-.01,1.868-.509,2.385-2.348,2.392-3.057.013-6.115,0-9.172,0H409.27V192.9h20.48c0-3.76,0-7.446,0-11.132,0-2.008.405-2.406,2.432-2.408q9.912-.007,19.824,0h1.584v-51.11h-81.98v64.623H375V191.16c0-6.709-.012-13.418.006-20.127a4.971,4.971,0,0,1,5.23-5.321C380.681,165.7,381.124,165.712,381.82,165.712Zm23.894,20.371V169.109h-4.992c-.042.676-.074,1.3-.122,1.932a4.717,4.717,0,0,1-2.4,4.007,1.763,1.763,0,0,0-1.006,1.874c.058,1.9.018,3.8.018,5.69h-3.465c0-2.04.058-4-.039-5.96a2.174,2.174,0,0,0-.837-1.475,5.137,5.137,0,0,1-2.469-4.448c0-.526-.043-1.051-.068-1.613h-5.015v16.967Zm47.884,6.847V182.813h-20.4v10.117ZM385.319,165.6h20.4v-6.717c-1.194,0-2.317-.046-3.435.009-2.886.141-3.6-.58-3.352-3.073.012-.118-.112-.249-.167-.362h-6.654c0,1.583.025,3.1-.007,4.611-.034,1.577-.588,2.112-2.169,2.133-1.515.02-3.031,0-4.61,0Zm3.308-6.8v-1.645q0-6.437,0-12.874c0-1.979.547-2.507,2.56-2.514,1.972-.007,3.945,0,5.917,0H405.7v-3.323H385.328V158.8Zm17.1,30.844H385.348v3.25h20.383ZM392.2,145.275v6.668h6.665c.038-.291.079-.483.086-.675.093-2.4.389-2.692,2.781-2.695q1.97,0,3.935,0v-3.3Zm-10.476,47.656V179.457h-3.278v13.474Zm41.087-10.29v-3.164H409.281v3.164Zm-13.568-6.876H412.6c0-1.361,0-2.63,0-3.9,0-2.516-.656-3.058-3.352-2.7Zm-27.5.017v-6.6c-2.143-.306-3.22.1-3.33,1.435-.138,1.69-.033,3.4-.033,5.168ZM402.374,152.1v3.173h3.316V152.1Zm-8.555,17c-.085,1.3-.373,2.549.944,3.14.472.212,1.516.128,1.695-.176a14.693,14.693,0,0,0,1.01-2.964Z" transform="translate(-16.336 -16.264)"/>
      <path id="Trazado_1009558" data-name="Trazado 1009558" d="M604.751,191.035a8.548,8.548,0,0,1-8.558,8.555,8.55,8.55,0,0,1,.024-17.1A8.469,8.469,0,0,1,604.751,191.035Zm-8.5,5.059a5.079,5.079,0,1,0,0-10.156,5.078,5.078,0,1,0,0,10.156Z" transform="translate(-170.9 -56.986)"/>
      <path id="Trazado_1009559" data-name="Trazado 1009559" d="M541.635,159.609H568.89v3.258H541.635Z" transform="translate(-138.49 -40.874)"/>
      <path id="Trazado_1009560" data-name="Trazado 1009560" d="M551.85,182.874v3.218H541.639v-3.218Z" transform="translate(-138.493 -57.256)"/>
      <path id="Trazado_1009561" data-name="Trazado 1009561" d="M551.846,205.91v3.24H541.627v-3.24Z" transform="translate(-138.484 -73.477)"/>
      <path id="Trazado_1009562" data-name="Trazado 1009562" d="M613.2,332.991v3.161H599.76v-3.161Z" transform="translate(-179.419 -162.963)"/>
    </g>
  </g>
</svg>
