<svg xmlns="http://www.w3.org/2000/svg" width="107" height="107" viewBox="0 0 107 107">
  <g id="Grupo_1198593" data-name="Grupo 1198593" transform="translate(-433 -1561)">
    <g id="Grupo_156312" data-name="Grupo 156312" transform="translate(144.332 -2887.437)">
      <path id="Elipse_5845" data-name="Elipse 5845" d="M53.5,0A53.5,53.5,0,1,1,0,53.5,53.5,53.5,0,0,1,53.5,0Z" transform="translate(288.668 4448.437)" fill="#e2e2e0"/>
    </g>
    <g id="Grupo_1198196" data-name="Grupo 1198196" transform="translate(254.454 1465.533)">
      <path id="Trazado_1009497" data-name="Trazado 1009497" d="M255.739,202.321a29.557,29.557,0,1,1,29.269-29.871A29.462,29.462,0,0,1,255.739,202.321Zm-.026-2.2a27.343,27.343,0,1,0-27.242-27.27A27.19,27.19,0,0,0,255.713,200.118Z" transform="translate(-23.588 -23.721)"/>
      <path id="Trazado_1009498" data-name="Trazado 1009498" d="M466.146,123.324c0-.891.024-1.65-.007-2.407-.03-.714-.55-.825-1.131-.824-1.864,0-3.729.025-5.592-.021a2.027,2.027,0,0,1-1.251-.439,1.016,1.016,0,0,1,.749-1.732c2.39-.051,4.79-.048,7.173.122a2.679,2.679,0,0,1,2.244,2.686c.043,1.13.027,2.263.016,3.395-.01,1.086-.336,1.4-1.446,1.429-.327.009-.654,0-1.188,0l3.626,5.2,3.528-5.045c-.146-.072-.223-.139-.3-.144-2.248-.128-2.248-.127-2.248-2.353,0-1.132.012-2.264,0-3.4a3.876,3.876,0,0,0-3.956-4.008c-2.3-.042-4.594-.018-6.891-.008-.8,0-1.553-.108-1.547-1.1.006-.973.732-1.124,1.544-1.118,2.264.015,4.527-.007,6.791.009a6.089,6.089,0,0,1,6.257,6.24c.013,1.125,0,2.25,0,3.511a18.3,18.3,0,0,1,2.256.024,1.788,1.788,0,0,1,1.234.572,1.589,1.589,0,0,1-.171,1.359c-1.787,2.646-3.627,5.256-5.471,7.862a1.126,1.126,0,0,1-2.035.014q-2.8-3.951-5.542-7.936c-.674-.982-.192-1.853,1-1.89C464.542,123.3,465.3,123.324,466.146,123.324Z" transform="translate(-208.889 0)"/>
      <path id="Trazado_1009499" data-name="Trazado 1009499" d="M200.48,377.962c-.912,0-1.672.023-2.43-.005-1.13-.043-1.615-.919-.976-1.853q2.76-4.035,5.6-8.017a1.115,1.115,0,0,1,1.98.022c1.865,2.633,3.718,5.275,5.527,7.946a1.465,1.465,0,0,1,.169,1.27,1.824,1.824,0,0,1-1.217.612,17.38,17.38,0,0,1-2.276.026,12.872,12.872,0,0,0,.05,2.468,1.37,1.37,0,0,0,1.053.728c1.727.078,3.46.034,5.191.037a6.355,6.355,0,0,1,.9.027c.633.092,1.155.456,1,1.106-.1.411-.607,1.026-.942,1.033-2.423.049-4.855.058-7.27-.113a2.622,2.622,0,0,1-2.163-2.542c-.058-1.262-.025-2.529-.026-3.794a1.066,1.066,0,0,1,1.118-1.146c.426-.037.858-.007,1.524-.007l-3.631-5.213-3.515,5.035c.113.09.134.122.16.125,2.376.262,2.376.262,2.376,2.65,0,1.032-.017,2.064.006,3.1a3.824,3.824,0,0,0,3.871,3.862c2.3.029,4.594.005,6.89.01,1.125,0,1.679.375,1.64,1.139-.053,1.016-.79,1.084-1.573,1.082-2.23-.007-4.461.018-6.691-.008-3.861-.045-6.322-2.554-6.341-6.433C200.476,380.109,200.48,379.114,200.48,377.962Z" transform="translate(0 -203.177)"/>
      <path id="Trazado_1009500" data-name="Trazado 1009500" d="M208.683,124.785l5.138-3.483-5.013-3.49c-.076.139-.15.214-.156.293-.141,2.244-.14,2.244-2.377,2.245-1.1,0-2.2-.019-3.3.006a3.833,3.833,0,0,0-3.962,3.978c-.03,2.163-.007,4.327-.009,6.491a6.175,6.175,0,0,1-.028.9c-.1.648-.5,1.127-1.138.956-.4-.108-.967-.639-.974-.99-.056-2.86-.152-5.734.071-8.58.219-2.793,2.9-4.869,5.992-4.963,1.095-.033,2.191-.005,3.462-.005,0-.813-.02-1.561,0-2.308.043-1.265.9-1.738,1.945-1.027q3.955,2.7,7.865,5.467c.923.651.925,1.457.008,2.085q-3.911,2.677-7.853,5.309c-1.1.736-1.923.276-1.968-1.067-.022-.664-.026-1.329-.045-1.994,0-.059-.057-.116-.088-.174-.027-.017-.052-.049-.079-.05-3.6-.194-3.023-.068-3.047,2.694-.013,1.431-.009,2.863,0,4.294,0,.766-.251,1.346-1.108,1.342s-1.1-.62-1.1-1.363c0-2-.032-3.995.008-5.992a3.1,3.1,0,0,1,3.278-3.253c.9-.018,1.8-.006,2.7,0,1.354.005,1.7.351,1.729,1.7C208.644,124.067,208.662,124.329,208.683,124.785Z" transform="translate(-0.01 -0.728)"/>
      <path id="Trazado_1009501" data-name="Trazado 1009501" d="M459.542,384.606a1.358,1.358,0,0,0,.227.1c3.506.164,3.009.178,3.03-2.7.01-1.4,0-2.8,0-4.2,0-.733.282-1.257,1.077-1.275s1.118.521,1.124,1.237c.016,2.065.056,4.132-.018,6.195a2.948,2.948,0,0,1-3.1,2.977c-.966.022-1.932.008-2.9,0-1.388,0-1.665-.286-1.689-1.706,0-.23,0-.461,0-.914l-5.205,3.6,4.981,3.465c.1-.083.183-.119.187-.161.2-2.337.2-2.337,2.6-2.337.933,0,1.865.005,2.8,0,2.714-.019,4.246-1.561,4.259-4.3.01-2.1,0-4.2,0-6.3,0-.3-.088-.694.065-.876.3-.362.737-.814,1.137-.834a1.3,1.3,0,0,1,.929.89,76.791,76.791,0,0,1-.119,8.879c-.283,2.747-2.955,4.659-5.973,4.743-1.095.031-2.191.005-3.427.005,0,.835.024,1.592-.005,2.346-.046,1.2-.91,1.688-1.894,1.019q-4.045-2.751-8.035-5.583a1.094,1.094,0,0,1-.014-1.92q4.038-2.85,8.127-5.629c.888-.6,1.733-.124,1.814.955.03.4.009.8.01,1.2S459.542,384.279,459.542,384.606Z" transform="translate(-201.823 -210.411)"/>
      <path id="Trazado_1009502" data-name="Trazado 1009502" d="M276.321,218.21a24.283,24.283,0,1,1,24.209-24.236A24.395,24.395,0,0,1,276.321,218.21Zm11.969-42.765c-.389.691-.745,1.321-1.1,1.952-.365.648-.843,1.085-1.612.652-.74-.416-.725-1.022-.331-1.7.377-.652.711-1.328,1.086-2.037a21.314,21.314,0,0,0-8.87-2.391c0,.75,0,1.44,0,2.13,0,.776-.21,1.457-1.115,1.471s-1.149-.647-1.151-1.433c0-.718,0-1.436,0-2.161-3.362.191-7.24,1.3-8.813,2.5.339.637.664,1.291,1.03,1.922.395.682.406,1.288-.335,1.7-.771.432-1.247-.009-1.612-.656-.352-.625-.707-1.249-1.059-1.87A19.954,19.954,0,0,0,257.954,182c.634.354,1.265.716,1.9,1.061s1.12.811.723,1.59c-.423.831-1.112.7-1.8.351-.643-.33-1.275-.682-1.987-1.065a21.1,21.1,0,0,0-2.382,8.893c.79,0,1.486.019,2.18-.005.811-.028,1.437.227,1.424,1.128-.012.838-.608,1.1-1.381,1.072-.725-.023-1.451,0-2.234,0a20.994,20.994,0,0,0,2.409,8.894c.74-.4,1.374-.762,2.024-1.091s1.31-.426,1.726.339-.014,1.247-.668,1.608-1.3.729-1.987,1.115a21.95,21.95,0,0,0,6.484,6.486c.411-.732.771-1.4,1.16-2.056.345-.577.826-.894,1.5-.533a1.048,1.048,0,0,1,.429,1.6c-.373.7-.748,1.39-1.148,2.133a21.348,21.348,0,0,0,8.865,2.412c0-.753,0-1.444,0-2.134,0-.779.218-1.455,1.121-1.464s1.144.655,1.145,1.439c0,.716,0,1.433,0,2.18a21.4,21.4,0,0,0,8.87-2.428c-.378-.712-.7-1.37-1.07-2-.4-.674-.44-1.28.293-1.712.757-.446,1.251-.037,1.622.618l1.124,1.978a21.9,21.9,0,0,0,6.475-6.526c-.693-.385-1.324-.746-1.965-1.089s-1.128-.8-.738-1.585c.415-.834,1.1-.72,1.791-.366.664.342,1.316.711,2.028,1.1a21.669,21.669,0,0,0,2.353-8.921c-.789,0-1.516-.018-2.242,0-.781.024-1.36-.257-1.366-1.089s.556-1.132,1.344-1.11c.75.021,1.5,0,2.288,0a21.615,21.615,0,0,0-2.39-8.9l-1.906,1.016c-.912.485-1.573.4-1.893-.283-.4-.852.118-1.284.8-1.644.631-.333,1.241-.7,1.9-1.078A21.923,21.923,0,0,0,288.291,175.445Z" transform="translate(-44.278 -44.872)"/>
      <path id="Trazado_1009503" data-name="Trazado 1009503" d="M342.049,222.738c0,1.43-.037,2.862.028,4.289a1.353,1.353,0,0,0,.595.951,4.228,4.228,0,0,1-3.38,7.749,1.084,1.084,0,0,0-.9.214c-1.14,1.068-2.239,2.181-3.337,3.292-.572.579-1.2.97-1.876.257-.627-.657-.275-1.262.283-1.808,1.094-1.069,2.194-2.134,3.23-3.256a1.359,1.359,0,0,0,.264-1.094,4.165,4.165,0,0,1,2.257-5.327c.549-.281.57-.637.569-1.115q-.01-3.941,0-7.883c0-.266-.011-.533.011-.8.056-.677.394-1.189,1.092-1.2a1.108,1.108,0,0,1,1.15,1.239c.027,1.5.008,2.993.008,4.49Zm-1.163,7.116a1.951,1.951,0,0,0-1.952,1.974,1.981,1.981,0,1,0,3.96-.056A1.953,1.953,0,0,0,340.885,229.854Z" transform="translate(-108.863 -82.77)"/>
    </g>
  </g>
</svg>
