<svg xmlns="http://www.w3.org/2000/svg" width="107" height="107" viewBox="0 0 107 107">
  <g id="Grupo_1198593" data-name="Grupo 1198593" transform="translate(-745 -1561)">
    <g id="Grupo_156312" data-name="Grupo 156312" transform="translate(456.332 -2887.437)">
      <path id="Elipse_5845" data-name="Elipse 5845" d="M53.5,0A53.5,53.5,0,1,1,0,53.5,53.5,53.5,0,0,1,53.5,0Z" transform="translate(288.668 4448.437)" fill="#e2e2e0"/>
    </g>
    <g id="Grupo_1198197" data-name="Grupo 1198197" transform="translate(449.06 1443.806)">
      <path id="Trazado_1009504" data-name="Trazado 1009504" d="M327.461,203.02c-2.145,0-4.178-.1-6.2.022-4.139.256-6.883-2.879-6.866-6.849.076-17.4.032-34.8.033-52.2,0-4.37,2.473-6.845,6.835-6.845h51.813c4.281,0,6.779,2.508,6.78,6.806q0,12.687,0,25.374v1.287c1.024,0,1.982-.016,2.94,0,1.149.023,1.672.517,1.674,1.662q.017,14.527,0,29.054c0,1.263-.517,1.685-1.93,1.685q-20.241,0-40.482,0H340.75c0,1.283,0,2.527,0,3.771-.007,1.415-.429,1.839-1.852,1.841q-4.794.008-9.588,0c-1.389,0-1.834-.455-1.846-1.868C327.453,205.548,327.461,204.331,327.461,203.02Zm-.046-6.6c-1.375,0-2.628-.008-3.881,0a1.429,1.429,0,0,1-1.453-.912c-.312-.721.08-1.231.518-1.734q5.092-5.835,10.181-11.673c.941-1.077,1.726-1.093,2.654-.031,3.4,3.887,6.781,7.788,10.185,11.67a1.667,1.667,0,0,1,.5,1.839c-.329.791-1.036.86-1.786.845-1.178-.022-2.356-.006-3.507-.006v3.8h9.907v-1.2q0-7.264,0-14.528c0-1.776.336-2.118,2.073-2.122q2.421-.006,4.843,0c1.627,0,2.061.439,2.062,2.062q0,7.361,0,14.722v1.045h3.4V198.97c0-3.422-.008-6.844,0-10.267.005-1.491.422-1.889,1.922-1.9q2.518-.01,5.036,0c1.6,0,1.995.4,2,2.015,0,3.454,0,6.909,0,10.363,0,.342.031.684.049,1.049h3.357v-1.087q0-3.487,0-6.974c0-1.34.473-2.022,1.4-2.04.963-.018,1.448.678,1.449,2.089q0,3.39,0,6.78v1.2h3.225V173.447h-3.226c0,1.857.014,3.657-.006,5.457a1.437,1.437,0,0,1-1.418,1.618,1.392,1.392,0,0,1-1.41-1.518c-.027-2.292-.051-4.586.028-6.875a1.706,1.706,0,0,1,.78-1.285c.652-.281.72-.654.718-1.24q-.02-9.589-.01-19.177c0-.34-.032-.68-.052-1.078H375.6q-25.812,0-51.623-.011c-2.229,0-4.52.394-6.636-.894-.026.269-.049.4-.049.522q0,23.971.005,47.943a3.256,3.256,0,0,0,3.367,3.368c1.581.04,3.164.01,4.746.011h2.008Zm-1.591-49.949h51.181c0-.884-.058-1.72.01-2.544.239-2.9-1.86-4.047-4-4.04-15.368.053-30.737.028-46.105.03-.337,0-.675.028-1.148.049A6.571,6.571,0,0,1,325.824,146.475Zm12.184,59.333v-1.149c0-3.127-.007-6.254,0-9.382,0-1.151.428-1.577,1.57-1.615.659-.022,1.319,0,2.234,0l-7.7-8.826-7.686,8.825c.885,0,1.488-.01,2.092,0,1.277.026,1.732.481,1.738,1.773.011,2.482,0,4.965,0,7.448v2.929Zm15.6-20.586v15.011h3.175V185.222ZM369.2,200.287V189.671h-3.23v10.568c.213.019.368.045.523.046C367.359,200.289,368.225,200.287,369.2,200.287Zm-45.31-57.013a3.356,3.356,0,0,0-3.3-3.346,3.3,3.3,0,0,0-3.3,3.328,3.226,3.226,0,0,0,3.23,3.268A3.29,3.29,0,0,0,323.891,143.274Z" transform="translate(0 0)"/>
      <path id="Trazado_1009505" data-name="Trazado 1009505" d="M383.368,238.462c0,2.13.011,4.261,0,6.391a4.719,4.719,0,0,1-5.091,5.062q-4.7.008-9.394,0a4.646,4.646,0,0,1-4.92-4.914q-.03-6.488,0-12.976a4.681,4.681,0,0,1,4.967-4.974q4.745-.013,9.49,0a4.7,4.7,0,0,1,4.945,4.924C383.389,234.136,383.368,236.3,383.368,238.462Zm-2.829.084c0-2.162.009-4.324,0-6.486-.008-1.507-.682-2.206-2.176-2.214q-4.7-.026-9.391,0c-1.512.007-2.205.695-2.209,2.192q-.018,6.438,0,12.876a1.938,1.938,0,0,0,2.187,2.226q4.7.038,9.391,0c1.536-.012,2.194-.73,2.2-2.3C380.546,242.741,380.539,240.643,380.539,238.546Z" transform="translate(-39.949 -72.479)"/>
      <path id="Trazado_1009506" data-name="Trazado 1009506" d="M501.44,246.189c3.451,0,6.9-.032,10.353.033a2.256,2.256,0,0,1,1.525.747,1.265,1.265,0,0,1-.895,1.92,5.7,5.7,0,0,1-1.06.052q-9.87,0-19.74,0c-.194,0-.387,0-.58,0-.946-.044-1.571-.575-1.586-1.343a1.457,1.457,0,0,1,1.63-1.4C494.537,246.182,497.989,246.19,501.44,246.189Z" transform="translate(-141.143 -87.911)"/>
      <path id="Trazado_1009507" data-name="Trazado 1009507" d="M498.837,311.878c-2.486,0-4.972,0-7.458,0-1.219,0-1.939-.547-1.916-1.422.022-.849.722-1.372,1.87-1.373q7.6-.005,15.207,0c1.139,0,1.784.562,1.74,1.471-.041.842-.62,1.315-1.693,1.32C504,311.886,501.42,311.877,498.837,311.878Z" transform="translate(-141.148 -138.623)"/>
      <path id="Trazado_1009508" data-name="Trazado 1009508" d="M495.912,280.46c-1.579,0-3.158.01-4.736,0-1.044-.009-1.74-.6-1.723-1.426.016-.79.675-1.356,1.675-1.36q4.736-.021,9.473,0c1.047,0,1.631.517,1.646,1.36.015.87-.614,1.416-1.694,1.426C499,280.47,497.458,280.46,495.912,280.46Z" transform="translate(-141.14 -113.291)"/>
      <path id="Trazado_1009509" data-name="Trazado 1009509" d="M631.1,378.389a1.462,1.462,0,0,1,1.459,1.389,1.507,1.507,0,0,1-1.363,1.394,1.486,1.486,0,0,1-1.455-1.4A1.457,1.457,0,0,1,631.1,378.389Z" transform="translate(-254.25 -194.505)"/>
      <path id="Trazado_1009510" data-name="Trazado 1009510" d="M575.118,279.094a1.379,1.379,0,1,1-2.756.115,1.367,1.367,0,0,1,1.373-1.425A1.339,1.339,0,0,1,575.118,279.094Z" transform="translate(-207.986 -113.392)"/>
      <path id="Trazado_1009511" data-name="Trazado 1009511" d="M399.4,255.7c-.415-.02-.674-.013-.927-.047a1.174,1.174,0,0,1-1.181-1.267c.011-.794.5-1.135,1.225-1.234a.736.736,0,0,1,.1,0c2.96-.008,3.4-.3,3.32,3.073-.066,2.677,0,5.358-.024,8.036a1.227,1.227,0,0,1-1.291,1.369,1.212,1.212,0,0,1-1.215-1.346c0-.226,0-.452,0-.678q0-3.437,0-6.874Z" transform="translate(-66.837 -93.522)"/>
    </g>
  </g>
</svg>
