<svg xmlns="http://www.w3.org/2000/svg" width="154" height="154" viewBox="0 0 154 154">
  <g id="Grupo_1198592" data-name="Grupo 1198592" transform="translate(-312.941 -3267.42)">
    <g id="Grupo_1197990" data-name="Grupo 1197990" transform="translate(0 -4967.572)">
      <circle id="Elipse_13624" data-name="Elipse 13624" cx="77" cy="77" r="77" transform="translate(312.941 8234.992)" fill="#fff"/>
    </g>
    <g id="Grupo_1198202" data-name="Grupo 1198202" transform="translate(2.293 3142.514)">
      <path id="Trazado_1009534" data-name="Trazado 1009534" d="M398.877,225.772v12.551c1.284.147,2.554.22,3.8.446a11.163,11.163,0,0,1,8.919,10.388c.051,1.476-.539,2.016-2.257,2.017q-13.862.007-27.723,0-7.793,0-15.586,0c-1.976,0-2.538-.668-2.265-2.639a11.273,11.273,0,0,1,11.391-10.074c.4-.007.8-.04,1.26-.064.032-.432.081-.791.081-1.151.006-3.763,0-7.525,0-11.475h-1.708q-17.034,0-34.068,0c-2.123,0-2.475-.354-2.476-2.486q0-34.137,0-68.274c0-2.07.309-2.375,2.405-2.375q46.964,0,93.929,0c2.192,0,2.473.278,2.473,2.448q0,34.137,0,68.274c0,2.024-.388,2.413-2.411,2.413q-17.034,0-34.068,0ZM341.424,213h92.4V155.819h-92.4Zm0,9.472h92.4v-6.192h-92.4ZM367.283,248h40.886a9.591,9.591,0,0,0-.386-1.359,7.7,7.7,0,0,0-7.442-4.924c-7.167-.021-14.333-.009-21.5-.006-1.607,0-3.22-.049-4.822.048C370.674,241.966,367.422,244.987,367.283,248Zm28.3-22.137H379.757v12.523h15.831Z" transform="translate(0)"/>
      <path id="Trazado_1009535" data-name="Trazado 1009535" d="M367.652,187.725c0-1.59-.02-3.007.006-4.422s.531-1.932,1.911-1.941c3.079-.02,6.159-.056,9.236.02a12.421,12.421,0,0,1,8.6,3.818c.322.316.582.7.928,1.114a12.728,12.728,0,0,1,6.692-4.419,26.727,26.727,0,0,1,4.9-.521c2.387-.083,4.778-.035,7.168-.015,1.566.013,1.975.421,2,1.958.02,1.412,0,2.824,0,4.408,1.561,0,2.971-.014,4.381,0,1.553.019,2.015.434,2.017,1.95q.019,18.68,0,37.36c0,1.622-.513,2.025-2.409,2.026q-13.441.008-26.883,0-11.167,0-22.333,0c-2.194,0-2.558-.37-2.558-2.568q0-18.2,0-36.4c0-2.05.333-2.372,2.418-2.378C364.96,187.722,366.2,187.725,367.652,187.725Zm20.733,28.559a11.1,11.1,0,1,0,.03-22.189,11.095,11.095,0,1,0-.03,22.189Zm1.458-25.491c8.353,2.427,12.545,6.959,12.832,13.594a14.077,14.077,0,0,1-2.331,8.628,14.423,14.423,0,0,1-10.278,6.415v3.38c4.711-4.387,10.452-3.051,15.849-3.351V184.54c-2.811,0-5.568-.169-8.295.046a9.17,9.17,0,0,0-7,4.141A9.029,9.029,0,0,0,389.843,190.793Zm-18.9,28.691c5.5.2,11.1-.972,15.823,3.349,0-1.111-.037-1.8.01-2.482.052-.753-.262-1-1-1.142a14.271,14.271,0,0,1-.246-28.039c1.336-.282,1.756-1.026.866-2.041a15.652,15.652,0,0,0-3.942-3.518c-3.616-1.99-7.619-.883-11.513-1.155Zm14.349,6.312a9.859,9.859,0,0,0-7.153-3.1c-2.665-.025-5.33-.008-7.995-.017-2.1-.007-2.494-.4-2.494-2.5q0-13.854,0-27.707V190.9h-3.1v34.9Zm26.947-.012V190.935h-3.15v1.747q0,13.789,0,27.579c0,2.077-.332,2.4-2.4,2.42-2.987.022-5.978-.047-8.96.093a8.892,8.892,0,0,0-6.165,3.011Z" transform="translate(-16.698 -20.776)"/>
      <path id="Trazado_1009536" data-name="Trazado 1009536" d="M569.305,324.443c0-.964-.007-1.928,0-2.892a1.629,1.629,0,0,1,1.747-1.848c2.019-.027,4.04-.022,6.059,0a1.654,1.654,0,0,1,1.8,1.816c.032,1.973.039,3.948,0,5.921a1.677,1.677,0,0,1-1.831,1.8q-2.96.036-5.921,0a1.691,1.691,0,0,1-1.852-1.906C569.3,326.371,569.305,325.407,569.305,324.443Zm6.3-1.477h-3v2.965h3Z" transform="translate(-167.308 -120.959)"/>
      <path id="Trazado_1009537" data-name="Trazado 1009537" d="M574.076,190.9c-1.009,0-2.018,0-3.027,0a1.553,1.553,0,0,1-1.766-1.66c-.042-2.063-.045-4.128,0-6.19a1.512,1.512,0,0,1,1.67-1.611q3.1-.012,6.191,0a1.583,1.583,0,0,1,1.722,1.726c.048,2.017.052,4.036,0,6.053A1.582,1.582,0,0,1,577.1,190.9Q575.59,190.893,574.076,190.9Zm-1.5-3.2h2.957v-3.074h-2.957Z" transform="translate(-167.271 -20.85)"/>
      <path id="Trazado_1009538" data-name="Trazado 1009538" d="M574.049,237.04c-1.009,0-2.018,0-3.027,0a1.549,1.549,0,0,1-1.738-1.686c-.038-2.017-.034-4.036,0-6.053a1.548,1.548,0,0,1,1.711-1.713c2.018,0,4.036.01,6.053-.005a1.619,1.619,0,0,1,1.831,1.757c.045,1.971.041,3.944,0,5.915a1.616,1.616,0,0,1-1.8,1.786C576.067,237.034,575.058,237.04,574.049,237.04Zm1.5-6.29h-2.935v3.108h2.935Z" transform="translate(-167.275 -54.27)"/>
      <path id="Trazado_1009539" data-name="Trazado 1009539" d="M574.057,283.177c-1.009,0-2.018,0-3.027,0a1.566,1.566,0,0,1-1.74-1.7c-.038-2.017-.032-4.036,0-6.053A1.554,1.554,0,0,1,571,273.708c2.018-.009,4.036,0,6.053-.005a1.625,1.625,0,0,1,1.834,1.76q.063,2.956,0,5.915a1.635,1.635,0,0,1-1.8,1.8C576.075,283.18,575.066,283.178,574.057,283.177Zm-1.455-6.306v3.111h2.909v-3.111Z" transform="translate(-167.28 -87.664)"/>
      <path id="Trazado_1009540" data-name="Trazado 1009540" d="M631.685,193.142v3.037h-15.8v-3.037Z" transform="translate(-201.036 -29.331)"/>
      <path id="Trazado_1009541" data-name="Trazado 1009541" d="M615.844,239.067h15.773v3.1H615.844Z" transform="translate(-201.008 -62.585)"/>
      <path id="Trazado_1009542" data-name="Trazado 1009542" d="M615.675,285.228H631.49v3.085H615.675Z" transform="translate(-200.886 -96.01)"/>
      <path id="Trazado_1009543" data-name="Trazado 1009543" d="M631.582,331.681v2.979h-15.8v-2.979Z" transform="translate(-200.961 -129.646)"/>
      <path id="Trazado_1009544" data-name="Trazado 1009544" d="M448.515,250.064H445.87a5.78,5.78,0,0,1,2.3-4.847c.7-.565,1.143-1.212.676-2.14s-1.926-1.309-2.4-.445c-.923,1.69-2.3,1-3.557,1.147a4.242,4.242,0,0,1,2.924-4.489,4.784,4.784,0,0,1,5.664,1.92,4.845,4.845,0,0,1-.869,6.148A25.486,25.486,0,0,0,448.515,250.064Z" transform="translate(-75.751 -62.537)"/>
      <path id="Trazado_1009545" data-name="Trazado 1009545" d="M454.008,285.215h3.015v3.07h-3.015Z" transform="translate(-83.824 -96)"/>
    </g>
  </g>
</svg>
