<svg xmlns="http://www.w3.org/2000/svg" width="98" height="98" viewBox="0 0 98 98">
  <g id="Grupo_1198595" data-name="Grupo 1198595" transform="translate(-1673.224 10497.049)">
    <g id="Grupo_1198225" data-name="Grupo 1198225">
      <g id="Grupo_1102512" data-name="Grupo 1102512" transform="translate(1021.453 -17490.049)">
        <rect id="Rectángulo_403454" data-name="Rectángulo 403454" width="98" height="98" rx="18" transform="translate(651.771 6993)" fill="#fff"/>
      </g>
      <g id="Grupo_1198224" data-name="Grupo 1198224" transform="translate(1357.996 -10517.471)">
        <path id="Trazado_1009743" data-name="Trazado 1009743" d="M395.9,104.541a14.428,14.428,0,0,1,1.579,1.545c.336.443.747,1.108.629,1.538a1.838,1.838,0,0,1-1.334.948,15.413,15.413,0,0,1-6.934-.449,3.684,3.684,0,0,0-1.785-.016A19.744,19.744,0,0,1,364.91,94.185a1.474,1.474,0,0,0-1.711-1.3c-11.382.043-22.764.028-34.146.026-1.864,0-2.15-.281-2.152-2.1q-.021-26.564-.04-53.128c0-1.92.278-2.208,2.175-2.209q33.341,0,66.682,0c1.915,0,2.218.3,2.219,2.181.006,12.037,0,24.073.045,36.109a3.045,3.045,0,0,0,.666,1.823,19.913,19.913,0,0,1-1.991,28.244C396.432,104.027,396.218,104.239,395.9,104.541ZM333.911,47.586V78.8a5.042,5.042,0,0,0,.544.068q15.746.005,31.491-.023a1.9,1.9,0,0,0,1.167-.659c1.5-1.623,2.908-3.335,4.449-4.918a2.151,2.151,0,0,0,.757-1.657c-.022-7.626-.013-15.251-.017-22.877,0-.368-.046-.735-.074-1.146ZM393.7,106.293a4,4,0,0,0-.183-.591c-1.134-1.846-1.093-1.8.631-3.21,5.587-4.583,7.856-10.432,6.368-17.559a17.064,17.064,0,0,0-17.083-13.418,17.217,17.217,0,1,0,4.953,33.836,4.206,4.206,0,0,1,1.758.127C391.282,105.7,392.4,105.99,393.7,106.293Zm1.18-33.807.359-.137V43.625H329.579v46.6h34.268l1.281-8.81h-1.207q-15.351,0-30.7,0c-1.709,0-1.968-.246-1.969-1.9q-.005-16.332,0-32.665c0-1.589.295-1.894,1.877-1.894q19.951-.009,39.9,0c1.592,0,1.935.367,1.935,1.989q0,11.329,0,22.658v1.207l.385.081a3.9,3.9,0,0,0,.322-.984c.046-.879,0-1.763.019-2.645.02-1.235.443-1.717,1.633-1.721q7.647-.027,15.294,0c1.194,0,1.657.5,1.673,1.689.017,1.3-.045,2.61.033,3.909A4.465,4.465,0,0,0,394.883,72.486Zm-65.357-31.6h65.764V38.176H329.527ZM378.3,68.271c-.019.371-.044.6-.037.826a3.755,3.755,0,0,0,.119.558,20.6,20.6,0,0,1,13.228.817v-2.2Z"/>
        <path id="Trazado_1009744" data-name="Trazado 1009744" d="M427.6,138.011c0-1.224-.039-2.449.01-3.671.053-1.3,1.063-1.845,2.138-1.12,1.773,1.2,3.509,2.45,5.226,3.727a1.285,1.285,0,0,1-.03,2.279q-2.558,1.842-5.2,3.57a1.279,1.279,0,0,1-2.136-1.112C427.564,140.461,427.6,139.235,427.6,138.011Zm4.425.065-1.727-1.254v2.456Z" transform="translate(-77.564 -75.021)"/>
        <path id="Trazado_1009745" data-name="Trazado 1009745" d="M573.515,223.954c0,2.491-.012,4.983.007,7.474.007.919-.241,1.667-1.283,1.664s-1.289-.739-1.286-1.664q.022-7.589,0-15.179c0-.945.327-1.637,1.342-1.611.962.025,1.229.737,1.224,1.611C573.506,218.818,573.515,221.386,573.515,223.954Z" transform="translate(-187.957 -137.964)"/>
        <path id="Trazado_1009746" data-name="Trazado 1009746" d="M569.831,308.625a1.65,1.65,0,0,1-1.682-1.651,1.689,1.689,0,0,1,1.7-1.76,1.8,1.8,0,0,1,1.721,1.662A1.761,1.761,0,0,1,569.831,308.625Z" transform="translate(-185.798 -207.709)"/>
        <path id="Trazado_1009747" data-name="Trazado 1009747" d="M548.45,103.4c2.49,0,4.98-.009,7.47,0,1.45.007,1.85.408,1.854,1.842q.012,4.77,0,9.54c0,1.367-.416,1.812-1.763,1.816q-7.527.022-15.054,0c-1.391,0-1.781-.4-1.785-1.782q-.015-4.827,0-9.655c.005-1.362.41-1.754,1.808-1.762C543.471,103.394,545.961,103.4,548.45,103.4Zm6.645,2.726H541.8v7.794H555.1Z" transform="translate(-163.479 -52.308)"/>
        <path id="Trazado_1009748" data-name="Trazado 1009748" d="M360.325,255.512q5.974,0,11.948,0a2.527,2.527,0,0,1,1.235.118c.4.253.88.739.9,1.142a1.811,1.811,0,0,1-.807,1.2,2.283,2.283,0,0,1-1.221.154q-12.063.011-24.126,0a2.255,2.255,0,0,1-1.221-.153,1.8,1.8,0,0,1-.768-1.215c.019-.4.489-.872.878-1.141.27-.186.74-.105,1.121-.106Q354.293,255.507,360.325,255.512Z" transform="translate(-14.939 -169.427)"/>
        <path id="Trazado_1009749" data-name="Trazado 1009749" d="M351.816,244.143c-1.415,0-2.83,0-4.245,0-.88,0-1.524-.311-1.546-1.287-.022-1,.659-1.322,1.513-1.327q4.244-.028,8.489,0c.837.006,1.557.285,1.548,1.292-.01,1.048-.713,1.33-1.629,1.324C354.569,244.137,353.192,244.143,351.816,244.143Z" transform="translate(-14.757 -158.66)"/>
        <path id="Trazado_1009750" data-name="Trazado 1009750" d="M545.092,85.043c1.453,0,2.907.008,4.36,0,.876-.006,1.429.415,1.431,1.28s-.573,1.268-1.44,1.266q-4.36-.01-8.72,0c-.86,0-1.434-.373-1.426-1.272s.574-1.273,1.436-1.271C542.185,85.047,543.638,85.043,545.092,85.043Z" transform="translate(-163.581 -38.17)"/>
        <path id="Trazado_1009751" data-name="Trazado 1009751" d="M363.4,51.044c-.321-.473-.646-.743-.611-.954.04-.241.4-.429.62-.64.19.2.523.4.533.606C363.949,50.3,363.679,50.56,363.4,51.044Z" transform="translate(-27.66 -10.764)"/>
        <path id="Trazado_1009752" data-name="Trazado 1009752" d="M341.737,51.08c-.31-.462-.592-.7-.6-.944,0-.207.314-.419.49-.629.229.193.6.357.647.588C342.322,50.308,342.022,50.593,341.737,51.08Z" transform="translate(-10.996 -10.808)"/>
        <path id="Trazado_1009753" data-name="Trazado 1009753" d="M352.494,48.192c.327.436.653.681.639.905s-.329.528-.577.617c-.121.043-.54-.314-.551-.506C351.991,48.952,352.242,48.681,352.494,48.192Z" transform="translate(-19.362 -9.796)"/>
      </g>
    </g>
  </g>
</svg>
