<svg xmlns="http://www.w3.org/2000/svg" xmlns:xlink="http://www.w3.org/1999/xlink" width="114.468" height="114.468" viewBox="0 0 114.468 114.468">
  <defs>
    <linearGradient id="linear-gradient" x1="0.141" y1="-0.79" x2="0.588" y2="0.93" gradientUnits="objectBoundingBox">
      <stop offset="0" stop-color="#3ef989"/>
      <stop offset="1" stop-color="#0cebf3"/>
    </linearGradient>
  </defs>
  <g id="Grupo_1198592" data-name="Grupo 1198592" transform="translate(-326.477 -2348.603)">
    <g id="Grupo_1192986" data-name="Grupo 1192986" transform="translate(326.477 2348.603)">
      <path id="Trazado_995327" data-name="Trazado 995327" d="M57.234,0A57.234,57.234,0,1,1,0,57.234,57.234,57.234,0,0,1,57.234,0Z" transform="translate(0)" fill="#1d0736"/>
    </g>
    <g id="Grupo_1198214" data-name="Grupo 1198214" transform="translate(57.908 2265.888)">
      <path id="Trazado_1009648" data-name="Trazado 1009648" d="M345.735,132.118a13.294,13.294,0,0,1,7.006,1.485,12.957,12.957,0,0,1,1.427,22.039,1.239,1.239,0,0,0-.584,1.719,11.56,11.56,0,0,0,1.691,3.695c.714.829.875,2.151,1.229,3.269.558,1.764,1.081,3.54,1.6,5.315a3.418,3.418,0,0,1-2.362,4.287c-2.192.7-4.034-.088-4.671-2.077q-1.216-3.8-2.293-7.637c-.166-.59.011-1.27-.11-1.881a25.583,25.583,0,0,0-1.033-4.051c-.1-.276-1.139-.2-1.9-.309V159.2c0,3.843.007,7.686,0,11.529q-.011,4.212-4.234,4.213-22.654.005-45.309,0c-2.792,0-4.227-1.437-4.227-4.24q-.006-30.745,0-61.49c0-2.805,1.434-4.237,4.227-4.238q18.659-.006,37.319-.016a2.525,2.525,0,0,1,1.956.814q4.729,4.781,9.521,9.5a2.4,2.4,0,0,1,.76,1.877c-.021,4.551-.011,9.1-.01,13.653Zm-18.673,2.21c0,1.605-.033,3.46.027,5.311a1.68,1.68,0,0,0,.586,1.106,3.331,3.331,0,0,1,1.4,2.46,3.072,3.072,0,0,1-2.237,3.112,3.109,3.109,0,0,1-3.649-1.642,2.978,2.978,0,0,1,.987-3.769,1.568,1.568,0,0,0,.79-1.561c-.047-1.786.013-3.575-.036-5.361a4.869,4.869,0,0,0-.441-1.322,14.82,14.82,0,0,1-1.607.673,1.181,1.181,0,0,0-1.015,1.34,1.81,1.81,0,0,1-.646,1.363c-1.325.821-1.418,2.008-1.309,3.35.06.737-.047,1.489.036,2.222a1.593,1.593,0,0,0,.541,1.014,3.169,3.169,0,0,1,1.328,3.532,3.086,3.086,0,0,1-2.947,2.191,3.031,3.031,0,0,1-2.952-2.177,3.076,3.076,0,0,1,1.288-3.529,1.4,1.4,0,0,0,.53-.922c.058-1.346.052-2.7,0-4.045a1.366,1.366,0,0,0-.464-.856c-.8-.7-1.6-1.34-1.5-2.58.019-.222-.283-.542-.516-.7a7.387,7.387,0,0,0-1.109-.482c-.986-.436-1.322-.231-1.33.874-.015,1.888.013,3.777-.015,5.665a1.248,1.248,0,0,0,.646,1.228,2.829,2.829,0,0,1,1.336,2.86,2.989,2.989,0,0,1-2.7,2.709,3.074,3.074,0,0,1-2.04-5.646c.261-.194.59-.522.6-.8.051-1.981.027-3.964.027-5.63l-2.772-2.345a12.987,12.987,0,0,1-1.216.759,1.712,1.712,0,0,0-1.073,1.907c.095,1.037-.026,2.092.048,3.132a1.561,1.561,0,0,0,.558,1.023,3.091,3.091,0,0,1-1.592,5.734,3.1,3.1,0,0,1-2.971-2.171,3.173,3.173,0,0,1,1.288-3.542,1.665,1.665,0,0,0,.567-1.117c.066-1.447.066-2.9.011-4.348a1.748,1.748,0,0,1,.969-1.722c1.01-.607,1.987-1.27,2.978-1.909,1.652-1.065,1.614-1.051.94-2.888a1.161,1.161,0,0,0-1.288-.931,2.78,2.78,0,0,1-1.332-.53c-1.1-.675-1.021-1.782-1-2.876a2.535,2.535,0,0,1,2.481-2.61c.589-.01.956-.129,1.074-.758a2.293,2.293,0,0,1,.348-.836.983.983,0,0,0-.209-1.465,2.209,2.209,0,0,1-.617-1.3,3.315,3.315,0,0,1,3.722-3.549,7.017,7.017,0,0,1,1.987,1.085,7.712,7.712,0,0,1,1.235-.517,1.182,1.182,0,0,0,1.038-1.423,2.183,2.183,0,0,1,.484-1.158,2.767,2.767,0,0,1,2.744-1.086,2.646,2.646,0,0,1,2.857,2.673,1.174,1.174,0,0,0,.539.778,14.3,14.3,0,0,0,1.619.7,14.046,14.046,0,0,1,2.252-1.074c1.386-.374,2.136.7,2.949,1.535a2.5,2.5,0,0,1,.012,3.286c-.519.493-.712.906-.264,1.537.189.266.2.666.4.92a1.509,1.509,0,0,0,.839.623,3.07,3.07,0,0,1,2.45,4.626c-.38.6-1.134,1.333-1.737,1.352-1.15.036-1.438.593-1.889,1.468-.562,1.089-.144,1.588.669,2.106,1.193.761,2.372,1.545,3.573,2.292a1.556,1.556,0,0,1,.817,1.494c-.037,1.483.027,2.968-.027,4.45a1.068,1.068,0,0,0,.936,1.278c.058-.036.134-.058.168-.109.13-.2.243-.4.369-.6a12.684,12.684,0,0,1,7.211-5.541.948.948,0,0,0,.817-1.11c-.025-4.383-.012-8.767-.016-13.151,0-.259-.045-.518-.077-.86h-1.05q-2.731,0-5.463,0c-2.652,0-3.92-1.259-3.923-3.88q0-2.124,0-4.249v-2.3c-.344-.024-.542-.05-.741-.05q-18.158,0-36.316,0c-1.427,0-1.979.623-1.979,2.182q0,30.7,0,61.4c0,1.6.572,2.169,2.2,2.17q22.609,0,45.218,0c1.665,0,2.136-.487,2.137-2.2,0-3.945-.02-7.891.02-11.835a1.2,1.2,0,0,0-.984-1.414,12.193,12.193,0,0,1-7.845-7.082,41.972,41.972,0,0,1-1.507-5.754c.162.046.071,0-.023,0-1.708-.143-2.735-.877-3.126-2.238a3.142,3.142,0,0,1,1.45-3.558,1.2,1.2,0,0,0,.431-.8c.044-1.347.039-2.7,0-4.045a1.07,1.07,0,0,0-.389-.724c-.59-.441-1.232-.811-1.838-1.2Zm3.755-11.407c.113-.845-.426-.9-1.071-.878-.847.03-1.685.1-2.045-1-.342-1.047-.884-2.029-1.213-3.079a2.425,2.425,0,0,1,.138-1.435c.114-.315.6-.489.733-.8a1.4,1.4,0,0,0,.025-1.1c-.451-.738-.963-.584-1.529.011-1.123,1.18-1.141,1.134-2.562.4a11.588,11.588,0,0,0-1.866-.756c-1.608-.506-1.663-.49-1.632-2.227.016-.932-.428-1.071-1.182-1.012-.857.067-.66.7-.667,1.2-.021,1.5-.065,1.54-1.459,1.969a13.749,13.749,0,0,0-1.876.735c-1.584.757-1.6.79-2.888-.448-.518-.5-.882-.431-1.358.036-.606.594-.264.978.184,1.422,1.149,1.142,1.122,1.141.387,2.568a12.168,12.168,0,0,0-.761,1.864c-.517,1.62-.5,1.671-2.241,1.639-.85-.016-1.035.335-1,1.083.035.847.609.733,1.143.739,1.615.018,1.6.021,2.087,1.565a13.116,13.116,0,0,0,.663,1.686c.783,1.65.809,1.66-.438,2.974a.782.782,0,0,0,0,1.28c.609.652,1.012.341,1.5-.15,1.137-1.151,1.144-1.123,2.579-.365a10.664,10.664,0,0,0,1.668.71c1.734.566,1.758.551,1.8,2.4.014.578.169.836.8.882.893.066,1.076-.331,1.06-1.126-.033-1.635.031-1.652,1.542-2.094a11.049,11.049,0,0,0,1.785-.689c1.581-.781,1.594-.817,2.89.442.519.5.877.446,1.347-.038s.393-.823-.04-1.278c-1.251-1.314-1.211-1.317-.413-2.964a13.513,13.513,0,0,0,.788-2.173,1.23,1.23,0,0,1,1.358-1.069c.3.017.607-.015.909,0C330.624,123.9,330.885,123.574,330.817,122.921Zm21.245,36.7c-.319-1.071-.568-2.082-.924-3.054a1.4,1.4,0,0,1,.762-1.979,10.767,10.767,0,0,0,4.784-13.81,10.874,10.874,0,1,0-19.73,9.13,10.792,10.792,0,0,0,10.709,5.96c1.4-.111,1.614.032,2.019,1.372.281.929.546,1.862.825,2.819Zm4.094,11.084a1.859,1.859,0,0,0-.033-.255c-.807-2.667-1.57-5.347-2.449-7.99-.3-.9-1.177-.784-1.9-.54s-1.239.744-.986,1.607q1.134,3.866,2.315,7.718c.257.841.96.875,1.648.752A1.481,1.481,0,0,0,356.156,170.7Zm-20.863-61.877c0,1.924-.044,3.786.042,5.643a1.288,1.288,0,0,0,.888.887c1.859.086,3.724.042,5.533.042Zm-30.646,31.239c-.479.648-.981,1.033-.948,1.364.036.36.569.67.886,1,.325-.318.862-.6.915-.962C305.549,141.14,305.079,140.733,304.648,140.067Zm28.5-.011c-.476.654-.974,1.04-.939,1.369.038.361.568.669.884,1,.324-.319.858-.606.911-.965C334.054,141.131,333.585,140.726,333.15,140.056Zm-21.69,4.376.442.019c.263-.357.758-.737.725-1.065a1.334,1.334,0,0,0-.913-.876c-.243-.047-.823.485-.851.795C310.831,143.66,311.242,144.055,311.46,144.432Zm14.257,0,.429.014c.268-.358.735-.711.744-1.075.007-.3-.54-.878-.815-.862a1.31,1.31,0,0,0-.975.8C325.036,143.629,325.49,144.053,325.717,144.431Zm-5.779,1.058,0-.44c-.368-.25-.771-.735-1.094-.686a1.356,1.356,0,0,0-.86.95c-.039.244.527.808.845.827C319.186,146.16,319.568,145.725,319.938,145.488Z" transform="translate(0 0)" fill="url(#linear-gradient)"/>
      <path id="Trazado_1009649" data-name="Trazado 1009649" d="M322.928,321.124c-.091.179-.118.208-.119.237-.1,3.259-.284,3.185,3.719,2.944-.227-.261-.539-.457-.571-.692-.063-.453-.138-1.092.109-1.346a1.337,1.337,0,0,1,1.309-.08,29.967,29.967,0,0,1,2.858,2.553c.543.533.369,1.108-.147,1.585-.816.754-1.643,1.5-2.466,2.241-.5.455-1.064.686-1.6.127s-.394-1.159.159-1.672a4.723,4.723,0,0,0,.32-.384c-1.668-.3-3.4.32-4.8-.9-1.441-1.259-.886-2.985-1.059-4.469-.111-.069-.137-.1-.166-.1-2.849-.3-2.977-.443-2.976-3.346,0-.808-.022-1.617.008-2.425a1.83,1.83,0,0,1,1.982-1.947q4.647-.034,9.3,0a1.79,1.79,0,0,1,2,2.017c.029,1.178.023,2.358,0,3.536a1.879,1.879,0,0,1-2.122,2.115C326.746,321.137,324.831,321.124,322.928,321.124Zm5.643-2.165V315.65h-8.844v3.309Z" transform="translate(-20.366 -166.298)" fill="url(#linear-gradient)"/>
      <path id="Trazado_1009650" data-name="Trazado 1009650" d="M401.327,366.819c-4.541.326-6.163-.284-6.016-5.456-.423,0-.846.024-1.265,0a1.7,1.7,0,0,1-1.76-1.81c-.033-1.28-.023-2.561-.006-3.842a1.8,1.8,0,0,1,1.9-2.012q4.7-.069,9.4,0a1.824,1.824,0,0,1,1.916,2.019q.039,1.819,0,3.64a1.807,1.807,0,0,1-2,2.01c-1.752.03-3.5.009-5.257.015-.2,0-.392.037-.557.053-.057.109-.11.164-.114.223-.193,3.075.293,3.473,3.522,2.879-.005-.059.013-.141-.02-.175-.516-.53-1.057-1.111-.344-1.8s1.342-.225,1.921.324c.66.626,1.353,1.217,2.013,1.842.79.749.783,1.26-.031,2.026-.711.67-1.452,1.308-2.164,1.976-.557.522-1.159.776-1.767.164s-.282-1.162.241-1.65C401.04,367.148,401.121,367.046,401.327,366.819Zm-6.908-7.643h8.915v-3.289h-8.915Z" transform="translate(-80.011 -198.383)" fill="url(#linear-gradient)"/>
      <path id="Trazado_1009651" data-name="Trazado 1009651" d="M473.169,394.266c1.516,0,3.032-.016,4.548.005a1.821,1.821,0,0,1,1.994,1.932c.045,1.279.048,2.562,0,3.84a1.861,1.861,0,0,1-2.023,1.926q-4.6.033-9.2,0a1.919,1.919,0,0,1-2.063-2.008c-.042-1.211-.035-2.426,0-3.638a1.906,1.906,0,0,1,2.1-2.053C470.069,394.254,471.619,394.266,473.169,394.266Zm4.341,2.159h-8.855v3.347h8.855Z" transform="translate(-139.142 -230.769)" fill="url(#linear-gradient)"/>
      <path id="Trazado_1009652" data-name="Trazado 1009652" d="M396.832,172.931a7.108,7.108,0,1,1,7.135-7.148A7.115,7.115,0,0,1,396.832,172.931Zm.063-12.071a4.975,4.975,0,0,0-.21,9.947,4.975,4.975,0,1,0,.21-9.947Z" transform="translate(-77.953 -42.882)" fill="url(#linear-gradient)"/>
      <path id="Trazado_1009653" data-name="Trazado 1009653" d="M536.175,268.092a8.931,8.931,0,1,1-9-8.929A8.915,8.915,0,0,1,536.175,268.092Zm-9.884-.031V272.7c0,2.389.318,2.622,2.648,1.941.161-.047.327-.079.487-.13a6.812,6.812,0,0,0-2.251-13.268c-.728.011-.909.28-.9.958C526.314,264.156,526.29,266.109,526.29,268.06Zm-2.169,5.956v-11.88a6.451,6.451,0,0,0-3.742,5.785A6.559,6.559,0,0,0,524.122,274.016Z" transform="translate(-180.556 -123.007)" fill="url(#linear-gradient)"/>
    </g>
  </g>
</svg>
