<svg xmlns="http://www.w3.org/2000/svg" xmlns:xlink="http://www.w3.org/1999/xlink" width="114.468" height="114.468" viewBox="0 0 114.468 114.468">
  <defs>
    <linearGradient id="linear-gradient" x1="0.13" y1="-1.014" x2="0.5" y2="1" gradientUnits="objectBoundingBox">
      <stop offset="0" stop-color="#3ef989"/>
      <stop offset="1" stop-color="#0cebf3"/>
    </linearGradient>
  </defs>
  <g id="Grupo_1198593" data-name="Grupo 1198593" transform="translate(-1158.477 -2348.603)">
    <g id="Grupo_1192986" data-name="Grupo 1192986" transform="translate(1158.477 2348.603)">
      <path id="Trazado_995327" data-name="Trazado 995327" d="M57.234,0A57.234,57.234,0,1,1,0,57.234,57.234,57.234,0,0,1,57.234,0Z" transform="translate(0)" fill="#1d0736"/>
    </g>
    <g id="Grupo_1198215" data-name="Grupo 1198215" transform="translate(931.316 2287.961)">
      <path id="Trazado_1009654" data-name="Trazado 1009654" d="M246.23,144.275c-.523-.534-.988-1.024-1.47-1.5a.864.864,0,0,1-.286-1.041c.173-.382.525-.433.9-.432,1.455,0,2.91,0,4.538,0-3.369-4.924-4.158-10.109-1.761-15.494,2.407-5.408,6.8-8.295,12.71-9.088v-1.184c0-7.61.012-15.219-.016-22.829a2.82,2.82,0,0,1,.909-2.219q4.925-4.824,9.765-9.735a2.195,2.195,0,0,1,1.7-.721q17.389.029,34.778,0a3.421,3.421,0,0,1,3.378,1.811,3.818,3.818,0,0,1,.346,1.2,8.644,8.644,0,0,1,.031,1.261q0,29.338,0,58.676c0,.388.009.778-.014,1.165a3.26,3.26,0,0,1-3.059,3.079c-.322.023-.647.017-.971.017H246.021c-.259,0-.518,0-.777-.006-.338-.011-.713-.07-.768-.446a1.3,1.3,0,0,1,.2-.885,12.385,12.385,0,0,1,1.147-1.183C245.932,144.613,246.036,144.489,246.23,144.275Zm32.828,1.419c.387.018.669.042.951.042q13.844,0,27.688,0c.227,0,.454.008.68-.01a1.806,1.806,0,0,0,1.834-1.861c.013-.226.006-.453.006-.68q0-29.534,0-59.068a7.945,7.945,0,0,0-.031-.97,1.7,1.7,0,0,0-1.415-1.52,5.168,5.168,0,0,0-.966-.066q-16.71,0-33.42,0h-1.021v1.084c0,2.04.028,4.081-.017,6.12a4.764,4.764,0,0,1-.368,1.876,3.313,3.313,0,0,1-3.247,1.887c-2.1.012-4.21,0-6.315.006-.311,0-.622.031-.957.048v24.084c6.039.485,10.7,3.155,13.38,8.638,2.688,5.507,1.971,10.849-1.473,15.947.272.024.454.047.636.054a7.176,7.176,0,0,1,2.394.14,6.8,6.8,0,0,1,1.776,1.619c1.157,1.144,1.153,1.155.075,2.324A2.878,2.878,0,0,0,279.058,145.694ZM252.8,131.958a9.321,9.321,0,1,0,9.351-9.266A9.3,9.3,0,0,0,252.8,131.958Zm8.13,12.278c-.148-.163-.334-.339-.488-.54a2.246,2.246,0,0,0-2.009-.876c-3.4.051-6.791.021-10.187.021h-1.223c.355.366.54.54.706.73.507.579.5.844,0,1.423-.177.2-.352.408-.643.746h1.142c3.234,0,6.471-.072,9.7.035a3.126,3.126,0,0,0,2.952-1.392A.791.791,0,0,0,260.934,144.235ZM271.775,82.9a1.153,1.153,0,0,0-.313.137q-3.865,3.868-7.721,7.746c-.015.015,0,.062,0,.091a.74.74,0,0,0,.066.118c1.91,0,3.845.009,5.781,0,1.536-.01,2.215-.709,2.222-2.275.008-1.679,0-3.358,0-5.038C271.815,83.433,271.791,83.188,271.775,82.9Zm2.267,42.389a13.133,13.133,0,0,0-9.636-6.747l-1.177,1.165c.486.495.914.975,1.392,1.4a3.043,3.043,0,0,0,.964.6,11.055,11.055,0,0,1,5.69,4.454c.115.175.259.33.418.531C272.272,125.06,272.272,125.06,274.042,125.29Zm-23.195,11.884a7,7,0,0,0,.5-3.943,8.569,8.569,0,0,1,.415-4.493c.268-.782.614-1.537.924-2.3-.534.029-1.172.252-1.565.034s-.546-.878-.86-1.445a13.791,13.791,0,0,0-1.094,11.687Zm11.481-18.846a13.185,13.185,0,0,0-10.767,5.01l.458,1.51a7.055,7.055,0,0,0,3.439-1.38,10.129,10.129,0,0,1,6.06-2.309c.236-.016.472-.046.821-.082-.264-.285-.441-.465-.607-.656-.513-.59-.51-.824.007-1.42C261.923,118.789,262.109,118.579,262.328,118.328Zm11.034,8.473c-.119.4-.2.705-.3,1.006a5.128,5.128,0,0,0-.205,2.751,10.037,10.037,0,0,1-.77,5.771c-.172.421-.383.825-.636,1.365.383-.1.594-.163.808-.212.838-.194,1.106-.041,1.368.768.073.226.151.45.281.835a13.867,13.867,0,0,0,1.155-11.8Zm-11.384,18.761a13.212,13.212,0,0,0,10.727-4.8l-.494-1.634a6.406,6.406,0,0,0-2.852.958,11.031,11.031,0,0,1-6.678,2.731c-.229.014-.455.074-.778.128.225.235.358.37.487.51.666.724.668.908.019,1.619C262.264,145.239,262.122,145.4,261.979,145.562Zm16.165-1.287c-.243-.265-.453-.46-.624-.685a1.822,1.822,0,0,0-1.756-.764,13.686,13.686,0,0,1-2.032,0,1.919,1.919,0,0,0-1.4.5c-.877.7-1.822,1.323-2.734,1.983a5.963,5.963,0,0,0-.458.427c2.454,0,4.745.006,7.035-.009a1.181,1.181,0,0,0,.709-.209C277.325,145.151,277.706,144.717,278.144,144.276ZM251.9,141.257h4.365c-.735-.65-1.423-1.18-2.012-1.8-.613-.649-1.129-1.389-1.7-2.1-.619,1.514-.619,1.514-2.517,1.341Z" transform="translate(0)" fill="url(#linear-gradient)"/>
      <path id="Trazado_1009655" data-name="Trazado 1009655" d="M428.4,211.239l.581,1.408a2.07,2.07,0,0,1,1.914.876,2.549,2.549,0,0,1,.214,1.693c-.012.934-.766,1.508-2.112,1.63l-.581,1.339c1.043,1.526,1.017,2.1-.124,3.2-.887.855-1.616.827-2.932-.137l-1.351.579a2.145,2.145,0,0,1-.818,1.838,2.483,2.483,0,0,1-1.772.281c-.959-.023-1.513-.754-1.624-2.09l-1.4-.631a2.3,2.3,0,0,1-1.89.753,2.388,2.388,0,0,1-1.4-.968c-.764-.8-.686-1.576.261-2.781l-.576-1.359c-1.7-.223-2.142-.7-2.131-2.261.009-1.274.558-1.8,2.074-1.976a.655.655,0,0,0,.121-.146c.175-.412.345-.826.508-1.221-1.078-1.413-1.046-2.047.139-3.188.858-.827,1.684-.791,2.867.166l1.429-.584a2.086,2.086,0,0,1,.795-1.846,2.417,2.417,0,0,1,1.679-.274c1.013.013,1.61.741,1.735,2.1l1.334.61c1.407-1.142,2.343-.933,3.352.248C429.364,209.282,429.313,210.125,428.4,211.239Zm-.7,8.657c-.277-.316-.441-.51-.612-.7-.587-.64-.589-.725-.18-1.523a9.113,9.113,0,0,0,.545-1.241c.379-1.13.367-1.131,1.611-1.2a3.353,3.353,0,0,0,.521-.121l-.1-.84c-.289-.018-.481-.033-.674-.04-.959-.037-1.008-.1-1.3-.965a14.353,14.353,0,0,0-.682-1.6c-.3-.62-.294-.778.163-1.291.151-.169.321-.321.466-.494a1.264,1.264,0,0,0,.123-.325l-.647-.525-.55.5c-.64.586-.767.6-1.537.2a3.261,3.261,0,0,0-.963-.444,1.493,1.493,0,0,1-1.5-1.9c.01-.077-.077-.168-.152-.318l-.8.076c-.017.284-.032.476-.04.669-.034.916-.149,1.043-.967,1.323a13.865,13.865,0,0,0-1.692.707.91.91,0,0,1-1.151-.138c-.188-.177-.371-.361-.568-.527a1.221,1.221,0,0,0-.322-.12l-.528.633c.2.225.352.393.5.558.584.634.6.769.208,1.537a5.523,5.523,0,0,0-.484,1.054c-.3,1.147-.353,1.467-1.776,1.395a1.471,1.471,0,0,0-.414.127l.1.833.768.035c.819.037.911.105,1.171.883a3.2,3.2,0,0,0,.311.914,1.688,1.688,0,0,1-.3,2.663c-.022.017-.026.058-.053.121a3.292,3.292,0,0,0,.279.364,2.169,2.169,0,0,0,.342.231c.187-.15.367-.279.53-.428.715-.653.769-.655,1.6-.243a8.679,8.679,0,0,0,1.245.529c1.141.356,1.143.343,1.2,1.53a4.117,4.117,0,0,0,.115.583l.823-.045c.026-.275.057-.494.067-.713.046-.977.1-1.038,1.067-1.331a6.619,6.619,0,0,0,.992-.378c1.189-.582,1.185-.588,2.234.33a2.927,2.927,0,0,0,.4.219Z" transform="translate(-135.566 -101.091)" fill="url(#linear-gradient)"/>
      <path id="Trazado_1009656" data-name="Trazado 1009656" d="M365.986,175.068H362.81a3.784,3.784,0,0,1-2.052-.487,3.582,3.582,0,0,1-1.784-2.949c-.036-.548-.016-1.1-.016-1.651,0-3.562.033-7.125-.011-10.687a3.776,3.776,0,0,1,3.963-3.952c1.519.069,3.044.013,4.566.014.162,0,.324,0,.486.008a.756.756,0,0,1,.769.728c.057.415-.277.738-.793.8a6.14,6.14,0,0,1-.68.011c-1.522,0-3.045-.017-4.566.008a2.116,2.116,0,0,0-2.191,2.121c-.012.194-.005.388-.005.583q0,5.635,0,11.271a5.541,5.541,0,0,0,.039.872,2.038,2.038,0,0,0,1.63,1.713,16.046,16.046,0,0,0,3.935-.046c-.425-.49-.82-.942-1.212-1.4a3.864,3.864,0,0,1-.422-.528.7.7,0,0,1,.2-.952.654.654,0,0,1,.889-.009,2.077,2.077,0,0,1,.285.263c.849.935,1.706,1.862,2.537,2.812.472.539.51.813.1,1.282-.91,1.053-1.848,2.082-2.8,3.093a.686.686,0,0,1-1.035.093.772.772,0,0,1-.061-1.127,6.657,6.657,0,0,1,.448-.51l1.029-1.154Z" transform="translate(-92.291 -60.667)" fill="url(#linear-gradient)"/>
      <path id="Trazado_1009657" data-name="Trazado 1009657" d="M512.949,268.8,514,269.973a9.1,9.1,0,0,1,.639.73.73.73,0,0,1-.078,1.046.825.825,0,0,1-1.065-.048,4.362,4.362,0,0,1-.4-.426c-.717-.791-1.437-1.579-2.147-2.376-.212-.238-.393-.5-.637-.818a5.1,5.1,0,0,1,.455-.737c.835-.946,1.689-1.874,2.537-2.809a1.809,1.809,0,0,1,.2-.207.75.75,0,0,1,1.05-.033.7.7,0,0,1,.068,1.038c-.23.311-.515.581-.771.872s-.5.576-.874,1.012c1.441,0,2.718.086,3.977-.031a1.794,1.794,0,0,0,1.594-1.5,4.536,4.536,0,0,0,.12-.957q.012-5.778,0-11.555a4.164,4.164,0,0,0-.039-.677,2.022,2.022,0,0,0-1.92-1.864,9.043,9.043,0,0,0-1.162-.045c-1.327-.005-2.654.005-3.981-.005-.753-.006-1.159-.275-1.171-.735s.4-.759,1.14-.764c1.651-.011,3.3-.028,4.952,0a3.557,3.557,0,0,1,3.689,3.375,7.608,7.608,0,0,1,.035.872q0,5.583,0,11.167a7.4,7.4,0,0,1-.047.968,3.617,3.617,0,0,1-3.755,3.321C515.35,268.806,514.284,268.8,512.949,268.8Z" transform="translate(-214.241 -136.186)" fill="url(#linear-gradient)"/>
      <path id="Trazado_1009658" data-name="Trazado 1009658" d="M427.452,333.092c-1.681,0-3.363.009-5.044,0a2.556,2.556,0,0,1-2.745-2.716c-.019-1.067-.024-2.134,0-3.2a2.5,2.5,0,0,1,2.618-2.634q5.238-.031,10.477,0a2.418,2.418,0,0,1,2.567,2.46c.054,1.194.053,2.394,0,3.588a2.466,2.466,0,0,1-2.638,2.5C430.944,333.1,429.2,333.092,427.452,333.092Zm.165-7.017c-1.715,0-3.431-.01-5.146,0-.912.007-1.239.323-1.258,1.214q-.031,1.5,0,3.01c.017.884.363,1.237,1.238,1.24q5.049.016,10.1,0c.916,0,1.22-.309,1.24-1.224.021-.97.015-1.942,0-2.913-.014-1.062-.27-1.322-1.32-1.329C430.854,326.067,429.235,326.075,427.617,326.075Z" transform="translate(-141.195 -196.975)" fill="url(#linear-gradient)"/>
      <path id="Trazado_1009659" data-name="Trazado 1009659" d="M427.564,137.371c1.681,0,3.363-.008,5.044,0a2.509,2.509,0,0,1,2.74,2.7c.025,1.066.027,2.135,0,3.2a2.467,2.467,0,0,1-2.679,2.654q-5.141.024-10.282,0a2.535,2.535,0,0,1-2.714-2.739c-.016-1.034-.018-2.07,0-3.1a2.554,2.554,0,0,1,2.749-2.71C424.136,137.362,425.85,137.371,427.564,137.371Zm-.132,7.017c1.715,0,3.431.01,5.146,0,.93-.008,1.2-.288,1.223-1.23q.029-1.5,0-3.01c-.019-.917-.323-1.222-1.238-1.225q-5.049-.015-10.1,0c-.877,0-1.223.354-1.241,1.237-.019.97-.015,1.942,0,2.913.014,1.009.323,1.309,1.355,1.315C424.2,144.395,425.814,144.388,427.432,144.387Z" transform="translate(-141.206 -46.188)" fill="url(#linear-gradient)"/>
      <path id="Trazado_1009660" data-name="Trazado 1009660" d="M313.6,333.748a8.386,8.386,0,0,1,.583-.835q1.977-2.2,3.977-4.374c.174-.19.336-.456.554-.524a1.23,1.23,0,0,1,.886.037.638.638,0,0,1,.166.94,3.121,3.121,0,0,1-.36.453q-2.507,2.763-5.018,5.523c-.087.1-.17.2-.264.284-.535.5-.9.5-1.4-.059-.56-.626-1.083-1.284-1.622-1.928-.415-.5-.845-.979-1.241-1.488-.368-.473-.354-.917-.007-1.2s.791-.226,1.18.22c.637.73,1.248,1.483,1.875,2.222C313.073,333.208,313.254,333.382,313.6,333.748Z" transform="translate(-52.527 -199.737)" fill="url(#linear-gradient)"/>
      <path id="Trazado_1009661" data-name="Trazado 1009661" d="M440.789,238.423a4.632,4.632,0,1,1,4.646-4.6A4.588,4.588,0,0,1,440.789,238.423Zm-.005-1.528a3.1,3.1,0,1,0-3.145-3.041A3.117,3.117,0,0,0,440.784,236.894Z" transform="translate(-154.451 -120.142)" fill="url(#linear-gradient)"/>
    </g>
  </g>
</svg>
