<svg xmlns="http://www.w3.org/2000/svg" xmlns:xlink="http://www.w3.org/1999/xlink" width="129.883" height="129.883" viewBox="0 0 129.883 129.883">
  <defs>
    <linearGradient id="linear-gradient" x1="0.412" y1="0.407" x2="-0.346" y2="-1.2" gradientUnits="objectBoundingBox">
      <stop offset="0" stop-color="#0cebf3"/>
      <stop offset="1" stop-color="#3ef989"/>
    </linearGradient>
  </defs>
  <g id="Grupo_1198592" data-name="Grupo 1198592" transform="translate(-264.059 -669.059)">
    <g id="Grupo_1192986" data-name="Grupo 1192986" transform="translate(264.059 669.059)">
      <path id="Trazado_995327" data-name="Trazado 995327" d="M64.941,0A64.941,64.941,0,1,1,0,64.941,64.941,64.941,0,0,1,64.941,0Z" transform="translate(0)" fill="#1d0736"/>
    </g>
    <g id="Grupo_1198216" data-name="Grupo 1198216" transform="translate(64.618 605.81)">
      <path id="Trazado_1009662" data-name="Trazado 1009662" d="M382.871,229.332c-1.026,1.827-1.9,3.348-2.732,4.892a2.543,2.543,0,0,0-.3,1.151c-.017,8.994,0,17.987-.033,26.98a1.089,1.089,0,0,0,.9,1.229q1.6.488,3.19,1.029c.862.293,1.549.8,1.19,1.822-.346.991-1.131,1.048-2.039.728-1.365-.481-2.747-.915-4.126-1.356-1.632-.522-1.828-.772-1.828-2.464q0-12.62,0-25.24v-1.331a24.683,24.683,0,0,1-3.939.64,26.52,26.52,0,0,1-4.1-.61v1.335q0,12.558,0,25.116c0,1.821-.158,2.022-1.858,2.565-1.419.452-2.837.907-4.245,1.391a1.316,1.316,0,0,1-1.905-.811c-.308-.889.255-1.434,1.014-1.715,1.125-.416,2.277-.759,3.422-1.117a1.1,1.1,0,0,0,.914-1.228c-.031-8.993-.011-17.987-.045-26.981a2.535,2.535,0,0,0-.575-1.417,9.456,9.456,0,0,1-2.114-6.091c.025-3.6.007-7.2.007-10.986h-4.607c-.7,0-1.411.029-2.113-.012a4.081,4.081,0,0,1-4.061-4.031,4.014,4.014,0,0,1,4-4.07c1.819-.09,3.648-.075,5.469-.01a1.822,1.822,0,0,0,2.033-1.112,4.293,4.293,0,0,1,4.056-2.413q9.2-.049,18.4,0a6.774,6.774,0,0,1,5.146,2.692c2.17-3.03,5.314-2.726,8.4-2.721,3.8.006,3.722-.159,3.682,3.65-.005.526,0,1.053,0,1.648.547.042.951.067,1.353.1a1.227,1.227,0,0,1,1.282,1.365,1.16,1.16,0,0,1-1.27,1.232c-1.823.021-3.647.026-5.47-.007a1.151,1.151,0,0,1-1.216-1.283,1.2,1.2,0,0,1,1.217-1.3c.444-.048.889-.075,1.387-.116v-2.462a39.625,39.625,0,0,0-5.061.046,3.815,3.815,0,0,0-3.013,3.917c-.048,3.479-.014,6.96-.014,10.671,2.5-1.848,5.311-1.148,8.152-1.35,0-1.24.024-2.427-.007-3.613-.025-.964.306-1.729,1.327-1.724s1.339.787,1.336,1.737c-.012,3.274.009,6.548-.01,9.822-.009,1.464-.376,1.805-1.88,1.807q-9.138.012-18.277,0Zm-3.131-2.736v-18.68c-3.845,0-7.609-.021-11.372.014a1.837,1.837,0,0,0-1.909,1.644,44.885,44.885,0,0,0-.041,4.574c.974,0,1.8.009,2.626,0a2.326,2.326,0,0,0,2.648-2.186c.187-.889.615-1.475,1.6-1.329.953.141,1.1.854,1.064,1.676a4.963,4.963,0,0,1-5.02,4.547c-.972.04-1.946.006-2.877.006V226.6Zm10.781-3.98c0-3.917.047-7.559-.022-11.2a3.583,3.583,0,0,0-2.976-3.379,44.426,44.426,0,0,0-4.879-.04v13.3C385.3,221.526,388,220.8,390.52,222.616Zm-11.009,6.8H366.59a6.651,6.651,0,0,0,6.483,5.353A6.578,6.578,0,0,0,379.512,229.419Zm-15.907-18c-2.254,0-4.4-.022-6.54.011-.838.013-1.578.492-1.45,1.329a1.928,1.928,0,0,0,1.29,1.313c2.209.141,4.433.062,6.7.062Zm30.127,15.139h7.6v-2.376C397.135,223.8,394.689,223.768,393.732,226.558Zm-11.136.008H390.2c-1.1-2.744-3.195-2.788-7.607-2.383Z" transform="translate(-102.131 -89.328)" fill="url(#linear-gradient)"/>
      <path id="Trazado_1009663" data-name="Trazado 1009663" d="M253.869,103.75c-1.288-.548-2.364-1.054-3.476-1.465a2.289,2.289,0,0,1-1.524-1.789,14.731,14.731,0,0,0-22.015-9.4c-.071.042-.145.08-.216.123-1.474.873-2.216.9-2.68.015-.677-1.3.389-1.758,1.212-2.283a17.6,17.6,0,0,1,26.165,9.99,2.261,2.261,0,0,0,1.118,1.235c1.681.795,3.449,1.408,5.121,2.22.5.245,1.123.92,1.11,1.383s-.646,1.114-1.162,1.36c-1.641.781-3.376,1.364-5.024,2.132a2.3,2.3,0,0,0-1.152,1.243,17.532,17.532,0,0,1-33.82-.392,17.064,17.064,0,0,1,2.122-13.709c.152-.246.276-.6.5-.694.553-.226,1.241-.581,1.721-.422.761.253.881,1.047.517,1.779-.5,1-1.118,1.94-1.554,2.962a14.78,14.78,0,1,0,27.98,9.241,2.627,2.627,0,0,1,1.892-2.2C251.712,104.746,252.669,104.261,253.869,103.75Z" fill="url(#linear-gradient)"/>
      <path id="Trazado_1009664" data-name="Trazado 1009664" d="M244.035,124.039a10.766,10.766,0,1,1,10.719,10.751A10.78,10.78,0,0,1,244.035,124.039Zm2.718.05a8.057,8.057,0,1,0,8.025-8.078A8.059,8.059,0,0,0,246.753,124.089Z" transform="translate(-20.36 -20.315)" fill="url(#linear-gradient)"/>
      <path id="Trazado_1009665" data-name="Trazado 1009665" d="M405.628,137.453a9.4,9.4,0,1,1,.038-18.8,9.4,9.4,0,1,1-.038,18.8Zm-.044-2.707a6.718,6.718,0,0,0,6.8-6.615,6.868,6.868,0,0,0-6.683-6.8,6.757,6.757,0,0,0-6.755,6.679A6.617,6.617,0,0,0,405.584,134.747Z" transform="translate(-134.71 -24.325)" fill="url(#linear-gradient)"/>
      <path id="Trazado_1009666" data-name="Trazado 1009666" d="M271.25,135.033a5.281,5.281,0,0,1,3.7,1.5c.6.578.894,1.242.3,1.962-.625.762-1.31.62-2.054.061-1.977-1.486-4.244-.778-4.588,1.4a2.654,2.654,0,0,0,3.991,2.7,3.172,3.172,0,0,0,.5-.363c.718-.643,1.493-.838,2.153-.017.677.843.178,1.525-.5,2.126a5.349,5.349,0,0,1-8.639-5.625A5.322,5.322,0,0,1,271.25,135.033Z" transform="translate(-36.778 -36.631)" fill="url(#linear-gradient)"/>
      <path id="Trazado_1009667" data-name="Trazado 1009667" d="M424.114,155.528c-1.288-.911-2.883-.361-4.506-.008a1.186,1.186,0,0,1-1.543-1.053c-.126-.895.334-1.331,1.209-1.557a4.958,4.958,0,0,0,1.7-.9,1.512,1.512,0,0,1,2.118.006,4.883,4.883,0,0,0,1.7.9c.811.212,1.287.617,1.219,1.443C425.932,155.277,425.291,155.589,424.114,155.528Z" transform="translate(-151.093 -49.061)" fill="url(#linear-gradient)"/>
    </g>
  </g>
</svg>
