<svg xmlns="http://www.w3.org/2000/svg" xmlns:xlink="http://www.w3.org/1999/xlink" width="129.883" height="129.883" viewBox="0 0 129.883 129.883">
  <defs>
    <linearGradient id="linear-gradient" x1="0.614" y1="0.546" x2="0.19" y2="-0.589" gradientUnits="objectBoundingBox">
      <stop offset="0" stop-color="#0cebf3"/>
      <stop offset="1" stop-color="#3ef989"/>
    </linearGradient>
  </defs>
  <g id="Grupo_1198594" data-name="Grupo 1198594" transform="translate(-888.059 -669.059)">
    <g id="Grupo_1192986" data-name="Grupo 1192986" transform="translate(888.059 669.059)">
      <path id="Trazado_995327" data-name="Trazado 995327" d="M64.941,0A64.941,64.941,0,1,1,0,64.941,64.941,64.941,0,0,1,64.941,0Z" transform="translate(0)" fill="#1d0736"/>
    </g>
    <g id="Grupo_1198218" data-name="Grupo 1198218" transform="translate(734.975 622.098)">
      <path id="Trazado_1009674" data-name="Trazado 1009674" d="M214.108,83.148c6.608,4.108,11.124,9.7,12.895,17.284a25.775,25.775,0,0,1-4.16,21.142c1.817,1.8,3.6,3.591,5.425,5.337a1.267,1.267,0,0,0,1.019.209,4.463,4.463,0,0,1,4.454,1.2c4.672,4.614,9.345,9.228,13.938,13.92a7.176,7.176,0,0,1-10.155,10.137c-2.966-2.842-5.836-5.784-8.751-8.68-.265-.263-.543-.513-.947-.893-.037.483-.083.8-.084,1.126-.006,2.42.008,4.841-.007,7.261-.013,2.134-1.076,3.214-3.181,3.215q-21.6.009-43.2,0c-2.11,0-3.148-1.069-3.149-3.22,0-9.3-.021-18.595.009-27.892a23.909,23.909,0,0,0-1.262-8.525c-2.694-7.4-1.822-14.645,2.054-21.511.093-.165.17-.339.248-.5-1.739-2.8-1.327-4.747,1.314-6.58a1.294,1.294,0,0,0,.4-.933c.033-2.3.017-4.61.018-6.915,0-2.655.839-3.48,3.533-3.481q5.76,0,11.52,0h1.353c0-1.8.075-3.564,1.671-4.6a5.359,5.359,0,0,1,2.656-.874c2.447-.046,3.53,1.454,4.119,5.47h1.194q5.991,0,11.981,0c2.185,0,3.178.99,3.2,3.15.006.653.009,1.307,0,1.959a2.792,2.792,0,0,1-3.058,3.1c-1.458.042-2.918.007-4.377.015C214.551,83.083,214.33,83.125,214.108,83.148ZM181.062,123.03v28.565h43.913v-1.3c0-2.957-.051-5.915.027-8.869a3.079,3.079,0,0,0-1.084-2.6,4.632,4.632,0,0,1-1.532-4.882,1.257,1.257,0,0,0-.287-1c-1.71-1.81-3.462-3.581-5.2-5.365-.37.214-.606.335-.827.481a23.09,23.09,0,0,1-12.014,4.2c-6.67.208-13.348.152-20.022.2-.067,0-.134-.059-.247-.111V129.7h5.371Zm8.049-36.357c-.661.455-1.209.845-1.771,1.215a1.694,1.694,0,0,0-.914,1.856,3.979,3.979,0,0,1-3.786,4.242,1.5,1.5,0,0,0-1.42.9,22.969,22.969,0,0,0-2.3,17.259A23.291,23.291,0,0,0,210.2,128.013c8.36-3.374,13.382-9.735,14.516-18.676,1.164-9.178-2.282-16.6-9.775-22.083-.261-.191-.56-.331-.981-.576a6.787,6.787,0,0,1-.026,1.774c-.334,1.077.208,1.6.952,2.25,5.905,5.172,8.3,11.711,6.952,19.42a20.594,20.594,0,0,1-40.147,1.549c-2.061-8.524.357-15.672,7.032-21.372.248-.212.621-.493.621-.743C189.343,88.656,189.21,87.755,189.111,86.673Zm19.416,26.542c-.425-1.56.333-2.319,1.3-3.159a12.217,12.217,0,0,0,.275-18.074,2.79,2.79,0,0,0-1.7-.7q-6.794-.085-13.588,0a2.782,2.782,0,0,0-1.7.684,12.215,12.215,0,0,0-.043,17.848c.981.925,2.12,1.672,1.644,3.316h2.718c0-1.992.02-3.9-.021-5.815a1.223,1.223,0,0,0-.465-.856c-2.061-1.4-2.526-3.384-2.224-5.7a15.229,15.229,0,0,0,.013-1.957V95.948c1.132.568,2.05.958,2.893,1.47a1.971,1.971,0,0,0,2.42-.026,2.353,2.353,0,0,1,3.133.027,1.9,1.9,0,0,0,2.32.026c.9-.528,1.867-.947,2.937-1.48,0,1.954-.133,3.693.034,5.4a4.884,4.884,0,0,1-2.018,4.868,1.612,1.612,0,0,0-.7.985c-.067,1.947-.033,3.9-.033,5.887.372.044.63.1.889.1C207.169,113.224,207.735,113.214,208.527,113.214Zm33.8,38.738.155-.292a4.432,4.432,0,0,0,4.1-2.665,4.28,4.28,0,0,0-.911-4.9q-6.809-6.865-13.684-13.665a1.914,1.914,0,0,0-3.034,0q-1.665,1.59-3.26,3.253a1.907,1.907,0,0,0-.006,3.029c4.552,4.566,9.094,9.144,13.72,13.634A12.518,12.518,0,0,0,242.328,151.952Zm-31.195-68.8H192.056v5.314h19.077Zm8.3-5.517H183.765v2.6h35.671Zm-11.452,45.35c6.148-2.23,10.321-7.627,11.39-14.745.605-4.026-1.126-9.969-3.325-11.952a2.491,2.491,0,0,0,.038.353,14.924,14.924,0,0,1-4.332,15.444,2.037,2.037,0,0,0-.535,1.28c-.061,1.764-.01,3.532-.032,5.3a2.508,2.508,0,0,1-1.832,2.618C208.362,121.472,208.025,121.974,207.984,122.987ZM187.011,96.074a17.512,17.512,0,0,0-2.668,15.014c1.5,5.552,6.563,10.955,10.971,11.7-.291-.5-.591-1.159-1.061-1.319a2.837,2.837,0,0,1-2.279-3.016c-.017-1.65.052-3.3-.037-4.949a2.58,2.58,0,0,0-.687-1.559,14.806,14.806,0,0,1-4.74-11.209C186.545,99.224,186.827,97.714,187.011,96.074Zm10.578,4.333c-.456,1.809-.08,3.107,1.271,4.061a3.365,3.365,0,0,1,1.384,3.281c-.116,1.782-.028,3.577-.028,5.373h2.7c0-1.738.117-3.395-.033-5.027a3.819,3.819,0,0,1,1.653-3.852c1.377-.94,1.271-2.269,1.064-3.824-1.141.957-2.073.322-2.968-.23a1.847,1.847,0,0,0-2.13.012C199.606,100.737,198.681,101.41,197.589,100.407ZM194.8,118.63H208.35v-2.573H194.8Zm26.417,5.3-1.936,1.82,5.043,5.2,2.029-1.88Zm-15.914-2.47h-7.432a3.878,3.878,0,0,0,7.432,0Zm-21.6-38.289c0,.838-.011,1.6,0,2.354.015.808.67,1.061,1.157.762,1.467-.9,2.836-1.963,4.459-3.116Zm19.226-8.359c-.1-.973.332-2.013-.746-2.531a1.612,1.612,0,0,0-1.363.1c-.868.592-.621,1.521-.505,2.427ZM183.746,90.288c-.164-1.216-.606-1.737-1.477-1.7A1.2,1.2,0,0,0,181,89.916c.012.878.538,1.44,1.378,1.277C182.925,91.086,183.383,90.542,183.746,90.288Z" transform="translate(0)" fill="url(#linear-gradient)"/>
      <path id="Trazado_1009675" data-name="Trazado 1009675" d="M500.017,184.942h-5.432v5.409h-2.734v-5.393H486.4v-2.725h5.38v-5.444H494.5v5.346h5.521Z" transform="translate(-239.368 -82.666)" fill="url(#linear-gradient)"/>
      <path id="Trazado_1009676" data-name="Trazado 1009676" d="M491.942,268.188h-5.451v-2.75H491.9v-5.425h2.7v5.4h5.5v2.713H494.68v5.484h-2.737Z" transform="translate(-239.439 -146.72)" fill="url(#linear-gradient)"/>
      <path id="Trazado_1009677" data-name="Trazado 1009677" d="M500.013,101.565H494.6v5.417h-2.733v-5.388H486.42V98.867h5.409V93.44h2.723V98.8h5.461Z" transform="translate(-239.385 -18.516)" fill="url(#linear-gradient)"/>
      <path id="Trazado_1009678" data-name="Trazado 1009678" d="M211.724,358.035v-2.613h32.859v2.613Z" transform="translate(-27.963 -220.152)" fill="url(#linear-gradient)"/>
      <path id="Trazado_1009679" data-name="Trazado 1009679" d="M295.154,387.314v-8.043h8.163v8.043Zm5.417-5.274c-2.9-.2-2.887-.6-2.553,2.543h2.553Z" transform="translate(-92.176 -238.508)" fill="url(#linear-gradient)"/>
      <path id="Trazado_1009680" data-name="Trazado 1009680" d="M351.25,379.177v8.087h-8.12v-8.087Zm-5.393,2.744v2.609h2.66v-2.609Z" transform="translate(-129.101 -238.435)" fill="url(#linear-gradient)"/>
      <path id="Trazado_1009681" data-name="Trazado 1009681" d="M247.617,387.342v-8.058h8.1v8.058Zm5.355-5.314H250.4V384.6h2.572Z" transform="translate(-55.588 -238.518)" fill="url(#linear-gradient)"/>
      <path id="Trazado_1009682" data-name="Trazado 1009682" d="M211.667,381.836v-2.592h5.4v2.592Z" transform="translate(-27.919 -238.487)" fill="url(#linear-gradient)"/>
    </g>
  </g>
</svg>
