<svg xmlns="http://www.w3.org/2000/svg" width="98" height="98" viewBox="0 0 98 98">
  <g id="Grupo_1198594" data-name="Grupo 1198594" transform="translate(-1403.224 10497.049)">
    <g id="Grupo_1198226" data-name="Grupo 1198226">
      <g id="Grupo_1102209" data-name="Grupo 1102209" transform="translate(751.453 -17490.049)">
        <rect id="Rectángulo_403454" data-name="Rectángulo 403454" width="98" height="98" rx="18" transform="translate(651.771 6993)" fill="#fff"/>
      </g>
      <g id="Grupo_1198223" data-name="Grupo 1198223" transform="translate(1118.67 -10528.996)">
        <path id="Trazado_1009728" data-name="Trazado 1009728" d="M336.034,94.529c0,1.934-.06,3.747.018,5.554a10.61,10.61,0,0,1-.76,4.37c-.5,1.293-.959,2.606-1.354,3.934a9.018,9.018,0,0,0-.379,2.289c-.053,1.887-.007,3.777-.022,5.666-.009,1.165-.391,1.581-1.519,1.584q-8.393.02-16.786,0c-1.082,0-1.438-.4-1.472-1.518a14.139,14.139,0,0,1,0-1.817A19.537,19.537,0,0,0,312,104.854c-1.295-3.038-2.321-6.192-3.4-9.318a1.243,1.243,0,0,0-1.412-1.028q-4.489.081-8.98-.009c-.532-.011-1.349-.29-1.508-.668a2.06,2.06,0,0,1,.354-1.7c2.425-3.212,4.943-6.352,7.375-9.559a3.235,3.235,0,0,0,.636-1.811q.056-17.374.028-34.747c0-1.8.245-2.057,2.021-2.057q26.408,0,52.816,0c1.823,0,2.061.249,2.061,2.126q0,17.267-.013,34.534a3.041,3.041,0,0,0,.683,2.039q3.713,4.692,7.323,9.465a2.067,2.067,0,0,1,.428,1.686,2.062,2.062,0,0,1-1.6.692c-10.442.04-20.884.029-31.326.029Zm-14.811-13.61H359.4V46.452H307.675V80.946h5.947a2.224,2.224,0,0,0-1.1-2.879,7.755,7.755,0,0,1-3.588-5.58,8.65,8.65,0,0,1,16.3-5.225,8.453,8.453,0,0,1-2.816,10.793A2.346,2.346,0,0,0,321.224,80.918Zm-2.493,11.05c0-.552,0-.976,0-1.4q0-8.178,0-16.356c0-1.148-.516-1.9-1.278-1.907s-1.267.72-1.277,1.888c0,.321,0,.641,0,.962V95.626c-2.262.432-2.355.363-2.968-1.6s-1.246-3.934-1.926-5.881c-.252-.721-.8-1.276-1.636-.939-.8.32-.9,1.022-.622,1.792,2.143,6.03,4.3,12.057,6.412,18.1a1.22,1.22,0,0,0,1.375.967c4.276-.039,8.552-.019,12.828-.019,1.806,0,1.828.007,2.378-1.728a22.05,22.05,0,0,0,1.46-5.1c.223-3.764.065-7.55.072-11.328,0-.871-.342-1.534-1.253-1.525s-1.248.678-1.244,1.545c.009,1.782,0,3.563,0,5.345,0,.551,0,1.1,0,1.656h-2.428V95.72c0-2.78,0-5.559,0-8.339,0-.8-.311-1.429-1.2-1.464-.96-.038-1.309.606-1.319,1.455-.02,1.71-.008,3.421-.008,5.131,0,.659,0,1.319,0,1.946h-2.363c-.018-.218-.04-.358-.04-.5q0-4.49,0-8.98c0-.862-.354-1.524-1.266-1.528s-1.273.653-1.273,1.517v7.007Zm17.365-.024h30.689c-.239-.339-.385-.568-.552-.781-1.8-2.3-3.631-4.577-5.4-6.9a1.964,1.964,0,0,0-1.772-.876c-9.837.031-19.673.02-29.51.02h-.839l2.561,2.6.928-.153.144-1.09h4.79v2.355h-1.877c.495,1.205.495,1.206,1.575,1.208h2.841v2.54H336.1Zm-19.812,18.668v4.823h14.689v-4.823Zm-8.9-18.657c-.821-2.5-1.956-5.053.909-6.776,2.121-1.275,3.912-.305,5.387,1.655V83.408c-2.162,0-4.255-.021-6.345.025a1.358,1.358,0,0,0-.822.546c-1.428,1.771-2.83,3.564-4.234,5.354-.646.823-1.282,1.655-2.029,2.622Zm13.754-16.046a5.905,5.905,0,0,0,2.317-6.328,5.774,5.774,0,0,0-4.728-4.406c0,1.356-.05,2.707.031,4.049a1.774,1.774,0,0,0,.649,1.15,3.923,3.923,0,0,1,1.731,3.256C321.143,74.338,321.142,75.045,321.142,75.909Zm-4.927-10.8a5.974,5.974,0,0,0-4.831,4.92,5.711,5.711,0,0,0,2.372,5.8c0-.574.02-1.055,0-1.534a4.132,4.132,0,0,1,2.034-4.068,1.043,1.043,0,0,0,.41-.75C316.236,68.05,316.215,66.625,316.215,65.109Z" transform="translate(0 0)"/>
        <path id="Trazado_1009729" data-name="Trazado 1009729" d="M548.345,330.637c0,.855-.01,1.71,0,2.564a1.589,1.589,0,0,1-.923,1.749c-.17.072-.29.442-.3.68-.035.889,0,1.78-.018,2.67-.021,1.134-.433,1.584-1.523,1.6-1.5.024-2.992.006-4.487.006a1.314,1.314,0,0,1-1.464-1.45c-.018-.64,0-1.282-.007-1.923-.012-.739.208-1.531-.785-1.945-.259-.108-.417-.732-.426-1.123-.044-1.851-.037-3.7-.014-5.555.014-1.1.474-1.552,1.575-1.56q3.419-.026,6.838,0c1.038.009,1.488.466,1.522,1.507C548.367,328.784,548.344,329.711,548.345,330.637Zm-6.178,6.764h2.406c0-1.022.014-1.979,0-2.935-.015-.825.044-1.582.992-1.91a.506.506,0,0,0,.253-.385c.021-1.092.012-2.184.012-3.267h-4.915c0,.658-.008,1.256,0,1.853.015.835-.258,1.746.86,2.219.249.105.358.746.378,1.147C542.2,335.187,542.167,336.254,542.167,337.4Z" transform="translate(-190.042 -221.977)"/>
        <path id="Trazado_1009730" data-name="Trazado 1009730" d="M595.482,326.358c1.14,0,2.279-.007,3.419,0a1.326,1.326,0,0,1,1.483,1.444c.021,1.923.039,3.847-.02,5.769a1.5,1.5,0,0,1-.574,1.157c-.671.28-.653.723-.642,1.267q.025,1.228,0,2.457a1.309,1.309,0,0,1-1.447,1.465c-1.531,0-3.063,0-4.594,0-.977,0-1.412-.554-1.43-1.483-.014-.712,0-1.425-.005-2.137,0-.649.161-1.324-.739-1.65-.261-.094-.455-.717-.465-1.1-.047-1.886-.042-3.775-.015-5.662.015-1.091.476-1.506,1.61-1.522S594.342,326.358,595.482,326.358Zm-2.5,6.128c1.061.249,1.284,1.028,1.239,2.016s-.01,1.96-.01,2.9h2.208c.777-1.688-.906-3.886,1.387-5v-3.458h-4.824Z" transform="translate(-230.957 -221.989)"/>
        <path id="Trazado_1009731" data-name="Trazado 1009731" d="M496.3,330.681c0,.784-.007,1.567,0,2.351.01.809-.009,1.573-.953,1.941-.16.062-.257.459-.265.7-.031.925,0,1.852-.018,2.777a1.313,1.313,0,0,1-1.453,1.461c-1.531,0-3.063,0-4.594,0-.977,0-1.41-.555-1.423-1.486-.01-.712,0-1.425,0-2.137-.006-.647.168-1.326-.741-1.644-.261-.091-.465-.714-.474-1.1-.047-1.922-.038-3.846-.013-5.769a1.323,1.323,0,0,1,1.5-1.422c2.315,0,4.63-.017,6.945.006,1.018.01,1.456.483,1.485,1.541C496.324,328.829,496.3,329.755,496.3,330.681Zm-2.538-1.779h-4.824v3.6c1.01.222,1.232.974,1.2,1.924-.036.985-.008,1.973-.008,2.991h2.254c.693-1.651-.892-3.838,1.381-5.039Z" transform="translate(-149.135 -221.986)"/>
        <path id="Trazado_1009732" data-name="Trazado 1009732" d="M495.938,293.564a3.662,3.662,0,1,1,3.757-3.582A3.707,3.707,0,0,1,495.938,293.564Zm1.41-3.47-.019-.5c-.474-.314-.928-.845-1.425-.888a1.067,1.067,0,0,0-1.134,1.248c.033.782.554,1.266,1.232,1.147C496.494,291.013,496.9,290.446,497.348,290.094Z" transform="translate(-153.762 -190.457)"/>
        <path id="Trazado_1009733" data-name="Trazado 1009733" d="M547.925,293.564a3.662,3.662,0,1,1,3.787-3.656A3.714,3.714,0,0,1,547.925,293.564Zm1.436-3.433q0-.252-.008-.5c-.465-.326-.905-.87-1.4-.925-.681-.076-1.177.436-1.164,1.22s.525,1.279,1.2,1.18C548.485,291.029,548.907,290.472,549.361,290.131Z" transform="translate(-194.65 -190.458)"/>
        <path id="Trazado_1009734" data-name="Trazado 1009734" d="M600.049,286.242a3.662,3.662,0,1,1-3.776,3.672A3.705,3.705,0,0,1,600.049,286.242Zm-1.424,3.422,0,.5c.463.329.9.874,1.4.934.682.081,1.179-.427,1.171-1.212s-.518-1.283-1.2-1.189C599.508,288.768,599.081,289.325,598.625,289.664Z" transform="translate(-235.548 -190.458)"/>
        <path id="Trazado_1009735" data-name="Trazado 1009735" d="M459.844,90.29c1.977-.635,3.9-1.005,4.859-3,.087-.181.52-.25.8-.273.523-.042,1.052-.012,1.624-.012a3.732,3.732,0,0,1-1.759,3.352,28.254,28.254,0,0,1-4.677,2.225,13.884,13.884,0,0,1-6.847.537,13.62,13.62,0,0,1-6.922-2.546c-2.71-2.155-2.679-5.184.119-7.245a9.341,9.341,0,0,1,2.036-1.15,1.151,1.151,0,0,0,.819-1.283q-.05-3.8,0-7.592c.007-.621-.142-.995-.781-1.178a6.37,6.37,0,0,1-4.2-6.014l-1.5,1.847L441.458,66.5c1.308-1.719,2.541-3.446,3.9-5.069a1.094,1.094,0,0,1,1.774.16c1.246,1.6,2.448,3.226,3.717,4.907l-1.93,1.454-1.334-1.637a1.881,1.881,0,0,0,.859,2.536,11.682,11.682,0,0,0,3.992,1.652c2.633.356,5.318.338,7.983.44.744.028,1.394.064,1.811.838.139.258.578.368.894.515a7.4,7.4,0,0,1,3.449,2.762,3.649,3.649,0,0,1-.433,4.631,15.213,15.213,0,0,1-3.185,2.262c-.535.313-.844.576-.756,1.2a4.537,4.537,0,0,1,0,.641c-.005,1.689-.174,1.859-1.9,1.923-.135.005-.27.031-.454.053Zm-7.484-9.206c2.274-.178,4.5-.335,6.717-.55.253-.025.674-.369.679-.573.05-2.152.031-4.305.031-6.459H452.36Zm-.112,9.39V85.786c-1.852-.169-1.852-.169-2.609-1.192-.378.235-.784.447-1.145.718-1.446,1.086-1.5,2.353.006,3.345A31.555,31.555,0,0,0,452.248,90.474Zm7.482-7.255-.019-.132-5.222.308c.75,2.417.1,4.821.445,7.2h2.317c0-1.932-.013-3.81,0-5.688.011-1.174.431-1.564,1.611-1.6C459.155,83.3,459.442,83.248,459.73,83.219Zm2.531-3.727c1.656-.693,2.554-1.673,2.429-2.547a3.059,3.059,0,0,0-2.429-2.068Z" transform="translate(-113.849 -13.435)"/>
        <path id="Trazado_1009736" data-name="Trazado 1009736" d="M495.995,67.118a3.666,3.666,0,1,1-3.77,3.681A3.723,3.723,0,0,1,495.995,67.118Zm1.344,3.888-.012-.507c-.467-.32-.911-.855-1.407-.907a1.064,1.064,0,0,0-1.156,1.224c.02.782.525,1.275,1.211,1.164C496.469,71.9,496.887,71.347,497.339,71.005Z" transform="translate(-153.756 -18.206)"/>
        <path id="Trazado_1009737" data-name="Trazado 1009737" d="M509.859,254.081v-2.348h4.846v2.348Z" transform="translate(-167.618 -163.331)"/>
        <path id="Trazado_1009738" data-name="Trazado 1009738" d="M549.335,254.1h-4.8v-2.4h4.8Z" transform="translate(-194.876 -163.303)"/>
        <path id="Trazado_1009739" data-name="Trazado 1009739" d="M584.331,251.7v2.368H579.51V251.7Z" transform="translate(-222.37 -163.305)"/>
        <path id="Trazado_1009740" data-name="Trazado 1009740" d="M533.289,234.529h4.793V236.8h-4.793Z" transform="translate(-186.036 -149.807)"/>
        <path id="Trazado_1009741" data-name="Trazado 1009741" d="M503.223,236.882h-4.781v-2.288h4.781Z" transform="translate(-158.643 -149.858)"/>
        <path id="Trazado_1009742" data-name="Trazado 1009742" d="M572.469,236.955h-4.806V234.67h4.806Z" transform="translate(-213.057 -149.918)"/>
      </g>
    </g>
  </g>
</svg>
