<svg xmlns="http://www.w3.org/2000/svg" width="107" height="107" viewBox="0 0 107 107">
  <g id="Grupo_1198592" data-name="Grupo 1198592" transform="translate(-414.83 -6384.449)">
    <g id="Grupo_156312" data-name="Grupo 156312" transform="translate(414.83 6384.449)">
      <path id="Elipse_5845" data-name="Elipse 5845" d="M53.5,0A53.5,53.5,0,1,1,0,53.5,53.5,53.5,0,0,1,53.5,0Z" transform="translate(0)" fill="#b5c7e7"/>
    </g>
    <g id="Grupo_1198205" data-name="Grupo 1198205" transform="translate(162.701 6351.111)">
      <path id="Trazado_1009563" data-name="Trazado 1009563" d="M432.067,195.143H421.615c0,1.053.01,2.075,0,3.1-.014,1.151-.354,1.5-1.5,1.506q-4.321.016-8.642,0c-1.11,0-1.492-.4-1.5-1.533q-.017-4.221,0-8.442c0-1.186.377-1.548,1.573-1.552q4.271-.011,8.542,0c1.207,0,1.517.332,1.527,1.576.008.969,0,1.937,0,2.981h10.449c0-1-.02-1.99.005-2.983.031-1.242.337-1.547,1.561-1.574.968-.021,1.936,0,2.985,0v-4.632c-.95,0-1.908.021-2.866-.005-1.294-.035-1.656-.409-1.683-1.711-.019-.931,0-1.864,0-2.925h-2.446c-2.144,0-4.288.008-6.432,0-.988-.006-1.559-.459-1.557-1.183s.566-1.17,1.562-1.173c2.911-.008,5.822,0,8.878,0,0-1,0-1.961,0-2.917.007-1.341.374-1.7,1.742-1.706.929,0,1.859,0,2.835,0v-4.618c-.923,0-1.846.01-2.768,0-1.445-.019-1.789-.355-1.812-1.772-.015-.9,0-1.8,0-2.854-1.027,0-2.017.006-3.007,0-1.078-.009-1.664-.443-1.592-1.224.088-.956.769-1.149,1.585-1.14.966.01,1.931,0,3.019,0,0-1.073-.009-2.067,0-3.06.014-1.145.429-1.571,1.583-1.576q4.221-.018,8.442,0c1.2,0,1.624.436,1.627,1.646q.013,4.171,0,8.341c0,1.21-.421,1.619-1.626,1.634-.9.011-1.809.009-2.713.018a1.016,1.016,0,0,0-.241.083v4.523c.959,0,1.948-.007,2.937,0,1.216.01,1.639.416,1.643,1.615q.014,4.17,0,8.341c0,1.25-.428,1.655-1.711,1.666-.932.008-1.865,0-2.863,0v4.637c1.033,0,2.029-.007,3.024,0,1.178.011,1.546.376,1.55,1.576q.014,4.221,0,8.442c0,1.112-.4,1.505-1.52,1.51q-4.321.016-8.642,0c-1.126,0-1.475-.375-1.489-1.527C432.058,197.222,432.067,196.225,432.067,195.143Zm-12.847,2.289v-6.889h-6.815v6.889Zm22.046,0v-6.895h-6.784v6.895Zm-6.78-39.319V164.9h6.781v-6.787Zm-.007,23.017h6.794V174.36h-6.794Z" transform="translate(-110.761 -82.798)"/>
      <path id="Trazado_1009564" data-name="Trazado 1009564" d="M337.275,133.175h51.053v-49.8H387.3q-5.024,0-10.047,0c-1.3,0-1.67-.365-1.674-1.673-.009-2.914,0-5.827,0-8.741v-1.2h-1.191c-3.684,0-7.368.016-11.052-.022a1.87,1.87,0,0,1-1.307-.484c-.616-.767-.01-1.735,1.058-1.746,2.21-.023,4.421-.008,6.631-.008s4.422-.036,6.63.027a2.552,2.552,0,0,1,1.514.573q6.109,5.448,12.13,10.992a2.363,2.363,0,0,1,.682,1.555q.062,25.621.045,51.241c0,1.291-.33,1.623-1.607,1.623q-26.274.007-52.548,0c-1.316,0-1.639-.342-1.64-1.69q0-10.55,0-21.1a3.685,3.685,0,0,1,.014-.6,1.161,1.161,0,0,1,2.305-.061,5.709,5.709,0,0,1,.037,1q0,9.445,0,18.889ZM378.013,73.34v7.617h8.405Z" transform="translate(-50.795 -13.918)"/>
      <path id="Trazado_1009565" data-name="Trazado 1009565" d="M271.34,74.225a22.132,22.132,0,0,1,22.368-22.151c11.666-.038,22.091,10.322,21.818,22.4C315.259,86.23,305.3,96.2,293.445,96.143,281.321,96.087,271.307,86.159,271.34,74.225Zm41.779.016a19.587,19.587,0,0,0-19.349-19.865c-10.936-.047-20,8.781-20.116,19.43-.127,11.972,9.755,19.948,19.926,19.969A19.517,19.517,0,0,0,313.119,74.241Z" transform="translate(0 0)"/>
      <path id="Trazado_1009566" data-name="Trazado 1009566" d="M348.111,117.694a11.021,11.021,0,0,1-11.338,10.951,11.134,11.134,0,0,1-10.806-11.108,11.394,11.394,0,0,1,11.407-11.007A11.089,11.089,0,0,1,348.111,117.694Zm-5.8-6.964c-.535.976-1.014,1.894-1.536,2.787a.945.945,0,0,0,.085,1.238,4.754,4.754,0,0,1-6.608,6.686,4.847,4.847,0,0,1-.924-6.8c.224-.293.478-.813.364-1.07-.457-1.029-1.054-2-1.6-2.984-2.776,1.458-4.282,5.438-3.509,9.157a8.665,8.665,0,0,0,7.557,6.5c4.257.242,7.99-2.076,9.189-5.705A8.637,8.637,0,0,0,342.313,110.73Zm-2.831,6.894a2.411,2.411,0,0,0-4.822-.029,2.386,2.386,0,0,0,2.411,2.42A2.314,2.314,0,0,0,339.481,117.624ZM334.1,109.38c.594,1.091,1.126,2.017,1.6,2.969a.815.815,0,0,0,1,.555,7.884,7.884,0,0,1,1.2.034c.21-.006.531-.037.608-.169.613-1.049,1.18-2.124,1.8-3.26A9.623,9.623,0,0,0,334.1,109.38Z" transform="translate(-43.648 -43.51)"/>
    </g>
  </g>
</svg>
