<svg xmlns="http://www.w3.org/2000/svg" xmlns:xlink="http://www.w3.org/1999/xlink" width="84" height="84" viewBox="0 0 84 84">
  <defs>
    <linearGradient id="linear-gradient" x1="0.419" y1="0.669" x2="0.652" y2="-0.49" gradientUnits="objectBoundingBox">
      <stop offset="0" stop-color="#0cebf3"/>
      <stop offset="1" stop-color="#3ef989"/>
    </linearGradient>
  </defs>
  <g id="Grupo_1198592" data-name="Grupo 1198592" transform="translate(-719 -4125.79)">
    <g id="Grupo_1197992" data-name="Grupo 1197992" transform="translate(13 2446.87)" style="isolation: isolate">
      <g id="Grupo_1119665" data-name="Grupo 1119665" transform="translate(534.111 -3840.08)">
        <rect id="Rectángulo_402006" data-name="Rectángulo 402006" width="84" height="84" rx="5" transform="translate(171.889 5519)" fill="#1d0736"/>
      </g>
    </g>
    <g id="Grupo_1198200" data-name="Grupo 1198200" transform="translate(430.137 4046.419)">
      <path id="Trazado_1009522" data-name="Trazado 1009522" d="M300.75,141.707V140.58q0-17.056,0-34.112a4.983,4.983,0,0,1,2.788-4.826,7.649,7.649,0,0,1,2.534-.607,25.411,25.411,0,0,1,2.775-.022c.02-.35.05-.633.05-.915,0-1.939.045-3.88-.01-5.817a3.261,3.261,0,0,1,3.4-3.418q17,.061,34,0a3.262,3.262,0,0,1,3.42,3.4c-.048,2.2-.011,4.405-.011,6.748.961,0,1.888-.008,2.815,0a5.3,5.3,0,0,1,3.5,1.227,5.164,5.164,0,0,1,1.836,4.123q.012,7.448,0,14.9,0,9.7,0,19.392v1.088c.358,0,.666-.008.974,0a.918.918,0,0,1,1.011.98c.007,1.615.068,3.238-.057,4.844a4.968,4.968,0,0,1-4.225,4.242,10.314,10.314,0,0,1-1.231.058q-25.019,0-50.037.013a5.3,5.3,0,0,1-4.591-2.124,4.7,4.7,0,0,1-.948-2.877c.005-1.234-.006-2.468,0-3.7.005-1.206.216-1.409,1.449-1.44C300.345,141.733,300.489,141.722,300.75,141.707Zm10.259-42.629c-.013.3-.035.557-.035.815q0,18.118,0,36.236c0,1.236.312,1.542,1.572,1.542q16.742,0,33.484,0c1.311,0,1.6-.293,1.6-1.6q0-18.074,0-36.148v-.844Zm11.121,44.709H300.758c0,1.1-.058,2.126.015,3.147a2.836,2.836,0,0,0,1.8,2.605,5.267,5.267,0,0,0,1.886.3q24.836.024,49.672.012c.235,0,.47.008.7-.006a2.861,2.861,0,0,0,2.842-2.314,29.212,29.212,0,0,0,.229-3.748H336.418c0,.417.017.766,0,1.112a2.935,2.935,0,0,1-2.881,2.872q-4.227.061-8.454,0a2.94,2.94,0,0,1-2.89-2.865C322.167,144.536,322.15,144.163,322.131,143.788ZM349.746,105a1.774,1.774,0,0,0,.272.064c.763.006,1.527,0,2.29.012,1.1.013,1.477.382,1.477,1.488q.005,15.823,0,31.647c0,1.11-.316,1.432-1.4,1.432q-23.083,0-46.166,0c-1.086,0-1.4-.318-1.4-1.435q-.005-15.824,0-31.647c0-1.106.376-1.475,1.479-1.485.842-.008,1.683,0,2.54,0v-1.95c-1.2,0-2.337-.017-3.476.012a1.985,1.985,0,0,0-.833.254,3.041,3.041,0,0,0-1.7,2.941q.022,17.322.01,34.645c0,.226.026.452.04.686h52.89V140.8q0-17.146,0-34.292c0-.235,0-.471-.015-.7a2.785,2.785,0,0,0-2.172-2.578,30.87,30.87,0,0,0-3.836-.036Zm-2.12-8.071c0-1.066.013-2.058-.005-3.05a.947.947,0,0,0-.785-.941,3.68,3.68,0,0,0-.876-.047q-16.654,0-33.307,0a6.01,6.01,0,0,0-.7.013c-.481.057-.9.309-.925.8-.058,1.069-.018,2.143-.018,3.229ZM306.987,107.2v30.429h1.906V107.2Zm44.653,30.473V107.221h-1.95v30.4a3.27,3.27,0,0,0,.427.053C350.611,137.677,351.1,137.672,351.641,137.672Zm-27.362,6.1c-.231,1.622.11,2.031,1.65,2.032q3.382,0,6.763,0c1.535,0,1.887-.431,1.627-2.032Z" transform="translate(0 0)" fill="url(#linear-gradient)"/>
      <path id="Trazado_1009523" data-name="Trazado 1009523" d="M395.833,255q-5.418,0-10.836,0a5.033,5.033,0,0,1-5.429-5.366c-.011-1.2-.02-2.41,0-3.614a5.058,5.058,0,0,1,5.233-5.231q11.057-.048,22.113,0A5.058,5.058,0,0,1,412.166,246c.026,1.292.028,2.586,0,3.878a5.01,5.01,0,0,1-5.23,5.117C403.234,255.012,399.533,255,395.833,255Zm1.043-12.162c-4.206,0-8.312-.036-12.418.018a2.963,2.963,0,0,0-2.857,3.01c-.035,1.232-.013,2.466-.008,3.7a3.152,3.152,0,0,0,3.444,3.447c3.7.011,7.394,0,11.092,0,.25,0,.5-.039.748-.06ZM398.945,253c2.836,0,5.564.058,8.288-.021a3,3,0,0,0,2.905-3.07c.031-1.233.013-2.467.006-3.7a3.1,3.1,0,0,0-3.4-3.379q-3.478-.009-6.956,0c-.279,0-.558.03-.84.046Z" transform="translate(-66.565 -123.484)" fill="url(#linear-gradient)"/>
      <path id="Trazado_1009524" data-name="Trazado 1009524" d="M454.9,174.7c.11-.6.218-1.191.332-1.785.151-.791.619-1.206,1.214-1.085s.91.607.789,1.358c-.307,1.911-.647,3.817-.964,5.726-.085.514-.3.893-.858.963a1,1,0,0,1-1.149-.732c-.3-.788-.64-1.564-1.048-2.553-.3.748-.529,1.326-.763,1.9-.11.272-.225.542-.347.808a.845.845,0,0,1-1.067.548,1.352,1.352,0,0,1-.8-.769c-.4-2.013-.73-4.04-1.041-6.069a.992.992,0,0,1,.887-1.2,1.04,1.04,0,0,1,1.09.929c.14.649.248,1.3.37,1.957l.18.038c.15-.355.3-.709.448-1.066a1.132,1.132,0,0,1,1.008-.855,1.119,1.119,0,0,1,1.092.86c.14.35.282.7.424,1.047Z" transform="translate(-123.918 -66.68)" fill="url(#linear-gradient)"/>
      <path id="Trazado_1009525" data-name="Trazado 1009525" d="M401.221,176.589c-.406.981-.741,1.753-1.044,2.538a1.007,1.007,0,0,1-1.139.75c-.556-.064-.786-.432-.872-.95-.316-1.909-.657-3.814-.96-5.725-.127-.8.22-1.311.854-1.389.566-.069.99.331,1.139,1.082.063.316.109.636.168.952a2.631,2.631,0,0,0,.32.928c.15-.34.315-.674.447-1.021.2-.53.493-.964,1.122-.94.578.022.855.436,1.037.937a2.675,2.675,0,0,0,.574.975c.1-.429.2-.856.284-1.286.053-.258.065-.526.131-.781a1,1,0,1,1,1.972.344c-.036.438-.114.872-.186,1.306-.238,1.417-.474,2.834-.726,4.248-.108.605-.17,1.263-1.009,1.327-.766.059-.985-.5-1.209-1.054Z" transform="translate(-81.083 -66.679)" fill="url(#linear-gradient)"/>
      <path id="Trazado_1009526" data-name="Trazado 1009526" d="M503.768,174.742c.147-.365.294-.731.442-1.1a1.114,1.114,0,0,1,1.025-.829,1.1,1.1,0,0,1,1.043.805,4.375,4.375,0,0,0,.609,1.139c.1-.455.207-.91.3-1.366.06-.287.078-.586.165-.863a.926.926,0,0,1,1.077-.7.907.907,0,0,1,.85.96,8.421,8.421,0,0,1-.147,1.221c-.269,1.619-.553,3.236-.821,4.855-.09.542-.3.955-.912,1.013a1.016,1.016,0,0,1-1.123-.776c-.3-.781-.635-1.548-1.025-2.491-.391.936-.731,1.7-1.029,2.48a1.021,1.021,0,0,1-1.116.786c-.608-.053-.824-.455-.914-1-.314-1.909-.656-3.814-.964-5.724a1.043,1.043,0,0,1,.826-1.332c.567-.1,1.035.309,1.177,1.035.121.618.227,1.24.34,1.86Z" transform="translate(-166.776 -66.684)" fill="url(#linear-gradient)"/>
      <path id="Trazado_1009527" data-name="Trazado 1009527" d="M375.524,110.3a5.364,5.364,0,0,1-.612,0,.9.9,0,0,1-.872-1,.871.871,0,0,1,.841-.941,6.734,6.734,0,0,1,1.136-.014.984.984,0,1,1,.031,1.967c-.174.016-.35,0-.525,0Z" transform="translate(-62.021 -14.38)" fill="url(#linear-gradient)"/>
      <path id="Trazado_1009528" data-name="Trazado 1009528" d="M421.757,108.344a4.236,4.236,0,0,1,.612,0,.887.887,0,0,1,.835.951.862.862,0,0,1-.8.978,6.266,6.266,0,0,1-1.4,0,.882.882,0,0,1-.8-.981.9.9,0,0,1,.764-.934,5.124,5.124,0,0,1,.784-.043Z" transform="translate(-100.052 -14.381)" fill="url(#linear-gradient)"/>
      <path id="Trazado_1009529" data-name="Trazado 1009529" d="M398.613,110.288c-.175,0-.351.011-.524,0a.9.9,0,0,1-.921-.959.887.887,0,0,1,.878-1,6.6,6.6,0,0,1,1.222,0,.887.887,0,0,1,.878,1,.9.9,0,0,1-.921.959C399.022,110.3,398.817,110.288,398.613,110.288Z" transform="translate(-81.072 -14.367)" fill="url(#linear-gradient)"/>
      <path id="Trazado_1009530" data-name="Trazado 1009530" d="M404.454,275.432a3.7,3.7,0,0,1,.7.06.963.963,0,0,1,.78.945.934.934,0,0,1-.8,1,4.774,4.774,0,0,1-1.224.036.96.96,0,0,1-.98-1.022.982.982,0,0,1,1-1,5.056,5.056,0,0,1,.527,0Z" transform="translate(-85.813 -152.042)" fill="url(#linear-gradient)"/>
      <path id="Trazado_1009531" data-name="Trazado 1009531" d="M427.562,277.509a4.892,4.892,0,0,1-.612-.038,1.01,1.01,0,0,1,.041-2.008,4.8,4.8,0,0,1,.964-.012c.7.04,1.1.411,1.111.995A1.032,1.032,0,0,1,428,277.492c-.145.014-.292,0-.439,0Z" transform="translate(-104.881 -152.042)" fill="url(#linear-gradient)"/>
      <path id="Trazado_1009532" data-name="Trazado 1009532" d="M450.68,277.542a5.164,5.164,0,0,1-.7-.059.947.947,0,0,1-.81-1,.886.886,0,0,1,.745-.953,4.326,4.326,0,0,1,1.479-.006.9.9,0,0,1,.765,1.023.934.934,0,0,1-.783.927A4.659,4.659,0,0,1,450.68,277.542Z" transform="translate(-123.906 -152.071)" fill="url(#linear-gradient)"/>
      <path id="Trazado_1009533" data-name="Trazado 1009533" d="M506.885,262.75c.517.484,1.007.907,1.453,1.372a1.019,1.019,0,1,1-1.412,1.447,3.835,3.835,0,0,1-.373-.374,2,2,0,0,0-2.147-.87,2.786,2.786,0,0,1-3.082-1.82,3.046,3.046,0,0,1,4.525-3.667,3.043,3.043,0,0,1,1.233,3.4C507.045,262.375,506.981,262.5,506.885,262.75Zm-3.74-1.414a1.006,1.006,0,1,0,1.027-1.008A1.073,1.073,0,0,0,503.145,261.336Z" transform="translate(-166.696 -137.952)" fill="url(#linear-gradient)"/>
    </g>
  </g>
</svg>
