<svg xmlns="http://www.w3.org/2000/svg" width="107" height="107" viewBox="0 0 107 107">
  <g id="Grupo_1198593" data-name="Grupo 1198593" transform="translate(-241.659 -5488.127)">
    <g id="Grupo_156312" data-name="Grupo 156312" transform="translate(-47.009 1039.69)">
      <path id="Elipse_5845" data-name="Elipse 5845" d="M53.5,0A53.5,53.5,0,1,1,0,53.5,53.5,53.5,0,0,1,53.5,0Z" transform="translate(288.668 4448.437)" fill="#e2e2e0"/>
    </g>
    <g id="Grupo_1198131" data-name="Grupo 1198131" transform="translate(-16.423 5353.31)">
      <path id="Trazado_1009361" data-name="Trazado 1009361" d="M329.342,201.827c0,1.339.012,2.517,0,3.695-.017,1.355-.416,1.758-1.777,1.76q-6.862.013-13.724.006c-.232,0-.464.022-.773.037a8.7,8.7,0,0,0-.1.931c-.008,2.643.007,5.286-.014,7.929a1.278,1.278,0,0,0,.7,1.335,3.787,3.787,0,0,1,1.327,1.3,1.413,1.413,0,0,0,1.412.771c2.481-.036,4.963-.014,7.521-.014a13.644,13.644,0,0,1,6.723-10.357,13.124,13.124,0,0,1,9.332-1.684,13.676,13.676,0,0,1,11.257,13.906,13.715,13.715,0,0,1-27.347.936H320.4c-.947,0-1.895.034-2.839-.008-1.241-.055-2.237,0-3.061,1.312-.894,1.42-2.553,1.649-4.15,1.18a3.792,3.792,0,0,1-2.816-3.183,3.9,3.9,0,0,1,1.772-4.087c.256-.179.538-.323.813-.486v-9.652c-.12-.066-.184-.13-.251-.133-2.341-.116-2.415-.193-2.416-2.573q0-4.5,0-8.995c0-1.734.3-2.04,1.974-2.042q8.992-.008,17.984,0c1.572,0,1.921.37,1.931,1.971.006,1.026.006,2.051.012,3.077a2.33,2.33,0,0,0,.073.344c.306.022.646.067.985.067q6.625.007,13.251,0c1.8,0,2.514-.93,2.033-2.684a1.418,1.418,0,0,0-.6-.643c-2.8-1.894-2.78-5.254.084-7.074.977-.621.5-1.481.475-2.225s-.662-1.03-1.355-1.05c-.906-.026-1.814-.009-2.721-.01H329.342c0,1.212.007,2.377,0,3.543-.011,1.482-.418,1.9-1.9,1.9q-9.051.009-18.1,0c-1.495,0-1.882-.389-1.887-1.9q-.017-4.911,0-9.823c.005-1.506.406-1.919,1.894-1.922q9.051-.016,18.1,0c1.452,0,1.878.458,1.889,1.932.009,1.135,0,2.271,0,3.54h1.382q6.448,0,12.9,0c3.316,0,4.854,1.509,4.878,4.819a1.3,1.3,0,0,0,.735,1.289,3.969,3.969,0,0,1,.069,6.856,1.533,1.533,0,0,0-.81,1.5c.014,3.035-1.57,4.606-4.574,4.609q-6.566.009-13.132,0Zm8.2,8.264a10.894,10.894,0,1,0,10.963,10.848A10.926,10.926,0,0,0,337.546,210.091Zm-11.024-13.635H310.246v8.1h16.276Zm-16.3-8.3H326.5V180.1H310.226Zm36.921,2.783a1.468,1.468,0,0,0-1.394,1.348,1.371,1.371,0,1,0,1.394-1.348Zm-34.22,30.073a1.5,1.5,0,0,0-1.3-1.422,1.381,1.381,0,1,0-.083,2.76A1.488,1.488,0,0,0,312.927,221.013Z" transform="translate(-17.759 -17.641)"/>
      <path id="Trazado_1009362" data-name="Trazado 1009362" d="M338.978,188.36q0,14.559,0,29.117c0,3.41-1.585,5-4.994,5q-22.423,0-44.845,0c-3.334,0-4.948-1.605-4.949-4.921q0-11.422,0-22.844a5.808,5.808,0,0,1,.04-1.062,1.369,1.369,0,0,1,2.719.058,6.5,6.5,0,0,1,.022,1.063q0,11.422,0,22.844c0,1.745.326,2.072,2.062,2.072q22.541,0,45.082,0c1.751,0,2.079-.323,2.079-2.056q0-29.295,0-58.589c0-1.756-.325-2.087-2.047-2.087q-22.541,0-45.082,0c-1.8,0-2.094.308-2.094,2.158q0,11.422,0,22.844a5.3,5.3,0,0,1-.036,1.062,1.365,1.365,0,0,1-2.7,0,5.419,5.419,0,0,1-.046-1.061q0-11.481,0-22.962c0-3.177,1.643-4.831,4.8-4.832q22.6-.006,45.2,0c3.149,0,4.787,1.658,4.789,4.842Q338.983,173.683,338.978,188.36Z"/>
      <path id="Trazado_1009363" data-name="Trazado 1009363" d="M285.665,292.967a1.318,1.318,0,1,1-1.368,1.322A1.347,1.347,0,0,1,285.665,292.967Z" transform="translate(-0.086 -105.966)"/>
      <path id="Trazado_1009364" data-name="Trazado 1009364" d="M419.255,328.993a4.743,4.743,0,0,1,2.512,8.793c-.578.348-1.1.628-1.245,1.424a1.165,1.165,0,0,1-1.457.895,1.236,1.236,0,0,1-1.116-1.316,3.167,3.167,0,0,1,1.871-3.039,2.17,2.17,0,0,0,1.465-1.83,2.012,2.012,0,0,0-3.914-.847,5.478,5.478,0,0,0-.152.688c-.2.913-.79,1.435-1.512,1.339a1.5,1.5,0,0,1-1.2-1.754A4.75,4.75,0,0,1,419.255,328.993Z" transform="translate(-99.486 -133.469)"/>
      <path id="Trazado_1009365" data-name="Trazado 1009365" d="M430.333,383.776a1.281,1.281,0,0,1,1.376,1.283,1.3,1.3,0,0,1-1.285,1.381,1.318,1.318,0,0,1-1.382-1.291A1.3,1.3,0,0,1,430.333,383.776Z" transform="translate(-110.586 -175.29)"/>
      <path id="Trazado_1009366" data-name="Trazado 1009366" d="M336.293,269.824c1.257,0,2.514-.014,3.771,0,.991.014,1.625.539,1.637,1.307s-.625,1.332-1.605,1.338q-3.889.024-7.778,0c-1.043-.008-1.554-.5-1.53-1.365.023-.82.5-1.258,1.5-1.277C333.621,269.805,334.957,269.824,336.293,269.824Z" transform="translate(-35.578 -88.294)"/>
      <path id="Trazado_1009367" data-name="Trazado 1009367" d="M336.122,203.14c-1.258,0-2.517.02-3.775-.007-1.033-.022-1.563-.516-1.556-1.368s.521-1.335,1.58-1.346q3.834-.038,7.668,0c.989.008,1.627.551,1.661,1.312.036.8-.638,1.389-1.685,1.405C338.718,203.156,337.42,203.141,336.122,203.14Z" transform="translate(-35.58 -35.301)"/>
    </g>
  </g>
</svg>
