<svg xmlns="http://www.w3.org/2000/svg" width="107" height="107" viewBox="0 0 107 107">
  <g id="Grupo_1198594" data-name="Grupo 1198594" transform="translate(-235.659 -5645.563)">
    <g id="Grupo_156312" data-name="Grupo 156312" transform="translate(-53.009 1197.127)">
      <path id="Elipse_5845" data-name="Elipse 5845" d="M53.5,0A53.5,53.5,0,1,1,0,53.5,53.5,53.5,0,0,1,53.5,0Z" transform="translate(288.668 4448.437)" fill="#e2e2e0"/>
    </g>
    <g id="Grupo_1198132" data-name="Grupo 1198132" transform="translate(32.543 5555.886)">
      <path id="Trazado_1009368" data-name="Trazado 1009368" d="M241.4,141.639v-1.2q0-15.432,0-30.863c0-1.749.194-1.944,1.954-1.944q17.589,0,35.178-.017a2.908,2.908,0,0,1,2.256.942q6.19,6.244,12.454,12.415a2.467,2.467,0,0,1,.78,1.909q-.022,24.434-.013,48.867c0,1.553-.28,1.813-1.9,1.813H248.093c0,.789.015,1.467,0,2.144a2.826,2.826,0,1,1-5.644.254,6.345,6.345,0,0,0-.515-2.026c-.233.894-.43,1.8-.706,2.678a2.728,2.728,0,0,1-4.268,1.551,2.825,2.825,0,0,1-1.156-2.7c.117-1.768.213-3.537.322-5.37H235.3a3.341,3.341,0,0,1-3.545-3.542,44.977,44.977,0,0,1,1.8-11.851,1,1,0,0,0-.275-1.147,7.25,7.25,0,0,1,4.708-12.246A18.115,18.115,0,0,1,241.4,141.639Zm4.241,8.674c2.877,0,5.614.008,8.352-.006.694,0,1.456.072,1.562.823a2.139,2.139,0,0,1-.62,1.567c-2.035,1.986-4.163,3.876-6.207,5.854a2.2,2.2,0,0,0-.6,1.4c-.051,3.359,0,6.72-.047,10.079-.013.911.2,1.222,1.177,1.219q20.619-.051,41.237-.023h1.078v-47.7h-1.187q-5.193,0-10.387,0c-1.512,0-1.862-.352-1.864-1.89-.006-3.5,0-6.994,0-10.491,0-.363-.033-.727-.051-1.1H243.8a2.085,2.085,0,0,0-.072.355q-.007,16.251,0,32.5a1.227,1.227,0,0,0,.206.755A7.587,7.587,0,0,1,245.638,150.313Zm5.551,2.663-.073-.237c-2.113,0-4.226-.016-6.338.023-.24,0-.51.288-.706.5a7.137,7.137,0,0,1-7.429,2.3c-.251-.064-.513-.084-.809-.131a49.905,49.905,0,0,0-1.751,11.1,1.117,1.117,0,1,0,2.231.069c.124-1.777.238-3.554.355-5.332.067-1.019.525-1.55,1.291-1.495s1.129.624,1.065,1.672c-.271,4.445-.552,8.889-.8,13.336a6.651,6.651,0,0,0,.228,1.424,5.673,5.673,0,0,0,.733-1.283c.716-2.711,1.378-5.437,2.055-8.159.174-.7.529-1.242,1.324-1.158.773.082,1.04.659,1.118,1.381.131,1.225.3,2.446.454,3.668.207,1.665.391,3.333.635,4.992.041.278.333.519.508.778a4.576,4.576,0,0,0,.444-.793,2.364,2.364,0,0,0,.015-.715c0-5.208.02-10.417-.018-15.625a2.561,2.561,0,0,1,.947-2.134C248.207,155.794,249.686,154.371,251.19,152.976Zm-12.61-9.282a4.859,4.859,0,1,0,4.886,4.905A4.867,4.867,0,0,0,238.58,143.695Zm42.007-22.654h8.855l-8.855-9Z" transform="translate(0)"/>
      <path id="Trazado_1009369" data-name="Trazado 1009369" d="M369.9,292.626c0-1.106-.014-2.126,0-3.145.018-1.063.366-1.427,1.421-1.438,1.775-.02,3.549-.005,5.48-.005,0-1.688,0-3.284,0-4.881,0-1.8.266-2.06,2.1-2.061h4.82c0-1.179-.01-2.265,0-3.351.014-1.167.457-1.621,1.609-1.627q3.084-.018,6.167,0c1.119.007,1.561.425,1.563,1.555q.019,11.36,0,22.72c0,1.225-.392,1.6-1.618,1.6q-13.413.011-26.827,0c-1.263,0-1.668-.407-1.675-1.655q-.017-3.033,0-6.066c.008-1.145.4-1.558,1.538-1.583,1.4-.03,2.809-.006,4.214-.012C369.064,292.678,369.43,292.648,369.9,292.626Zm20.709,6.936V278.587h-4.366v20.975Zm-6.949,0v-15.99h-4.371v15.99ZM372.34,290.4v9.141h4.366V290.4Zm-2.5,9.147v-4.4h-4.418v4.4Z" transform="translate(-104.627 -133.833)"/>
      <path id="Trazado_1009370" data-name="Trazado 1009370" d="M315.337,250.339a4.538,4.538,0,1,1,.152-9.075,4.538,4.538,0,0,1-.152,9.075Zm.063-6.71a2.168,2.168,0,0,0-.068,4.335,2.168,2.168,0,1,0,.068-4.335Z" transform="translate(-63.246 -106.156)"/>
      <path id="Trazado_1009371" data-name="Trazado 1009371" d="M315.4,192.907a4.538,4.538,0,0,1,.019,9.075,4.553,4.553,0,0,1-4.584-4.537A4.506,4.506,0,0,1,315.4,192.907Zm-2.171,4.512a2.115,2.115,0,0,0,2.118,2.171,2.17,2.17,0,0,0,2.217-2.091,2.235,2.235,0,0,0-2.187-2.255A2.2,2.2,0,0,0,313.231,197.419Z" transform="translate(-63.244 -67.747)"/>
      <path id="Trazado_1009372" data-name="Trazado 1009372" d="M319.919,148.84a4.54,4.54,0,1,1-9.08-.013,4.54,4.54,0,1,1,9.08.013Zm-4.533-2.117a2.1,2.1,0,0,0-2.153,2.127,2.162,2.162,0,0,0,2.112,2.191,2.208,2.208,0,0,0,2.221-2.2A2.136,2.136,0,0,0,315.386,146.723Z" transform="translate(-63.246 -29.128)"/>
      <path id="Trazado_1009373" data-name="Trazado 1009373" d="M374.111,173.546c-2.331,0-4.661.008-6.992,0-1.042-.005-1.622-.441-1.566-1.2.073-.983.76-1.176,1.6-1.175q6.941.014,13.882,0c.84,0,1.534.183,1.622,1.16.07.78-.539,1.212-1.661,1.216C378.7,173.552,376.408,173.546,374.111,173.546Z" transform="translate(-106.703 -50.48)"/>
      <path id="Trazado_1009374" data-name="Trazado 1009374" d="M374.028,221.855c-2.291,0-4.583-.012-6.874.006-.852.007-1.518-.213-1.61-1.171-.075-.776.552-1.244,1.64-1.246,4.617-.008,9.234,0,13.85-.005.837,0,1.525.221,1.615,1.182.073.775-.557,1.229-1.645,1.232C378.679,221.859,376.353,221.855,374.028,221.855Z" transform="translate(-106.693 -88.822)"/>
      <path id="Trazado_1009375" data-name="Trazado 1009375" d="M374.025,270.319c-2.4,0-4.8.014-7.2-.006-1.141-.01-1.806-.9-1.249-1.705a1.661,1.661,0,0,1,1.182-.606c4.8-.041,9.6-.024,14.4-.029.818,0,1.363.374,1.358,1.2-.005.84-.593,1.157-1.394,1.154C378.755,270.313,376.39,270.319,374.025,270.319Z" transform="translate(-106.567 -127.372)"/>
      <path id="Trazado_1009376" data-name="Trazado 1009376" d="M368.851,150.266c.682,0,1.366-.032,2.046.009.735.044,1.279.441,1.261,1.2a1.164,1.164,0,0,1-1.287,1.175c-1.365.013-2.729.02-4.094-.006a1.18,1.18,0,0,1-.074-2.358c.71-.064,1.431-.014,2.147-.014Z" transform="translate(-106.728 -33.867)"/>
      <path id="Trazado_1009377" data-name="Trazado 1009377" d="M368.922,201.139c-.683,0-1.365,0-2.048,0a1.142,1.142,0,0,1-1.3-1.147,1.105,1.105,0,0,1,1.222-1.212c1.365-.02,2.731-.016,4.1,0a1.137,1.137,0,0,1,1.262,1.19,1.156,1.156,0,0,1-1.287,1.17C370.219,201.143,369.57,201.138,368.922,201.139Z" transform="translate(-106.723 -72.401)"/>
      <path id="Trazado_1009378" data-name="Trazado 1009378" d="M368.83,249.482c-.715,0-1.433.033-2.146-.009a1.069,1.069,0,0,1-1.116-1.2,1.1,1.1,0,0,1,1.206-1.124c1.363-.012,2.727-.007,4.09,0a1.146,1.146,0,0,1,1.282,1.168c.017.766-.525,1.15-1.272,1.176-.681.024-1.363,0-2.045,0Z" transform="translate(-106.717 -110.827)"/>
    </g>
  </g>
</svg>
