<svg xmlns="http://www.w3.org/2000/svg" width="373.048" height="466.367" viewBox="0 0 373.048 466.367">
  <g id="Grupo_1198595" data-name="Grupo 1198595" transform="translate(-985.293 -5310.196)">
    <g id="Grupo_1198195" data-name="Grupo 1198195" transform="translate(978.116 5302.158)">
      <path id="Trazado_1009379" data-name="Trazado 1009379" d="M338.537,304.694c0,139.668-71.6,152.628-161.76,152.628S12.052,444.362,12.052,304.694,85.138,22,175.295,22,338.537,165.026,338.537,304.694Z" transform="translate(1.793 7.358)" fill="#051c46"/>
      <path id="Trazado_1009380" data-name="Trazado 1009380" d="M169.672,279.519v-6.962h-4.889a40.648,40.648,0,0,0-1.413-7.769l4.5-2.13-2.435-6.41-4.5,2.133a37.9,37.9,0,0,0-3.659-6.037l3.465-3.869-4.41-4.923-3.466,3.869a33.312,33.312,0,0,0-5.915-4.374l1.834-5.069L143,235.369l-1.832,5.058a30.112,30.112,0,0,0-6.412-1.391v-5.458h-6.237v5.458a30.1,30.1,0,0,0-6.96,1.576l-1.908-5.02-5.742,2.719,1.911,5.026a33.46,33.46,0,0,0-5.408,4.084l-3.466-3.869-4.41,4.923L106,252.344a37.956,37.956,0,0,0-3.92,6.6L97.538,256.9,95.2,263.353l4.533,2.046a40.681,40.681,0,0,0-1.246,7.158H93.6v6.962h4.89a40.713,40.713,0,0,0,1.412,7.767l-4.5,2.13,2.436,6.41,4.5-2.131a37.876,37.876,0,0,0,3.66,6.037l-3.466,3.867,4.41,4.923,3.466-3.868a33.348,33.348,0,0,0,5.916,4.374l-1.836,5.069,5.782,2.609,1.833-5.059a30.066,30.066,0,0,0,6.412,1.391V318.5h6.237v-5.457a30.034,30.034,0,0,0,6.958-1.577l1.908,5.022,5.742-2.719-1.909-5.026a33.448,33.448,0,0,0,5.407-4.084l3.466,3.868,4.41-4.923-3.465-3.867a37.944,37.944,0,0,0,3.919-6.6l4.541,2.049,2.338-6.455-4.533-2.044a40.681,40.681,0,0,0,1.247-7.158Zm-14.369,3.2a28.946,28.946,0,0,1-2.5,6.875,27.915,27.915,0,0,1-1.723,2.9,26.228,26.228,0,0,1-4.7,5.248,24.468,24.468,0,0,1-2.239,1.69,23,23,0,0,1-6.117,2.906,22.1,22.1,0,0,1-12.367.121,22.907,22.907,0,0,1-6.161-2.793,24.725,24.725,0,0,1-2.6-1.924,26.27,26.27,0,0,1-4.7-5.248,27.832,27.832,0,0,1-1.514-2.5,28.891,28.891,0,0,1-2.6-6.83,29.7,29.7,0,0,1-.621-3.417,29.717,29.717,0,0,1,0-7.42,29.506,29.506,0,0,1,.512-2.967,28.948,28.948,0,0,1,2.5-6.875,27.674,27.674,0,0,1,1.722-2.9,26.229,26.229,0,0,1,4.7-5.248,24.468,24.468,0,0,1,2.239-1.69,22.943,22.943,0,0,1,6.118-2.906,22.14,22.14,0,0,1,12.365-.122,22.91,22.91,0,0,1,6.161,2.794,24.5,24.5,0,0,1,2.6,1.924,26.229,26.229,0,0,1,4.7,5.248,27.412,27.412,0,0,1,1.514,2.5,28.953,28.953,0,0,1,2.6,6.83,29.933,29.933,0,0,1,.62,3.417,29.715,29.715,0,0,1,0,7.42A29.587,29.587,0,0,1,155.3,282.715Z" transform="translate(31.788 118.824)" fill="#ffe066"/>
      <path id="Trazado_1009381" data-name="Trazado 1009381" d="M199.654,317.528a1.446,1.446,0,0,1-1.368-1.434,1.482,1.482,0,0,1,1.282-1.626,24.381,24.381,0,0,0,4.283-.693,1.374,1.374,0,0,1,1.643,1.151,1.545,1.545,0,0,1-1.031,1.835,26.741,26.741,0,0,1-4.719.763C199.712,317.528,199.683,317.528,199.654,317.528Zm-8.144-.713a1.312,1.312,0,0,1-.3-.037,27.77,27.77,0,0,1-4.555-1.591,1.6,1.6,0,0,1-.761-1.993,1.332,1.332,0,0,1,1.786-.849,24.965,24.965,0,0,0,4.135,1.443,1.546,1.546,0,0,1,1.035,1.834A1.415,1.415,0,0,1,191.51,316.815Zm20.264-3.309a1.353,1.353,0,0,1-1.2-.779,1.629,1.629,0,0,1,.52-2.086,27.134,27.134,0,0,0,3.587-2.707,1.278,1.278,0,0,1,1.929.241,1.657,1.657,0,0,1-.216,2.153,29.974,29.974,0,0,1-3.949,2.979A1.261,1.261,0,0,1,211.775,313.506ZM180.109,310.7a1.287,1.287,0,0,1-.854-.333,31.606,31.606,0,0,1-3.481-3.637,1.656,1.656,0,0,1,.089-2.162,1.274,1.274,0,0,1,1.938.1,28.809,28.809,0,0,0,3.162,3.3,1.653,1.653,0,0,1,.22,2.151A1.32,1.32,0,0,1,180.109,310.7Zm41.02-6.691a1.273,1.273,0,0,1-.785-.275A1.648,1.648,0,0,1,220,301.6a31.039,31.039,0,0,0,2.187-4.171,1.313,1.313,0,0,1,1.832-.716,1.615,1.615,0,0,1,.64,2.044,34.316,34.316,0,0,1-2.407,4.6A1.338,1.338,0,0,1,221.129,304.009Zm-48.922-4.329a1.367,1.367,0,0,1-1.236-.864,35.551,35.551,0,0,1-1.728-4.965,1.563,1.563,0,0,1,.925-1.9,1.351,1.351,0,0,1,1.706,1.031,32.2,32.2,0,0,0,1.566,4.5,1.614,1.614,0,0,1-.636,2.046A1.25,1.25,0,0,1,172.207,299.68Zm53.667-8.756a1.362,1.362,0,0,1-.219-.018,1.522,1.522,0,0,1-1.137-1.757,33.8,33.8,0,0,0,.343-4.819,1.515,1.515,0,0,1,1.371-1.592,1.4,1.4,0,0,1,1.372,1.469h-1.372l1.373.069a37.667,37.667,0,0,1-.378,5.362A1.428,1.428,0,0,1,225.874,290.924Zm-56.5-5.031a1.429,1.429,0,0,1-1.372-1.5v-.064a37.487,37.487,0,0,1,.367-5.24,1.408,1.408,0,0,1,1.57-1.273,1.521,1.521,0,0,1,1.141,1.753,33.974,33.974,0,0,0-.334,4.761A1.488,1.488,0,0,1,169.376,285.893Zm55.66-9.175a1.4,1.4,0,0,1-1.313-1.09,32.468,32.468,0,0,0-1.577-4.5,1.615,1.615,0,0,1,.633-2.047,1.312,1.312,0,0,1,1.833.707,35.487,35.487,0,0,1,1.737,4.959,1.569,1.569,0,0,1-.916,1.909A1.206,1.206,0,0,1,225.036,276.718Zm-52.881-4.564a1.257,1.257,0,0,1-.594-.15,1.617,1.617,0,0,1-.643-2.044,34.641,34.641,0,0,1,2.4-4.6,1.286,1.286,0,0,1,1.911-.385,1.649,1.649,0,0,1,.343,2.133,31.124,31.124,0,0,0-2.18,4.177A1.367,1.367,0,0,1,172.155,272.155Zm46.628-7.709a1.307,1.307,0,0,1-1.011-.5,28.885,28.885,0,0,0-3.171-3.3,1.654,1.654,0,0,1-.222-2.151,1.277,1.277,0,0,1,1.927-.247,31.614,31.614,0,0,1,3.488,3.628,1.655,1.655,0,0,1-.086,2.162A1.29,1.29,0,0,1,218.784,264.446ZM180.026,261.1a1.325,1.325,0,0,1-1.072-.573,1.655,1.655,0,0,1,.211-2.153,29.694,29.694,0,0,1,3.946-2.991,1.3,1.3,0,0,1,1.87.579,1.631,1.631,0,0,1-.517,2.087,26.951,26.951,0,0,0-3.58,2.713A1.29,1.29,0,0,1,180.026,261.1Zm28.365-4.7a1.265,1.265,0,0,1-.513-.111,24.736,24.736,0,0,0-4.134-1.434,1.541,1.541,0,0,1-1.04-1.829,1.383,1.383,0,0,1,1.639-1.16,27.3,27.3,0,0,1,4.56,1.582,1.6,1.6,0,0,1,.761,1.993A1.383,1.383,0,0,1,208.391,256.4ZM191.4,254.936a1.415,1.415,0,0,1-1.336-1.188,1.545,1.545,0,0,1,1.029-1.837,27.1,27.1,0,0,1,4.719-.773,1.457,1.457,0,0,1,1.46,1.428,1.487,1.487,0,0,1-1.28,1.629,24.319,24.319,0,0,0-4.281.7A1.278,1.278,0,0,1,191.4,254.936Z" transform="translate(59.158 128.075)" fill="#fff"/>
      <path id="Trazado_1009382" data-name="Trazado 1009382" d="M69.622,334.887c-.445,0-.889-.006-1.33-.015a1.541,1.541,0,0,1,.056-3.063c1.469.032,2.974.008,4.435-.081a1.451,1.451,0,0,1,1.444,1.446,1.482,1.482,0,0,1-1.3,1.614C71.84,334.853,70.728,334.887,69.622,334.887Zm-9.428-.841a1.2,1.2,0,0,1-.22-.02c-1.529-.275-3.061-.622-4.554-1.025a1.55,1.55,0,0,1-1.008-1.852,1.382,1.382,0,0,1,1.658-1.125c1.423.386,2.882.715,4.34.979a1.517,1.517,0,0,1,1.137,1.754A1.427,1.427,0,0,1,60.193,334.046Zm20.761-.379a1.419,1.419,0,0,1-1.345-1.237,1.531,1.531,0,0,1,1.082-1.8c1.444-.316,2.893-.7,4.31-1.139a1.363,1.363,0,0,1,1.691,1.066,1.563,1.563,0,0,1-.955,1.886c-1.485.461-3.005.863-4.518,1.192A1.228,1.228,0,0,1,80.954,333.667Zm-32.991-3.385a1.226,1.226,0,0,1-.506-.11c-1.432-.635-2.863-1.342-4.248-2.1a1.619,1.619,0,0,1-.628-2.051,1.309,1.309,0,0,1,1.836-.7c1.323.725,2.686,1.4,4.053,2.006a1.593,1.593,0,0,1,.769,1.988A1.381,1.381,0,0,1,47.963,330.282Zm45.1-.829a1.377,1.377,0,0,1-1.26-.921,1.605,1.605,0,0,1,.71-2.015c1.343-.655,2.684-1.377,3.985-2.15a1.305,1.305,0,0,1,1.858.632,1.627,1.627,0,0,1-.568,2.072c-1.365.809-2.77,1.568-4.177,2.254A1.271,1.271,0,0,1,93.062,329.453Zm-56.312-5.8a1.272,1.272,0,0,1-.77-.264c-1.275-.965-2.533-2-3.74-3.07a1.653,1.653,0,0,1-.219-2.151,1.278,1.278,0,0,1,1.927-.246c1.153,1.025,2.354,2.011,3.573,2.933a1.646,1.646,0,0,1,.365,2.127A1.337,1.337,0,0,1,36.75,323.653Zm67.311-1.228a1.325,1.325,0,0,1-1.111-.632,1.65,1.65,0,0,1,.3-2.139c1.191-.965,2.364-1.993,3.483-3.057a1.274,1.274,0,0,1,1.934.173,1.657,1.657,0,0,1-.155,2.159c-1.174,1.114-2.4,2.193-3.649,3.2A1.278,1.278,0,0,1,104.061,322.425Zm-76.985-7.93a1.311,1.311,0,0,1-.994-.475c-1.06-1.247-2.091-2.556-3.065-3.892a1.654,1.654,0,0,1,.2-2.154,1.275,1.275,0,0,1,1.93.223c.93,1.275,1.914,2.524,2.927,3.712a1.664,1.664,0,0,1-.049,2.167A1.3,1.3,0,0,1,27.077,314.495Zm86.383-1.571a1.285,1.285,0,0,1-.912-.388,1.655,1.655,0,0,1-.111-2.162c.973-1.22,1.92-2.506,2.818-3.82a1.28,1.28,0,0,1,1.923-.29,1.654,1.654,0,0,1,.26,2.147c-.938,1.376-1.931,2.724-2.953,4A1.31,1.31,0,0,1,113.459,312.923Zm-94.074-9.677a1.348,1.348,0,0,1-1.176-.739c-.795-1.466-1.55-2.993-2.246-4.532a1.618,1.618,0,0,1,.607-2.057,1.306,1.306,0,0,1,1.842.676c.665,1.47,1.386,2.927,2.145,4.329a1.633,1.633,0,0,1-.465,2.1A1.241,1.241,0,0,1,19.385,303.246ZM120.824,301.4a1.244,1.244,0,0,1-.67-.2,1.629,1.629,0,0,1-.525-2.084c.719-1.431,1.4-2.915,2.019-4.408a1.316,1.316,0,0,1,1.822-.745,1.61,1.61,0,0,1,.667,2.034c-.65,1.565-1.361,3.119-2.115,4.617A1.351,1.351,0,0,1,120.824,301.4ZM14.034,290.416a1.394,1.394,0,0,1-1.3-1.041c-.5-1.638-.94-3.31-1.317-4.973a1.552,1.552,0,0,1,.994-1.86,1.368,1.368,0,0,1,1.666,1.11c.358,1.582.781,3.177,1.256,4.739a1.579,1.579,0,0,1-.859,1.942A1.244,1.244,0,0,1,14.034,290.416ZM125.8,288.363a1.263,1.263,0,0,1-.4-.066,1.571,1.571,0,0,1-.916-1.91c.427-1.576.8-3.183,1.116-4.784a1.377,1.377,0,0,1,1.633-1.168,1.539,1.539,0,0,1,1.046,1.823c-.328,1.676-.722,3.364-1.168,5.016A1.4,1.4,0,0,1,125.8,288.363ZM11.3,276.594a1.438,1.438,0,0,1-1.362-1.365c-.17-1.715-.278-3.452-.328-5.168a1.471,1.471,0,0,1,1.33-1.579h.044a1.452,1.452,0,0,1,1.371,1.483c.047,1.635.152,3.295.312,4.93a1.5,1.5,0,0,1-1.213,1.69A1.309,1.309,0,0,1,11.3,276.594Zm116.83-2.144c-.034,0-.07,0-.105,0a1.485,1.485,0,0,1-1.264-1.643c.112-1.635.168-3.3.168-4.944v-.27a1.38,1.38,0,1,1,2.744,0v.247c0,1.745-.059,3.487-.176,5.2A1.442,1.442,0,0,1,128.125,274.45ZM11.274,262.438a1.178,1.178,0,0,1-.145-.009,1.5,1.5,0,0,1-1.22-1.684c.163-1.718.386-3.443.665-5.126a1.38,1.38,0,0,1,1.6-1.228,1.526,1.526,0,0,1,1.1,1.783c-.265,1.606-.479,3.252-.635,4.894A1.437,1.437,0,0,1,11.274,262.438Zm116.426-2.4a1.432,1.432,0,0,1-1.357-1.315c-.209-1.626-.476-3.263-.8-4.863a1.543,1.543,0,0,1,1.04-1.829,1.377,1.377,0,0,1,1.637,1.16c.336,1.678.617,3.393.836,5.1a1.512,1.512,0,0,1-1.164,1.731A1.061,1.061,0,0,1,127.7,260.035ZM13.96,248.61a1.258,1.258,0,0,1-.435-.081,1.579,1.579,0,0,1-.866-1.939c.487-1.625,1.04-3.257,1.644-4.851a1.322,1.322,0,0,1,1.8-.814,1.6,1.6,0,0,1,.729,2.006c-.576,1.522-1.1,3.08-1.57,4.631A1.393,1.393,0,0,1,13.96,248.61Zm110.594-2.283a1.387,1.387,0,0,1-1.283-.994c-.518-1.535-1.1-3.067-1.719-4.553a1.611,1.611,0,0,1,.662-2.035,1.31,1.31,0,0,1,1.823.737c.654,1.559,1.26,3.164,1.8,4.773a1.589,1.589,0,0,1-.8,1.973A1.245,1.245,0,0,1,124.554,246.327ZM19.269,235.742a1.255,1.255,0,0,1-.706-.218,1.637,1.637,0,0,1-.469-2.1c.8-1.481,1.654-2.942,2.543-4.338a1.284,1.284,0,0,1,1.912-.362,1.647,1.647,0,0,1,.324,2.135c-.849,1.334-1.665,2.728-2.427,4.144A1.35,1.35,0,0,1,19.269,235.742Zm99.562-2.038a1.341,1.341,0,0,1-1.15-.7c-.8-1.368-1.659-2.727-2.558-4.037a1.652,1.652,0,0,1,.253-2.147,1.279,1.279,0,0,1,1.925.282c.942,1.374,1.844,2.8,2.68,4.231a1.643,1.643,0,0,1-.4,2.119A1.265,1.265,0,0,1,118.831,233.7Zm-91.9-9.245a1.291,1.291,0,0,1-.942-.418,1.66,1.66,0,0,1-.055-2.165c1.059-1.255,2.173-2.475,3.312-3.629a1.276,1.276,0,0,1,1.938.1,1.659,1.659,0,0,1-.093,2.164c-1.085,1.1-2.15,2.267-3.162,3.466A1.3,1.3,0,0,1,26.932,224.458Zm83.877-1.715a1.3,1.3,0,0,1-.963-.44c-1.045-1.151-2.147-2.275-3.273-3.336a1.658,1.658,0,0,1-.163-2.159,1.28,1.28,0,0,1,1.934-.182c1.179,1.113,2.334,2.289,3.428,3.495a1.658,1.658,0,0,1,.014,2.165A1.294,1.294,0,0,1,110.809,222.744Zm-74.234-7.48a1.34,1.34,0,0,1-1.135-.667,1.648,1.648,0,0,1,.36-2.13c1.271-.968,2.593-1.895,3.931-2.753a1.294,1.294,0,0,1,1.873.563,1.627,1.627,0,0,1-.5,2.09c-1.276.82-2.539,1.7-3.751,2.629A1.273,1.273,0,0,1,36.575,215.264Zm64.3-1.318a1.258,1.258,0,0,1-.73-.235c-1.245-.878-2.537-1.71-3.838-2.475a1.626,1.626,0,0,1-.574-2.069,1.307,1.307,0,0,1,1.853-.643c1.364.8,2.718,1.676,4.023,2.594a1.641,1.641,0,0,1,.43,2.113A1.343,1.343,0,0,1,100.87,213.946ZM47.75,208.6a1.38,1.38,0,0,1-1.272-.962,1.6,1.6,0,0,1,.761-1.993c1.435-.644,2.907-1.231,4.372-1.745a1.354,1.354,0,0,1,1.721,1,1.574,1.574,0,0,1-.9,1.921c-1.4.489-2.8,1.05-4.172,1.663A1.227,1.227,0,0,1,47.75,208.6Zm41.719-.861a1.243,1.243,0,0,1-.464-.092c-1.39-.556-2.811-1.058-4.225-1.49a1.56,1.56,0,0,1-.962-1.881A1.364,1.364,0,0,1,85.5,203.2c1.483.453,2.972.977,4.428,1.56a1.588,1.588,0,0,1,.829,1.959A1.392,1.392,0,0,1,89.469,207.738Zm-29.51-2.959a1.427,1.427,0,0,1-1.353-1.283,1.523,1.523,0,0,1,1.131-1.76c1.524-.281,3.074-.5,4.6-.647a1.426,1.426,0,0,1,1.487,1.392,1.491,1.491,0,0,1-1.247,1.658c-1.462.142-2.941.35-4.4.62A1.249,1.249,0,0,1,59.959,204.779Zm17.181-.351a1.386,1.386,0,0,1-.176-.012c-1.457-.208-2.942-.356-4.411-.438a1.478,1.478,0,0,1-1.3-1.606,1.45,1.45,0,0,1,1.439-1.454c1.539.087,3.1.241,4.623.458A1.508,1.508,0,0,1,78.5,203.09,1.433,1.433,0,0,1,77.141,204.428Z" transform="translate(0.893 101.616)" fill="#fff"/>
      <g id="Grupo_1198136" data-name="Grupo 1198136" transform="translate(59.149 80.692)">
        <g id="Grupo_1198133" data-name="Grupo 1198133">
          <rect id="Rectángulo_461372" data-name="Rectángulo 461372" width="121.603" height="87.751" rx="6.247" fill="#3c669c"/>
        </g>
        <g id="Grupo_1198134" data-name="Grupo 1198134" transform="translate(8.712 7.056)">
          <path id="Trazado_1009383" data-name="Trazado 1009383" d="M57.264,63.438a2.878,2.878,0,1,1-2.86-3.194A3.041,3.041,0,0,1,57.264,63.438Z" transform="translate(-51.542 -60.244)" fill="#e08669"/>
          <path id="Trazado_1009384" data-name="Trazado 1009384" d="M63.7,63.438a2.879,2.879,0,1,1-2.862-3.194A3.042,3.042,0,0,1,63.7,63.438Z" transform="translate(-49.175 -60.244)" fill="#ffe066"/>
          <path id="Trazado_1009385" data-name="Trazado 1009385" d="M70.133,63.438a2.878,2.878,0,1,1-2.86-3.194A3.041,3.041,0,0,1,70.133,63.438Z" transform="translate(-46.808 -60.244)" fill="#c8df6a"/>
        </g>
        <rect id="Rectángulo_461373" data-name="Rectángulo 461373" width="114.731" height="67.63" rx="4.108" transform="translate(3.436 16.368)" fill="#fff"/>
        <rect id="Rectángulo_461374" data-name="Rectángulo 461374" width="110.588" height="63.005" rx="2.593" transform="translate(5.508 18.681)" fill="#e26f5a"/>
        <g id="Grupo_1198135" data-name="Grupo 1198135" transform="translate(42.995 29.228)">
          <ellipse id="Elipse_13662" data-name="Elipse 13662" cx="18.494" cy="20.644" rx="18.494" ry="20.644" transform="translate(0 1.85)" fill="#3c669c" style="mix-blend-mode: multiply;isolation: isolate"/>
          <ellipse id="Elipse_13663" data-name="Elipse 13663" cx="18.494" cy="20.644" rx="18.494" ry="20.644" fill="#fff"/>
          <ellipse id="Elipse_13664" data-name="Elipse 13664" cx="14.374" cy="16.045" rx="14.374" ry="16.045" transform="translate(4.12 4.599)" fill="#3c669c"/>
          <path id="Trazado_1009386" data-name="Trazado 1009386" d="M86.868,84.361V97.168a.7.7,0,0,0,1.018.69l11.052-6.4a.821.821,0,0,0,0-1.38L87.886,83.669A.7.7,0,0,0,86.868,84.361Z" transform="translate(-72.831 -70.12)" fill="#fff"/>
        </g>
      </g>
      <g id="Grupo_1198140" data-name="Grupo 1198140" transform="translate(273.859 149.505)">
        <g id="Grupo_1198137" data-name="Grupo 1198137">
          <rect id="Rectángulo_461375" data-name="Rectángulo 461375" width="106.366" height="113.028" rx="8.995" fill="#3c669c"/>
          <path id="Trazado_1009387" data-name="Trazado 1009387" d="M302.231,117.871H205.76v73.062c0,4.536,3.294,8.213,7.356,8.213h81.758c4.064,0,7.356-3.677,7.356-8.213Z" transform="translate(-200.813 -91.641)" fill="#f5c471"/>
        </g>
        <g id="Grupo_1198138" data-name="Grupo 1198138" transform="translate(11.203 30.734)">
          <rect id="Rectángulo_461376" data-name="Rectángulo 461376" width="37.554" height="10.055" transform="translate(37.554 10.055) rotate(180)" fill="#e26f5a"/>
          <rect id="Rectángulo_461377" data-name="Rectángulo 461377" width="80.918" height="5.027" transform="translate(80.918 21.936) rotate(180)" fill="#e26f5a"/>
          <rect id="Rectángulo_461378" data-name="Rectángulo 461378" width="80.918" height="5.027" transform="translate(80.918 30.477) rotate(180)" fill="#e26f5a"/>
          <rect id="Rectángulo_461379" data-name="Rectángulo 461379" width="28.97" height="5.027" transform="translate(80.918 68.849) rotate(180)" fill="#e26f5a"/>
          <rect id="Rectángulo_461380" data-name="Rectángulo 461380" width="28.97" height="5.027" transform="translate(80.918 61.096) rotate(180)" fill="#e26f5a"/>
        </g>
        <g id="Grupo_1198139" data-name="Grupo 1198139" transform="translate(12.543 10.16)">
          <path id="Trazado_1009388" data-name="Trazado 1009388" d="M219.553,111.943a4.145,4.145,0,1,1-4.12-4.6A4.379,4.379,0,0,1,219.553,111.943Z" transform="translate(-211.313 -107.346)" fill="#e08669"/>
          <path id="Trazado_1009389" data-name="Trazado 1009389" d="M228.816,111.943a4.144,4.144,0,1,1-4.12-4.6A4.378,4.378,0,0,1,228.816,111.943Z" transform="translate(-207.905 -107.346)" fill="#ffe066"/>
          <path id="Trazado_1009390" data-name="Trazado 1009390" d="M238.08,111.943a4.144,4.144,0,1,1-4.119-4.6A4.378,4.378,0,0,1,238.08,111.943Z" transform="translate(-204.497 -107.346)" fill="#c8df6a"/>
        </g>
      </g>
      <g id="Grupo_1198142" data-name="Grupo 1198142" transform="translate(120.56 228.642)">
        <g id="Grupo_1198141" data-name="Grupo 1198141">
          <path id="Trazado_1009391" data-name="Trazado 1009391" d="M125.668,152.522V201.39h43.78C169.448,174.444,149.809,152.522,125.668,152.522Z" transform="translate(-76.974 -152.522)" fill="#f5c471"/>
          <path id="Trazado_1009392" data-name="Trazado 1009392" d="M133.848,156.116h0c-24.14,0-43.779,21.922-43.779,48.868s19.639,48.868,43.779,48.868,43.779-21.922,43.779-48.868H133.848Z" transform="translate(-90.069 -150.629)" fill="#3c669c"/>
        </g>
      </g>
      <g id="Grupo_1198143" data-name="Grupo 1198143" transform="translate(48.77 326.777)">
        <path id="Trazado_1009393" data-name="Trazado 1009393" d="M138.351,264.178c-.357-1.493-.78-2.948-1.238-4.377l5.489-5.907a62.717,62.717,0,0,0-6.448-12.515l-7.322,2.321a50.656,50.656,0,0,0-5.816-6.5l2.105-8.166a53.963,53.963,0,0,0-11.193-7.243l-5.3,6.1a43.717,43.717,0,0,0-7.94-2.4l-1.836-8.247a48.506,48.506,0,0,0-12.933-.023l-1.863,8.251c-1.34.264-2.681.579-4.021.976s-2.643.869-3.922,1.383L70.819,221.7a53.157,53.157,0,0,0-11.212,7.194l2.08,8.176a50.441,50.441,0,0,0-5.823,6.489l-7.314-2.348A63.423,63.423,0,0,0,42.062,253.7l5.459,5.918a57.946,57.946,0,0,0-2.15,8.863l-7.39,2.049a67.8,67.8,0,0,0-.021,14.436l7.395,2.08c.234,1.5.517,2.993.874,4.487s.778,2.95,1.239,4.379l-5.488,5.907a62.593,62.593,0,0,0,6.441,12.516l7.326-2.321a50.845,50.845,0,0,0,5.812,6.5l-2.1,8.166a53.867,53.867,0,0,0,11.192,7.243l5.3-6.1a43.827,43.827,0,0,0,7.942,2.4l1.833,8.247a48.705,48.705,0,0,0,12.934.026l1.862-8.256c1.339-.263,2.681-.577,4.02-.974s2.643-.869,3.924-1.383l5.292,6.127a53.117,53.117,0,0,0,11.211-7.194l-2.078-8.176a50.518,50.518,0,0,0,5.819-6.489l7.317,2.35a63.511,63.511,0,0,0,6.49-12.5l-5.463-5.921a58.186,58.186,0,0,0,2.154-8.863l7.386-2.046a67.547,67.547,0,0,0,.022-14.438l-7.392-2.081C138.988,267.17,138.706,265.674,138.351,264.178Zm-36.174,55.166c-20.524,6.1-41.592-7.536-47.051-30.447s6.749-46.425,27.275-52.522,41.592,7.536,47.052,30.445S122.7,313.247,102.177,319.344Z" transform="translate(-37.585 -216.795)" fill="#fbb476"/>
        <path id="Trazado_1009394" data-name="Trazado 1009394" d="M108.548,259.25c3.562,14.936-4.4,30.268-17.778,34.239S63.656,288.578,60.1,273.644s4.4-30.267,17.78-34.241S104.988,244.316,108.548,259.25Z" transform="translate(-29.617 -205.383)" fill="#fbb476"/>
      </g>
      <g id="Grupo_1198144" data-name="Grupo 1198144" transform="translate(190.566 313.527)">
        <path id="Trazado_1009395" data-name="Trazado 1009395" d="M254.444,261.344c-.4-1.678-.877-3.313-1.391-4.918l6.166-6.636a70.464,70.464,0,0,0-7.243-14.061l-8.225,2.608a56.983,56.983,0,0,0-6.534-7.3l2.365-9.172a60.62,60.62,0,0,0-12.575-8.138l-5.956,6.848a49.251,49.251,0,0,0-8.92-2.7l-2.063-9.263a54.5,54.5,0,0,0-14.528-.026l-2.093,9.269c-1.506.3-3.013.65-4.518,1.1s-2.97.976-4.406,1.553l-5.942-6.882a59.588,59.588,0,0,0-12.6,8.08l2.336,9.184a56.854,56.854,0,0,0-6.54,7.291l-8.217-2.638a71.2,71.2,0,0,0-7.289,14.035l6.133,6.649a65.045,65.045,0,0,0-2.417,9.957l-8.3,2.3a75.934,75.934,0,0,0-.023,16.215l8.305,2.338c.264,1.68.581,3.361.982,5.04s.874,3.313,1.391,4.919l-6.163,6.636a70.324,70.324,0,0,0,7.234,14.059l8.23-2.608a57.283,57.283,0,0,0,6.529,7.3l-2.362,9.172a60.49,60.49,0,0,0,12.573,8.137l5.96-6.848a49.161,49.161,0,0,0,8.92,2.7l2.06,9.263a54.7,54.7,0,0,0,14.529.029l2.091-9.274c1.5-.295,3.012-.649,4.517-1.095s2.968-.976,4.409-1.554l5.943,6.883a59.621,59.621,0,0,0,12.6-8.082l-2.335-9.185a56.7,56.7,0,0,0,6.537-7.288l8.218,2.638a71.294,71.294,0,0,0,7.291-14.036l-6.136-6.651a65.325,65.325,0,0,0,2.42-9.957l8.3-2.3a75.871,75.871,0,0,0,.026-16.218l-8.305-2.336C255.16,264.7,254.844,263.024,254.444,261.344Zm-40.636,61.97c-23.056,6.848-46.723-8.466-52.855-34.2s7.582-52.152,30.64-59,46.723,8.468,52.855,34.2S236.866,316.466,213.809,323.314Z" transform="translate(-141.249 -208.117)" fill="#ffd969"/>
      </g>
      <g id="Grupo_1198145" data-name="Grupo 1198145" transform="translate(7.177 12.293)">
        <path id="Trazado_1009396" data-name="Trazado 1009396" d="M150.135,224.179a3.652,3.652,0,1,1-3.63-4.052A3.858,3.858,0,0,1,150.135,224.179Z" transform="translate(42.738 99.444)" fill="#fff"/>
        <path id="Trazado_1009397" data-name="Trazado 1009397" d="M263.622,232.266c0,3.539-2.57,6.41-5.742,6.41s-5.741-2.87-5.741-6.41,2.57-6.41,5.741-6.41S263.622,228.726,263.622,232.266Z" transform="translate(82.929 102.462)" fill="#534741"/>
        <path id="Trazado_1009398" data-name="Trazado 1009398" d="M13.145,165.709a3.171,3.171,0,0,1-2.983,3.33,3.351,3.351,0,0,1,0-6.662A3.172,3.172,0,0,1,13.145,165.709Z" transform="translate(-7.177 69.019)" fill="#534741"/>
        <path id="Trazado_1009399" data-name="Trazado 1009399" d="M15.839,156.184a3.172,3.172,0,0,1-2.985,3.33,3.351,3.351,0,0,1,0-6.662A3.173,3.173,0,0,1,15.839,156.184Z" transform="translate(-6.186 64.001)" fill="#f5c471"/>
        <path id="Trazado_1009400" data-name="Trazado 1009400" d="M125.019,141.463a1.9,1.9,0,1,1-1.885-2.1A2,2,0,0,1,125.019,141.463Z" transform="translate(34.783 56.892)" fill="#fff0ac"/>
        <path id="Trazado_1009401" data-name="Trazado 1009401" d="M222.968,64.035a1.9,1.9,0,1,1-1.884-2.1A2,2,0,0,1,222.968,64.035Z" transform="translate(70.813 16.1)" fill="#fff0ac"/>
        <ellipse id="Elipse_13665" data-name="Elipse 13665" cx="4.327" cy="4.83" rx="4.327" ry="4.83" transform="translate(336.482 373.504)" fill="#fff0ac"/>
        <path id="Trazado_1009402" data-name="Trazado 1009402" d="M237.331,227.147a3.372,3.372,0,1,1-3.351-3.741A3.563,3.563,0,0,1,237.331,227.147Z" transform="translate(75.016 101.172)" fill="#fff8d0"/>
        <path id="Trazado_1009403" data-name="Trazado 1009403" d="M34.489,192.8l1.461-11.677a.814.814,0,0,0-1.038-.945l-10.792,4.271a.92.92,0,0,0-.191,1.536l9.331,7.408A.77.77,0,0,0,34.489,192.8Z" transform="translate(-1.137 78.372)" fill="#fff"/>
        <path id="Trazado_1009404" data-name="Trazado 1009404" d="M248.05,186.81l3.826-6.9a.611.611,0,0,0-.419-.916l-7.854-.66a.6.6,0,0,0-.5.907l4.03,7.555A.511.511,0,0,0,248.05,186.81Z" transform="translate(79.576 77.427)" fill="#534741"/>
        <path id="Trazado_1009405" data-name="Trazado 1009405" d="M35.408,86.408l7.24.689a.592.592,0,0,0,.543-.831l-3.027-8.118a.515.515,0,0,0-.952-.09L35,85.486A.613.613,0,0,0,35.408,86.408Z" transform="translate(3.025 24.449)" fill="#534741"/>
        <path id="Trazado_1009406" data-name="Trazado 1009406" d="M233.916,197.684,230.79,194.2l3.125-3.489a2.163,2.163,0,0,0,0-2.823,1.66,1.66,0,0,0-2.528,0l-3.126,3.49-3.126-3.49a1.661,1.661,0,0,0-2.529,0,2.166,2.166,0,0,0,0,2.823l3.127,3.489-3.126,3.489a2.162,2.162,0,0,0,0,2.822,1.659,1.659,0,0,0,2.528,0l3.126-3.489,3.126,3.489a1.658,1.658,0,0,0,2.528,0A2.161,2.161,0,0,0,233.916,197.684Z" transform="translate(71.874 82.149)" fill="#fff0ac"/>
        <path id="Trazado_1009407" data-name="Trazado 1009407" d="M63.965,55.059,60.839,51.57l3.126-3.49a2.161,2.161,0,0,0,0-2.822,1.66,1.66,0,0,0-2.528,0l-3.126,3.49-3.125-3.49a1.66,1.66,0,0,0-2.528,0,2.161,2.161,0,0,0,0,2.822l3.126,3.49-3.126,3.489a2.162,2.162,0,0,0,0,2.822,1.659,1.659,0,0,0,2.528,0l3.125-3.489,3.126,3.489a1.658,1.658,0,0,0,2.528,0A2.161,2.161,0,0,0,63.965,55.059Z" transform="translate(9.36 7.009)" fill="#fff0ac"/>
        <path id="Trazado_1009408" data-name="Trazado 1009408" d="M241.657,278.554l-1.583-1.768,1.583-1.767a1.094,1.094,0,0,0,0-1.429.841.841,0,0,0-1.28,0l-1.583,1.767-1.584-1.767a.841.841,0,0,0-1.28,0,1.1,1.1,0,0,0,0,1.429l1.584,1.767-1.584,1.767a1.1,1.1,0,0,0,0,1.429.839.839,0,0,0,1.28,0l1.584-1.767,1.583,1.768a.841.841,0,0,0,1.28,0A1.094,1.094,0,0,0,241.657,278.554Z" transform="translate(76.869 127.455)" fill="#534741"/>
        <path id="Trazado_1009409" data-name="Trazado 1009409" d="M22.323,266.563l-4.225-.275.246-4.716a1.848,1.848,0,0,0-1.61-2.019,1.792,1.792,0,0,0-1.807,1.8l-.246,4.718-4.227-.275a1.79,1.79,0,0,0-1.807,1.8,1.846,1.846,0,0,0,1.609,2.018l4.225.275-.246,4.716a1.849,1.849,0,0,0,1.61,2.018,1.793,1.793,0,0,0,1.808-1.8L17.9,270.1l4.227.275a1.792,1.792,0,0,0,1.808-1.8A1.848,1.848,0,0,0,22.323,266.563Z" transform="translate(-6.637 120.214)" fill="#fbb476"/>
        <path id="Trazado_1009410" data-name="Trazado 1009410" d="M147.057,77.135V74.3h2.54a1.153,1.153,0,0,0,0-2.292h-2.54V69.173a1.033,1.033,0,1,0-2.055,0v2.835h-2.539a1.153,1.153,0,0,0,0,2.292H145v2.835a1.033,1.033,0,1,0,2.055,0Z" transform="translate(42.209 19.311)" fill="#fff8d0"/>
        <path id="Trazado_1009411" data-name="Trazado 1009411" d="M161.309,17.838l-4.225-.275.246-4.716a1.848,1.848,0,0,0-1.609-2.018,1.792,1.792,0,0,0-1.808,1.8l-.246,4.716-4.225-.275a1.792,1.792,0,0,0-1.808,1.8,1.846,1.846,0,0,0,1.609,2.017l4.227.275-.246,4.716a1.847,1.847,0,0,0,1.609,2.018,1.791,1.791,0,0,0,1.808-1.8l.246-4.715,4.225.273a1.79,1.79,0,0,0,1.808-1.8A1.848,1.848,0,0,0,161.309,17.838Z" transform="translate(44.487 -10.825)" fill="#fbb476"/>
      </g>
      <g id="Grupo_1198148" data-name="Grupo 1198148" transform="translate(138.149 8.038)">
        <g id="Grupo_1198146" data-name="Grupo 1198146">
          <ellipse id="Elipse_13666" data-name="Elipse 13666" cx="29.135" cy="31.643" rx="29.135" ry="31.643" fill="#63aec3"/>
          <path id="Trazado_1009412" data-name="Trazado 1009412" d="M146.33,54.655,139.7,41.821,130.565,48.9Z" transform="translate(-92.763 9.76)" fill="#63aec3"/>
        </g>
        <g id="Grupo_1198147" data-name="Grupo 1198147" transform="translate(10.468 20.979)">
          <rect id="Rectángulo_461381" data-name="Rectángulo 461381" width="36.948" height="3.244" rx="0.949" transform="translate(36.948 3.244) rotate(180)" fill="#fff"/>
          <rect id="Rectángulo_461382" data-name="Rectángulo 461382" width="36.948" height="3.244" rx="0.949" transform="translate(36.948 9.15) rotate(-180)" fill="#fff"/>
          <path id="Rectángulo_461383" data-name="Rectángulo 461383" d="M.949,0H36a.949.949,0,0,1,.949.949V2.294a.95.95,0,0,1-.95.95H.95A.95.95,0,0,1,0,2.294V.949A.949.949,0,0,1,.949,0Z" transform="translate(36.948 15.057) rotate(180)" fill="#fff"/>
        </g>
      </g>
      <g id="Grupo_1198150" data-name="Grupo 1198150" transform="translate(297.48 98.241)">
        <g id="Grupo_1198149" data-name="Grupo 1198149">
          <path id="Trazado_1009413" data-name="Trazado 1009413" d="M239.849,112.74c-11.27,0-20.437-10.234-20.437-22.813s9.167-22.811,20.437-22.811,20.435,10.233,20.435,22.811S251.117,112.74,239.849,112.74Zm0-41.037c-9,0-16.325,8.176-16.325,18.224s7.323,18.224,16.325,18.224,16.326-8.176,16.326-18.224S248.851,71.7,239.847,71.7Z" transform="translate(-219.412 -67.116)" fill="#534741"/>
        </g>
        <path id="Trazado_1009414" data-name="Trazado 1009414" d="M241.791,85.667a8.816,8.816,0,0,0-2.77-1.211c-.286-.079-.584-.157-.912-.235-2.682-.609-2.682-.609-3.138-.837A1.744,1.744,0,0,1,233.9,81.76a2.162,2.162,0,0,1,2.409-2c1.542,0,2.357.551,2.708,1.843a4.7,4.7,0,0,1,.109.492l4.819-.583a7.5,7.5,0,0,0-1.137-3.045,6.149,6.149,0,0,0-3.792-2.583V73.4h-5.143V75.9A6.326,6.326,0,0,0,231.4,86.809a6.306,6.306,0,0,0,2.474,1.163c.341.1.729.2,1.185.308a16.876,16.876,0,0,1,3.41,1.04,1.612,1.612,0,0,1,.548.473,2.322,2.322,0,0,1,0,2.62,2.838,2.838,0,0,1-2.391.965,3.155,3.155,0,0,1-2.658-1.192c-.034-.049-.064-.1-.094-.148a3.714,3.714,0,0,1-.5-1.728l-4.729.507a10.418,10.418,0,0,0,.5,2.359,5.877,5.877,0,0,0,2.454,3.248,7.564,7.564,0,0,0,2.271.916v2.5h5.143V97.435a6.664,6.664,0,0,0,3.633-1.924,6.777,6.777,0,0,0,1.591-4.668A5.86,5.86,0,0,0,241.791,85.667Z" transform="translate(-216.013 -63.807)" fill="#534741"/>
      </g>
      <ellipse id="Elipse_13667" data-name="Elipse 13667" cx="149.705" cy="23.739" rx="149.705" ry="23.739" transform="translate(21.229 426.927)" fill="#3c5d76"/>
      <g id="Grupo_1198194" data-name="Grupo 1198194" transform="translate(20.822 25.557)">
        <g id="Grupo_1198175" data-name="Grupo 1198175" transform="translate(0 95.494)">
          <path id="Trazado_1009415" data-name="Trazado 1009415" d="M69.11,144.957s8.5-.111,13.885,9.79,14.175,38.7,14.175,38.7l-9.564,20.438Z" transform="translate(1.959 -48.917)" fill="#f1dfcb"/>
          <path id="Trazado_1009416" data-name="Trazado 1009416" d="M107.118,154.061s-6.146,47.81-13.7,55.575-15.8,2.507-12.549-10.361,18.7-50.2,18.7-50.2Z" transform="translate(6.018 -46.746)" fill="#f1dfcb"/>
          <g id="Grupo_1198151" data-name="Grupo 1198151" transform="translate(105.09 74.062)">
            <path id="Trazado_1009417" data-name="Trazado 1009417" d="M96.1,164.012a10.286,10.286,0,0,1-1.533-2.823,9.017,9.017,0,0,1-.414-3.148c.045-1.438.235-2.883.361-4.313.129-1.467.264-2.933.424-4.4a36.542,36.542,0,0,1,.507-3.831,3.6,3.6,0,0,1,.532-1.322c.434-1.047.916-2.073,1.409-3.083.651-1.336,1.335-2.657,2.08-3.93a19.467,19.467,0,0,1,2.067-3,9.1,9.1,0,0,1,2.707-2.09,23.166,23.166,0,0,1,2.418-1.37,1.235,1.235,0,0,1,1.045-.037.909.909,0,0,1,.369.858,3.5,3.5,0,0,1-.261,1.148c-.923,1.7-2.462,2.892-3.748,4.22a9.944,9.944,0,0,0-1.107,1.466,19.055,19.055,0,0,0-1.336,2.42c-.265.573-.506,1.159-.728,1.753.118-.154.238-.308.361-.457a23.24,23.24,0,0,1,2.03-1.922,11.386,11.386,0,0,1,2.085-1.686l.021-.011a8.213,8.213,0,0,1,1.5-1.053,14.409,14.409,0,0,1,3.134-1.174c.408-.108.81-.237,1.213-.362.569-.284,1.142-.557,1.728-.785a3.539,3.539,0,0,1,1.957-.3c.758.171.765.974.517,1.641a3.327,3.327,0,0,1-2.325,1.88,18.708,18.708,0,0,0-3.554,1.643A9.549,9.549,0,0,0,106.6,142.7c-.029.041-.055.085-.083.127.066-.064.129-.13.2-.188a3.976,3.976,0,0,1,1.729-.705c1.557-.354,3.072-.9,4.6-1.367.785-.237,1.555-.495,2.332-.757.509-.171,3.368-1.231,2.983.318a3.05,3.05,0,0,1-.687,1.159,5,5,0,0,1-1.345,1.079,14.841,14.841,0,0,1-3.455,1.3,13.7,13.7,0,0,0-1.9.586,5.672,5.672,0,0,0-1.99,1.632,18.351,18.351,0,0,0-2.224,3.561c.324-.377.647-.756.979-1.124,1.451-1.6,3.141-2.093,5.031-2.738.9-.308,1.7-.9,2.614-1.168.543-.16,1.31-.189,1.568.508a1.392,1.392,0,0,1-.486,1.36,14.243,14.243,0,0,1-3.764,2.3,20.534,20.534,0,0,0-3.949,3.243c-1.428,1.342-1.625,2.945-2.1,4.849q-.351,1.395-.8,2.757a35.054,35.054,0,0,1-2.191,5.361,4.31,4.31,0,0,1-1.353,1.644,2.581,2.581,0,0,1-1.438.426C99.02,167.062,97.214,165.52,96.1,164.012Z" transform="translate(-93.921 -130.562)" fill="#f1dfcb"/>
            <path id="Trazado_1009418" data-name="Trazado 1009418" d="M103.389,136.779a6.251,6.251,0,0,1,.8,2.64,7.991,7.991,0,0,1-1.012,3.458,9.3,9.3,0,0,0-.927,3.122,15.832,15.832,0,0,0,.166,2.922,17.048,17.048,0,0,1-.517,6.778,5.489,5.489,0,0,1-4.061,3.962,5.584,5.584,0,0,1-2.518-.119,8.825,8.825,0,0,1-.751-1.629,9.017,9.017,0,0,1-.414-3.148c.045-1.438.235-2.883.361-4.313.01-.1.021-.2.029-.3.152-.281.327-.548.473-.814.375-.679.7-1.392,1.049-2.09.744-1.5,1.532-2.985,2.357-4.432,1.081-1.895,2.134-3.846,3.364-5.637-.053.108-.112.214-.164.324-.265.573-.506,1.159-.728,1.753.118-.154.238-.308.361-.457a23.466,23.466,0,0,1,2.03-1.922Z" transform="translate(-93.921 -127.287)" fill="#e7caaf" style="mix-blend-mode: multiply;isolation: isolate"/>
            <path id="Trazado_1009419" data-name="Trazado 1009419" d="M101.716,155.15c1.606-3.82-.948-8.133.806-11.906.689-1.483,1.6-2.851,1.31-4.616-.124-.77-.709-2.4-1.65-1.744a2.5,2.5,0,0,0-.74,1.2c-2.1,5.362-6.522,9.749-7.3,15.7-.259,1.974-.465,4.811,1.487,5.831a2.871,2.871,0,0,0,2.753-.273A8.817,8.817,0,0,0,101.716,155.15Z" transform="translate(-93.982 -127.312)" fill="#f1dfcb"/>
          </g>
          <g id="Grupo_1198154" data-name="Grupo 1198154" transform="translate(0 77.887)">
            <g id="Grupo_1198152" data-name="Grupo 1198152" transform="translate(87.058 141.224)">
              <path id="Trazado_1009420" data-name="Trazado 1009420" d="M125.194,225.562,129.5,323.7l-2.749.2-6.934-97.943Z" transform="translate(-66.447 -225.562)" fill="#808184"/>
              <path id="Trazado_1009421" data-name="Trazado 1009421" d="M86.175,228.092l4.306,98.133-2.749.2L80.8,228.482Z" transform="translate(-80.799 -224.229)" fill="#808184"/>
            </g>
            <g id="Grupo_1198153" data-name="Grupo 1198153" transform="translate(30.582 136.293)">
              <path id="Trazado_1009422" data-name="Trazado 1009422" d="M77.214,222.332l5.072,107.5L79.952,330l-7.3-107.337Z" transform="translate(-27.321 -222.332)" fill="#808184"/>
              <path id="Trazado_1009423" data-name="Trazado 1009423" d="M44.076,224.481l5.072,107.5-2.335.169-7.3-107.337Z" transform="translate(-39.511 -221.2)" fill="#808184"/>
            </g>
            <path id="Trazado_1009424" data-name="Trazado 1009424" d="M167.22,285.49s7.846-16.74-10.274-20.721-37.458,9.854-52.184-11.309S84.753,147.524,73.355,138.7s-56.084-7.127-56.2,4.068S29.1,272.829,53.245,289.6,167.22,285.49,167.22,285.49Z" transform="translate(-17.152 -133.067)" fill="#2c506b"/>
            <path id="Trazado_1009425" data-name="Trazado 1009425" d="M17.153,142.765c.118-11.195,44.8-12.9,56.2-4.068s16.679,93.6,31.407,114.762c5.512,7.921,11.672,10.934,18.17,11.818a28.793,28.793,0,0,1-6.965-.168c-4.435-.515-8.861-1.185-13.3-1.594a102.123,102.123,0,0,0-19.2.082,109.611,109.611,0,0,0-15.8,2.541,46.276,46.276,0,0,0-7.762,2.55,16.1,16.1,0,0,0-5.622,3.727,6.821,6.821,0,0,0-1.907,5.094,8.367,8.367,0,0,0,3.249,5.767,22.181,22.181,0,0,0,7.459,3.825,61.77,61.77,0,0,0,9.4,2.241c5.246.884,10.524,1.365,15.788,1.793,10.951.892,21.9.168,32.78-.97,5.322-.556,10.634-1.251,15.959-1.773,5.02-.493,10.041-1.046,15.022-1.983a69.487,69.487,0,0,0,16.515-5.168,20.42,20.42,0,0,1-1.317,4.249S77.394,306.38,53.245,289.6,17.036,153.962,17.153,142.765Z" transform="translate(-17.152 -133.067)" fill="#465554" opacity="0.43" style="mix-blend-mode: multiply;isolation: isolate"/>
          </g>
          <g id="Grupo_1198156" data-name="Grupo 1198156" transform="translate(125.109 222.412)">
            <path id="Trazado_1009426" data-name="Trazado 1009426" d="M127.044,227.724c2.167,32.274,3.455,85.36,2.719,93.623l-6.3.788s-10.2-50.746-14.849-89.667Z" transform="translate(-108.617 -227.724)" fill="#e7caaf"/>
            <g id="Grupo_1198155" data-name="Grupo 1198155" transform="translate(12.102 90.43)">
              <path id="Trazado_1009427" data-name="Trazado 1009427" d="M118.55,292.623c-.654,1.469-1.3,4.094-.123,5.449a5.049,5.049,0,0,0,1.336.867c1.23.748,1.87,2.4,2.706,3.591a27.522,27.522,0,0,0,2.937,3.554,18.061,18.061,0,0,0,7.6,4.778c2.2.655,7.909,1.954,8.325-1.974a3.187,3.187,0,0,0-.906-2.53,8.086,8.086,0,0,0-1.955-1.982,43.117,43.117,0,0,1-6.229-6.269,36.284,36.284,0,0,1-2.935-3.98c-.8-1.264-2.369-5.249-3.313-6.387-.65-.782-2.834.449-3.5.087a11.894,11.894,0,0,0-1.639-.8c-.8-.287-1.042.229-.958,1.067.168,1.669-.5,2.782-1.182,4.185C118.654,292.4,118.6,292.51,118.55,292.623Z" transform="translate(-117.351 -286.951)" fill="#e7caaf"/>
              <path id="Trazado_1009428" data-name="Trazado 1009428" d="M147.663,308.68c.659.473,1.323.939,2,1.388a3.956,3.956,0,0,1,2.07,3.926c-.336,1.919-3.134,1.919-4.488,2.034a18.085,18.085,0,0,1-5.683-.435c-2.353-.559-6.277-1.612-8.306-3.052-2.067-1.466-2.752-3.032-4.912-4.327-1.871-1.121-3.072-2.426-5.021-3.351-1.58-.75-3.387-1.5-4.395-3.109a7.279,7.279,0,0,1-1.376-2.774,12.624,12.624,0,0,1-.011-2.82c.031-.391.579-5.123.915-5.074a20.952,20.952,0,0,1,2.115,1.751c1.176,1.122,2.167,2.437,3.269,3.646a28.663,28.663,0,0,0,7.388,5.689,19.063,19.063,0,0,0,5.659,2.368,2.962,2.962,0,0,0,2.439-.4c.577-.472-.662-1.194-.743-1.942,1.367,1.113,2.9,2.025,4.339,3.026C144.526,306.346,146.077,307.538,147.663,308.68Z" transform="translate(-117.465 -284.773)" fill="#a46557"/>
            </g>
          </g>
          <path id="Trazado_1009429" data-name="Trazado 1009429" d="M103.577,215.121c.637.194,23.328,7.579,27.788,13.209s3.214,14.676-3.328,17.168S90,233.232,90,233.232Z" transform="translate(9.642 -11.951)" fill="#e7caaf"/>
          <g id="Grupo_1198159" data-name="Grupo 1198159" transform="translate(78.305 213.404)">
            <g id="Grupo_1198158" data-name="Grupo 1198158" transform="translate(25.115 19.815)">
              <path id="Trazado_1009430" data-name="Trazado 1009430" d="M111.6,234.8c6.479,31.554,14.045,80.4,14.428,88.693l-7.448-1s-15.987-44.291-25.817-82Z" transform="translate(-92.761 -234.802)" fill="#f1dfcb"/>
              <g id="Grupo_1198157" data-name="Grupo 1198157" transform="translate(23.96 85.075)">
                <path id="Trazado_1009431" data-name="Trazado 1009431" d="M110.812,296.466c-.506,1.539-.889,4.226.412,5.431a4.913,4.913,0,0,0,1.413.7c1.3.594,2.094,2.156,3.042,3.241a26.651,26.651,0,0,0,3.268,3.177,17.578,17.578,0,0,0,8.02,3.829c2.254.383,8.055.983,8.083-2.971.007-1.131.137-1.293-.584-2.092a11.776,11.776,0,0,0-2.7-2.047,41.622,41.622,0,0,1-6.806-5.477,34.94,34.94,0,0,1-3.309-3.6c-.921-1.159-2.87-4.93-3.92-5.947-.721-.7-2.773.791-3.472.51a11.885,11.885,0,0,0-1.707-.592c-.823-.189-1.014.354-.848,1.177.331,1.638-.219,2.825-.763,4.3C110.894,296.228,110.852,296.347,110.812,296.466Z" transform="translate(-110.255 -290.522)" fill="#f1dfcb"/>
                <path id="Trazado_1009432" data-name="Trazado 1009432" d="M141.451,308.8c.7.392,1.406.774,2.122,1.138a3.852,3.852,0,0,1,2.442,3.652c-.145,1.95-2.927,2.289-4.261,2.567a18.041,18.041,0,0,1-5.692.255c-2.394-.27-6.4-.843-8.557-2.028-2.2-1.2-3.033-2.68-5.306-3.706-1.971-.887-3.292-2.038-5.321-2.722-1.644-.554-3.513-1.08-4.674-2.557a7.093,7.093,0,0,1-1.639-2.591,12.483,12.483,0,0,1-.287-2.8c-.008-.394.072-5.162.412-5.155a20,20,0,0,1,2.273,1.484c1.28.974,2.394,2.16,3.607,3.228a27.776,27.776,0,0,0,7.9,4.761,18.7,18.7,0,0,0,5.857,1.669,3.007,3.007,0,0,0,2.386-.692c.527-.54-.776-1.107-.929-1.841,1.468.942,3.086,1.661,4.61,2.481C138.1,306.858,139.763,307.855,141.451,308.8Z" transform="translate(-110.278 -288.243)" fill="#c67a6a"/>
              </g>
            </g>
            <path id="Trazado_1009433" data-name="Trazado 1009433" d="M87.98,221.824c.637.194,23.328,7.581,27.788,13.209s3.214,14.676-3.327,17.168S74.4,239.934,74.4,239.934Z" transform="translate(-74.4 -221.824)" fill="#f1dfcb"/>
          </g>
          <path id="Trazado_1009434" data-name="Trazado 1009434" d="M48.8,200.083l43.851-2.275,1.542,12.43s33.03,13.984,49.7,24.13c-2.108.142-33.921,22.909-39.16,29.981-13.655-2.064-48.461-13.8-54.987-23.88C40.857,226.729,48.8,200.083,48.8,200.083Z" transform="translate(-6.712 -21.073)" fill="#534741"/>
          <g id="Grupo_1198160" data-name="Grupo 1198160" transform="translate(5.487 23.673)">
            <path id="Trazado_1009435" data-name="Trazado 1009435" d="M26.607,215.055a28.233,28.233,0,0,1-.549-11.638c.7-4.437,1.858-8.547,1.283-13.108-.607-4.828-2.387-9.379-3.141-14.18-1.332-8.492,1.966-14.555,5.227-21.816,3.856-8.582,2.738-17.079,2.059-26.251-.588-7.937.719-14.508,5.008-20.938.045-.069.131-.056.2-.015a22.332,22.332,0,0,1,6.946-5.61,36.761,36.761,0,0,1,14.934-3.855,56.32,56.32,0,0,1,15,1.293,31.531,31.531,0,0,1,14.068,6.317,20.018,20.018,0,0,1,5.622,7.257,37.9,37.9,0,0,1,2.318,9.451c0,.023-.012.029-.012.049a93.557,93.557,0,0,0,5.54,16.123c2.4,5.228,6.4,9.694,7.591,15.552,1.226,6.022-1.4,11.476-2.647,17.182a16.3,16.3,0,0,0,.115,8.675c.96,2.858,2.793,5.21,4.058,7.889a13.833,13.833,0,0,1,1.356,4.512,18.691,18.691,0,0,1-.5,5.358,52.756,52.756,0,0,1-2.1,7.489,14.59,14.59,0,0,0-8.2-.124c-3.987,1.113-7.53,3.591-10.919,6.1-3.271,2.419-6.421,4.887-10.11,6.468a27.412,27.412,0,0,1-12.524,2.128,21.512,21.512,0,0,0-5.354.122,16.716,16.716,0,0,0-5.292,2.495c-2.591,1.557-5.373,3.043-8.356,3.264-3.253.241-6.343-1.185-9.089-3a47.412,47.412,0,0,0-11.163-5.1,1.729,1.729,0,0,1-.724-.394,2.012,2.012,0,0,1-.391-.809Q26.726,215.5,26.607,215.055Z" transform="translate(-20.159 -97.56)" fill="#826939"/>
            <path id="Trazado_1009436" data-name="Trazado 1009436" d="M77.155,125.2A40.722,40.722,0,0,1,76,114.833c0-3.771.189-7.668-.539-11.378-.038-.2.257-.147.3,0,1.606,6.286.55,12.89,1.765,19.24a47.031,47.031,0,0,0,7.051,16.812c2.894,4.4,7.18,7.761,8.787,13.111,1.7,5.657-.64,11.331-2.059,16.714a22.843,22.843,0,0,0-.367,10.37,14.468,14.468,0,0,0,1.894,4.817c.889,1.423,1.975,2.67,2.929,4.035.231.33-.216.479-.408.238-1.684-2.118-3.488-4.242-4.469-6.9a20.994,20.994,0,0,1-1.093-8.946c.523-5.918,3.626-11.241,3.2-17.324-.435-6.2-4.961-9.966-8.232-14.421A47.968,47.968,0,0,1,77.155,125.2Z" transform="translate(-1.194 -94.523)" fill="#826939"/>
            <path id="Trazado_1009437" data-name="Trazado 1009437" d="M26.609,202a20.592,20.592,0,0,0,1.685-8.082,25.441,25.441,0,0,0-1.848-7.9c-2.334-6.245-5.294-12.253-5.283-19.214.01-6.034,2.461-11.457,5.064-16.585a72.118,72.118,0,0,0,3.7-7.93,45.3,45.3,0,0,0,2.194-8.926c.554-3.779.758-7.616,1.164-11.418.394-3.7.514-7.489,1.235-11.132.033-.162.3-.078.275.067-.548,3.272-.4,6.608-.616,9.914-.238,3.556-.477,7.133-.871,10.674a51.946,51.946,0,0,1-1.685,8.752,47.844,47.844,0,0,1-3.418,8.283c-2.632,5.184-5.53,10.511-6.035,16.575-.606,7.3,2.4,13.737,4.9,20.229,2.094,5.429,3.41,11.818-.015,16.972C26.929,202.483,26.522,202.238,26.609,202Z" transform="translate(-21.164 -90.621)" fill="#826939"/>
          </g>
          <path id="Trazado_1009438" data-name="Trazado 1009438" d="M88.709,239.215a46.314,46.314,0,0,1-11.462,2.68,83.858,83.858,0,0,1-12.3.663c-6.177-.147-14.444-1.881-20.074-4.739.44-10.239,4.015-13.858,3.9-23.1-.178-14.29-5.075-58.392-3.351-64.405l.01-.015a46.675,46.675,0,0,1,4.24-3.626,18.064,18.064,0,0,1,6.923-3.365,37.492,37.492,0,0,1,9.472-.527c2.2.1,4.4.36,6.59.663a20.138,20.138,0,0,1,3.381.606,8.233,8.233,0,0,1,2.968,1.774,25.18,25.18,0,0,1,4.359,5.837c1.5,2.486,3.115,4.869,4.729,7.268,2.3,3.423,4.585,6.883,6.663,10.483a96.846,96.846,0,0,1,2.87,9.419c1.009,4.109-.224,39.026-.841,56.915C95.129,236.95,90.6,238.467,88.709,239.215Z" transform="translate(-6.955 -50.103)" fill="#e5936e"/>
          <path id="Trazado_1009439" data-name="Trazado 1009439" d="M30.928,209.988a48.649,48.649,0,0,1,1.383-7.784c1.558-6.488,2.814-13.045,4.433-19.519,2.448-9.782,4.529-21.64,10.111-30.163a17.928,17.928,0,0,1,5.593-5.652c.267-.119.536-.229.811-.322a3.486,3.486,0,0,1,3.069.284,8.492,8.492,0,0,1,1.547,1.287,9.075,9.075,0,0,1,1.457,1.947,16.122,16.122,0,0,1,1.659,4.837,31.255,31.255,0,0,1,.323,9.793,56.745,56.745,0,0,1-1.81,8.4,114.327,114.327,0,0,0-6.236,14.794c-1.081,3.522-2.247,7.02-3.283,10.558-.968,3.315-1.84,6.662-2.547,10.048a28.5,28.5,0,0,1-2.577,8.248,7.616,7.616,0,0,1-2.8,2.95,6.653,6.653,0,0,1-3.959.757,7.731,7.731,0,0,1-6.04-3.587A12.156,12.156,0,0,1,30.928,209.988Z" transform="translate(-12.107 -48.198)" fill="#f1dfcb"/>
          <g id="Grupo_1198171" data-name="Grupo 1198171" transform="translate(17.566)">
            <g id="Grupo_1198169" data-name="Grupo 1198169">
              <g id="Grupo_1198168" data-name="Grupo 1198168">
                <g id="Grupo_1198162" data-name="Grupo 1198162" transform="translate(28.78 61.566)">
                  <g id="Grupo_1198161" data-name="Grupo 1198161">
                    <path id="Trazado_1009440" data-name="Trazado 1009440" d="M73.187,157.22c1.573,3.164,5.47,7.454,1.123,10.428-2.953,2.019-7.645.437-10.722-.695a28.313,28.313,0,0,1-10.231-6.59,8.283,8.283,0,0,1-2.078-2.928c-1.025-2.8,1.517-4.619,1.633-7.277.347-7.932.014-26.046-.305-26.843a1.341,1.341,0,0,1,.559-.6,4.364,4.364,0,0,1,2.976-.142c1.09.244,2.141.663,3.212.985a36.757,36.757,0,0,1,7.466,3.113,40.843,40.843,0,0,1,6.334,4.84C73.831,132.089,72.855,156.553,73.187,157.22Z" transform="translate(-51.035 -122.378)" fill="#e7caaf"/>
                  </g>
                </g>
                <g id="Grupo_1198167" data-name="Grupo 1198167">
                  <g id="Grupo_1198164" data-name="Grupo 1198164">
                    <g id="Grupo_1198163" data-name="Grupo 1198163">
                      <path id="Trazado_1009441" data-name="Trazado 1009441" d="M40.077,110.54c1.5-7.933,5.423-15.337,11.26-20.24a24.745,24.745,0,0,1,19.515-5.823c6.4,1,11.948,5.219,15.8,10.918.453.67.88,1.36,1.29,2.061a19.007,19.007,0,0,1,1.484,2.168c2.257,3.893,2.711,8.613,3.151,13.113a42.65,42.65,0,0,0,1.183,7.292,51.529,51.529,0,0,0,2.645,6.892c1.8,4.109,3.441,8.126,3.173,12.812-.416,7.282-3.429,14.806-8.667,19.318-5.3,4.568-12.434,5.529-18.938,4.9a33.972,33.972,0,0,1-19.248-8.294c-5.826-5.159-9.056-12.512-11.1-20.351C39.541,127.322,38.525,118.762,40.077,110.54Z" transform="translate(-26.563 -80.918)" fill="#f1dfcb"/>
                      <path id="Trazado_1009442" data-name="Trazado 1009442" d="M73.961,110.427a9.632,9.632,0,0,1,.3-2.1,7.719,7.719,0,0,1,2.537-3.174c.072-.05.148-.076.22-.119,1.321-.351,2.347.631,3.184,1.754a3.569,3.569,0,0,0-.327-.223,1.237,1.237,0,0,0-.925-.234,2.606,2.606,0,0,0-1.168.634,11.647,11.647,0,0,0-3.4,5.938.232.232,0,0,1-.29.174A18.855,18.855,0,0,1,73.961,110.427Z" transform="translate(-13.825 -69.988)" fill="#826939"/>
                      <path id="Trazado_1009443" data-name="Trazado 1009443" d="M56.194,115.606a8.7,8.7,0,0,1,7.534-5.749,9.017,9.017,0,0,1,7.421,3.75.539.539,0,0,1-.261-.1,9.367,9.367,0,0,0-8.1-1.567,9.827,9.827,0,0,0-4.162,2.8,18.528,18.528,0,0,0-1.819,2.1c-.538.763-.953,1.637-1.421,2.454l-.008.009A11.322,11.322,0,0,1,56.194,115.606Z" transform="translate(-20.657 -67.414)" fill="#826939"/>
                      <path id="Trazado_1009444" data-name="Trazado 1009444" d="M30.236,117.18c1.2-9.479,7.1-19.653,13.829-25.761a36.07,36.07,0,0,1,21.844-9.28c7.163-.466,15.509.971,21.541,5.817.606.357,1.193.768,1.775,1.191.045.008.092.012.137.021A20.311,20.311,0,0,1,97.8,93.121a25.85,25.85,0,0,1,5.719,6.074,14.643,14.643,0,0,1,2.819,7.982c-.022,6.581-6.009,9.3-11.012,9.911a30.748,30.748,0,0,1-8.318-.282,79.233,79.233,0,0,1-10.78-2.444,60.088,60.088,0,0,1-11.614-4.425,39.933,39.933,0,0,1-4.5-2.857,15.2,15.2,0,0,1,.458,3.193,50.454,50.454,0,0,1-.528,8.051,84.159,84.159,0,0,1-3.695,15.82c-.756,2.235-1.993,4.327-2.528,6.649a44.171,44.171,0,0,0,.725,6.917c.149.812-1.037.547-1.194-.053-.092-.345-.135-.695-.215-1.043-.436-1.469-.851-2.953-1.224-4.449a9.592,9.592,0,0,1-1.931-1.947,35.242,35.242,0,0,1-2.634-3.909c-.364-.594-1.071.208-1.075,1.087a16.648,16.648,0,0,0,1.551,7.2,53.57,53.57,0,0,0,3.883,7.133c.8,1.249,5.138,6.049,6.593,6.605.145.055.443.33.183.527-2.016,1.544-9.18-.1-10.924-1.234a27.041,27.041,0,0,1-8.818-8.677C33.212,140.224,28.913,127.661,30.236,117.18Z" transform="translate(-29.995 -82.056)" fill="#987a44"/>
                      <path id="Trazado_1009445" data-name="Trazado 1009445" d="M38.448,121.806c-.13-1.875.492-4.2,2.275-4.835,2.183-.783,4.344,1.315,5.6,3.086.313.441.722,1.011,1.093,1.635a14.659,14.659,0,0,1,1.639,2.2A31.213,31.213,0,0,1,51.51,129.7c.527,1.518,1.334,3.764.042,5.075-1.18,1.2-2.948.76-4.283.183-3.124-1.351-5.263-4.141-6.925-7.3A15.014,15.014,0,0,1,38.448,121.806Z" transform="translate(-26.891 -63.75)" fill="#f1dfcb"/>
                      <path id="Trazado_1009446" data-name="Trazado 1009446" d="M39.747,121.281a1.388,1.388,0,0,1,1.722-1.232,5.275,5.275,0,0,1,2.859,1.895,18.321,18.321,0,0,1,2.175,3.1,16.061,16.061,0,0,1,1.942,5.471c.055.363-.447.231-.52-.023-.323-1.125-.648-2.229-1.06-3.295a1.55,1.55,0,0,1-.375.05,2.686,2.686,0,0,1-.624-.073,4.81,4.81,0,0,1-1.254-.5c-.762-.418-1.423-1-2.145-1.492a.134.134,0,1,1,.146-.224,23.133,23.133,0,0,0,2.034,1.24,4.557,4.557,0,0,0,1.092.421,2.275,2.275,0,0,0,.547.055c.123,0,.242-.018.361-.027a12.5,12.5,0,0,0-.7-1.423,15.874,15.874,0,0,0-2.44-3.307c-.637-.628-2.145-1.913-2.97-.974-.635.722-.372,2.145-.034,2.951.053.13-.123.118-.17.037A4.246,4.246,0,0,1,39.747,121.281Z" transform="translate(-26.421 -62.053)" fill="#f1dfcb" style="mix-blend-mode: multiply;isolation: isolate"/>
                    </g>
                  </g>
                  <path id="Trazado_1009447" data-name="Trazado 1009447" d="M79.606,120.158l.049.029.044.031c.053.043.1.095.157.136h0c.014.018.029.035.041.052.034.047.063.107.064.105.016.038.033.076.047.118l.012.024c0,.006,0,0,0,.015.005.066.012.134.021.2l0,.069c0,.053-.011.108-.019.162s-.019.1-.029.15c0,.012-.015.066-.027.105a5.118,5.118,0,0,1-.332.814l-.018.035-.049.09c-.038.07-.078.137-.118.2-.081.139-.166.275-.253.409-.179.275-.368.542-.564.8-.343.461-.715.893-1.086,1.327a3.728,3.728,0,0,1,.264-1.264c.226-.539.611-.968.881-1.476.309-.585.488-1.243.765-1.838a3.706,3.706,0,0,0-.765-.295,6.208,6.208,0,0,1-2.18-1.53,5.866,5.866,0,0,1-1.669-3.3c-.025-.208.316-.232.352-.047a6.215,6.215,0,0,0,1.674,3.106,8.11,8.11,0,0,0,1.369,1.128c.257.169,1.048.765,1.375.641Z" transform="translate(-13.501 -64.617)" fill="#f1dfcb" style="mix-blend-mode: multiply;isolation: isolate"/>
                  <g id="Grupo_1198165" data-name="Grupo 1198165" transform="translate(44.313 48.26)">
                    <path id="Trazado_1009448" data-name="Trazado 1009448" d="M62.8,117.657c.658,1.777,1.871,2.9,2.707,2.518s.983-2.139.326-3.916-1.87-2.906-2.708-2.519S62.145,115.88,62.8,117.657Z" transform="translate(-62.391 -113.663)" fill="#44281a"/>
                    <path id="Trazado_1009449" data-name="Trazado 1009449" d="M62.7,115.588c.129.348.367.57.531.493s.192-.418.063-.766-.367-.57-.529-.493S62.57,115.24,62.7,115.588Z" transform="translate(-62.307 -113.061)" fill="#fff"/>
                  </g>
                  <g id="Grupo_1198166" data-name="Grupo 1198166" transform="translate(64.424 41.197)">
                    <path id="Trazado_1009450" data-name="Trazado 1009450" d="M77.507,113.029c.658,1.779,1.87,2.906,2.707,2.519s.982-2.139.324-3.918-1.87-2.9-2.707-2.518S76.848,111.252,77.507,113.029Z" transform="translate(-77.094 -109.037)" fill="#44281a"/>
                    <path id="Trazado_1009451" data-name="Trazado 1009451" d="M77.4,110.962c.129.348.367.57.531.493s.193-.418.063-.766-.365-.57-.529-.493S77.273,110.614,77.4,110.962Z" transform="translate(-77.011 -108.435)" fill="#fff"/>
                  </g>
                  <path id="Trazado_1009452" data-name="Trazado 1009452" d="M81.462,128.894a9.018,9.018,0,0,1-4.547,3.074,8.215,8.215,0,0,1-5.155.023,5.636,5.636,0,0,1-3.547-3.938c2.416-.4,4.831-.8,7.241-1.27,2.038-.4,4.078-.788,6.116-1.186.5-.1,1-.206,1.5-.315A8.474,8.474,0,0,1,81.462,128.894Z" transform="translate(-15.937 -59.282)" fill="#fff"/>
                </g>
              </g>
            </g>
            <g id="Grupo_1198170" data-name="Grupo 1198170" transform="translate(0.826 40.577)">
              <path id="Trazado_1009453" data-name="Trazado 1009453" d="M31.545,110.505c3.439,1.878,6.722,4.118,10.442,5.252,3.913,1.192,8.156,1.965,12.2,1.168.231-.044.542.36.227.434-8.044,1.887-16.537-1.231-22.993-6.643C31.278,110.6,31.4,110.424,31.545,110.505Z" transform="translate(-30.32 -107.655)" fill="#7c6334"/>
              <path id="Trazado_1009454" data-name="Trazado 1009454" d="M31.478,111.943a30.073,30.073,0,0,0,3.688,7.246,24.169,24.169,0,0,0,5.2,5.689c.237.179-.025.394-.224.257a21.27,21.27,0,0,1-3.042-2.4,22.7,22.7,0,0,1-2.732-3.28,21.224,21.224,0,0,1-3.209-7.512C31.107,111.721,31.427,111.789,31.478,111.943Z" transform="translate(-30.395 -106.962)" fill="#7c6334"/>
              <path id="Trazado_1009455" data-name="Trazado 1009455" d="M30.8,109.616a16.541,16.541,0,0,1,2.533-.463c.855-.137,1.71-.27,2.569-.37a31.141,31.141,0,0,1,5.255-.079,55.161,55.161,0,0,1,10.379,1.449c.181.046.2.325-.014.279A57.268,57.268,0,0,0,41.179,109.4a33.6,33.6,0,0,0-5.229.156,35.223,35.223,0,0,1-4.9.718C30.743,110.271,30.357,109.761,30.8,109.616Z" transform="translate(-30.598 -108.632)" fill="#7c6334"/>
            </g>
          </g>
          <g id="Grupo_1198173" data-name="Grupo 1198173" transform="translate(70.453 108.242)">
            <g id="Grupo_1198172" data-name="Grupo 1198172">
              <path id="Trazado_1009456" data-name="Trazado 1009456" d="M77,157.561s-1.194-2.895-5.478-1.84-3.554,8.637.769,11.584c3.647,2.487,10.432,3.26,10.432,3.26l-.114-1.939s-5.03.208-8.742-2.469c-3.959-2.854-3.606-7.373-1.443-8.166,2.993-1.1,5.1,3.287,5.1,3.287Z" transform="translate(-68.659 -151.61)" fill="#fff"/>
              <path id="Trazado_1009457" data-name="Trazado 1009457" d="M76.146,163.852a16.893,16.893,0,0,0,3.714.368l.114,1.939s-1.2-.137-2.866-.481C76.778,165.075,76.455,164.467,76.146,163.852Z" transform="translate(-65.905 -147.204)" fill="#e0decb" style="mix-blend-mode: multiply;isolation: isolate"/>
              <path id="Trazado_1009458" data-name="Trazado 1009458" d="M74.013,158.746c-.272-1.012-.528-2.032-.719-3.064a3.6,3.6,0,0,1,2.005,1.777l.528,3.718A8.954,8.954,0,0,0,74.013,158.746Z" transform="translate(-66.954 -151.509)" fill="#e0decb" style="mix-blend-mode: multiply;isolation: isolate"/>
              <path id="Trazado_1009459" data-name="Trazado 1009459" d="M73.707,155.242l12.651-1.1.373-.028,12.672-.733a51.016,51.016,0,0,1-4.031,18.725l-.011.024h0c-.38.814-3.643,1.661-7.648,1.951-4.046.292-7.4-.089-7.825-.855A50.035,50.035,0,0,1,73.707,155.242Z" transform="translate(-66.802 -152.72)" fill="#fff"/>
              <path id="Trazado_1009460" data-name="Trazado 1009460" d="M73.707,155.47c.042.713,5.828.875,12.923.362s12.815-1.509,12.773-2.222-5.828-.875-12.923-.362S73.666,154.757,73.707,155.47Z" transform="translate(-66.802 -152.949)" fill="#bcbcad"/>
            </g>
          </g>
          <g id="Grupo_1198174" data-name="Grupo 1198174" transform="translate(19.215 109.42)">
            <path id="Trazado_1009461" data-name="Trazado 1009461" d="M65.229,183.028a11.024,11.024,0,0,1-.8-3.222,9.152,9.152,0,0,1,.371-3.2c.4-1.389.941-2.741,1.416-4.1.487-1.392.981-2.782,1.5-4.161a35.448,35.448,0,0,1,1.439-3.587,3.4,3.4,0,0,1,.845-1.128c.681-.89,1.4-1.745,2.134-2.582.966-1.105,1.957-2.185,3-3.2a18.146,18.146,0,0,1,2.756-2.3,8.6,8.6,0,0,1,3.158-1.217,22.245,22.245,0,0,1,2.7-.6,1.276,1.276,0,0,1,1.03.284.961.961,0,0,1,.149.95A3.387,3.387,0,0,1,84.38,156c-1.319,1.374-3.116,2.073-4.7,2.979a9.2,9.2,0,0,0-1.44,1.093,17.568,17.568,0,0,0-1.9,1.956c-.4.479-.781.977-1.144,1.49.155-.115.309-.229.466-.336a21.822,21.822,0,0,1,2.454-1.26,10.709,10.709,0,0,1,2.45-1.011l.023,0a7.7,7.7,0,0,1,1.721-.571,13.974,13.974,0,0,1,3.347-.194c.425.018.849.015,1.273.017.625-.1,1.253-.2,1.879-.24a3.581,3.581,0,0,1,1.985.3c.7.4.506,1.183.1,1.76a3.146,3.146,0,0,1-2.732,1.127,18.18,18.18,0,0,0-3.874.521c-.3.073-.581.165-.864.264-1.892.307-5.162,3.813-4.649,3.509.094-.056.182-.121.276-.177a.44.44,0,0,0,.157-.157,12.261,12.261,0,0,1,3.172-1.863c.114.008.226.014.338.023,1.607.127,3.22.053,4.831.067.823.006,1.64-.011,2.462-.029.54-.014,3.591-.177,2.834,1.217a2.831,2.831,0,0,1-.956.922,4.739,4.739,0,0,1-1.579.646,14.453,14.453,0,0,1-3.692.214,13.621,13.621,0,0,0-2,0,5.34,5.34,0,0,0-2.346.986,17.229,17.229,0,0,0-3.048,2.8c.409-.27.818-.542,1.234-.8,1.811-1.124,3.581-1.087,5.583-1.141.956-.027,1.886-.359,2.84-.345.57.009,1.327.215,1.4.974a1.327,1.327,0,0,1-.808,1.18,13.581,13.581,0,0,1-4.243,1.1,19.392,19.392,0,0,0-4.653,1.964c-1.723.876-2.312,2.382-3.247,4.093-.457.838-.947,1.654-1.46,2.449a33.081,33.081,0,0,1-3.461,4.565,4.026,4.026,0,0,1-1.725,1.194,2.561,2.561,0,0,1-1.507-.021C67.328,186.9,65.946,184.84,65.229,183.028Z" transform="translate(-18.986 -153.72)" fill="#f1dfcb"/>
            <path id="Trazado_1009462" data-name="Trazado 1009462" d="M82.408,176.894s-27.522,29.283-37,32.267-15.243-4.753-14.055-10.489,6.23-10.749,13.209-12.877,33.816-16.186,33.816-16.186Z" transform="translate(-31.2 -145.35)" fill="#f1dfcb"/>
          </g>
          <path id="Trazado_1009463" data-name="Trazado 1009463" d="M106.665,126.887a31.154,31.154,0,0,0-12.01-6.985c-2.173-.748-4.715-1.217-6.578.24-2.157,1.686-2.4,5.138-2.056,8.053a33.778,33.778,0,0,0,3.22,10.963c1.689,3.42,3.971,6.53,5.016,10.257.668,2.385.424,5.648-1.674,6.515-1.666.689-3.734-.547-5.225.534-1.336.97-1.313,3.191-.755,4.858s1.5,3.249,1.5,5.028a2.692,2.692,0,0,1-.362,1.47c-.637.97-2.148,1.168-2.338,2.351,1.412.4,2.848-.921,3.283-2.47a9.834,9.834,0,0,0-.23-4.8c-.291-1.27-.562-2.8.25-3.745,1.152-1.339,3.147-.211,4.8-.37,1.8-.173,3.188-2.02,3.585-3.987a13.624,13.624,0,0,0-.49-5.955c-1.265-4.994-3.191-9.866-3.411-15.05a3.4,3.4,0,0,1,.187-1.53c.636-1.412,2.5-1.1,3.834-.573q5.7,2.244,11.4,4.492a4.584,4.584,0,0,0,2.2.47,1.8,1.8,0,0,0,1.583-1.519,2.857,2.857,0,0,0-.587-1.736,44.97,44.97,0,0,0-5.142-6.51" transform="translate(7.952 -62.49)" fill="#e5e5e5" style="mix-blend-mode: multiply;isolation: isolate"/>
        </g>
        <g id="Grupo_1198178" data-name="Grupo 1198178" transform="translate(54.026 265.787)">
          <g id="Grupo_1198176" data-name="Grupo 1198176" transform="translate(0 19.62)">
            <path id="Trazado_1009464" data-name="Trazado 1009464" d="M142.3,219.725,86.07,235.34l-29.4-16.489-.024-2.185,85.626.874Z" transform="translate(-56.65 -201.05)" fill="#6e6f72"/>
            <path id="Trazado_1009465" data-name="Trazado 1009465" d="M142.276,222.928l-56.23,15.616-29.4-16.489,56.23-15.616Z" transform="translate(-56.65 -206.438)" fill="#b7b9bb"/>
            <path id="Trazado_1009466" data-name="Trazado 1009466" d="M125.2,223.6,86.677,234.3,66.538,223l38.522-10.7Z" transform="translate(-53.013 -203.349)" fill="#858789"/>
          </g>
          <g id="Grupo_1198177" data-name="Grupo 1198177" transform="translate(29.396)">
            <path id="Trazado_1009467" data-name="Trazado 1009467" d="M134.371,229.7,78.948,246.1l-.808-.788L97.979,209.2l56.23-15.616.808.788Z" transform="translate(-78.141 -193.588)" fill="#989a9d"/>
            <path id="Trazado_1009468" data-name="Trazado 1009468" d="M134.961,230.214,78.731,245.83,98.57,209.72,154.8,194.1Z" transform="translate(-77.923 -193.316)" fill="#b7b9bb"/>
          </g>
        </g>
        <g id="Grupo_1198193" data-name="Grupo 1198193" transform="translate(144.274)">
          <path id="Trazado_1009469" data-name="Trazado 1009469" d="M162.938,101.4l.07.046c.353-.069.7-.144,1.057-.218a20.421,20.421,0,0,1-4.2-3.351,11.911,11.911,0,0,1-2.749-6.685,27.158,27.158,0,0,1,.614-7.767c.484-2.594,1.115-5.152,1.578-7.75a27.589,27.589,0,0,0,.424-7.715,27.2,27.2,0,0,0-1.9-7.46,24.687,24.687,0,0,1,3.6,16.893c-.5,2.994-1.646,5.79-2.026,8.822a13.478,13.478,0,0,0,.81,7.085c1.485,3.35,4.507,4.923,6.884,7.288.635-.133,1.269-.263,1.905-.379a30.543,30.543,0,0,1,8.069-.334c4.621.388,9.431,1.321,13.992-.052,4.537-1.367,8.457-4.449,12.68-6.637a30.413,30.413,0,0,1,10.784-3.06c-1.294-9.537-2.034-20-2.074-21.941-.134-6.64-21.143-5.886-25.182-10.092a34.545,34.545,0,0,1-6.21-8.821c-1.751-3.611-2.6-7.593-3.99-11.372a28.548,28.548,0,0,0-6.084-10.326c-.137-.139-.282-.269-.423-.4-.034.026-.07.049-.1.073-4.838,3.512-9.155,7.937-11.716,13.8a35.449,35.449,0,0,0-2.863,17.012c.326.6.635,1.212.919,1.837a27.241,27.241,0,0,1,2.189,7.349,25.488,25.488,0,0,1-.182,7.9c-.424,2.55-1.031,5.055-1.533,7.587a34.273,34.273,0,0,0-.855,7.489,13.457,13.457,0,0,0,1.9,6.823A15.133,15.133,0,0,0,162.938,101.4Z" transform="translate(-110.441 -15.476)" fill="#5f3d2c"/>
          <path id="Trazado_1009470" data-name="Trazado 1009470" d="M162.892,170.317l.207-1.11,19.5-91.3s-15.157,2.942-18.225,15.444S147.631,157.3,147.631,157.3l.67,13.015Z" transform="translate(-113.432 11.254)" fill="#e7caaf"/>
          <path id="Trazado_1009471" data-name="Trazado 1009471" d="M200.985,153.572l-34.639-1.367c.5,11.222,4.153,89.758,4.942,93.337,2.737,12.4,8.076,90.583,10.484,100.947l7.86-.179s6.932-64.344,1.6-99.775C191.092,245.6,198.519,182.6,200.985,153.572Z" transform="translate(-106.547 50.396)" fill="#e7caaf"/>
          <path id="Trazado_1009472" data-name="Trazado 1009472" d="M207.537,151.508l-34.33,5.333c2.224,10.958,17.979,87.609,19.31,90.981,4.614,11.69,24.5,93.774,28.477,103.518l5.571-1.09s-3.517-71.424-14.251-105.294C212.032,244.065,209.6,180.582,207.537,151.508Z" transform="translate(-104.024 50.029)" fill="#f1dfcb"/>
          <g id="Grupo_1198179" data-name="Grupo 1198179" transform="translate(90.011 388.673)">
            <path id="Trazado_1009473" data-name="Trazado 1009473" d="M218.305,279.576c-.918-1.411-1.774-2.51-1.806-4.342-.016-.921-.342-1.441-1.168-1a13.532,13.532,0,0,0-1.665,1.121c-.673.5-3.184-.49-3.783.458-.874,1.38-2.056,5.939-2.759,7.434a41.221,41.221,0,0,1-2.658,4.77,49.022,49.022,0,0,1-5.915,7.766,13.86,13.86,0,0,0-2.377,2.948c-.576,1.055-.4,1.189-.131,2.385.947,4.185,6.931,1.878,9.222.823a20.425,20.425,0,0,0,7.578-6.368,31.012,31.012,0,0,0,2.712-4.309c.75-1.423,1.23-3.309,2.461-4.312a5.672,5.672,0,0,0,1.33-1.15c1.093-1.652.066-4.391-.826-5.875C218.452,279.8,218.379,279.689,218.305,279.576Z" transform="translate(-185.727 -274.072)" fill="#f1dfcb"/>
            <path id="Trazado_1009474" data-name="Trazado 1009474" d="M192.294,301.978c-.648.617-1.3,1.225-1.977,1.817a4.448,4.448,0,0,0-1.73,4.574c.606,2.025,3.621,1.583,5.094,1.493a19.8,19.8,0,0,0,6.069-1.368c2.464-.976,6.559-2.735,8.563-4.611,2.039-1.912,2.58-3.716,4.742-5.457,1.874-1.509,3-3.11,4.986-4.419,1.607-1.061,3.458-2.154,4.34-4.057a8.223,8.223,0,0,0,1.13-3.217,13.725,13.725,0,0,0-.347-3.055c-.082-.418-1.273-5.451-1.63-5.344a23.245,23.245,0,0,0-2.054,2.228c-1.127,1.4-2.027,2.979-3.061,4.46a32.528,32.528,0,0,1-7.237,7.321,21.439,21.439,0,0,1-5.8,3.455,3.188,3.188,0,0,1-2.678-.047c-.681-.42.562-1.4.554-2.218-1.332,1.42-2.872,2.649-4.292,3.959C195.379,298.958,193.857,300.492,192.294,301.978Z" transform="translate(-188.434 -271.828)" fill="#7d81b8"/>
          </g>
          <g id="Grupo_1198180" data-name="Grupo 1198180" transform="translate(48.371 390.982)">
            <path id="Trazado_1009475" data-name="Trazado 1009475" d="M190.4,281.361c-.773-1.515-1.516-2.713-1.365-4.538.075-.916-.2-1.475-1.061-1.142a13.119,13.119,0,0,0-1.766.909c-.718.412-3.116-.879-3.805-.011-1,1.264-2.63,5.649-3.477,7.048a39.874,39.874,0,0,1-3.113,4.414,47.362,47.362,0,0,1-6.646,6.988,13.389,13.389,0,0,0-2.655,2.638c-.676.977-.517,1.131-.365,2.354.527,4.275,6.7,2.721,9.084,1.954a19.771,19.771,0,0,0,8.162-5.4,30.227,30.227,0,0,0,3.121-3.948c.886-1.324,1.548-3.138,2.871-3.982a5.552,5.552,0,0,0,1.436-.979c1.25-1.509.5-4.356-.241-5.942C190.525,281.606,190.465,281.483,190.4,281.361Z" transform="translate(-155.04 -275.584)" fill="#e7caaf"/>
            <path id="Trazado_1009476" data-name="Trazado 1009476" d="M162.376,299.959c-.706.533-1.418,1.057-2.145,1.562a4.343,4.343,0,0,0-2.172,4.333c.4,2.087,3.443,2.02,4.915,2.112a19.573,19.573,0,0,0,6.168-.611c2.546-.667,6.79-1.91,8.966-3.529,2.217-1.649,2.931-3.376,5.254-4.839,2.011-1.269,3.291-2.721,5.391-3.777,1.7-.857,3.651-1.716,4.716-3.5a8.036,8.036,0,0,0,1.442-3.058,13.869,13.869,0,0,0-.044-3.078c-.041-.426-.728-5.575-1.093-5.513a22.671,22.671,0,0,0-2.262,1.96c-1.257,1.254-2.308,2.712-3.482,4.057a31.417,31.417,0,0,1-7.917,6.385,20.849,20.849,0,0,1-6.1,2.719,3.21,3.21,0,0,1-2.658-.377c-.636-.5.7-1.319.77-2.138-1.464,1.249-3.117,2.28-4.656,3.406C165.74,297.338,164.076,298.675,162.376,299.959Z" transform="translate(-157.992 -273.225)" fill="#5e628c"/>
          </g>
          <path id="Trazado_1009477" data-name="Trazado 1009477" d="M162.686,240.256c2.97,1.377,5.912,3.145,9.091,3.845,6.644,1.463,12.6-3.419,19.038-4.167a20.3,20.3,0,0,1,5.247.257c1.74.255,3.462.635,5.18,1.034a47.786,47.786,0,0,0,10.593,1.731,17.072,17.072,0,0,0,5.336-.8,32.173,32.173,0,0,0,5.027-2.228c3.013-1.594,5.968-3.371,9.248-4.19a22.644,22.644,0,0,1,6.073-.524q-.609-2.833-1.213-5.665-3.1-14.642-6.166-29.3-3-14.319-5.93-28.653c-1.789-8.851-3.684-17.684-6.054-26.367a182.3,182.3,0,0,0-5.793-17.824c-.64-.168-1.288-.305-1.94-.409a37.7,37.7,0,0,0-9.03-.125c-2.831.229-5.655.541-8.493.675-2.9.137-5.8.2-8.69.389a59.145,59.145,0,0,0-8.734,1.1,31.512,31.512,0,0,0-4.1,1.165,17.58,17.58,0,0,0-3.389,1.559c-1.256,6.625-2.026,13.363-2.838,20.067-.5,4.145-1.018,8.289-1.676,12.409-.707,4.432-1.353,8.871-1.878,13.335-1.048,8.9-1.76,17.833-2.554,26.759-.791,8.9-1.979,17.756-2.827,26.651q-.343,3.584-.6,7.179A20.911,20.911,0,0,1,162.686,240.256Z" transform="translate(-110.496 36.942)" fill="#63aec3"/>
          <path id="Trazado_1009478" data-name="Trazado 1009478" d="M176.732,79.608s-18.226,26.979-17.492,45.01-.3,61.115-.3,61.115,28.612,8.4,64.283-3.341c0,0-5.352-91.943-7.778-99.544-.5-1.577-11.665-6.246-14.154-6.71C191.781,74.368,176.732,79.608,176.732,79.608Z" transform="translate(-109.272 10.128)" fill="#335e85"/>
          <g id="Grupo_1198182" data-name="Grupo 1198182" transform="translate(71.431 59.095)">
            <g id="Grupo_1198181" data-name="Grupo 1198181">
              <path id="Trazado_1009479" data-name="Trazado 1009479" d="M177.658,89.644c-1.418,2.854-4.934,6.724-1.012,9.405,2.663,1.823,6.9.4,9.671-.624a25.58,25.58,0,0,0,9.23-5.944,7.5,7.5,0,0,0,1.874-2.643c.923-2.528-1.369-4.165-1.473-6.564-.313-7.155-.844-14.662-.145-21.867a8.714,8.714,0,0,1,.42-2.345,1.205,1.205,0,0,0-.5-.545,3.927,3.927,0,0,0-2.684-.128c-.983.22-1.931.6-2.9.887a33.179,33.179,0,0,0-6.734,2.809,36.832,36.832,0,0,0-5.713,4.365,15.96,15.96,0,0,0-1.827,1.586,1.558,1.558,0,0,0-.462.875c-.018.461.436.756.642,1.093,1.372,2.257,1.84,5.669,2.178,8.4a31.048,31.048,0,0,1,.119,9.205A7.39,7.39,0,0,1,177.658,89.644Z" transform="translate(-174.85 -58.216)" fill="#e7caaf"/>
            </g>
          </g>
          <path id="Trazado_1009480" data-name="Trazado 1009480" d="M205.414,77.907c.059-.166.122-.333.175-.5a9.55,9.55,0,0,0,.5-3.295,25.246,25.246,0,0,0-.629-3.987c-1.078-5.385-.419-10.946-.84-16.4a41.078,41.078,0,0,0-3.083-12.512,27.014,27.014,0,0,0-6.3-9.506,16.745,16.745,0,0,0-4.514-3.016A17.592,17.592,0,0,0,185.5,27.37a35.225,35.225,0,0,0-10.858.453,28.4,28.4,0,0,0-10.428,4.2,19.6,19.6,0,0,0-7.468,9.028,16.246,16.246,0,0,0-.971,6.556,29.3,29.3,0,0,0,1.216,6.559c.8,2.809,1.833,5.547,2.667,8.35.014.031.031.061.046.092a32.344,32.344,0,0,1,2.715,8.761c.927,5.579,1.061,12.041,4.616,16.511a20.925,20.925,0,0,0,6.481,5.252,20.086,20.086,0,0,0,8.308,2.576c5.854.308,11.078-3.183,15.469-7.17a36.89,36.89,0,0,0,6.013-6.894A27.815,27.815,0,0,0,205.414,77.907Z" transform="translate(-110.445 -15.491)" fill="#f1dfcb"/>
          <g id="Grupo_1198185" data-name="Grupo 1198185" transform="translate(51.926 42.598)">
            <g id="Grupo_1198183" data-name="Grupo 1198183" transform="translate(2.256 9.859)">
              <path id="Trazado_1009481" data-name="Trazado 1009481" d="M165.59,56.766c.451,1.846.112,3.558-.758,3.822s-1.94-1.015-2.392-2.861-.112-3.559.756-3.823S165.137,54.92,165.59,56.766Z" transform="translate(-162.24 -53.868)" fill="#44281a"/>
              <path id="Trazado_1009482" data-name="Trazado 1009482" d="M164.292,55.2c.088.36.022.7-.149.748s-.38-.2-.468-.56-.022-.7.148-.75S164.2,54.835,164.292,55.2Z" transform="translate(-161.726 -53.468)" fill="#fff"/>
            </g>
            <g id="Grupo_1198184" data-name="Grupo 1198184" transform="translate(21.648 3.945)">
              <path id="Trazado_1009483" data-name="Trazado 1009483" d="M179.767,52.893c.451,1.846.114,3.558-.756,3.823s-1.941-1.017-2.392-2.863-.113-3.558.756-3.823S179.315,51.047,179.767,52.893Z" transform="translate(-176.417 -49.995)" fill="#44281a"/>
              <path id="Trazado_1009484" data-name="Trazado 1009484" d="M178.469,51.324c.089.362.022.7-.148.748s-.38-.2-.469-.56-.022-.7.148-.748S178.381,50.962,178.469,51.324Z" transform="translate(-175.904 -49.594)" fill="#fff"/>
            </g>
            <path id="Trazado_1009485" data-name="Trazado 1009485" d="M172.027,71.045a5.409,5.409,0,0,0,4.422,1.385,4.915,4.915,0,0,0,3.5-2.577,9.973,9.973,0,0,0,.678-6.506c-1.808.745-3.621,1.481-5.458,2.136-1.553.553-3.1,1.115-4.656,1.669-.383.136-.769.257-1.154.379A11.362,11.362,0,0,0,172.027,71.045Z" transform="translate(-157.366 -39.016)" fill="#fff"/>
            <path id="Trazado_1009486" data-name="Trazado 1009486" d="M169.227,57.036a9.943,9.943,0,0,1-1.778,4.8c-1.554,1.918,2.221,2.84,4.2,3.052,0,0-4.2-.9-3.7-2.241S169.552,59.455,169.227,57.036Z" transform="translate(-158.203 -42.341)" fill="#f5cbaa" style="mix-blend-mode: multiply;isolation: isolate"/>
            <path id="Trazado_1009487" data-name="Trazado 1009487" d="M160.725,54.993s1.334-3.767,5.17-1.283c0,0-.821-3-3.294-2.255A2.727,2.727,0,0,0,160.725,54.993Z" transform="translate(-160.591 -45.344)" fill="#845844"/>
            <path id="Trazado_1009488" data-name="Trazado 1009488" d="M175.091,51.069s1.335-3.767,5.172-1.283c0,0-.821-3-3.3-2.255A2.729,2.729,0,0,0,175.091,51.069Z" transform="translate(-155.306 -47.411)" fill="#845844"/>
          </g>
          <g id="Grupo_1198188" data-name="Grupo 1198188" transform="translate(93.137 89.557)">
            <g id="Grupo_1198187" data-name="Grupo 1198187">
              <g id="Grupo_1198186" data-name="Grupo 1198186">
                <path id="Trazado_1009489" data-name="Trazado 1009489" d="M218.943,144.673a49.992,49.992,0,0,0-.948-8.022c-1.2-6.715-2.09-13.477-3.355-20.183-1.91-10.131-3.327-22.348-8.486-31.424a18.623,18.623,0,0,0-5.337-6.158c-.264-.14-.532-.272-.8-.386a3.52,3.52,0,0,0-3.128.067,8.392,8.392,0,0,0-1.643,1.2,9.051,9.051,0,0,0-1.588,1.876,16.227,16.227,0,0,0-1.964,4.8,31.88,31.88,0,0,0-.9,9.943,58.613,58.613,0,0,0,1.345,8.679,118.74,118.74,0,0,1,5.456,15.505c.89,3.663,1.868,7.306,2.711,10.981.788,3.445,1.476,6.914,2,10.41a29.427,29.427,0,0,0,2.13,8.579,7.9,7.9,0,0,0,2.669,3.2,6.79,6.79,0,0,0,3.967,1.057,7.714,7.714,0,0,0,6.332-3.212A12.362,12.362,0,0,0,218.943,144.673Z" transform="translate(-190.719 -78.167)" fill="#e7caaf"/>
              </g>
            </g>
          </g>
          <path id="Trazado_1009490" data-name="Trazado 1009490" d="M229.364,58.8a34.559,34.559,0,0,1-6.209-8.821c-1.752-3.613-2.6-7.595-3.991-11.372a28.536,28.536,0,0,0-6.084-10.328,15.766,15.766,0,0,0-8.1-4.542,13.8,13.8,0,0,0-3.27-.234c-3.934-4.161-10.625-4.156-15.67-3.892-8.791.463-18.8,3.338-24.607,11.244a19.661,19.661,0,0,0-3.532,8c-.059.05-.122.1-.179.15a17.031,17.031,0,0,0-3.733,4.848,18.581,18.581,0,0,0-2.016,12.471,17.085,17.085,0,0,0,1.362,3.918,14.545,14.545,0,0,0,1.752,2.832c.129-.086.257-.165.386-.249-.434-.776-.893-1.533-1.275-2.347a18.949,18.949,0,0,1-1.242-3.409,16.965,16.965,0,0,1-.39-6.546c.019-.131.047-.261.068-.392a12.542,12.542,0,0,0,0,1.712,20.6,20.6,0,0,0,.616,3.408,28.98,28.98,0,0,0,1.1,3.588,13.8,13.8,0,0,0,1.591,3.147c.081.111.181.243.287.37a32.118,32.118,0,0,1,8.066-3.522,50.047,50.047,0,0,1,11.279-1.6c1.992-.09,3.985-.116,5.977-.131a27.713,27.713,0,0,0,5.864-.344,23.062,23.062,0,0,0,3.39-.557c.889-.217,1.788-.473,2.67-.782.334-.087.669-.176,1.007-.252a.5.5,0,0,0,.268-.241c.068-.029.141-.055.209-.087a7.889,7.889,0,0,1,1.2,1.076l.018.021a23.614,23.614,0,0,1,2.718,4.66,27.23,27.23,0,0,1,2.189,7.347,25.528,25.528,0,0,1-.182,7.9c-.423,2.55-1.031,5.055-1.533,7.587a34.274,34.274,0,0,0-.855,7.489,13.457,13.457,0,0,0,1.9,6.823,11.32,11.32,0,0,0,1.382,1.718c.256-.1.514-.191.774-.273-.205-.2-.421-.383-.614-.6A11.913,11.913,0,0,1,199.2,91.9a27.153,27.153,0,0,1,.614-7.767c.484-2.594,1.115-5.152,1.578-7.752a27.585,27.585,0,0,0,.424-7.715,27.125,27.125,0,0,0-1.9-7.459,24.673,24.673,0,0,1,3.6,16.891c-.5,2.994-1.645,5.79-2.026,8.822a13.5,13.5,0,0,0,.81,7.086,12.6,12.6,0,0,0,3.636,4.469c1.007-.122,2.023-.188,3.038-.215,1.553-.041,3.117-.006,4.681-.024-.694-1.866-.49-6.955-.283-6.184a19.094,19.094,0,0,0,2.7,6.088,20.668,20.668,0,0,0,3.243-.461,33.443,33.443,0,0,0,9.921-4.787c.016-.011-.382-.8-.365-.814-.68-1.846-1.209-5.434-.923-5.483.241-.04,1.371,3.687,2.186,5.092a48.382,48.382,0,0,1,6.024-3.784q.174-1.429.406-2.828c.606-3.669,1.453-7.332,1.377-11.062C237.816,67.371,233.4,63,229.364,58.8Z" transform="translate(-111.963 -19.512)" fill="#7f5340"/>
          <g id="Grupo_1198192" data-name="Grupo 1198192" transform="translate(0 113.913)">
            <path id="Trazado_1009491" data-name="Trazado 1009491" d="M182.443,141.052a9.527,9.527,0,0,0-3.883-.652c-1.446-.061-2.893-.008-4.34-.063-2.83-.11-5.631-.62-8.441-.979a65.634,65.634,0,0,0-8.628-.293,11.583,11.583,0,0,0-4.3.563c-.5.2-6.295-.289-6.373.368-.042.354.765.878.962,1.038.777.637,1.6,1.206,2.421,1.763a45.158,45.158,0,0,0,6.764,4.038,19.357,19.357,0,0,0,7.668,1.455c1.423.041,2.841,0,4.264-.061a12.407,12.407,0,0,0,3.8-.54c1.343-.489,2.651-1.167,3.952-1.779s2.614-1.244,3.915-1.881C180.837,143.727,184.331,142.039,182.443,141.052Z" transform="translate(-113.856 -70.445)" fill="#f1dfcb"/>
            <g id="Grupo_1198189" data-name="Grupo 1198189" transform="translate(40.529 69.413)">
              <path id="Trazado_1009492" data-name="Trazado 1009492" d="M174.051,141c-.52-1.034-2.045-1.212-3.009-.912-.97-.69-2.5-.516-3.565-.4a28.909,28.909,0,0,0-4.465.89,17.218,17.218,0,0,1-5.332.883,37.733,37.733,0,0,0-5.039-.366c-.041,0-.086.087-.027.087a25.3,25.3,0,0,1,3.907.542,11.826,11.826,0,0,0,3.79-.07c1.343-.24,2.654-.7,3.983-1.025a21.2,21.2,0,0,1,3.965-.614c.539-.024,3.607.09,2.692,1.376-.361.507-1.127.618-1.651.777-.677.206-1.358.394-2.026.637-2.565.931-5.072,2.015-7.684,2.786a11.383,11.383,0,0,1-3.588.513,6.376,6.376,0,0,1-3.545-.971c-.094-.067-.271.108-.167.194,1.814,1.51,4.3,1.451,6.419.953a74.915,74.915,0,0,0,8.568-3.09c.725-.266,1.468-.463,2.2-.69a4.006,4.006,0,0,0,1.521-.676,1.111,1.111,0,0,0,.313-1.481c1.261-.2,3.254.611,2.254,2.244a5.952,5.952,0,0,1-1.518,1.513,15.636,15.636,0,0,1-2.376,1.512,17.851,17.851,0,0,1-4.916,1.739h0v0c-.122.021-.241.056-.364.075-1.829.289-3.679-.023-5.5.286-.016,0-.031.04-.007.04,1.729-.035,3.446.218,5.173.015.3-.035.587-.093.88-.148.286.058.566.13.852.2a3.366,3.366,0,0,0,1.005.049c.718-.041,1.442-.053,2.157-.133a5.306,5.306,0,0,0,3.139-1.147c.073-.072,0-.171-.081-.128a9.093,9.093,0,0,1-1.615.7,8,8,0,0,1-1.692.3c-.7.047-1.394.082-2.09.111a3.357,3.357,0,0,1-.874-.122,18.154,18.154,0,0,0,3.283-1.171,15.39,15.39,0,0,0,3.909-2.522C173.61,143.138,174.588,142.065,174.051,141Z" transform="translate(-152.259 -139.581)" fill="#e7caaf"/>
            </g>
            <g id="Grupo_1198191" data-name="Grupo 1198191">
              <g id="Grupo_1198190" data-name="Grupo 1198190">
                <rect id="Rectángulo_461384" data-name="Rectángulo 461384" width="51.748" height="3.298" transform="translate(41.389 66.549)" fill="#646669"/>
                <rect id="Rectángulo_461385" data-name="Rectángulo 461385" width="16.181" height="0.824" transform="translate(55.792 68.197)" fill="#aeb0b3"/>
                <path id="Trazado_1009493" data-name="Trazado 1009493" d="M174.945,163.966H139.984L123.491,94.119h34.961Z" transform="translate(-122.311 -94.119)" fill="#646669"/>
                <path id="Trazado_1009494" data-name="Trazado 1009494" d="M174.082,163.966H139.122L122.628,94.119h34.961Z" transform="translate(-122.628 -94.119)" fill="#aeb0b3"/>
              </g>
            </g>
          </g>
          <path id="Trazado_1009495" data-name="Trazado 1009495" d="M202.5,103.522a11.045,11.045,0,0,0,1.146-3.161,9.421,9.421,0,0,0-.037-3.289c-.257-1.46-.662-2.9-1-4.338-.345-1.475-.7-2.947-1.074-4.411a36.472,36.472,0,0,0-1.075-3.82,3.59,3.59,0,0,0-.733-1.252c-.594-.991-1.235-1.951-1.884-2.893-.856-1.244-1.744-2.469-2.689-3.634a19.1,19.1,0,0,0-2.539-2.689,8.951,8.951,0,0,0-3.059-1.644,23.066,23.066,0,0,0-2.658-.96,1.266,1.266,0,0,0-1.067.154.965.965,0,0,0-.25.942,3.481,3.481,0,0,0,.434,1.125c1.186,1.563,2.926,2.506,4.426,3.628a9.7,9.7,0,0,1,1.338,1.3,18.6,18.6,0,0,1,1.713,2.229c.354.536.684,1.09,1,1.657-.144-.136-.289-.272-.435-.4a22.958,22.958,0,0,0-2.344-1.6,11.258,11.258,0,0,0-2.365-1.344l-.023-.008a8.139,8.139,0,0,0-1.676-.8,14.419,14.419,0,0,0-3.357-.632c-.43-.035-.858-.093-1.286-.148-.621-.186-1.243-.362-1.871-.487a3.587,3.587,0,0,0-2.034.05c-.745.311-.635,1.131-.286,1.77a3.282,3.282,0,0,0,2.639,1.5,18.658,18.658,0,0,1,3.853,1.032,9.348,9.348,0,0,1,3.4,2.272c.036.037.068.076.1.113-.077-.052-.15-.108-.23-.156a3.994,3.994,0,0,0-1.86-.406c-1.635-.079-3.254-.363-4.88-.56-.832-.1-1.652-.223-2.481-.35-.543-.084-3.6-.647-2.986.863a2.984,2.984,0,0,0,.867,1.06,4.914,4.914,0,0,0,1.524.86,14.84,14.84,0,0,0,3.7.7,13.77,13.77,0,0,1,2.015.255,5.562,5.562,0,0,1,2.264,1.3,18.179,18.179,0,0,1,2.779,3.234c-.384-.327-.767-.657-1.16-.971-1.71-1.374-3.5-1.567-5.514-1.883-.96-.151-1.864-.608-2.827-.719-.576-.066-1.361.044-1.52.8a1.4,1.4,0,0,0,.691,1.3,14.087,14.087,0,0,0,4.165,1.67,20.169,20.169,0,0,1,4.488,2.594c1.647,1.112,2.082,2.713,2.846,4.57.373.907.782,1.8,1.216,2.67a34.951,34.951,0,0,0,3.012,5.074,4.236,4.236,0,0,0,1.614,1.435,2.6,2.6,0,0,0,1.524.173C199.974,107.165,201.584,105.263,202.5,103.522Z" transform="translate(-102.89 7.816)" fill="#f1dfcb"/>
          <path id="Trazado_1009496" data-name="Trazado 1009496" d="M190.012,92.147s7.768,44.71,13.3,54.015,10.6,5.839,13.094.524,1.592-12.919-2.52-19.718-16.432-37.485-16.432-37.485Z" transform="translate(-97.842 17.352)" fill="#f1dfcb"/>
        </g>
      </g>
    </g>
  </g>
</svg>
