<svg xmlns="http://www.w3.org/2000/svg" xmlns:xlink="http://www.w3.org/1999/xlink" width="396" height="318" viewBox="0 0 396 318">
  <defs>
    <clipPath id="clip-path">
      <rect id="Rectángulo_455537" data-name="Rectángulo 455537" width="321.148" height="298.705" fill="none"/>
    </clipPath>
    <clipPath id="clip-path-3">
      <rect id="Rectángulo_455518" data-name="Rectángulo 455518" width="24.375" height="14.892" fill="none"/>
    </clipPath>
    <clipPath id="clip-path-4">
      <rect id="Rectángulo_455525" data-name="Rectángulo 455525" width="40.544" height="29.972" fill="none"/>
    </clipPath>
    <clipPath id="clip-path-5">
      <rect id="Rectángulo_455526" data-name="Rectángulo 455526" width="10.425" height="5.511" fill="none"/>
    </clipPath>
    <clipPath id="clip-path-6">
      <rect id="Rectángulo_455527" data-name="Rectángulo 455527" width="4.057" height="4.885" fill="none"/>
    </clipPath>
    <clipPath id="clip-path-7">
      <rect id="Rectángulo_455528" data-name="Rectángulo 455528" width="31.818" height="46.222" fill="none"/>
    </clipPath>
    <clipPath id="clip-path-8">
      <rect id="Rectángulo_455529" data-name="Rectángulo 455529" width="40.135" height="22.575" fill="none"/>
    </clipPath>
    <clipPath id="clip-path-9">
      <rect id="Rectángulo_455530" data-name="Rectángulo 455530" width="20.655" height="28.332" fill="none"/>
    </clipPath>
    <clipPath id="clip-path-10">
      <rect id="Rectángulo_455531" data-name="Rectángulo 455531" width="88.218" height="37.249" fill="none"/>
    </clipPath>
    <clipPath id="clip-path-11">
      <rect id="Rectángulo_455534" data-name="Rectángulo 455534" width="43.895" height="14.623" fill="none"/>
    </clipPath>
    <clipPath id="clip-path-12">
      <rect id="Rectángulo_455535" data-name="Rectángulo 455535" width="22.458" height="9.989" fill="none"/>
    </clipPath>
  </defs>
  <g id="Grupo_1198593" data-name="Grupo 1198593" transform="translate(-186 -1088.068)">
    <g id="Grupo_1198592" data-name="Grupo 1198592">
      <g id="Grupo_1198581" data-name="Grupo 1198581">
        <rect id="Rectángulo_461267" data-name="Rectángulo 461267" width="396" height="318" rx="20" transform="translate(186 1088.068)" fill="#b5f9fc"/>
        <g id="Grupo_1197985" data-name="Grupo 1197985" transform="translate(218.627 1099.009)">
          <g id="Grupo_1179166" data-name="Grupo 1179166" clip-path="url(#clip-path)">
            <g id="Grupo_1179165" data-name="Grupo 1179165">
              <g id="Grupo_1179164" data-name="Grupo 1179164" clip-path="url(#clip-path)">
                <path id="Trazado_997165" data-name="Trazado 997165" d="M279.77,194.538c19.538-21.277,38.073-45.308,40.094-72.491S301,64.858,270.032,63.263c-23.212-1.2-43.5,12.865-65.462,19.734-25.022,7.827-53.688,5.983-76.992-4.952-24.99-11.726-47.71-34.022-75.727-29.65C37.3,50.665,25.225,60.269,17.969,71.589S7.62,95.862,5.245,108.657c-6.155,33.163-8.093,67.43.846,100.008s29.682,63.475,61.64,81.727c33.08,18.893,78.288,24.15,107.991-1.167,35.835-30.544,72.608-60.447,104.049-94.687" transform="translate(0 -32.249)" fill="#cdeceb"/>
                <path id="Trazado_997166" data-name="Trazado 997166" d="M309.416,212.284s-3.429-13.69-10.758-14.126-.312,7.744-.312,7.744-10.644-3.683-12.815-.812,3.551,5.027,3.551,5.027-4.016,2.125-3.812,3.626S293.143,215,293.143,215s-8.723,2.655-6.41,10.249S303.756,223,303.756,223Z" transform="translate(-192.166 -133.582)" fill="#42130b"/>
                <g id="Grupo_1179136" data-name="Grupo 1179136" transform="translate(92.875 64.56)" opacity="0.45" style="mix-blend-mode: overlay;isolation: isolate">
                  <g id="Grupo_1179135" data-name="Grupo 1179135">
                    <g id="Grupo_1179134" data-name="Grupo 1179134" clip-path="url(#clip-path-3)">
                      <path id="Trazado_997167" data-name="Trazado 997167" d="M309.42,212.284s-3.429-13.69-10.758-14.126-.311,7.744-.311,7.744-10.644-3.683-12.815-.812a1.99,1.99,0,0,0-.105,2.483c5.122-1.51,15.1.257,15.1.257s-2.888-7.1.7-5.144c2.92,1.595,6.544,8.013,7.791,10.347Z" transform="translate(-285.046 -198.142)" fill="#fff6e7"/>
                    </g>
                  </g>
                </g>
                <path id="Trazado_997168" data-name="Trazado 997168" d="M346.052,245.337a7.931,7.931,0,1,1-8.178-7.677,7.931,7.931,0,0,1,8.178,7.677" transform="translate(-222.608 -160.222)" fill="#e9833a"/>
                <path id="Trazado_997169" data-name="Trazado 997169" d="M380.289,236.9s12.875-.856,18.93,6.427-5.77,1.323-5.77,1.323,5.289,12.439,1.554,18.723-5.789-5.637-5.789-5.637-4.546,10.8-10.957,13.044-28.115,11.355-28.115,11.355-13.561-21.428-9.094-38.9,30.316-16.875,39.241-6.34" transform="translate(-229.317 -154.697)" fill="#42130b"/>
                <path id="Trazado_997170" data-name="Trazado 997170" d="M361.024,877.757c0,4.192-42.4,7.59-94.7,7.59s-94.7-3.4-94.7-7.59,42.4-7.59,94.7-7.59,94.7,3.4,94.7,7.59" transform="translate(-115.699 -586.643)" fill="#ebece5"/>
                <path id="Trazado_997171" data-name="Trazado 997171" d="M573.114,707.53s11.927-1.167,15.425-.9,10.44,7.691,10.5,10.436-6.81-2.881-9.736-3.022c-12.85-.141-10.213,3.423-19.45.657-2.5-4.922,3.259-7.173,3.259-7.173" transform="translate(-383.756 -476.365)" fill="#bc6c64"/>
                <path id="Trazado_997172" data-name="Trazado 997172" d="M597.484,717.355c2.662-.267,5.306-.694,7.921-.759a5.011,5.011,0,0,1,1.848.238,6.152,6.152,0,0,1,1.665.9c.485.368.97.9.85,1.441-.118.572-.826.892-1.412,1.152a3.962,3.962,0,0,0,.971-.3,1.438,1.438,0,0,0,.766-.756,1.409,1.409,0,0,0-.149-1.115,3.631,3.631,0,0,0-.681-.829,5.761,5.761,0,0,0-1.777-1.106,5.52,5.52,0,0,0-2.088-.317,24.1,24.1,0,0,0-4.017.471,33.075,33.075,0,0,0-3.9.98" transform="translate(-402.808 -482.643)" fill="#75240e"/>
                <path id="Trazado_997173" data-name="Trazado 997173" d="M634.344,708.657s9.407,4.094,11.158,6.782.4,3.5-3.772,1.879-7.386-8.661-7.386-8.661" transform="translate(-427.658 -477.757)" fill="#a35652"/>
                <path id="Trazado_997174" data-name="Trazado 997174" d="M450.175,460.35s7.88,5.455,11.314,18.588,8.856,46.6,8.856,46.6l39.85,19.514-21.282,3.643-24.506-5.9A16.121,16.121,0,0,1,452.1,529.6q-.059-.412-.1-.828l-2.833-30.641Z" transform="translate(-302.815 -310.356)" fill="#c48458"/>
                <path id="Trazado_997175" data-name="Trazado 997175" d="M458.521,668.684c-.271,0-.536.022-.8.04l.047.5q.038.416.1.828a16.083,16.083,0,0,0,11.733,13.033,11.43,11.43,0,0,0-11.074-14.4" transform="translate(-308.581 -450.809)" fill="#ac6f45"/>
                <path id="Trazado_997176" data-name="Trazado 997176" d="M269.346,716.985s-8.9,12.679-8.7,28.059,17.376,26.7,17.376,26.7l13.537-20-5.925-38.388Z" transform="translate(-175.721 -480.921)" fill="#90440f"/>
                <path id="Trazado_997177" data-name="Trazado 997177" d="M276.456,850.242s-11.518,2.271-12.124,9.948,11.336,13.38,31.115,9.294c16.567-.4,22.553-6.061,22.553-6.061Z" transform="translate(-178.19 -573.21)" fill="#59bdbe"/>
                <path id="Trazado_997178" data-name="Trazado 997178" d="M323.907,861.551s.2,9.037,9.092,11.287,4.243-1.42.606-5.343-9.7-5.944-9.7-5.944" transform="translate(-218.369 -580.835)" fill="#fff"/>
                <path id="Trazado_997179" data-name="Trazado 997179" d="M395.7,728.273l2.119,5.253s37.69-8.89,52.44-6.465S472.076,741,463.591,752.72s-70.941,25.054-80.122,25.458-20.5-25.053-20.5-25.053l7.071-27.229Z" transform="translate(-244.707 -489.38)" fill="#90440f"/>
                <path id="Trazado_997180" data-name="Trazado 997180" d="M624.652,760.371a13.535,13.535,0,0,0,7.574,12.154c3.681-1.9,6.424-3.814,7.781-5.688,5.447-7.522,4.476-14.957-.813-19.961-.332-.024-.667-.041-1.005-.041a13.537,13.537,0,0,0-13.537,13.537" transform="translate(-421.124 -503.495)" fill="#77370c"/>
                <path id="Trazado_997181" data-name="Trazado 997181" d="M465.374,497.007c-1.386-7.15-2.781-13.849-3.884-18.067-3.435-13.133-11.315-18.588-11.315-18.588l-1.01,37.782.456,2.485c5.047-3.044,11.409-3.635,15.753-3.612" transform="translate(-302.816 -310.356)" fill="#2c304c"/>
                <path id="Trazado_997182" data-name="Trazado 997182" d="M465.374,558.93c-.448-2.313-.9-4.578-1.338-6.728a87.069,87.069,0,0,0-14.731,2.626l-.14,5.229.456,2.485c5.047-3.044,11.409-3.635,15.753-3.611" transform="translate(-302.816 -372.28)" fill="#e8eade"/>
                <path id="Trazado_997183" data-name="Trazado 997183" d="M324.929,431.168l16.972,9.508s.9,6.663,3.753,19.235c1.061,4.672,2.838,14.611,2.523,19.577-.526,8.283-7.505,12.357-7.18,20.65l.82,29.437H288.561V439.868l24.245-8.486Z" transform="translate(-194.54 -290.682)" fill="#2c304c"/>
                <path id="Trazado_997184" data-name="Trazado 997184" d="M299.359,604.055c.264-11.018,0-49.193,0-49.578l-1.178.009c0,.384.264,38.541,0,49.54Z" transform="translate(-201.026 -373.813)" fill="#59bdbe"/>
                <path id="Trazado_997185" data-name="Trazado 997185" d="M343.181,431.382l-9.566,3.348c3.379,5.567,14.085,21.122,27.173,19.144,9.891-1.5,7.981-10.311,6.8-15.824L355.3,431.168Z" transform="translate(-224.914 -290.682)" fill="#e8eade"/>
                <path id="Trazado_997186" data-name="Trazado 997186" d="M467.487,749.494c1.3-.334,2.574-.747,3.863-1.118l3.814-1.246c2.542-.833,5.048-1.762,7.553-2.692,2.494-.959,4.988-1.92,7.445-2.977l3.684-1.589c1.211-.575,2.439-1.107,3.636-1.719-1.3.333-2.575.746-3.863,1.116l-3.814,1.246c-2.542.833-5.047,1.762-7.552,2.694-2.494.961-4.987,1.921-7.444,2.979l-3.685,1.588c-1.211.574-2.438,1.106-3.636,1.717" transform="translate(-315.167 -497.643)" fill="#721d16"/>
                <path id="Trazado_997187" data-name="Trazado 997187" d="M369.742,448.152c4.534-.71,3.591-8.39,2.628-12.9l-7.285-4.081-12.123.214-4.838,1.693c3.167,4.7,12.075,16.372,21.617,15.077" transform="translate(-234.697 -290.682)" fill="#c48458"/>
                <path id="Trazado_997188" data-name="Trazado 997188" d="M200.608,458.517s-4.672.888-15.52,17.353-27.8,46.063-27.066,53,7.044,12.757,17.721,15.837,40.748,13.647,44.7,12.894,9.733-3.5,11.394-2.6,5.3,6.364,5.3,6.364,2.42,1.96,3.372-1.341c2.606,1.172,5.962,1.93,5.387-1.18s-4.731-13.342-7.7-15.47S219.7,545.4,219.7,545.4s-8.071-1.908-12.282-4.8-23.329-15.351-23.329-15.351l24.618-43.787s7.422-15.523-8.1-22.944" transform="translate(-106.519 -309.12)" fill="#c48458"/>
                <path id="Trazado_997189" data-name="Trazado 997189" d="M232.215,503.575l12.433-22.114s7.422-15.523-8.1-22.944c0,0-4.672.888-15.52,17.353-2.948,4.475-6.347,9.921-9.72,15.618,6.341,1.391,17.1,4.763,20.908,12.087" transform="translate(-142.458 -309.12)" fill="#2c304c"/>
                <path id="Trazado_997190" data-name="Trazado 997190" d="M232.215,555.414l4.775-8.494c-5.839-6.761-15.219-10.059-20.881-11.511-1.572,2.531-3.19,5.193-4.8,7.917,6.341,1.391,17.1,4.763,20.908,12.088" transform="translate(-142.458 -360.959)" fill="#e8eade"/>
                <path id="Trazado_997191" data-name="Trazado 997191" d="M168.884,675.092a13.33,13.33,0,0,0-9.564-19.25c-.95,2.66-1.435,4.76-1.3,6.062.557,5.287,4.363,9.919,10.862,13.188" transform="translate(-106.519 -442.151)" fill="#ac6f45"/>
                <path id="Trazado_997192" data-name="Trazado 997192" d="M404.772,754.28a12.747,12.747,0,0,0-.994-4.046,12.6,12.6,0,0,0-2.126-3.583,12.615,12.615,0,0,0,.994,4.046,12.743,12.743,0,0,0,2.126,3.583" transform="translate(-270.784 -503.372)" fill="#845034"/>
                <path id="Trazado_997193" data-name="Trazado 997193" d="M223,653.752a13.038,13.038,0,0,0-3.291-2.867,12.879,12.879,0,0,0-4-1.758,12.886,12.886,0,0,0,3.292,2.867,13.028,13.028,0,0,0,4,1.758" transform="translate(-145.429 -437.624)" fill="#834b24"/>
                <path id="Trazado_997194" data-name="Trazado 997194" d="M396.362,726.166a18.961,18.961,0,0,0,1.324,1.782c.46.577.959,1.116,1.458,1.656s1.023,1.055,1.574,1.545a18.8,18.8,0,0,0,1.71,1.417,18.837,18.837,0,0,0-1.323-1.783c-.46-.576-.959-1.116-1.459-1.654s-1.024-1.055-1.576-1.544a18.92,18.92,0,0,0-1.709-1.418" transform="translate(-267.217 -489.562)" fill="#75240e"/>
                <path id="Trazado_997195" data-name="Trazado 997195" d="M288.771,458.517c4.043,2.049,7.437,5.491,8.674,9.746a12.277,12.277,0,0,1,.375,1.6c.051.269.12.536.157.807l.049.824a15.273,15.273,0,0,1,.072,1.647l-.126,1.652a9.616,9.616,0,0,1-.259,1.639l-.327,1.634-1.027,3.19.02-.043c-1.142,2.334-2.288,4.667-3.476,6.981-1.212,2.3-2.4,4.617-3.689,6.886a72.543,72.543,0,0,0,4.327-6.531c1.342-2.241,2.627-4.519,3.822-6.842l.013-.026.007-.018c.386-1.094.769-2.193,1.119-3.3l.363-1.715a8.915,8.915,0,0,0,.268-1.732,16.434,16.434,0,0,0-.7-6.976,14.443,14.443,0,0,0-3.8-5.848c-.425-.4-.871-.77-1.318-1.136-.483-.322-.938-.679-1.44-.966a14.5,14.5,0,0,0-3.1-1.474" transform="translate(-194.682 -309.12)" fill="#59bdbe"/>
                <path id="Trazado_997196" data-name="Trazado 997196" d="M618.952,560.793l-2.378-1.541H550.138L521.45,615.411h60.586Z" transform="translate(-351.547 -377.033)" fill="#3f908e"/>
                <rect id="Rectángulo_455519" data-name="Rectángulo 455519" width="102.197" height="6.154" transform="translate(137.602 238.378)" fill="#3f908e"/>
                <path id="Trazado_997197" data-name="Trazado 997197" d="M556.586,563.981h67.443L596.423,618.6H528.98Z" transform="translate(-356.624 -380.221)" fill="#59bdbe"/>
                <rect id="Rectángulo_455520" data-name="Rectángulo 455520" width="69.897" height="0.756" transform="translate(169.902 238)" fill="#2c304c"/>
                <rect id="Rectángulo_455521" data-name="Rectángulo 455521" width="47.954" height="6.154" transform="translate(121.948 238.378)" fill="#59bdbe"/>
                <rect id="Rectángulo_455522" data-name="Rectángulo 455522" width="13.872" height="2.642" transform="translate(181.51 240.257)" fill="#59bdbe"/>
                <rect id="Rectángulo_455523" data-name="Rectángulo 455523" width="7.267" height="2.642" transform="translate(159.333 240.257)" fill="#3f908e"/>
                <rect id="Rectángulo_455524" data-name="Rectángulo 455524" width="7.267" height="2.642" transform="translate(148.197 240.257)" fill="#3f908e"/>
                <path id="Trazado_997198" data-name="Trazado 997198" d="M398.649,759.792s-32.753-5.859-50.623-17.174-30.8-18.434-43.731-16.365S283.081,750.5,288.94,762.217s28.084,22.225,49.2,21.214,53.845-6.667,67.381-6.061,24.043-2.627,28.488-7.475,7.071-10.91,2.222-13.739-10.3-3.522-17.174-1.458-7.476,5.9-20.406,5.095" transform="translate(-193.505 -489.38)" fill="#fff"/>
                <path id="Trazado_997199" data-name="Trazado 997199" d="M403.146,759.883c-1.315.04-2.8.016-4.5-.091,0,0-32.754-5.859-50.623-17.174s-30.8-18.434-43.731-16.366a12.919,12.919,0,0,0-2.367.616,15.145,15.145,0,0,0-3.317,1.71C289.826,734.521,284.78,749.821,288,759.9a16.176,16.176,0,0,0,.935,2.312c5.859,11.718,28.084,22.225,49.2,21.215,18.965-.908,47.3-5.562,62.677-6.06a29.786,29.786,0,0,0,2.331-17.488" transform="translate(-193.505 -489.38)" fill="#e9833a"/>
                <path id="Trazado_997200" data-name="Trazado 997200" d="M301.552,746.834a18.178,18.178,0,0,0-9.162,2.466c-5.2,8.045-7.152,19.625-3.449,27.032a21.186,21.186,0,0,0,2.83,4.195,18.266,18.266,0,1,0,9.78-33.693" transform="translate(-193.507 -503.495)" fill="#b25718"/>
                <path id="Trazado_997201" data-name="Trazado 997201" d="M673.028,825.874c4.822-3.4,9.03-12.793,1.2-18.086-4.65-3.145-9.842-1.022-16.712,1.042-4.085,1.227-5.955,3.082-9.518,4.214h0s7.9-.332,7.5,6.134-7.881,11.039-14.75,12.288l-.011,0c1.171-.018,2.264-.01,3.245.034,13.537.606,23.67-1.835,29.045-5.628" transform="translate(-431.969 -543.512)" fill="#59bdbe"/>
                <path id="Trazado_997202" data-name="Trazado 997202" d="M686.76,823.087s4.243,4.546.606,10.845c-2.425,3.47,4.647,3.113,5.051-3.78s-7.39-10.35-5.657-7.065" transform="translate(-462.826 -554.058)" fill="#fff"/>
                <path id="Trazado_997203" data-name="Trazado 997203" d="M503.883,660.412a5.307,5.307,0,0,0-2.946.9,4.947,4.947,0,0,0-2.026,2.332,9.258,9.258,0,0,0,2.734-1.225,8.367,8.367,0,0,0,2.238-2.008" transform="translate(-336.352 -445.231)" fill="#834b24"/>
                <path id="Trazado_997204" data-name="Trazado 997204" d="M721.109,807.794c-3.068-2.075-6.376-1.852-10.242-.87-1.066,4.777-1.682,14.053,7.146,20.118a19.667,19.667,0,0,0,1.892-1.162c4.822-3.4,9.03-12.793,1.2-18.086" transform="translate(-478.846 -543.518)" fill="#2c304c"/>
                <path id="Trazado_997205" data-name="Trazado 997205" d="M274.545,851.8c-3.3,1.023-9.762,3.741-10.212,9.441-.464,5.882,6.443,10.6,18.591,10.649,1.283-10.26-4.65-16.966-8.379-20.09" transform="translate(-178.191 -574.259)" fill="#2c304c"/>
                <path id="Trazado_997206" data-name="Trazado 997206" d="M666.526,828.995s-7.608,6.7-1.095,14.373c4.255-3.311,9.824-10.912,1.095-14.373" transform="translate(-446.839 -558.886)" fill="#2c304c"/>
                <path id="Trazado_997207" data-name="Trazado 997207" d="M309.684,632.969s14.607,14.526,43.205,12.681c-9.1,2.219-34.865,3.122-43.205-12.681" transform="translate(-208.781 -426.731)" fill="#151828"/>
                <g id="Grupo_1179139" data-name="Grupo 1179139" transform="translate(188.465 185.962)" opacity="0.34">
                  <g id="Grupo_1179138" data-name="Grupo 1179138">
                    <g id="Grupo_1179137" data-name="Grupo 1179137" clip-path="url(#clip-path-4)">
                      <path id="Trazado_997208" data-name="Trazado 997208" d="M616.211,570.738H594.172a2.747,2.747,0,0,0-2.426,1.459l-12.987,24.459a2.747,2.747,0,0,0,4,3.541l35.027-24.459a2.747,2.747,0,0,0-1.573-5" transform="translate(-578.42 -570.738)" fill="#f7f7f7"/>
                    </g>
                  </g>
                </g>
                <path id="Trazado_997209" data-name="Trazado 997209" d="M363.571,362.18s-1.706,18.871-4.226,26.358c4.972,5.511,17.9,7.8,17.9,7.8a123.54,123.54,0,0,1,.873-20.738c1.444-11.116-14.543-13.425-14.543-13.425" transform="translate(-242.261 -244.172)" fill="#c48458"/>
                <path id="Trazado_997210" data-name="Trazado 997210" d="M389.457,397.7c.128-3.093.385-6.663.871-10.4a9.778,9.778,0,0,0-.133-3.4l-12.733-4.371s3.623,13.864,11.995,18.179" transform="translate(-254.475 -255.864)" fill="#4f2222"/>
                <path id="Trazado_997211" data-name="Trazado 997211" d="M404.434,284.321s7.273,4.465,4.027,22c-2.958,16.665-6.127,24.83-12.756,24.182s-20.893-5.957-23.412-20.818c-.05-9.4.109-10.295.109-10.295s3.9-4.069,5.189-6.88c15.664.4,24.847-3.655,26.843-8.193" transform="translate(-250.984 -191.682)" fill="#c48458"/>
                <g id="Grupo_1179142" data-name="Grupo 1179142" transform="translate(127.31 114.103)" opacity="0.37">
                  <g id="Grupo_1179141" data-name="Grupo 1179141">
                    <g id="Grupo_1179140" data-name="Grupo 1179140" clip-path="url(#clip-path-5)">
                      <path id="Trazado_997212" data-name="Trazado 997212" d="M401.134,353.871c-.255,1.434-2.785,2.183-5.653,1.674s-4.985-2.084-4.731-3.518,2.785-2.183,5.652-1.674,4.985,2.084,4.731,3.518" transform="translate(-390.729 -350.194)" fill="#af1018"/>
                    </g>
                  </g>
                </g>
                <g id="Grupo_1179145" data-name="Grupo 1179145" transform="translate(152.829 117.841)" opacity="0.37">
                  <g id="Grupo_1179144" data-name="Grupo 1179144">
                    <g id="Grupo_1179143" data-name="Grupo 1179143" clip-path="url(#clip-path-6)">
                      <path id="Trazado_997213" data-name="Trazado 997213" d="M469.069,363.5c-.2,1.126,1.068,2.338,3.01,3.053q.525-2.284,1.026-4.884c-2.147-.034-3.831.676-4.037,1.831" transform="translate(-469.049 -361.668)" fill="#af1018"/>
                    </g>
                  </g>
                </g>
                <path id="Trazado_997214" data-name="Trazado 997214" d="M441.024,380.924a.462.462,0,0,1,0,.887,7.627,7.627,0,0,1-1.777.287,8.825,8.825,0,0,1-3.072-.406,8.5,8.5,0,0,1-2.76-1.427,6.737,6.737,0,0,1-1.3-1.291.461.461,0,0,1,.53-.7c.541.194,1.051.393,1.571.563.865.323,1.721.6,2.579.868s1.725.526,2.622.771c.525.148,1.054.294,1.6.451" transform="translate(-291.259 -255.001)" fill="#fff6de"/>
                <path id="Trazado_997215" data-name="Trazado 997215" d="M352.591,329.211a6.214,6.214,0,1,1-4.949-7.6,6.418,6.418,0,0,1,4.949,7.6" transform="translate(-229.402 -216.762)" fill="#c48458"/>
                <path id="Trazado_997216" data-name="Trazado 997216" d="M344.488,331.006a5.888,5.888,0,0,0-3.469.446,7.023,7.023,0,0,0-.638,1.924,6.418,6.418,0,0,0,4.949,7.6,5.885,5.885,0,0,0,3.469-.446,7,7,0,0,0,.638-1.924,6.418,6.418,0,0,0-4.949-7.6" transform="translate(-229.402 -223.095)" fill="#8d562f"/>
                <path id="Trazado_997217" data-name="Trazado 997217" d="M475.164,321.935a6.061,6.061,0,0,0-4.781.178l-.364,2.051a9.061,9.061,0,0,1,5.166-1.239c0-.339-.01-.666-.021-.989" transform="translate(-316.875 -216.768)" fill="#49311f"/>
                <path id="Trazado_997218" data-name="Trazado 997218" d="M414.217,314.09l.5-2.82s-8.572-3.109-14.647.573c4.48-.659,12.195.578,14.146,2.247" transform="translate(-269.717 -209.023)" fill="#49311f"/>
                <path id="Trazado_997219" data-name="Trazado 997219" d="M417.074,336.433a4.883,4.883,0,0,1-2.941,1.417,7.575,7.575,0,0,1-3.3-.3l-.778-.279c-.247-.118-.492-.239-.733-.366a4.733,4.733,0,0,1-.7-.42c-.223-.152-.441-.312-.656-.474a11.9,11.9,0,0,1-1.154-1.116,9.432,9.432,0,0,1-.9-1.345,10.924,10.924,0,0,1,1.484.543c.485.166.933.373,1.383.555.463.153.886.38,1.338.516l.657.248.66.212a18.407,18.407,0,0,0,2.679.642,14.4,14.4,0,0,0,2.956.166" transform="translate(-273.658 -224.872)" fill="#49311f"/>
                <path id="Trazado_997220" data-name="Trazado 997220" d="M469.5,349.63c-.314.021-.628.045-.944.055-.92.039-1.856-.031-2.827-.062-.486-.026-.976-.077-1.489-.076a11.34,11.34,0,0,0-1.58-.032,9.772,9.772,0,0,0,1.287.98,11.849,11.849,0,0,0,1.453.682,8.865,8.865,0,0,0,3.208.527c.177-.006.354-.026.531-.042.084-.459.168-.923.252-1.4.04-.217.072-.423.108-.636" transform="translate(-311.911 -235.622)" fill="#49311f"/>
                <path id="Trazado_997221" data-name="Trazado 997221" d="M453.15,360.85a4.932,4.932,0,0,1,1.3,1.552,4.362,4.362,0,0,1,.395.981,2.545,2.545,0,0,1,.042,1.213,1.865,1.865,0,0,1-.124.346,1.718,1.718,0,0,1-.222.328,1.377,1.377,0,0,1-.3.254,1.179,1.179,0,0,1-.334.161,2.316,2.316,0,0,1-1.206.036,4.216,4.216,0,0,1-1.819-.95c.688-.027,1.33.025,1.9-.012a1.935,1.935,0,0,0,.691-.157.278.278,0,0,0,.091-.061c.03-.015.038-.043.056-.061a.419.419,0,0,0,.075-.179,2.077,2.077,0,0,0,.009-.7c-.031-.273-.09-.564-.153-.861-.129-.6-.29-1.217-.4-1.895" transform="translate(-303.971 -243.275)" fill="#8d562f"/>
                <g id="Grupo_1179148" data-name="Grupo 1179148" transform="translate(126.494 92.639)" opacity="0.2" style="mix-blend-mode: overlay;isolation: isolate">
                  <g id="Grupo_1179147" data-name="Grupo 1179147">
                    <g id="Grupo_1179146" data-name="Grupo 1179146" clip-path="url(#clip-path-7)">
                      <path id="Trazado_997222" data-name="Trazado 997222" d="M415.182,284.321c-1.965,4.467-10.9,8.464-26.12,8.205-1.567,9.364-2.886,30.553,15.253,37.653a21.434,21.434,0,0,0,2.137.328c6.629.648,9.8-7.517,12.756-24.182,3.246-17.539-4.027-22-4.027-22" transform="translate(-388.225 -284.321)" fill="#fff6e7"/>
                    </g>
                  </g>
                </g>
                <g id="Grupo_1179151" data-name="Grupo 1179151" transform="translate(110.837 74.765)" opacity="0.45" style="mix-blend-mode: overlay;isolation: isolate">
                  <g id="Grupo_1179150" data-name="Grupo 1179150">
                    <g id="Grupo_1179149" data-name="Grupo 1179149" clip-path="url(#clip-path-8)">
                      <path id="Trazado_997223" data-name="Trazado 997223" d="M341.066,243.244a30.134,30.134,0,0,0-.895,6.912c10.092.082,23.476-6.825,23.476-6.825s-14.94,11.578-.747,8.03S380.306,236.9,380.306,236.9c-8.924-10.535-34.773-11.127-39.241,6.34" transform="translate(-340.171 -229.462)" fill="#fff6e7"/>
                    </g>
                  </g>
                </g>
                <g id="Grupo_1179154" data-name="Grupo 1179154" transform="translate(150.972 82.176)" opacity="0.45" style="mix-blend-mode: overlay;isolation: isolate">
                  <g id="Grupo_1179153" data-name="Grupo 1179153">
                    <g id="Grupo_1179152" data-name="Grupo 1179152" clip-path="url(#clip-path-9)">
                      <path id="Trazado_997224" data-name="Trazado 997224" d="M470.691,257.92s9.024,14.092,5.32,22.621c.614-.032,1.3-.558,2.054-1.828,3.735-6.285-1.555-18.723-1.555-18.723s11.825,5.96,5.771-1.323-18.93-6.427-18.93-6.427,6.871.638,10.232,3.159-2.892,2.521-2.892,2.521" transform="translate(-463.351 -252.208)" fill="#fff6e7"/>
                    </g>
                  </g>
                </g>
                <path id="Trazado_997225" data-name="Trazado 997225" d="M488.3,828.031c16.973-1.706,36.4-4.535,48.211-4.918a29.788,29.788,0,0,0,2.33-17.488c-1.315.04-2.8.016-4.5-.091,0,0-22.391-4.006-40.247-11.789,1.492,6.517,3.17,20.749-5.8,34.285" transform="translate(-329.196 -535.122)" fill="#c48458"/>
                <g id="Grupo_1179157" data-name="Grupo 1179157" transform="translate(93.521 256.869)" opacity="0.2" style="mix-blend-mode: multiply;isolation: isolate">
                  <g id="Grupo_1179156" data-name="Grupo 1179156">
                    <g id="Grupo_1179155" data-name="Grupo 1179155" clip-path="url(#clip-path-10)">
                      <path id="Trazado_997226" data-name="Trazado 997226" d="M287.815,788.362l-.005.01c-1.274,5.716-1.064,11.569,1.13,15.957,5.859,11.718,28.084,22.225,49.2,21.215,10.719-.513,24.43-2.223,37.105-3.7-66.061,4.838-87.428-33.478-87.428-33.478" transform="translate(-287.026 -788.362)" fill="#263238"/>
                    </g>
                  </g>
                </g>
                <path id="Trazado_997227" data-name="Trazado 997227" d="M291.1,754.4a48.475,48.475,0,0,0-3.117,7.664,34.767,34.767,0,0,0-1.543,8.012c-.058.676-.067,1.353-.077,2.031.02.676.034,1.354.1,2.027.035.677.149,1.344.242,2.015.137.662.249,1.332.432,1.986.144.666.393,1.3.587,1.954.256.63.467,1.285.777,1.9a29.835,29.835,0,0,0,1.978,3.642,19.5,19.5,0,0,1-2.532-3.352c-.385-.594-.666-1.244-1-1.872-.269-.654-.561-1.3-.767-1.985a19.756,19.756,0,0,1-.92-4.163,23.282,23.282,0,0,1-.1-4.264,29.233,29.233,0,0,1,.628-4.206,31.1,31.1,0,0,1,1.249-4.044A28.8,28.8,0,0,1,291.1,754.4" transform="translate(-192.22 -508.598)" fill="#5e2b08"/>
                <path id="Trazado_997228" data-name="Trazado 997228" d="M487.922,828.054l-.7-.478c10.359-15.178,5.784-33.756,5.737-33.941l.822-.21c.048.189,4.722,19.128-5.858,34.63" transform="translate(-328.471 -534.905)" fill="#b25718"/>
                <path id="Trazado_997229" data-name="Trazado 997229" d="M458.051,491.02c-.576-2.554-1.059-5.115-1.52-7.678-.246-1.279-.445-2.565-.681-3.844l-.653-3.845-.65-3.842c-.2-1.285-.451-2.556-.656-3.839-.236-1.276-.459-2.554-.722-3.825-.109-.643-.282-1.264-.411-1.9-.059-.322-.153-.631-.24-.944l-.251-.949c.279.586.6,1.171.827,1.785s.48,1.225.678,1.849.4,1.251.581,1.88l.508,1.9c.323,1.268.6,2.547.869,3.827s.486,2.567.72,3.853c.2,1.291.413,2.579.586,3.872s.342,2.588.473,3.887c.277,2.6.487,5.2.541,7.818" transform="translate(-304.906 -310.356)" fill="#59bdbe"/>
                <path id="Trazado_997230" data-name="Trazado 997230" d="M935.641,25.286h0a2.117,2.117,0,0,1-1.1-2.775l9.2-21.24a2.11,2.11,0,1,1,3.873,1.678l-9.2,21.24a2.117,2.117,0,0,1-2.775,1.1" transform="translate(-629.928 0)" fill="#59bdbe"/>
                <path id="Trazado_997231" data-name="Trazado 997231" d="M923.613,59.337h0a4.678,4.678,0,0,1-2.426-6.134l4.387-10.127a4.664,4.664,0,0,1,8.56,3.708l-4.387,10.127a4.678,4.678,0,0,1-6.134,2.426" transform="translate(-620.782 -27.148)" fill="#e9833a"/>
                <path id="Trazado_997232" data-name="Trazado 997232" d="M653.086,25.286h0a2.117,2.117,0,0,1-1.1-2.775l9.2-21.24a2.11,2.11,0,1,1,3.873,1.678l-9.2,21.24a2.117,2.117,0,0,1-2.775,1.1" transform="translate(-439.436 0)" fill="#59bdbe"/>
                <path id="Trazado_997233" data-name="Trazado 997233" d="M641.058,59.337h0a4.678,4.678,0,0,1-2.426-6.134l4.387-10.127a4.664,4.664,0,0,1,8.56,3.708l-4.387,10.127a4.678,4.678,0,0,1-6.134,2.426" transform="translate(-430.291 -27.148)" fill="#e9833a"/>
                <path id="Trazado_997234" data-name="Trazado 997234" d="M623.409,105.488c0,15.51-8.832,28.083-19.726,28.083S583.956,121,583.956,105.488,592.788,77.4,603.683,77.4s19.726,12.573,19.726,28.083" transform="translate(-393.688 -52.184)" fill="#2c304c"/>
                <path id="Trazado_997235" data-name="Trazado 997235" d="M734.4,79.749c0,23.508-24.272,42.566-54.214,42.566s-54.213-19.058-54.213-42.566,24.272-42.566,54.213-42.566S734.4,56.241,734.4,79.749" transform="translate(-422.011 -25.068)" fill="#ebece5"/>
                <path id="Trazado_997236" data-name="Trazado 997236" d="M597.994,105.509c0,13.467,6.567,24.818,15.438,28.073a14.306,14.306,0,0,0,4.794-.934c-10.169-.327-18.374-12.371-18.374-27.139S608.057,78.7,618.226,78.37a14.326,14.326,0,0,0-4.794-.934c-8.871,3.255-15.438,14.606-15.438,28.073" transform="translate(-403.152 -52.205)" fill="#ebece5"/>
                <path id="Trazado_997237" data-name="Trazado 997237" d="M711.59,124.256A39.94,39.94,0,0,1,717.7,103.2H659.117a3.275,3.275,0,0,0-2.493,1.147,30.55,30.55,0,0,0-7.688,19.909,29.333,29.333,0,0,0,3.875,14.471,3.29,3.29,0,0,0,2.865,1.684H715.1a39.167,39.167,0,0,1-3.515-16.154" transform="translate(-437.495 -69.575)" fill="#59bdbe"/>
                <path id="Trazado_997238" data-name="Trazado 997238" d="M680.783,109.313a3.259,3.259,0,0,0-2.492,1.147,27.244,27.244,0,0,0-6.76,17.655,26.158,26.158,0,0,0,3.348,12.72,3.288,3.288,0,0,0,2.876,1.705H729.5a38.939,38.939,0,0,1-2.681-14.163,39.582,39.582,0,0,1,4.965-19.064Z" transform="translate(-452.728 -73.696)" fill="#2c304c"/>
                <path id="Trazado_997239" data-name="Trazado 997239" d="M701.739,150.434a4.368,4.368,0,1,1-4.367-4.367,4.367,4.367,0,0,1,4.367,4.367" transform="translate(-467.205 -98.474)" fill="#e9833a"/>
                <path id="Trazado_997240" data-name="Trazado 997240" d="M801.043,150.434a4.367,4.367,0,1,1-4.367-4.367,4.367,4.367,0,0,1,4.367,4.367" transform="translate(-534.153 -98.474)" fill="#e9833a"/>
                <path id="Trazado_997241" data-name="Trazado 997241" d="M736.559,184.982a1.548,1.548,0,0,0-1.242,2.484,7.671,7.671,0,0,0,11.989.064,1.556,1.556,0,0,0-1.194-2.548Z" transform="translate(-495.512 -124.71)" fill="#e9833a"/>
                <path id="Trazado_997242" data-name="Trazado 997242" d="M805.191,152.357a1.657,1.657,0,1,1-1.657-1.657,1.657,1.657,0,0,1,1.657,1.657" transform="translate(-540.604 -101.598)" fill="#ebece5"/>
                <path id="Trazado_997243" data-name="Trazado 997243" d="M707.055,152.357A1.657,1.657,0,1,1,705.4,150.7a1.657,1.657,0,0,1,1.657,1.657" transform="translate(-474.443 -101.598)" fill="#ebece5"/>
                <path id="Trazado_997244" data-name="Trazado 997244" d="M764.493,68.432a39.61,39.61,0,0,1,5.394,19.809c0,26.706-27.574,48.357-61.589,48.357a78.61,78.61,0,0,1-9.455-.571,64.789,64.789,0,0,0,30.469,7.355c29.941,0,54.213-19.057,54.213-42.566,0-12.967-7.386-24.577-19.033-32.384" transform="translate(-471.142 -46.135)" fill="#c1d2cb"/>
                <rect id="Rectángulo_455532" data-name="Rectángulo 455532" width="77.08" height="0.599" transform="translate(216.634 27.167)" fill="#c1d2cb"/>
                <rect id="Rectángulo_455533" data-name="Rectángulo 455533" width="82.841" height="0.599" transform="translate(215.074 80.143)" fill="#c1d2cb"/>
                <path id="Trazado_997245" data-name="Trazado 997245" d="M904.008,105.488c0,15.51-8.832,28.083-19.726,28.083S864.555,121,864.555,105.488,873.387,77.4,884.282,77.4s19.726,12.573,19.726,28.083" transform="translate(-582.86 -52.184)" fill="#2c304c"/>
                <path id="Trazado_997246" data-name="Trazado 997246" d="M908.717,133.066c-8.673-2.4-15.248-13.442-15.248-26.662s6.575-24.257,15.248-26.662a15.074,15.074,0,0,0-2.723-.979C897.661,82.5,891.61,93.477,891.61,106.4s6.051,23.9,14.383,27.641a15.076,15.076,0,0,0,2.724-.979" transform="translate(-601.1 -53.1)" fill="#ebece5"/>
                <path id="Trazado_997247" data-name="Trazado 997247" d="M948.163,134.526c0,7.205-2.725,13.045-6.087,13.045s-6.088-5.84-6.088-13.045,2.726-13.045,6.088-13.045,6.087,5.841,6.087,13.045" transform="translate(-631.018 -81.899)" fill="#ebece5"/>
                <g id="Grupo_1179160" data-name="Grupo 1179160" transform="translate(223.287 14.702)" opacity="0.69" style="mix-blend-mode: overlay;isolation: isolate">
                  <g id="Grupo_1179159" data-name="Grupo 1179159">
                    <g id="Grupo_1179158" data-name="Grupo 1179158" clip-path="url(#clip-path-11)">
                      <path id="Trazado_997248" data-name="Trazado 997248" d="M687.152,59.744a1.858,1.858,0,0,1-1.221-3.26c16.432-14.3,40.633-11.1,41.656-10.962a1.858,1.858,0,1,1-.514,3.681c-.3-.041-23.588-3.066-38.7,10.085a1.853,1.853,0,0,1-1.219.456" transform="translate(-685.293 -45.121)" fill="#fff"/>
                    </g>
                  </g>
                </g>
                <g id="Grupo_1179163" data-name="Grupo 1179163" transform="translate(222.453 37.724)" opacity="0.69">
                  <g id="Grupo_1179162" data-name="Grupo 1179162">
                    <g id="Grupo_1179161" data-name="Grupo 1179161" clip-path="url(#clip-path-12)">
                      <path id="Trazado_997249" data-name="Trazado 997249" d="M684.593,125.767a1.86,1.86,0,0,1-1.744-2.5,19.581,19.581,0,0,1,2.473-4.72,6.737,6.737,0,0,1,5.458-2.77h12.555a1.858,1.858,0,0,1,0,3.716H690.779a3.012,3.012,0,0,0-2.444,1.229,15.869,15.869,0,0,0-2,3.826,1.859,1.859,0,0,1-1.745,1.218" transform="translate(-682.734 -115.778)" fill="#fff"/>
                    </g>
                  </g>
                </g>
                <path id="Trazado_997250" data-name="Trazado 997250" d="M876.743,72.346a1.573,1.573,0,1,1,1.573-1.573,1.575,1.575,0,0,1-1.573,1.573m0-2.548a.975.975,0,1,0,.974.975.976.976,0,0,0-.974-.975" transform="translate(-590.015 -46.652)" fill="#c1d2cb"/>
                <path id="Trazado_997251" data-name="Trazado 997251" d="M682.4,254.371a1.573,1.573,0,1,1,1.574-1.573,1.575,1.575,0,0,1-1.574,1.573m0-2.548a.975.975,0,1,0,.975.975.976.976,0,0,0-.975-.975" transform="translate(-458.993 -169.368)" fill="#c1d2cb"/>
                <path id="Trazado_997252" data-name="Trazado 997252" d="M633.823,383.7H579.2a22.607,22.607,0,1,1,0-45.214h54.62a22.607,22.607,0,1,1,0,45.214" transform="translate(-375.242 -228.196)" fill="#e9833a"/>
                <path id="Trazado_997253" data-name="Trazado 997253" d="M319.887,66.735H267.348a21.745,21.745,0,0,1,0-43.491h52.539a21.745,21.745,0,1,1,0,43.491" transform="translate(-165.579 -15.67)" fill="#59bdbe"/>
                <path id="Trazado_997254" data-name="Trazado 997254" d="M484.053,134.046l12.9,11.6-8.892,1.522,16.076,14.043L476.58,147.163l7.473-2.611L473.154,138Z" transform="translate(-318.988 -90.37)" fill="#59bdbe"/>
                <path id="Trazado_997255" data-name="Trazado 997255" d="M650.522,456.74l-9.79,25.656,20.371-24.56Z" transform="translate(-431.965 -307.922)" fill="#e9833a"/>
                <path id="Trazado_997256" data-name="Trazado 997256" d="M82.418,195.246h5.092V193a15.331,15.331,0,0,0,6.528-2.827l1.786,1.786,3.6-3.6L97.573,186.5a15.341,15.341,0,0,0,2.5-6.474h2.66v-5.092h-2.76a15.333,15.333,0,0,0-2.671-6.174l1.8-1.8-3.6-3.6-1.826,1.826a15.332,15.332,0,0,0-6.5-2.611v-2.528H82.091v2.584a15.335,15.335,0,0,0-6.324,2.7l-1.99-1.989-3.6,3.6,2.014,2.015a15.335,15.335,0,0,0-2.579,6.311H66.863v5.092h2.749a15.336,15.336,0,0,0,2.565,6.292l-1.685,1.685,3.6,3.6,1.655-1.655a15.325,15.325,0,0,0,6.671,2.761Zm-6.261-17.437a8.663,8.663,0,1,1,8.663,8.663,8.663,8.663,0,0,1-8.663-8.663" transform="translate(-45.077 -107.898)" fill="#59bdbe"/>
                <path id="Trazado_997257" data-name="Trazado 997257" d="M36.758,288.389H39.7v-1.3a8.848,8.848,0,0,0,3.766-1.631l1.03,1.03,2.077-2.077L45.5,283.344a8.851,8.851,0,0,0,1.445-3.734H48.48v-2.938H46.888a8.847,8.847,0,0,0-1.541-3.562l1.04-1.04-2.077-2.077-1.054,1.053a8.843,8.843,0,0,0-3.75-1.506v-1.458H36.569v1.491a8.847,8.847,0,0,0-3.648,1.556l-1.148-1.148L29.7,272.058l1.162,1.162a8.847,8.847,0,0,0-1.488,3.641H27.784V279.8H29.37a8.845,8.845,0,0,0,1.48,3.63l-.972.972,2.077,2.077.955-.955a8.846,8.846,0,0,0,3.848,1.593ZM33.146,278.33a5,5,0,1,1,5,5,5,5,0,0,1-5-5" transform="translate(-18.731 -180.734)" fill="#2c304c"/>
                <path id="Trazado_997258" data-name="Trazado 997258" d="M106,322.886h10.458v-4.621a31.5,31.5,0,0,0,13.406-5.806l3.667,3.667,7.395-7.395-3.8-3.8a31.5,31.5,0,0,0,5.144-13.294h5.463V281.175h-5.668a31.49,31.49,0,0,0-5.486-12.68l3.7-3.7-7.395-7.395-3.75,3.75a31.487,31.487,0,0,0-13.348-5.361V250.6H105.326V255.9a31.494,31.494,0,0,0-12.987,5.539l-4.087-4.086-7.395,7.395,4.137,4.137a31.493,31.493,0,0,0-5.3,12.96H74.054v10.458H79.7a31.494,31.494,0,0,0,5.266,12.922l-3.459,3.459,7.395,7.395,3.4-3.4a31.487,31.487,0,0,0,13.7,5.671ZM93.141,287.077a17.79,17.79,0,1,1,17.79,17.79,17.79,17.79,0,0,1-17.79-17.79" transform="translate(-49.925 -168.945)" fill="#e9833a"/>
                <path id="Trazado_997259" data-name="Trazado 997259" d="M165.513,350.367a10.439,10.439,0,1,1,10.439-10.439,10.439,10.439,0,0,1-10.439,10.439" transform="translate(-104.547 -222.133)" fill="#e9833a"/>
                <path id="Trazado_997260" data-name="Trazado 997260" d="M137.139,335.487A24.357,24.357,0,1,1,161.5,311.131a24.384,24.384,0,0,1-24.357,24.357m0-48.089a23.732,23.732,0,1,0,23.732,23.733A23.759,23.759,0,0,0,137.139,287.4" transform="translate(-76.035 -193.335)" fill="#b25718"/>
                <path id="Trazado_997261" data-name="Trazado 997261" d="M300.747,54.427H277.669a2.21,2.21,0,0,1,0-4.42h23.078a2.21,2.21,0,1,1,0,4.42" transform="translate(-185.707 -33.713)" fill="#e8eade"/>
                <path id="Trazado_997262" data-name="Trazado 997262" d="M445.748,54.427H422.67a2.21,2.21,0,1,1,0-4.42h23.078a2.21,2.21,0,0,1,0,4.42" transform="translate(-283.463 -33.713)" fill="#e8eade"/>
                <path id="Trazado_997263" data-name="Trazado 997263" d="M316.706,76.168H293.628a2.21,2.21,0,0,1,0-4.42h23.078a2.21,2.21,0,0,1,0,4.42" transform="translate(-196.466 -48.371)" fill="#e8eade"/>
                <path id="Trazado_997264" data-name="Trazado 997264" d="M409.942,76.168H386.864a2.21,2.21,0,0,1,0-4.42h23.078a2.21,2.21,0,0,1,0,4.42" transform="translate(-259.323 -48.371)" fill="#e8eade"/>
                <path id="Trazado_997265" data-name="Trazado 997265" d="M382.457,54.427h-7.964a2.21,2.21,0,1,1,0-4.42h7.964a2.21,2.21,0,0,1,0,4.42" transform="translate(-250.983 -33.713)" fill="#e8eade"/>
                <path id="Trazado_997266" data-name="Trazado 997266" d="M300.747,118.633H277.669a2.21,2.21,0,0,1,0-4.42h23.078a2.21,2.21,0,0,1,0,4.42" transform="translate(-185.707 -76.999)" fill="#e8eade"/>
                <path id="Trazado_997267" data-name="Trazado 997267" d="M445.748,118.633H422.67a2.21,2.21,0,0,1,0-4.42h23.078a2.21,2.21,0,0,1,0,4.42" transform="translate(-283.463 -76.999)" fill="#e8eade"/>
                <path id="Trazado_997268" data-name="Trazado 997268" d="M382.457,118.633h-7.964a2.21,2.21,0,1,1,0-4.42h7.964a2.21,2.21,0,0,1,0,4.42" transform="translate(-250.983 -76.999)" fill="#e8eade"/>
                <path id="Trazado_997269" data-name="Trazado 997269" d="M284.15,97.909h-7.963a2.21,2.21,0,1,1,0-4.42h7.963a2.21,2.21,0,0,1,0,4.42" transform="translate(-184.708 -63.028)" fill="#e8eade"/>
                <path id="Trazado_997270" data-name="Trazado 997270" d="M378.926,97.909H324.66a2.21,2.21,0,1,1,0-4.42h54.266a2.21,2.21,0,0,1,0,4.42" transform="translate(-217.387 -63.028)" fill="#e8eade"/>
                <path id="Trazado_997271" data-name="Trazado 997271" d="M612.435,401.935h0a5.547,5.547,0,1,1,5.548-5.548,5.564,5.564,0,0,1-5.548,5.548" transform="translate(-409.147 -263.494)" fill="#e8eade"/>
                <path id="Trazado_997272" data-name="Trazado 997272" d="M692.677,401.935h0a5.547,5.547,0,1,1,5.547-5.548,5.564,5.564,0,0,1-5.547,5.548" transform="translate(-463.245 -263.494)" fill="#e8eade"/>
                <path id="Trazado_997273" data-name="Trazado 997273" d="M772.919,401.935h0a5.547,5.547,0,1,1,5.547-5.548,5.564,5.564,0,0,1-5.547,5.548" transform="translate(-517.342 -263.494)" fill="#e8eade"/>
              </g>
            </g>
          </g>
        </g>
      </g>
    </g>
  </g>
</svg>
