<svg xmlns="http://www.w3.org/2000/svg" xmlns:xlink="http://www.w3.org/1999/xlink" width="84" height="84" viewBox="0 0 84 84">
  <defs>
    <linearGradient id="linear-gradient" x1="0.482" y1="0.548" x2="0.394" y2="-0.559" gradientUnits="objectBoundingBox">
      <stop offset="0" stop-color="#0cebf3"/>
      <stop offset="1" stop-color="#3ef989"/>
    </linearGradient>
  </defs>
  <g id="Grupo_1198593" data-name="Grupo 1198593" transform="translate(-723 -373.431)">
    <g id="Grupo_1198592" data-name="Grupo 1198592">
      <g id="Grupo_1198036" data-name="Grupo 1198036" transform="translate(17 -1305.489)" style="isolation: isolate">
        <g id="Grupo_1119665" data-name="Grupo 1119665" transform="translate(534.111 -3840.08)">
          <rect id="Rectángulo_402006" data-name="Rectángulo 402006" width="84" height="84" rx="5" transform="translate(171.889 5519)" fill="#1d0736"/>
        </g>
      </g>
    </g>
    <g id="Grupo_1198207" data-name="Grupo 1198207" transform="translate(381.752 260.012)">
      <path id="Trazado_1009567" data-name="Trazado 1009567" d="M407.224,170.02c-.064.423-.129.763-.166,1.106a4.407,4.407,0,0,1-1.175,2.521,2.452,2.452,0,0,0-.725,2.32,5.984,5.984,0,0,0,.628.146c1.071.137,1.364.408,1.37,1.511q.021,3.775-.036,7.551c-.016,1.075-.446,1.5-1.528,1.515-1.65.016-3.3-.054-4.951-.05-3.263.007-6.525.047-9.788.058-1.021,0-2.043-.029-3.064-.069-1.137-.045-1.484-.363-1.489-1.508-.01-2.556.016-5.112.056-7.668.015-.924.282-1.178,1.174-1.3.227-.03.457-.041.74-.065a2.685,2.685,0,0,0-.31-2.167c-.743-1.158-1.519-2.295-2.253-3.458a1.015,1.015,0,0,0-1.007-.441c-1.1,0-2.2-.022-3.3-.023q-13.5,0-27.009,0c-.236,0-.472.007-.708,0-1.207-.047-1.609-.465-1.6-1.678.018-4.6.049-9.2.054-13.8,0-2.241-.056-4.483-.061-6.724q-.015-7.786,0-15.572c0-.865.029-1.73.072-2.594.051-1.012.356-1.323,1.376-1.361.854-.032,1.71-.007,2.711-.007,0-.9-.009-1.679,0-2.453.019-1.308.3-1.618,1.589-1.629,2.634-.021,5.268,0,7.9-.008,6.172-.009,12.344-.032,18.516-.031q11.263,0,22.526.031c.708,0,1.416-.045,2.122-.024.933.027,1.288.354,1.334,1.281.044.9.009,1.794.009,2.868.912,0,1.721-.013,2.53,0,1.315.026,1.67.391,1.665,1.714-.017,4.639-.051,9.278-.058,13.917,0,2.2.056,4.4.06,6.606q.014,8.022,0,16.044c0,.629-.032,1.258-.066,1.885-.067,1.213-.376,1.537-1.572,1.554-1.533.021-3.067,0-4.6,0Zm-48.747-6.467h22.561c-.216-.373-.346-.607-.485-.836-.621-1.024-.57-1.408.328-2.228a2.788,2.788,0,0,1,.657-.494,1.152,1.152,0,0,0,.658-1.242c-.034-2-.038-4.011-.037-6.016q.008-10.558.026-21.115c0-1.719,0-3.438,0-5.235H358.477ZM384.4,126.362V159.2c1.89.169,2.883,1.487,3.855,2.876.1-1.013.094-1.951.1-2.89q.017-4.305.037-8.61a3.329,3.329,0,0,1,.973-2.68,3.068,3.068,0,0,1,3.293-.64,3.024,3.024,0,0,1,2.033,2.908c.053,1.374.01,2.752.02,4.128,0,.34.047.68.071,1a12.282,12.282,0,0,1,1.613.172,10.709,10.709,0,0,1,1.4.541c1.775-.886,2.38-.878,4.118.052.307-.153.614-.328.938-.462a2.852,2.852,0,0,1,3.25.646,3.464,3.464,0,0,1,1.026,2.553c.018,1.218.023,2.437.043,3.656.006.374.043.747.065,1.115,1.136.121.833-.638.833-1.094q.022-17.458.012-34.917c0-.377,0-.755,0-1.191Zm-1.745,35.5c.451.726.848,1.4,1.282,2.055,1.827,2.749,3.669,5.488,5.5,8.236a5.989,5.989,0,0,1,1.127,3.18,4.873,4.873,0,0,0,.158.771c4.048-.008,8.073.132,12.148-.015a4.591,4.591,0,0,1,1.08-3.4,3.979,3.979,0,0,0,1.043-3.126c-.044-2.318-.063-4.637-.071-6.956,0-1.3.067-2.594.039-3.889-.017-.8-.422-1.192-1.025-1.175s-.927.427-.963,1.238c-.028.628.021,1.261-.043,1.884a1.05,1.05,0,0,1-2.086.022,12.687,12.687,0,0,1-.048-1.294,6.977,6.977,0,0,0-.063-1.056.856.856,0,0,0-.912-.754.838.838,0,0,0-.905.754c-.058.386-.047.782-.071,1.174a10.9,10.9,0,0,1-.1,1.29.921.921,0,0,1-1.015.793.954.954,0,0,1-.995-.828,4.3,4.3,0,0,1-.062-.7c-.011-.354,0-.708-.012-1.061a3.573,3.573,0,0,0-.075-.7.922.922,0,0,0-1.057-.736.839.839,0,0,0-.826.845c-.048.744-.008,1.5-.079,2.236a.961.961,0,0,1-1.025.937.992.992,0,0,1-1.017-.953,6.355,6.355,0,0,1-.031-.941q-.016-4.3-.029-8.609a7.929,7.929,0,0,0-.022-.942.957.957,0,0,0-1.9-.043,4.534,4.534,0,0,0-.059.821q-.031,5.6-.055,11.2-.008,1.828-.009,3.656c0,.482-.19.914-.665.98a1.8,1.8,0,0,1-1.059-.3,2.442,2.442,0,0,1-.593-.72c-.848-1.181-1.668-2.383-2.542-3.545C384.842,161.168,383.851,161.049,382.654,161.859Zm1.242,5.93c-.319-.509-.569-.852-.76-1.225a1.38,1.38,0,0,0-1.434-.754c-7.864.023-15.729.011-23.593.016-1.554,0-1.876-.29-1.878-1.84q-.009-7.022,0-14.044.009-9.087.026-18.174c0-.382-.038-.764-.061-1.189h-1.9c.067,12.447-.044,24.8.058,37.211ZM404.881,178.4H388.554v5.963h16.327Zm5.444-47.9c-.027.259-.058.413-.058.568q-.009,12.265-.013,24.529c0,2.87,0,5.739-.022,8.609-.009,1.245-.367,1.567-1.641,1.594-.452.01-.9.035-1.33.052v1.9h4.854V130.495Z" transform="translate(0)" fill="url(#linear-gradient)"/>
      <path id="Trazado_1009568" data-name="Trazado 1009568" d="M397.778,143.052c.511-1.448.615-1.527,2.048-1.527.9,0,1.807.018,2.71.032,1.3.019,1.505.205,1.757,1.634.172-.11.314-.2.454-.29.652-.436,1.014-.454,1.562.069q1.408,1.34,2.746,2.754c.564.6.526.881-.119,1.986.229.059.43.1.627.162a1.146,1.146,0,0,1,.866,1.239c.007,1.1.06,2.2.055,3.3-.007,1.286-.108,1.4-1.463,1.858.086.163.158.318.246.462a1.16,1.16,0,0,1-.242,1.585c-.751.749-1.483,1.516-2.228,2.271-1.008,1.021-1.19,1.046-2.388.369-.2.4-.316.922-.638,1.154a2.554,2.554,0,0,1-1.337.285c-.9.031-1.806-.011-2.709-.023-1.362-.018-1.5-.13-1.842-1.553a3.636,3.636,0,0,0-.472.275,1.059,1.059,0,0,1-1.569-.154c-.761-.74-1.531-1.47-2.273-2.228-.994-1.015-1.012-1.231-.336-2.415-.424-.226-.994-.353-1.231-.7a3.031,3.031,0,0,1-.263-1.466c-.045-.9-.055-1.808-.038-2.711.021-1.135.241-1.377,1.488-1.695-.884-1.111-.335-1.917.532-2.685.617-.546,1.178-1.155,1.766-1.734C396.41,142.392,396.6,142.368,397.778,143.052Zm-2.413,12.34,1.308,1.373c.473-.452.87-.821,1.255-1.2.435-.431.884-.821,1.55-.5.611.291.607.84.587,1.415s.026,1.141.042,1.676h1.981c0-.675-.007-1.258,0-1.842a1.15,1.15,0,0,1,2.082-.837c.419.405.851.8,1.342,1.254l1.336-1.378c-.46-.471-.891-.917-1.325-1.358a1.128,1.128,0,0,1,.855-2.013c.58-.021,1.159-.06,1.8-.095v-1.9c-.688,0-1.309.023-1.928-.007a1.129,1.129,0,0,1-1.124-.712,1.182,1.182,0,0,1,.357-1.287c.438-.445.869-.9,1.343-1.388l-1.342-1.418c-.518.507-.951.9-1.349,1.33a1.139,1.139,0,0,1-2.068-.83c0-.616,0-1.233,0-1.954l-2.026.107c0,.66,0,1.238,0,1.815,0,.533-.043,1.052-.638,1.263a1.192,1.192,0,0,1-1.367-.413c-.414-.45-.886-.847-1.248-1.188l-1.516,1.2c.526.553.934.974,1.333,1.4a1.146,1.146,0,0,1-.849,2.068c-.614.021-1.227.049-1.836.074v1.894c.711,0,1.336,0,1.961,0a1.149,1.149,0,0,1,1.154.661,1.1,1.1,0,0,1-.287,1.29C396.329,154.354,395.9,154.813,395.365,155.392Z" transform="translate(-30.282 -13.284)" fill="url(#linear-gradient)"/>
      <path id="Trazado_1009569" data-name="Trazado 1009569" d="M397.622,240.753c-2.827,0-5.655.013-8.482-.016a1.539,1.539,0,0,1-1.045-.378,1.325,1.325,0,0,1-.21-1.065,1.055,1.055,0,0,1,1.121-.692c1.139-.014,2.278-.031,3.417-.033q6.716-.006,13.432,0a3.724,3.724,0,0,1,.7.035,1.086,1.086,0,0,1,.971,1.142,1.02,1.02,0,0,1-.959,1.02,11.619,11.619,0,0,1-1.411.048q-3.769.006-7.538,0Z" transform="translate(-27.347 -87.439)" fill="url(#linear-gradient)"/>
      <path id="Trazado_1009570" data-name="Trazado 1009570" d="M397.366,258.579q-3.951,0-7.9,0a6.7,6.7,0,0,1-.942-.025,1.047,1.047,0,0,1-.989-1.11,1.063,1.063,0,0,1,1.075-1.026,5.579,5.579,0,0,1,.589-.007q8.139-.01,16.277-.019a4.149,4.149,0,0,1,.939.043,1.006,1.006,0,0,1,.821,1.018.967.967,0,0,1-.795,1.028,3.333,3.333,0,0,1-.819.061q-4.127.006-8.255,0Z" transform="translate(-27.103 -101.055)" fill="url(#linear-gradient)"/>
      <path id="Trazado_1009571" data-name="Trazado 1009571" d="M396.333,274.16q3.47,0,6.94,0a7.349,7.349,0,0,1,1.055.055.936.936,0,0,1,.844.976.954.954,0,0,1-.8,1.02,3.75,3.75,0,0,1-.817.065q-7.175.005-14.35,0a4.108,4.108,0,0,1-.82-.054.965.965,0,0,1-.837-.986.985.985,0,0,1,.9-1.044,5.918,5.918,0,0,1,.939-.034Q392.863,274.157,396.333,274.16Z" transform="translate(-27.117 -114.637)" fill="url(#linear-gradient)"/>
      <path id="Trazado_1009572" data-name="Trazado 1009572" d="M507.027,159.38h-7.311c-.433,0-.867.024-1.3-.012-.853-.072-1.169-.393-1.271-1.259a7.131,7.131,0,0,1-.025-.825q0-5.428,0-10.855c0-1.1.031-2.2.059-3.3.031-1.2.36-1.552,1.557-1.558,3.067-.016,6.134,0,9.2-.007,2.4,0,4.8-.03,7.2-.028,1.516,0,1.779.284,1.777,1.8q-.01,6.964-.022,13.927c0,.236.007.472,0,.708-.046,1.021-.323,1.328-1.37,1.336-2.831.021-5.662.007-8.493.007Zm-7.676-2.321H514.7V143.84c-5.153-.3-10.222.051-15.347-.1Z" transform="translate(-110.845 -13.29)" fill="url(#linear-gradient)"/>
      <path id="Trazado_1009573" data-name="Trazado 1009573" d="M546.148,240.747c-1.018,0-2.036,0-3.054,0a3.768,3.768,0,0,1-.817-.058,1.04,1.04,0,0,1-.157-1.952,2.733,2.733,0,0,1,.916-.139c2.035-.021,4.071-.026,6.106-.035.157,0,.314-.008.47.006.807.078,1.229.481,1.208,1.148-.02.638-.384,1.022-1.153,1.069-.819.051-1.643.021-2.465.015C546.851,240.8,546.5,240.765,546.148,240.747Z" transform="translate(-144.765 -87.432)" fill="url(#linear-gradient)"/>
      <path id="Trazado_1009574" data-name="Trazado 1009574" d="M560.313,364.486a3.323,3.323,0,0,1-.8-.1,1.032,1.032,0,0,1-.726-1.081.955.955,0,0,1,.853-.962,5.233,5.233,0,0,1,1.278-.027,1.051,1.051,0,0,1,1.017,1.066,1.083,1.083,0,0,1-1.034,1.063,4.1,4.1,0,0,1-.583,0Z" transform="translate(-157.964 -181.981)" fill="url(#linear-gradient)"/>
      <path id="Trazado_1009575" data-name="Trazado 1009575" d="M421.57,168.291a3.052,3.052,0,0,1,3.03,3.1,3.149,3.149,0,0,1-3.126,3.16,3.06,3.06,0,0,1-3.095-3.033A3.176,3.176,0,0,1,421.57,168.291Zm.888,3.16a.95.95,0,0,0-1.9-.071.974.974,0,0,0,.928.991A.914.914,0,0,0,422.459,171.451Z" transform="translate(-50.675 -33.737)" fill="url(#linear-gradient)"/>
      <path id="Trazado_1009576" data-name="Trazado 1009576" d="M528.011,161.27a8.261,8.261,0,0,1-.01,1.125,1.116,1.116,0,0,1-1.128.993,1.019,1.019,0,0,1-.973-1c-.141-1.315-.049-2.535,1.325-3.235a1.011,1.011,0,0,0,.6-1.261.75.75,0,0,0-.875-.617,1.812,1.812,0,0,0-.858.482c-.146.14-.133.439-.208.662a.993.993,0,0,1-1.167.759.982.982,0,0,1-.863-1.095,3.009,3.009,0,0,1,1.45-2.557,3.124,3.124,0,0,1,3.716,5C528.727,160.775,528.4,160.986,528.011,161.27Z" transform="translate(-131.275 -23.618)" fill="url(#linear-gradient)"/>
      <path id="Trazado_1009577" data-name="Trazado 1009577" d="M533.493,194.716a1.136,1.136,0,0,1,1.134.969,1.081,1.081,0,0,1-1.066,1.142,1.024,1.024,0,0,1-1.051-1.015A1.064,1.064,0,0,1,533.493,194.716Z" transform="translate(-137.888 -53.929)" fill="url(#linear-gradient)"/>
    </g>
  </g>
</svg>
