<svg xmlns="http://www.w3.org/2000/svg" xmlns:xlink="http://www.w3.org/1999/xlink" width="118.117" height="118.117" viewBox="0 0 118.117 118.117">
  <defs>
    <linearGradient id="linear-gradient" x1="0.5" y1="0.694" x2="0.5" y2="-0.349" gradientUnits="objectBoundingBox">
      <stop offset="0" stop-color="#045e61"/>
      <stop offset="1" stop-color="#3ef989"/>
    </linearGradient>
  </defs>
  <g id="Grupo_1198592" data-name="Grupo 1198592" transform="translate(-320.883 -706.941)">
    <g id="Grupo_1192986" data-name="Grupo 1192986" transform="translate(320.883 706.941)">
      <g id="Trazado_995327" data-name="Trazado 995327" transform="translate(0)" fill="#fff">
        <path d="M 59.05859375 116.1171951293945 C 51.35486221313477 116.1171951293945 43.88261032104492 114.6088409423828 36.84942626953125 111.6340637207031 C 33.46891021728516 110.2042236328125 30.20824432373047 108.4343566894531 27.15799331665039 106.3736572265625 C 24.13620948791504 104.3321914672852 21.29459381103516 101.9876251220703 18.71207618713379 99.40511322021484 C 16.12957763671875 96.82259368896484 13.78501033782959 93.98097991943359 11.74354362487793 90.95919036865234 C 9.682826995849609 87.90895843505859 7.91297721862793 84.64827728271484 6.48314380645752 81.26776123046875 C 3.508343696594238 74.23457336425781 2.00001049041748 66.7623291015625 2.00001049041748 59.05859375 C 2.00001049041748 51.35486221313477 3.508343696594238 43.88261032104492 6.48314380645752 36.84942626953125 C 7.91297721862793 33.46891021728516 9.682826995849609 30.20824432373047 11.74354362487793 27.15799331665039 C 13.78501033782959 24.13620948791504 16.12957763671875 21.29459381103516 18.71207618713379 18.71207618713379 C 21.29459381103516 16.12957763671875 24.13620948791504 13.78501033782959 27.15799331665039 11.74354362487793 C 30.20824432373047 9.682826995849609 33.46891021728516 7.91297721862793 36.84942626953125 6.48314380645752 C 43.88261032104492 3.508343696594238 51.35486221313477 2.00001049041748 59.05859375 2.00001049041748 C 66.7623291015625 2.00001049041748 74.23457336425781 3.508343696594238 81.26776123046875 6.48314380645752 C 84.64827728271484 7.91297721862793 87.90895843505859 9.682826995849609 90.95919036865234 11.74354362487793 C 93.98097991943359 13.78501033782959 96.82259368896484 16.12957763671875 99.40511322021484 18.71207618713379 C 101.9876251220703 21.29459381103516 104.3321914672852 24.13620948791504 106.3736572265625 27.15799331665039 C 108.4343566894531 30.20824432373047 110.2042236328125 33.46891021728516 111.6340637207031 36.84942626953125 C 114.6088409423828 43.88261032104492 116.1171951293945 51.35486221313477 116.1171951293945 59.05859375 C 116.1171951293945 66.7623291015625 114.6088409423828 74.23457336425781 111.6340637207031 81.26776123046875 C 110.2042236328125 84.64827728271484 108.4343566894531 87.90895843505859 106.3736572265625 90.95919036865234 C 104.3321914672852 93.98097991943359 101.9876251220703 96.82259368896484 99.40511322021484 99.40511322021484 C 96.82259368896484 101.9876251220703 93.98097991943359 104.3321914672852 90.95919036865234 106.3736572265625 C 87.90895843505859 108.4343566894531 84.64827728271484 110.2042236328125 81.26776123046875 111.6340637207031 C 74.23457336425781 114.6088409423828 66.7623291015625 116.1171951293945 59.05859375 116.1171951293945 Z" stroke="none"/>
        <path d="M 59.05859375 3.999992370605469 C 51.62397766113281 3.999992370605469 44.41384887695312 5.455177307128906 37.62852478027344 8.325119018554688 C 34.36693572998047 9.704666137695312 31.22083282470703 11.41236114501953 28.27759552001953 13.40077209472656 C 25.36128234863281 15.37099456787109 22.61879730224609 17.63377380371094 20.12628173828125 20.12628173828125 C 17.63377380371094 22.61879730224609 15.37099456787109 25.36128234863281 13.40077209472656 28.27759552001953 C 11.41236114501953 31.22083282470703 9.704666137695312 34.36693572998047 8.325119018554688 37.62852478027344 C 5.455177307128906 44.41384887695312 3.999992370605469 51.62397766113281 3.999992370605469 59.05859375 C 3.999992370605469 66.49320983886719 5.455177307128906 73.70333862304688 8.325119018554688 80.48866271972656 C 9.704666137695312 83.750244140625 11.41236114501953 86.89635467529297 13.40077209472656 89.83959197998047 C 15.37099456787109 92.75590515136719 17.63377380371094 95.49839782714844 20.12628173828125 97.99090576171875 C 22.61879730224609 100.4834136962891 25.36128234863281 102.7461929321289 28.27759552001953 104.7164154052734 C 31.22083282470703 106.704833984375 34.36693572998047 108.4125213623047 37.62852478027344 109.7920684814453 C 44.41384887695312 112.6620101928711 51.62397766113281 114.1171951293945 59.05859375 114.1171951293945 C 66.49320983886719 114.1171951293945 73.70333862304688 112.6620101928711 80.48866271972656 109.7920684814453 C 83.750244140625 108.4125213623047 86.89635467529297 106.704833984375 89.83959197998047 104.7164154052734 C 92.75590515136719 102.7461929321289 95.49839782714844 100.4834136962891 97.99090576171875 97.99090576171875 C 100.4834136962891 95.49839782714844 102.7461929321289 92.75590515136719 104.7164154052734 89.83959197998047 C 106.704833984375 86.89635467529297 108.4125213623047 83.750244140625 109.7920684814453 80.48866271972656 C 112.6620101928711 73.70333862304688 114.1171951293945 66.49320983886719 114.1171951293945 59.05859375 C 114.1171951293945 51.62397766113281 112.6620101928711 44.41384887695312 109.7920684814453 37.62852478027344 C 108.4125213623047 34.36693572998047 106.704833984375 31.22083282470703 104.7164154052734 28.27759552001953 C 102.7461929321289 25.36128234863281 100.4834136962891 22.61879730224609 97.99090576171875 20.12628173828125 C 95.49839782714844 17.63377380371094 92.75590515136719 15.37099456787109 89.83959197998047 13.40077209472656 C 86.89635467529297 11.41236114501953 83.750244140625 9.704666137695312 80.48866271972656 8.325119018554688 C 73.70333862304688 5.455177307128906 66.49320983886719 3.999992370605469 59.05859375 3.999992370605469 M 59.05859375 -7.62939453125e-06 C 91.67575836181641 -7.62939453125e-06 118.1171951293945 26.44142913818359 118.1171951293945 59.05859375 C 118.1171951293945 91.67575836181641 91.67575836181641 118.1171951293945 59.05859375 118.1171951293945 C 26.44142913818359 118.1171951293945 -7.62939453125e-06 91.67575836181641 -7.62939453125e-06 59.05859375 C -7.62939453125e-06 26.44142913818359 26.44142913818359 -7.62939453125e-06 59.05859375 -7.62939453125e-06 Z" stroke="none" fill="#53159b"/>
      </g>
    </g>
    <g id="Grupo_1198118" data-name="Grupo 1198118" transform="translate(199.572 574.871)">
      <path id="Trazado_1009324" data-name="Trazado 1009324" d="M185.121,209.182c.671,2.7,1.264,5.178,1.932,7.64.079.292.535.539.868.694a35.891,35.891,0,0,1,4.59,2.111c4.132,2.708,4.09,7.014-.019,9.763a18.272,18.272,0,0,1-8.761,2.8c-4.469.393-8.856.07-12.951-1.94a11.423,11.423,0,0,1-3.092-2.224,4.91,4.91,0,0,1,.073-7.212,12.289,12.289,0,0,1,5.8-3.175,1.626,1.626,0,0,0,1.336-1.369c.51-2.29,1.085-4.565,1.693-7.086h-1.652q-14.02,0-28.04,0c-2.1,0-2.477-.368-2.477-2.436q0-24.069,0-48.138c0-2.069.413-2.492,2.436-2.492h67.99c2.038,0,2.466.426,2.466,2.464q0,24.069,0,48.139c0,2.092-.37,2.464-2.45,2.465q-13.958,0-27.916,0Zm-7.96-12.39h37.084v-37.6H147.469v37.6h4.692c0-2.43-.041-4.779.009-7.125a7.557,7.557,0,0,1,7.8-7.729q4.652-.038,9.305,0a7.564,7.564,0,0,1,7.88,7.894C177.171,192.1,177.161,194.373,177.161,196.793Zm37.108,3.126H147.487v6.258H214.27Zm-40.161-3.071c0-2.849.128-5.573-.043-8.277a4.209,4.209,0,0,0-3.973-3.659c-3.636-.089-7.281-.125-10.913.021a3.708,3.708,0,0,0-3.732,3.108,76.961,76.961,0,0,0-.088,8.733h3.163c0-1.754-.006-3.438,0-5.122,0-.884.517-1.519,1.333-1.461a2.619,2.619,0,0,1,1.463,1.035c.217.258.135.791.139,1.2.013,1.434.005,2.868.005,4.353h6.442c0-1.625-.028-3.185.017-4.744a2.138,2.138,0,0,1,.389-1.364c.325-.317,1.121-.614,1.384-.435a2.512,2.512,0,0,1,1.087,1.569c.143,1.627.05,3.275.05,5.044h3.274Zm14.742,24-.2.25c.075.189.146.379.227.565.8,1.852.654,2.2-1.132,3.043a15.37,15.37,0,0,1-13.076.32c-2.532-1.062-2.668-1.284-1.635-3.811.022-.053-.029-.136-.1-.447a28.125,28.125,0,0,0-3.054,2.14,1.961,1.961,0,0,0-.015,3.152,8.416,8.416,0,0,0,2.327,1.6,22.107,22.107,0,0,0,13.72,1.223,11.858,11.858,0,0,0,5.616-2.458c1.469-1.264,1.492-2.632-.005-3.864A25.749,25.749,0,0,0,188.85,220.847Zm-12.891,1.492a11.763,11.763,0,0,0,9.648.07l-3.59-13.139h-2.489c-.506,2.277-.909,4.473-1.495,6.618S176.68,220.122,175.959,222.338Z" transform="translate(0)" fill="url(#linear-gradient)"/>
      <path id="Trazado_1009325" data-name="Trazado 1009325" d="M294.622,199.674a14.946,14.946,0,1,1,16.291,14.217A14.993,14.993,0,0,1,294.622,199.674Zm15.395,11.166c-.119-1.38-.26-2.691-.338-4.006-.085-1.434.4-1.934,1.83-2.048q1.6-.128,3.2-.323c.866-.106,1.148-.658.8-1.409a12.067,12.067,0,0,0-1.484-2.694c-1.762-2.131-1.416-4.492-.785-6.812a4.347,4.347,0,0,1,1.736-1.964,16.855,16.855,0,0,1,2.629-1.31c-2.459-2.537-7.252-3.937-9.761-2.9a.835.835,0,0,0,.127.2,1.884,1.884,0,0,0,.4.3c1.561.763,1.894,1.922,1.715,3.655a9.467,9.467,0,0,0,.788,4.29,8.884,8.884,0,0,1,.66,4.828c-.519,3.246-1.007,3.76-4.24,3.9-1.286.056-2.881.133-3.821-.53-1.65-1.163-3.248-.791-4.947-.819C299.271,207.166,304.963,211.53,310.017,210.839ZM297.67,200.205c1.47,0,2.881-.093,4.272.035a4.391,4.391,0,0,1,2.4.807,3.107,3.107,0,0,0,3.569.409c.576-.288.634-1.781.749-2.752.057-.482-.3-1.007-.441-1.52-.391-1.419-1.2-2.887-1.053-4.253.238-2.246-.972-3.193-2.54-4.11-.071-.041-.13-.136-.2-.14-.307-.022-.682-.139-.913-.009A11.779,11.779,0,0,0,297.67,200.205Zm22.02-7.48c-1.031.418-2.043.769-2.993,1.244a1.674,1.674,0,0,0-.808.979,4.461,4.461,0,0,0,.631,3.873,14.333,14.333,0,0,1,1.82,3.49c.853,2.345-.061,4.094-2.418,4.831-.974.3-1.992.467-3.127.725.045.8.092,1.631.14,2.484C319.694,208.806,324.193,199.991,319.689,192.725Z" transform="translate(-112.898 -21.035)" fill="url(#linear-gradient)"/>
      <path id="Trazado_1009326" data-name="Trazado 1009326" d="M210.527,197.555a7.587,7.587,0,1,1-7.58-7.511A7.509,7.509,0,0,1,210.527,197.555Zm-7.595,4.705a4.637,4.637,0,1,0,.106-9.273,4.637,4.637,0,1,0-.106,9.273Z" transform="translate(-38.29 -25.508)" fill="url(#linear-gradient)"/>
    </g>
  </g>
</svg>
