<svg xmlns="http://www.w3.org/2000/svg" xmlns:xlink="http://www.w3.org/1999/xlink" width="129.883" height="129.883" viewBox="0 0 129.883 129.883">
  <defs>
    <linearGradient id="linear-gradient" x1="0.595" y1="0.555" x2="0.205" y2="-0.406" gradientUnits="objectBoundingBox">
      <stop offset="0" stop-color="#0cebf3"/>
      <stop offset="1" stop-color="#3ef989"/>
    </linearGradient>
  </defs>
  <g id="Grupo_1198593" data-name="Grupo 1198593" transform="translate(-576.059 -669.059)">
    <g id="Grupo_1192986" data-name="Grupo 1192986" transform="translate(576.059 669.059)">
      <path id="Trazado_995327" data-name="Trazado 995327" d="M64.941,0A64.941,64.941,0,1,1,0,64.941,64.941,64.941,0,0,1,64.941,0Z" transform="translate(0)" fill="#1d0736"/>
    </g>
    <g id="Grupo_1198217" data-name="Grupo 1198217" transform="translate(374.865 627.612)">
      <path id="Trazado_1009668" data-name="Trazado 1009668" d="M267.531,88.985c2.808.125,4.744,1.27,5.545,3.891a7.293,7.293,0,0,1,.223,2.091q.022,11.345.01,22.69c0,2.769-.027,2.8-2.88,3.013,0,2.586-.045,5.186.013,7.785.055,2.459.051,4.834-2.6,6.154-.2.1-.28.615-.281.937-.018,4.821.007,9.642-.032,14.463a1.188,1.188,0,0,0,.971,1.325c1.181.366,2.362.735,3.531,1.138.885.305,1.528.89,1.179,1.891-.326.938-1.077,1.178-2.046.844-1.711-.591-3.436-1.142-5.164-1.681-1.093-.341-1.329-1.129-1.325-2.158.02-5.131-.005-10.261.023-15.392a1.77,1.77,0,0,0-.934-1.811,4.021,4.021,0,0,1-1.955-3.688c0-2.292,0-4.584,0-6.954h-2.883c0,2.055-.05,4.122.014,6.184a4.828,4.828,0,0,1-2.414,4.8c-.314.182-.453.888-.456,1.353-.032,5.131-.054,10.262,0,15.392a2.1,2.1,0,0,1-1.725,2.4c-1.616.443-3.2,1.006-4.785,1.555-.894.309-1.623.15-1.973-.741a1.4,1.4,0,0,1,1.029-1.963c1.166-.41,2.352-.766,3.534-1.127a1.257,1.257,0,0,0,1.044-1.4c-.045-4.777-.009-9.554-.045-14.33a1.572,1.572,0,0,0-.527-1.179,4.674,4.674,0,0,1-2.329-4.455c.017-2.654,0-5.308,0-7.961v-1.407c-2.728-.107-2.859-.248-2.86-2.907q0-10.151,0-20.3V95.685h-3.389c-3.008,0-6.016.005-9.023,0-2.981-.007-4.818-1.643-4.812-4.269.006-2.553,1.818-4.192,4.7-4.259.261-.006.522-.028,1-.055V84.753c0-2.7.008-5.4,0-8.094,0-1.043.251-1.931,1.485-1.9,1.133.027,1.4.849,1.4,1.856-.018,3.848,0,7.7-.014,11.544-.006,1.364-.464,1.8-1.845,1.839-.8.022-1.593,0-2.388.021a1.311,1.311,0,0,0-1.438,1.393,1.263,1.263,0,0,0,1.411,1.4c4.158.011,8.316.017,12.473-.012a1.062,1.062,0,0,0,.793-.487,5.442,5.442,0,0,1,5.16-3.295c.024-.1.086-.218.056-.251A11.131,11.131,0,0,1,250.3,80.42c.042-1.015.041-2.036,0-3.051-.182-4.567,1.576-8.065,5.758-10.336a5.423,5.423,0,0,1-1.243-5.1,7.469,7.469,0,0,1,1.994-3.171,5.538,5.538,0,0,1,7.3.066c2.3,1.949,2.55,4.76.814,7.976a50.438,50.438,0,0,1,3.731,3.721,8.256,8.256,0,0,1,1.756,5.185c.042,2.122.028,4.246.009,6.369A10.49,10.49,0,0,1,267.531,88.985Zm-11.4,22.856h8.457V92.016h-8.457Zm-2.952,13.276c0,1.591.009,3.182,0,4.773-.008,1.037.078,2.083,1.414,2.1,1.318.018,1.479-.971,1.47-2.043-.022-2.563-.013-5.127,0-7.69.006-1.921.581-2.289,2.436-1.981a11.241,11.241,0,0,0,3.638.021c1.972-.33,2.54,0,2.553,1.986.017,2.652-.014,5.3.016,7.955.014,1.28.768,2,1.75,1.74.962-.257,1.1-1.026,1.1-1.876,0-3.05-.033-6.1.017-9.148a3.375,3.375,0,0,0-1.021-2.822,6.726,6.726,0,0,1-1.453-2.476,1.1,1.1,0,0,0-1.233-.859c-1.988.037-3.983.1-5.964-.019-1.376-.085-2.286.182-2.554,1.68a1.743,1.743,0,0,1-.595,1.013c-1.8,1.335-1.65,3.23-1.576,5.125C253.206,123.435,253.178,124.276,253.179,125.116Zm.173-45.621c-.634,3.717.5,6.773,3.14,8.39a6.94,6.94,0,0,0,7.875-.081c2.561-1.645,3.683-4.776,3-8.309a26.048,26.048,0,0,1-3.512-.043,3.457,3.457,0,0,1-1.965-.977c-1.054-1.164-2.019-1.164-3.056.026a3.163,3.163,0,0,1-1.84.951A28.994,28.994,0,0,1,253.351,79.495Zm14.1-2.945a7.088,7.088,0,1,0-14.139-.033c1.564.019,3.081.41,4.5-.951a3.81,3.81,0,0,1,5.016-.041C264.255,76.841,265.769,76.557,267.454,76.55Zm-14.339,26.888h-2.7v13.883c1.538-.647,2.617-1.707,2.661-3.128C253.189,110.639,253.115,107.079,253.115,103.439Zm14.623-.006c0,3.745-.106,7.437.056,11.117a3.309,3.309,0,0,0,2.52,2.794V103.433ZM263.2,63.209a2.748,2.748,0,0,0-2.813-2.847,2.827,2.827,0,1,0-.048,5.654A2.779,2.779,0,0,0,263.2,63.209Zm4.457,28.832v8.333h2.758c0-2.114.051-4.138-.017-6.157C270.346,92.721,269.332,91.954,267.656,92.04Zm-14.565,8.378V92.007c-1.593-.028-2.54.46-2.622,1.7-.147,2.215-.041,4.447-.041,6.707Z" transform="translate(0)" fill="url(#linear-gradient)"/>
      <path id="Trazado_1009669" data-name="Trazado 1009669" d="M423.572,199.5c1.4,0,2.628-.02,3.855.005,1.4.028,1.819.442,1.862,1.83.027.883.037,1.771-.021,2.652a4.223,4.223,0,0,1-4.309,4.149q-8.557.057-17.115,0a4.3,4.3,0,0,1-4.392-4.494q-.027-12.538,0-25.075c0-1.533.439-1.977,1.97-1.981q8.027-.018,16.054,0c1.705,0,2.1.4,2.1,2.128q.011,9.486,0,18.973Zm-17.192-19.963c-.028.376-.058.6-.058.814q0,11.465-.01,22.93c0,1.051.257,1.931,1.467,1.919,1.242-.012,1.445-.979,1.409-1.979-.156-4.276.5-3.7,3.841-3.72,2.505-.013,5.011,0,7.562,0V179.535Zm5.561,25.7H413.3q5.435,0,10.87,0c2.092,0,2.648-.769,2.046-2.813H412.134Z" transform="translate(-127.258 -87.537)" fill="url(#linear-gradient)"/>
      <path id="Trazado_1009670" data-name="Trazado 1009670" d="M410.77,99.768c2.743-2.788,5.434-5.593,8.2-8.319a4.291,4.291,0,1,1,6.261,5.869q-5.814,5.9-11.744,11.694A4.2,4.2,0,0,1,407.7,109c-1.016-.917-1.973-1.9-2.92-2.891a4.271,4.271,0,0,1-.444-5.776,4.33,4.33,0,0,1,5.835-.881C410.286,99.518,410.4,99.574,410.77,99.768Zm-.137,7.579a6.7,6.7,0,0,0,1.135-.66c.661-.583,1.27-1.224,1.895-1.848,3.061-3.054,6.129-6.1,9.174-9.172,1.043-1.052.808-2.505-.445-2.625a2.5,2.5,0,0,0-1.687.753c-2.727,2.638-5.394,5.337-8.082,8.016-1.817,1.811-1.819,1.811-3.841.19a1.392,1.392,0,0,0-2.022-.013,1.29,1.29,0,0,0-.019,1.993c.912.958,1.849,1.895,2.814,2.8A4.771,4.771,0,0,0,410.633,107.347Z" transform="translate(-127.239 -23.98)" fill="url(#linear-gradient)"/>
      <path id="Trazado_1009671" data-name="Trazado 1009671" d="M429.573,222.475c-.927,0-1.855.022-2.781-.006a1.36,1.36,0,0,1-1.489-1.36,1.329,1.329,0,0,1,1.357-1.492,45.53,45.53,0,0,1,5.819.043c.5.044,1.212.891,1.315,1.461.152.84-.583,1.315-1.441,1.345C431.428,222.5,430.5,222.474,429.573,222.475Z" transform="translate(-143.318 -119.104)" fill="url(#linear-gradient)"/>
      <path id="Trazado_1009672" data-name="Trazado 1009672" d="M429.649,241.413c.927,0,1.854-.023,2.78.007.879.029,1.549.541,1.384,1.387-.1.539-.786,1.332-1.259,1.369a52.839,52.839,0,0,1-5.95.043,1.2,1.2,0,0,1-1.238-1.517,2.147,2.147,0,0,1,1.382-1.234A13.84,13.84,0,0,1,429.649,241.413Z" transform="translate(-143.328 -135.132)" fill="url(#linear-gradient)"/>
      <path id="Trazado_1009673" data-name="Trazado 1009673" d="M429.678,201.046c-.97,0-1.94.01-2.91,0a1.393,1.393,0,1,1-.052-2.785q2.843-.038,5.687,0a1.316,1.316,0,0,1,1.458,1.372c.013.975-.606,1.408-1.538,1.42-.882.011-1.764,0-2.646,0Z" transform="translate(-143.333 -103.452)" fill="url(#linear-gradient)"/>
    </g>
  </g>
</svg>
