<svg xmlns="http://www.w3.org/2000/svg" width="107" height="107" viewBox="0 0 107 107">
  <g id="Grupo_1198593" data-name="Grupo 1198593" transform="translate(-1057 -1561)">
    <g id="Grupo_156312" data-name="Grupo 156312" transform="translate(768.332 -2887.437)">
      <path id="Elipse_5845" data-name="Elipse 5845" d="M53.5,0A53.5,53.5,0,1,1,0,53.5,53.5,53.5,0,0,1,53.5,0Z" transform="translate(288.668 4448.437)" fill="#e2e2e0"/>
    </g>
    <g id="Grupo_1198198" data-name="Grupo 1198198" transform="translate(777.542 1512.385)">
      <path id="Trazado_1009512" data-name="Trazado 1009512" d="M417.376,107.821h4.367c.675,0,1.352-.027,2.026.008a3.331,3.331,0,0,1,2.926,4.837c-.079.172-.17.337-.247.489,1.7,2.2,1.7,3.476-.027,5.444a3.485,3.485,0,0,1-1.008,4.923c.069.234.147.47.208.71a3.089,3.089,0,0,1-2.876,4c-3.463.218-6.928.4-10.393.583a20.638,20.638,0,0,1-7.221-.986,11.7,11.7,0,0,0-1.215-.292,1.311,1.311,0,0,0-1.2.352,3.259,3.259,0,0,1-1.705.719,34.2,34.2,0,0,1-3.76.027,2.245,2.245,0,0,1-2.332-2.4c-.022-1.254-.014-2.508,0-3.762.008-.809.4-1.294.986-1.282s.952.5.96,1.31c.011,1.125.026,2.252-.005,3.376-.018.632.229.858.852.834.931-.036,1.867-.045,2.8,0,.72.036.949-.234.944-.946-.026-3.955-.012-7.911-.012-11.866,0-1.029-.018-2.059.006-3.087.012-.541-.206-.751-.741-.74-1.029.02-2.059.028-3.087,0-.614-.018-.762.269-.757.821.017,2.283.008,4.567.006,6.85,0,.257.082.587-.044.755-.245.327-.609.776-.927.779s-.637-.48-.952-.753c-.018-.016-.014-.062-.014-.093,0-2.8-.033-5.6.038-8.391a2.044,2.044,0,0,1,2-1.882c1.444-.057,2.895-.058,4.338.012a4.3,4.3,0,0,1,1.3.546c.223.1.476.291.675.249,2.329-.488,4.469-1.324,5.629-3.608a12.162,12.162,0,0,0,.963-5.743c-.005-.739-.105-1.476-.117-2.215a1.97,1.97,0,0,1,2.06-2.158c2.644-.137,4.549,1.415,5.282,4.242a23.129,23.129,0,0,1,.326,7.764C417.415,107.4,417.4,107.557,417.376,107.821Zm-13.942,17.515a24.18,24.18,0,0,0,12.946,1.107,7.361,7.361,0,0,1-.194-1.422,8.5,8.5,0,0,1,.324-1.473c-1.561-1.373-2.186-2.881-.78-5.21l-.882-1.4c-.893.416-1.748.851-2.633,1.212a.865.865,0,0,1-1.207-.483.927.927,0,0,1,.494-1.289,2.721,2.721,0,0,1,.356-.147,4.863,4.863,0,0,0,3.451-4.434c.073-.7.024-1.412.039-2.119.016-.735.043-1.47.062-2.205.049-1.894.218-3.8.1-5.678a9.361,9.361,0,0,0-.956-3.288,2.259,2.259,0,0,0-2.871-1.148c0,1.713.109,3.452-.023,5.173a8.2,8.2,0,0,1-4.84,7.337,35.333,35.333,0,0,1-3.386,1.183Zm17.857-10.8c-1.026,0-2.053-.017-3.079.005a1.365,1.365,0,1,0-.035,2.719q3.031.036,6.063,0a1.363,1.363,0,0,0,1.5-1.4c-.019-.8-.607-1.311-1.56-1.327S422.253,114.533,421.291,114.534Zm-.37,7.492c.867,0,1.735.025,2.6-.007a1.407,1.407,0,1,0,.035-2.8c-1.7-.034-3.4-.032-5.106,0a1.408,1.408,0,1,0-.035,2.807C419.25,122.054,420.086,122.026,420.921,122.026Zm.384-9.452h2.115c.064,0,.128,0,.192,0a1.434,1.434,0,0,0,1.479-1.338,1.4,1.4,0,0,0-1.453-1.462q-2.258-.062-4.518,0a1.4,1.4,0,0,0-1.474,1.438c.019.8.589,1.325,1.545,1.36C419.894,112.593,420.6,112.572,421.3,112.574Zm-.388,13.731c.544,0,1.09.03,1.632-.007a1.2,1.2,0,0,0,1.252-1.191c-.011-.669-.483-1.1-1.288-1.112q-1.536-.029-3.072,0a1.172,1.172,0,0,0-1.306,1.1,1.223,1.223,0,0,0,1.248,1.2C419.89,126.336,420.4,126.3,420.917,126.305Z" transform="translate(-78.349 -25.516)"/>
      <path id="Trazado_1009513" data-name="Trazado 1009513" d="M552.276,294.244a34.4,34.4,0,0,1,3.526,2.192,11.382,11.382,0,0,1,4.536,9.365c-.005.868.016,1.738-.007,2.605-.021.808-.311,1.111-1.11,1.137-.9.029-1.8.029-2.7,0-.706-.024-1.064-.392-1.05-.989.013-.58.386-.916,1.1-.943.572-.021,1.145,0,1.7,0a9.937,9.937,0,0,0-7.807-11.55c.1,1.2.186,2.376.295,3.552.112,1.216.293,2.429.343,3.647a2.67,2.67,0,0,1-.39,1.415c-.595.975-1.289,1.889-2.018,2.935,1.256,0,2.4-.008,3.551,0,.827.008,1.3.362,1.317.948s-.461.991-1.274.992c-4.986.008-9.972,0-14.958.007-.668,0-1.2-.243-1.227-.943-.124-2.772-.139-5.53,1.206-8.1,1.514-2.886,3.3-4.509,7.007-6.19a6.3,6.3,0,0,1-2.278-6.109,5.94,5.94,0,0,1,2.295-3.787,6.3,6.3,0,0,1,8.555.7C554.772,287.2,555.656,291,552.276,294.244Zm-14.124,13.313h9.6c-.724-1.023-1.442-1.962-2.068-2.96a2.371,2.371,0,0,1-.358-1.335c.116-1.632.329-3.258.5-4.887.078-.756.137-1.515.2-2.279C541.45,296.123,537.318,302.139,538.153,307.557Zm10.077-22.515a4.252,4.252,0,0,0-4.326,4.319,4.3,4.3,0,0,0,4.323,4.346,4.333,4.333,0,1,0,0-8.666Zm.023,19.716c.955-1.234.958-1.235.835-2.513q-.278-2.88-.569-5.759a6.85,6.85,0,0,0-.171-.785.837.837,0,0,0-.347.592c-.208,2.047-.337,4.105-.638,6.138A2.51,2.51,0,0,0,548.252,304.758Z" transform="translate(-192.239 -177.09)"/>
      <path id="Trazado_1009514" data-name="Trazado 1009514" d="M299.6,307.558h9.85c-.7-1-1.39-1.912-1.985-2.885a2.572,2.572,0,0,1-.395-1.413c.13-1.924.355-3.841.539-5.761.042-.444.055-.891.1-1.583a12.527,12.527,0,0,0-2.2.819,31.142,31.142,0,0,0-2.958,2.13c-.477.373-.913.621-1.458.2-.517-.4-.5-.976.073-1.581a12.162,12.162,0,0,1,4.289-2.882c.147-.06.3-.115.572-.221a6.472,6.472,0,0,1-2.316-6.036,6.2,6.2,0,0,1,2.452-4.016,6.317,6.317,0,0,1,8.345.71c2.429,2.541,2.235,5.861-.521,9.273a30.627,30.627,0,0,1,2.9,1.639,11.774,11.774,0,0,1,5.209,9.918c.01.772.013,1.544,0,2.316-.021,1.061-.324,1.363-1.407,1.366-3.217.008-6.435,0-9.652,0q-5.839,0-11.679,0c-1.307,0-1.533-.22-1.528-1.5.008-2.085-.18-4.191.63-6.194a2.939,2.939,0,0,1,.258-.619.9.9,0,0,1,1.147-.444.93.93,0,0,1,.621,1.158,11.9,11.9,0,0,0-.379,1.189C299.914,304.565,299.777,306,299.6,307.558Zm20.4,0c.841-5.4-3.3-11.437-7.809-11.461a1.562,1.562,0,0,0-.046.361c.214,2.107.4,4.218.67,6.319a2.655,2.655,0,0,1-.529,2.149c-.645.818-1.206,1.7-1.856,2.632Zm-5.75-18.18a4.254,4.254,0,0,0-4.311-4.336,4.333,4.333,0,1,0,4.311,4.336Zm-4.185,15.447c.291-.609.8-1.176.776-1.717-.1-1.987-.371-3.965-.585-5.946-.052-.486-.131-.97-.2-1.455l-.251-.011c-.06.326-.141.651-.175.98-.187,1.823-.32,3.652-.557,5.467A2.659,2.659,0,0,0,310.072,304.828Z" transform="translate(0 -177.093)"/>
      <path id="Trazado_1009515" data-name="Trazado 1009515" d="M411.083,283.009a12.349,12.349,0,0,1-5.432,5.227,16.91,16.91,0,0,1-3.3.983c-.793.177-1.328-.19-1.423-.774s.33-1,1.148-1.123a9.877,9.877,0,0,0,7.3-5.276c-.108-.041-.169-.089-.219-.079-.969.209-1.4.07-1.615-.528-.186-.528.111-.962.927-1.349.87-.412,1.735-.836,2.614-1.228.853-.381,1.417-.076,1.586.881.19,1.074.332,2.158.486,3.238a.923.923,0,0,1-.65,1.136.88.88,0,0,1-1.2-.633C411.257,283.368,411.2,283.259,411.083,283.009Z" transform="translate(-83.196 -173.563)"/>
      <path id="Trazado_1009516" data-name="Trazado 1009516" d="M497.417,282.974c-.125.32-.144.567-.271.651a2.166,2.166,0,0,1-1.035.485.8.8,0,0,1-.765-.94c.141-1.243.319-2.485.572-3.709a.92.92,0,0,1,1.411-.652c.941.41,1.864.861,2.794,1.3.553.259,1.046.58.847,1.3-.161.588-.608.732-1.505.557a1.687,1.687,0,0,0-.349.02,9.935,9.935,0,0,0,7.211,5.306c.095.015.193.01.288.029.665.13,1.076.57.964,1.093a.946.946,0,0,1-1.213.807,19.415,19.415,0,0,1-3.493-1A12.268,12.268,0,0,1,497.417,282.974Z" transform="translate(-159.392 -173.548)"/>
      <path id="Trazado_1009517" data-name="Trazado 1009517" d="M430.011,120.333c.447,0,.894-.019,1.34,0a.86.86,0,0,1,.9.915.891.891,0,0,1-.926,1c-.86.037-1.724.034-2.584,0a.962.962,0,1,1,.025-1.925c.414-.014.83,0,1.245,0Z" transform="translate(-104.885 -45.76)"/>
      <path id="Trazado_1009518" data-name="Trazado 1009518" d="M484.548,65.858c0-.447-.029-.9.007-1.34a.9.9,0,0,1,.933-.9.865.865,0,0,1,.962.863,26.647,26.647,0,0,1,0,2.775.865.865,0,0,1-.966.858.906.906,0,0,1-.927-.913C484.521,66.754,484.549,66.3,484.548,65.858Z" transform="translate(-150.675)"/>
      <path id="Trazado_1009519" data-name="Trazado 1009519" d="M530.392,120.331c.416,0,.833-.017,1.249,0a.9.9,0,0,1,.965.971.889.889,0,0,1-.9.944,26.571,26.571,0,0,1-2.688,0,.957.957,0,0,1,.026-1.913C529.495,120.313,529.944,120.331,530.392,120.331Z" transform="translate(-185.83 -45.761)"/>
      <path id="Trazado_1009520" data-name="Trazado 1009520" d="M518.374,80.218c.782.023,1.32.829.9,1.355a15.828,15.828,0,0,1-2.223,2.233.93.93,0,0,1-1.262-1.24,27.417,27.417,0,0,1,2.221-2.239C518.108,80.232,518.3,80.237,518.374,80.218Z" transform="translate(-175.831 -13.398)"/>
      <path id="Trazado_1009521" data-name="Trazado 1009521" d="M445.463,80.209c.832.007,3.051,2.212,2.951,2.816a1.213,1.213,0,0,1-.54.812,1.083,1.083,0,0,1-.962-.1,15.781,15.781,0,0,1-1.967-1.952,1.262,1.262,0,0,1-.112-1.052C444.926,80.471,445.323,80.317,445.463,80.209Z" transform="translate(-118.586 -13.39)"/>
    </g>
  </g>
</svg>
