<svg xmlns="http://www.w3.org/2000/svg" xmlns:xlink="http://www.w3.org/1999/xlink" width="118.117" height="118.117" viewBox="0 0 118.117 118.117">
  <defs>
    <linearGradient id="linear-gradient" x1="0.5" x2="0.446" y2="0.796" gradientUnits="objectBoundingBox">
      <stop offset="0" stop-color="#3ef989"/>
      <stop offset="1" stop-color="#045e61"/>
    </linearGradient>
  </defs>
  <g id="Grupo_1198594" data-name="Grupo 1198594" transform="translate(-1156.941 -706.941)">
    <g id="Grupo_1192986" data-name="Grupo 1192986" transform="translate(1156.941 706.941)">
      <g id="Trazado_995327" data-name="Trazado 995327" transform="translate(0)" fill="#fff">
        <path d="M 59.05859375 116.1171951293945 C 51.35486221313477 116.1171951293945 43.88261032104492 114.6088409423828 36.84942626953125 111.6340637207031 C 33.46891021728516 110.2042236328125 30.20824432373047 108.4343566894531 27.15799331665039 106.3736572265625 C 24.13620948791504 104.3321914672852 21.29459381103516 101.9876251220703 18.71207618713379 99.40511322021484 C 16.12957763671875 96.82259368896484 13.78501033782959 93.98097991943359 11.74354362487793 90.95919036865234 C 9.682826995849609 87.90895843505859 7.91297721862793 84.64827728271484 6.48314380645752 81.26776123046875 C 3.508343696594238 74.23457336425781 2.00001049041748 66.7623291015625 2.00001049041748 59.05859375 C 2.00001049041748 51.35486221313477 3.508343696594238 43.88261032104492 6.48314380645752 36.84942626953125 C 7.91297721862793 33.46891021728516 9.682826995849609 30.20824432373047 11.74354362487793 27.15799331665039 C 13.78501033782959 24.13620948791504 16.12957763671875 21.29459381103516 18.71207618713379 18.71207618713379 C 21.29459381103516 16.12957763671875 24.13620948791504 13.78501033782959 27.15799331665039 11.74354362487793 C 30.20824432373047 9.682826995849609 33.46891021728516 7.91297721862793 36.84942626953125 6.48314380645752 C 43.88261032104492 3.508343696594238 51.35486221313477 2.00001049041748 59.05859375 2.00001049041748 C 66.7623291015625 2.00001049041748 74.23457336425781 3.508343696594238 81.26776123046875 6.48314380645752 C 84.64827728271484 7.91297721862793 87.90895843505859 9.682826995849609 90.95919036865234 11.74354362487793 C 93.98097991943359 13.78501033782959 96.82259368896484 16.12957763671875 99.40511322021484 18.71207618713379 C 101.9876251220703 21.29459381103516 104.3321914672852 24.13620948791504 106.3736572265625 27.15799331665039 C 108.4343566894531 30.20824432373047 110.2042236328125 33.46891021728516 111.6340637207031 36.84942626953125 C 114.6088409423828 43.88261032104492 116.1171951293945 51.35486221313477 116.1171951293945 59.05859375 C 116.1171951293945 66.7623291015625 114.6088409423828 74.23457336425781 111.6340637207031 81.26776123046875 C 110.2042236328125 84.64827728271484 108.4343566894531 87.90895843505859 106.3736572265625 90.95919036865234 C 104.3321914672852 93.98097991943359 101.9876251220703 96.82259368896484 99.40511322021484 99.40511322021484 C 96.82259368896484 101.9876251220703 93.98097991943359 104.3321914672852 90.95919036865234 106.3736572265625 C 87.90895843505859 108.4343566894531 84.64827728271484 110.2042236328125 81.26776123046875 111.6340637207031 C 74.23457336425781 114.6088409423828 66.7623291015625 116.1171951293945 59.05859375 116.1171951293945 Z" stroke="none"/>
        <path d="M 59.05859375 3.999992370605469 C 51.62397766113281 3.999992370605469 44.41384887695312 5.455177307128906 37.62852478027344 8.325119018554688 C 34.36693572998047 9.704666137695312 31.22083282470703 11.41236114501953 28.27759552001953 13.40077209472656 C 25.36128234863281 15.37099456787109 22.61879730224609 17.63377380371094 20.12628173828125 20.12628173828125 C 17.63377380371094 22.61879730224609 15.37099456787109 25.36128234863281 13.40077209472656 28.27759552001953 C 11.41236114501953 31.22083282470703 9.704666137695312 34.36693572998047 8.325119018554688 37.62852478027344 C 5.455177307128906 44.41384887695312 3.999992370605469 51.62397766113281 3.999992370605469 59.05859375 C 3.999992370605469 66.49320983886719 5.455177307128906 73.70333862304688 8.325119018554688 80.48866271972656 C 9.704666137695312 83.750244140625 11.41236114501953 86.89635467529297 13.40077209472656 89.83959197998047 C 15.37099456787109 92.75590515136719 17.63377380371094 95.49839782714844 20.12628173828125 97.99090576171875 C 22.61879730224609 100.4834136962891 25.36128234863281 102.7461929321289 28.27759552001953 104.7164154052734 C 31.22083282470703 106.704833984375 34.36693572998047 108.4125213623047 37.62852478027344 109.7920684814453 C 44.41384887695312 112.6620101928711 51.62397766113281 114.1171951293945 59.05859375 114.1171951293945 C 66.49320983886719 114.1171951293945 73.70333862304688 112.6620101928711 80.48866271972656 109.7920684814453 C 83.750244140625 108.4125213623047 86.89635467529297 106.704833984375 89.83959197998047 104.7164154052734 C 92.75590515136719 102.7461929321289 95.49839782714844 100.4834136962891 97.99090576171875 97.99090576171875 C 100.4834136962891 95.49839782714844 102.7461929321289 92.75590515136719 104.7164154052734 89.83959197998047 C 106.704833984375 86.89635467529297 108.4125213623047 83.750244140625 109.7920684814453 80.48866271972656 C 112.6620101928711 73.70333862304688 114.1171951293945 66.49320983886719 114.1171951293945 59.05859375 C 114.1171951293945 51.62397766113281 112.6620101928711 44.41384887695312 109.7920684814453 37.62852478027344 C 108.4125213623047 34.36693572998047 106.704833984375 31.22083282470703 104.7164154052734 28.27759552001953 C 102.7461929321289 25.36128234863281 100.4834136962891 22.61879730224609 97.99090576171875 20.12628173828125 C 95.49839782714844 17.63377380371094 92.75590515136719 15.37099456787109 89.83959197998047 13.40077209472656 C 86.89635467529297 11.41236114501953 83.750244140625 9.704666137695312 80.48866271972656 8.325119018554688 C 73.70333862304688 5.455177307128906 66.49320983886719 3.999992370605469 59.05859375 3.999992370605469 M 59.05859375 -7.62939453125e-06 C 91.67575836181641 -7.62939453125e-06 118.1171951293945 26.44142913818359 118.1171951293945 59.05859375 C 118.1171951293945 91.67575836181641 91.67575836181641 118.1171951293945 59.05859375 118.1171951293945 C 26.44142913818359 118.1171951293945 -7.62939453125e-06 91.67575836181641 -7.62939453125e-06 59.05859375 C -7.62939453125e-06 26.44142913818359 26.44142913818359 -7.62939453125e-06 59.05859375 -7.62939453125e-06 Z" stroke="none" fill="#53159b"/>
      </g>
    </g>
    <g id="Grupo_1198120" data-name="Grupo 1198120" transform="translate(987.91 639.074)">
      <path id="Trazado_1009340" data-name="Trazado 1009340" d="M247.858,145.78c-.436-.768-.806-1.511-1.273-2.187a1.1,1.1,0,0,0-.835-.318,4.04,4.04,0,0,1-4.145-2.054c-.111-.2-.555-.311-.845-.311q-12.7-.024-25.4.009a1.291,1.291,0,0,0-.928.513,3.546,3.546,0,0,1-3.357,1.8c-.989-.058-1.632.175-1.963,1.18a6.433,6.433,0,0,1-.843,1.318c.293.123.552.247.821.343a8.174,8.174,0,0,1,5.768,7.95c.026,1.472.017,2.944,0,4.416-.011,1.185-.369,1.537-1.579,1.538q-10.39.008-20.781,0c-1.158,0-1.557-.411-1.565-1.576-.01-1.539-.028-3.079.009-4.617a8.328,8.328,0,0,1,5.544-7.632l1.037-.365c-.425-.761-.788-1.5-1.25-2.181-.143-.21-.545-.29-.844-.339a12.583,12.583,0,0,1-2.263-.316,3.292,3.292,0,0,1-2.21-2.97,3.214,3.214,0,0,1,1.592-3.238,1.429,1.429,0,0,0,.79-1.525c-.05-.934-.025-1.873-.007-2.81a5.836,5.836,0,0,1,5.415-5.811,80.3,80.3,0,0,1,8.327,0,5.788,5.788,0,0,1,5.386,5.412,16.528,16.528,0,0,1,.041,1.905,3.937,3.937,0,0,0,1.234,3.364,4,4,0,0,0,3.27,1.209c2.878-.019,5.756-.006,8.634-.006H226.8v-2.4h-4.857c-2.078,0-2.271-.2-2.271-2.3,0-.794,0-1.589,0-2.492h-2.316v-2.373h2.258v-2.381h-2.255v-2.366l2.18-.1c.336-1.691.326-1.714-1.1-2.538a19.21,19.21,0,1,1,19.237-.011,1.952,1.952,0,0,0-1.061,2.582H238.8V126.5h-2.232v2.378h2.23v2.374h-2.3c0,1.068,0,2.023,0,2.979-.006,1.5-.352,1.852-1.813,1.856-1.739,0-3.478,0-5.3,0v2.4h1.789c3.146,0,6.291-.009,9.437.009a1.121,1.121,0,0,0,1.21-.632,2.067,2.067,0,0,1,.85-.956c.983-.45,1.011-1.211,1.013-2.128a17.564,17.564,0,0,1,.3-3.975,5.5,5.5,0,0,1,5.057-4.2c2.8-.126,5.625-.15,8.427,0a5.821,5.821,0,0,1,5.37,5.747c.015.568.031,1.139,0,1.706-.062,1.238-.06,2.281,1.267,3.119a2.925,2.925,0,0,1,.952,3.531,2.988,2.988,0,0,1-2.763,2.4,3.211,3.211,0,0,0-3.4,2.162,3.375,3.375,0,0,1-.3.467c.324.131.588.248.859.345a8.311,8.311,0,0,1,5.782,8.064q.019,2.158,0,4.316c-.012,1.093-.427,1.511-1.528,1.513q-10.44.012-20.881,0c-1.146,0-1.5-.361-1.514-1.5-.016-1.372-.011-2.743,0-4.115a8.265,8.265,0,0,1,5.923-8.354C247.432,145.935,247.641,145.858,247.858,145.78Zm-13.772-21.72a6.9,6.9,0,0,0-.007-1.022c-.288-1.695.442-2.566,1.987-3.369a16.589,16.589,0,0,0,8.275-18.8,16.769,16.769,0,1,0-32.395,8.675,16.573,16.573,0,0,0,8.992,10.584,1.706,1.706,0,0,1,1.152,1.859c-.054.68-.011,1.368-.011,2.07Zm-38.3,33.5v-2.309h2.362v2.34c2.929,0,5.762,0,8.594,0,.292,0,.584-.032,1.013-.058v-2.271h2.375v2.271h2.255c.855-4.5-.58-7.954-3.782-9.012-.27,1.38-.524,2.753-.811,4.119s-1.08,1.7-2.24.96c-.676-.431-1.362-.85-2-1.331a.887.887,0,0,0-1.241-.013c-.694.52-1.429.987-2.166,1.445a1.223,1.223,0,0,1-2.029-.845c-.066-.258-.1-.525-.151-.787-.246-1.186-.495-2.372-.748-3.581-4,1.709-4.227,5.029-3.706,9.076Zm63.256-9.03c-.09.114-.155.16-.166.217q-.37,1.866-.729,3.734c-.3,1.552-1.195,2.028-2.357,1.015-1.757-1.532-3.249-1.632-5.041-.026-1.2,1.073-2.087.581-2.405-1.049-.254-1.3-.517-2.6-.78-3.914-3.908,1.526-4.235,4.808-3.768,9.028h2.291V155.25h2.381v2.283h9.527c.036-.8.069-1.552.1-2.285h2.338v2.271h2.3C263.4,152.683,262.2,149.773,259.039,148.532Zm1.371-12.668c0-1.193.012-2.222,0-3.251a3.5,3.5,0,0,0-3.54-3.689c-2.4-.079-4.812-.064-7.216-.005a3.413,3.413,0,0,0-3.463,2.771,43.219,43.219,0,0,0-.031,4.392c1.118,0,2.212.011,3.306,0a7.933,7.933,0,0,0,4.986-1.814,3.515,3.515,0,0,0,1.111-1.585c.232-.743.467-1.389,1.32-1.359s1.122.654,1.189,1.453A3.554,3.554,0,0,0,260.41,135.864Zm-64.616.144a23.5,23.5,0,0,0,4.337-.049c2.337-.452,4.678-1.1,5.341-3.955a1.24,1.24,0,0,1,1-.65,1.691,1.691,0,0,1,1.084.693,3.069,3.069,0,0,1,.254,1.158,3.614,3.614,0,0,0,2.278,2.668c0-1.2.018-2.221,0-3.245a3.493,3.493,0,0,0-3.534-3.7c-2.407-.081-4.819-.068-7.227,0a3.424,3.424,0,0,0-3.5,2.979C195.694,133.249,195.794,134.62,195.794,136.008Zm2.364,2.49a29.259,29.259,0,0,0,.016,3,4.766,4.766,0,0,0,5.471,4.082,4.221,4.221,0,0,0,3.771-3.281c.444-2.266,1.194-4.751-1.281-6.536A11.7,11.7,0,0,1,198.158,138.5Zm50.23.085a32.026,32.026,0,0,0,.2,3.225,4.723,4.723,0,0,0,4.417,3.845,4.654,4.654,0,0,0,4.707-3.192,32.264,32.264,0,0,0,.346-3.357,3.276,3.276,0,0,0-1.589-3.33C253.771,137.748,252.946,138.04,248.389,138.583Zm-26.273-4.943H234v-2.263H222.116Zm-.006-4.832h11.917v-2.181H222.11Zm-21.9,22.174c1.855-2.169,3.656-1.987,5.468-.049l.528-2.816H199.6Zm50.3.019c1.842-2.141,3.641-2.079,5.466-.079l.6-2.83h-6.62Zm-4.489-12.774a11.792,11.792,0,0,0-2.129.876,1.224,1.224,0,0,0,0,1.145,11.9,11.9,0,0,0,2.128.912ZM195.7,140.853v-2.6a11.687,11.687,0,0,0-2.125.821c-.193.119-.21.855-.042,1.163C194,141.092,194.857,140.908,195.7,140.853Zm14.451.332a12.264,12.264,0,0,0,2.147-.959c.186-.128.152-.86-.028-1.174-.479-.835-1.312-.558-2.119-.5Zm50.321-.334c.849.061,1.709.236,2.173-.626.167-.31.145-1.045-.049-1.163a11.612,11.612,0,0,0-2.124-.806Z" transform="translate(0 0)" fill="url(#linear-gradient)"/>
      <path id="Trazado_1009341" data-name="Trazado 1009341" d="M382.079,138.4c0-1.938-.014-3.876,0-5.813a4.69,4.69,0,0,1,4.549-4.87,4.749,4.749,0,0,1,5.031,4.511,1.5,1.5,0,0,0,.577.993,5.985,5.985,0,0,1,.037,10.376,1.634,1.634,0,0,0-.616,1.079,4.831,4.831,0,0,1-4.981,4.491,4.778,4.778,0,0,1-4.6-4.854c0-.067,0-.134,0-.2Q382.079,141.258,382.079,138.4Zm5.61-3.63c.154-.107.26-.179.365-.254a2.383,2.383,0,0,0-1.67-4.4,2.386,2.386,0,0,0-1.918,2.471c-.017.9,0,1.807,0,2.71,0,3.011-.015,6.022.009,9.032a2.406,2.406,0,0,0,2.383,2.465,2.235,2.235,0,0,0,2.287-2.247l-2.934-.866,1.208-2.047c2.63.676,4.384.043,5.146-1.818a3.5,3.5,0,0,0-1.646-4.53l-2.4,1.777Z" transform="translate(-152.784 -33.402)" fill="url(#linear-gradient)"/>
      <path id="Trazado_1009342" data-name="Trazado 1009342" d="M317.55,138.507c0,1.938.018,3.876-.005,5.813a4.769,4.769,0,0,1-9.529.346,1.3,1.3,0,0,0-.735-1.153,5.94,5.94,0,0,1,.034-10.234,1.621,1.621,0,0,0,.649-1.057,4.761,4.761,0,0,1,5.04-4.5,4.7,4.7,0,0,1,4.547,4.875c0,.067,0,.134,0,.2Q317.551,135.651,317.55,138.507Zm-7.127,6.052a2.355,2.355,0,0,0,2.453,2.237,2.462,2.462,0,0,0,2.288-2.666c.012-1.673,0-3.345,0-5.018,0-2.208.019-4.416-.011-6.624a2.389,2.389,0,0,0-4.756-.342,2.529,2.529,0,0,0,1.552,2.615l-.861,2.329-2.36-1.809a3.51,3.51,0,0,0-1.663,4.544c.763,1.858,2.5,2.484,5.161,1.811l1.178,2.077Z" transform="translate(-90.679 -33.403)" fill="url(#linear-gradient)"/>
    </g>
  </g>
</svg>
