<svg xmlns="http://www.w3.org/2000/svg" xmlns:xlink="http://www.w3.org/1999/xlink" width="118.117" height="118.117" viewBox="0 0 118.117 118.117">
  <defs>
    <linearGradient id="linear-gradient" x1="0.774" y1="0.952" x2="0.113" y2="-0.399" gradientUnits="objectBoundingBox">
      <stop offset="0" stop-color="#045e61"/>
      <stop offset="1" stop-color="#3ef989"/>
    </linearGradient>
  </defs>
  <g id="Grupo_1198592" data-name="Grupo 1198592" transform="translate(-320.883 -3987.062)">
    <g id="Grupo_1198577" data-name="Grupo 1198577">
      <g id="Grupo_1192986" data-name="Grupo 1192986" transform="translate(320.883 3987.062)">
        <g id="Trazado_995327" data-name="Trazado 995327" transform="translate(0)" fill="#fff">
          <path d="M 59.05859375 116.1171951293945 C 51.35486221313477 116.1171951293945 43.88261032104492 114.6088409423828 36.84942626953125 111.6340637207031 C 33.46891021728516 110.2042236328125 30.20824432373047 108.4343566894531 27.15799331665039 106.3736572265625 C 24.13620948791504 104.3321914672852 21.29459381103516 101.9876251220703 18.71207618713379 99.40511322021484 C 16.12957763671875 96.82259368896484 13.78501033782959 93.98097991943359 11.74354362487793 90.95919036865234 C 9.682826995849609 87.90895843505859 7.91297721862793 84.64827728271484 6.48314380645752 81.26776123046875 C 3.508343696594238 74.23457336425781 2.00001049041748 66.7623291015625 2.00001049041748 59.05859375 C 2.00001049041748 51.35486221313477 3.508343696594238 43.88261032104492 6.48314380645752 36.84942626953125 C 7.91297721862793 33.46891021728516 9.682826995849609 30.20824432373047 11.74354362487793 27.15799331665039 C 13.78501033782959 24.13620948791504 16.12957763671875 21.29459381103516 18.71207618713379 18.71207618713379 C 21.29459381103516 16.12957763671875 24.13620948791504 13.78501033782959 27.15799331665039 11.74354362487793 C 30.20824432373047 9.682826995849609 33.46891021728516 7.91297721862793 36.84942626953125 6.48314380645752 C 43.88261032104492 3.508343696594238 51.35486221313477 2.00001049041748 59.05859375 2.00001049041748 C 66.7623291015625 2.00001049041748 74.23457336425781 3.508343696594238 81.26776123046875 6.48314380645752 C 84.64827728271484 7.91297721862793 87.90895843505859 9.682826995849609 90.95919036865234 11.74354362487793 C 93.98097991943359 13.78501033782959 96.82259368896484 16.12957763671875 99.40511322021484 18.71207618713379 C 101.9876251220703 21.29459381103516 104.3321914672852 24.13620948791504 106.3736572265625 27.15799331665039 C 108.4343566894531 30.20824432373047 110.2042236328125 33.46891021728516 111.6340637207031 36.84942626953125 C 114.6088409423828 43.88261032104492 116.1171951293945 51.35486221313477 116.1171951293945 59.05859375 C 116.1171951293945 66.7623291015625 114.6088409423828 74.23457336425781 111.6340637207031 81.26776123046875 C 110.2042236328125 84.64827728271484 108.4343566894531 87.90895843505859 106.3736572265625 90.95919036865234 C 104.3321914672852 93.98097991943359 101.9876251220703 96.82259368896484 99.40511322021484 99.40511322021484 C 96.82259368896484 101.9876251220703 93.98097991943359 104.3321914672852 90.95919036865234 106.3736572265625 C 87.90895843505859 108.4343566894531 84.64827728271484 110.2042236328125 81.26776123046875 111.6340637207031 C 74.23457336425781 114.6088409423828 66.7623291015625 116.1171951293945 59.05859375 116.1171951293945 Z" stroke="none"/>
          <path d="M 59.05859375 3.999992370605469 C 51.62397766113281 3.999992370605469 44.41384887695312 5.455177307128906 37.62852478027344 8.325119018554688 C 34.36693572998047 9.704666137695312 31.22083282470703 11.41236114501953 28.27759552001953 13.40077209472656 C 25.36128234863281 15.37099456787109 22.61879730224609 17.63377380371094 20.12628173828125 20.12628173828125 C 17.63377380371094 22.61879730224609 15.37099456787109 25.36128234863281 13.40077209472656 28.27759552001953 C 11.41236114501953 31.22083282470703 9.704666137695312 34.36693572998047 8.325119018554688 37.62852478027344 C 5.455177307128906 44.41384887695312 3.999992370605469 51.62397766113281 3.999992370605469 59.05859375 C 3.999992370605469 66.49320983886719 5.455177307128906 73.70333862304688 8.325119018554688 80.48866271972656 C 9.704666137695312 83.750244140625 11.41236114501953 86.89635467529297 13.40077209472656 89.83959197998047 C 15.37099456787109 92.75590515136719 17.63377380371094 95.49839782714844 20.12628173828125 97.99090576171875 C 22.61879730224609 100.4834136962891 25.36128234863281 102.7461929321289 28.27759552001953 104.7164154052734 C 31.22083282470703 106.704833984375 34.36693572998047 108.4125213623047 37.62852478027344 109.7920684814453 C 44.41384887695312 112.6620101928711 51.62397766113281 114.1171951293945 59.05859375 114.1171951293945 C 66.49320983886719 114.1171951293945 73.70333862304688 112.6620101928711 80.48866271972656 109.7920684814453 C 83.750244140625 108.4125213623047 86.89635467529297 106.704833984375 89.83959197998047 104.7164154052734 C 92.75590515136719 102.7461929321289 95.49839782714844 100.4834136962891 97.99090576171875 97.99090576171875 C 100.4834136962891 95.49839782714844 102.7461929321289 92.75590515136719 104.7164154052734 89.83959197998047 C 106.704833984375 86.89635467529297 108.4125213623047 83.750244140625 109.7920684814453 80.48866271972656 C 112.6620101928711 73.70333862304688 114.1171951293945 66.49320983886719 114.1171951293945 59.05859375 C 114.1171951293945 51.62397766113281 112.6620101928711 44.41384887695312 109.7920684814453 37.62852478027344 C 108.4125213623047 34.36693572998047 106.704833984375 31.22083282470703 104.7164154052734 28.27759552001953 C 102.7461929321289 25.36128234863281 100.4834136962891 22.61879730224609 97.99090576171875 20.12628173828125 C 95.49839782714844 17.63377380371094 92.75590515136719 15.37099456787109 89.83959197998047 13.40077209472656 C 86.89635467529297 11.41236114501953 83.750244140625 9.704666137695312 80.48866271972656 8.325119018554688 C 73.70333862304688 5.455177307128906 66.49320983886719 3.999992370605469 59.05859375 3.999992370605469 M 59.05859375 -7.62939453125e-06 C 91.67575836181641 -7.62939453125e-06 118.1171951293945 26.44142913818359 118.1171951293945 59.05859375 C 118.1171951293945 91.67575836181641 91.67575836181641 118.1171951293945 59.05859375 118.1171951293945 C 26.44142913818359 118.1171951293945 -7.62939453125e-06 91.67575836181641 -7.62939453125e-06 59.05859375 C -7.62939453125e-06 26.44142913818359 26.44142913818359 -7.62939453125e-06 59.05859375 -7.62939453125e-06 Z" stroke="none" fill="#53159b"/>
        </g>
      </g>
      <g id="Grupo_1198574" data-name="Grupo 1198574" transform="translate(269.296 3917.739)">
        <path id="Trazado_1010233" data-name="Trazado 1010233" d="M117.763,160.911h-38.2c-2.031,0-2.191-.164-2.191-2.244q0-18.023-.02-36.046a4.86,4.86,0,0,0-.47-2.046,18.9,18.9,0,0,1,11.2-26.154c7.544-2.328,14.167-.567,19.767,5.006.145.145.28.3.427.443a1.4,1.4,0,0,0,.244.139l4.938-3.915,1.486,1.806-4.784,3.851c.838,2.3,1.607,4.472,2.443,6.617a1.122,1.122,0,0,0,.872.435c1.95.039,3.9.02,5.853.02q7.753,0,15.507,0c1.669,0,1.911.242,1.913,1.889,0,2.054-.027,4.109.028,6.161a1.443,1.443,0,0,0,.583,1.01,6.091,6.091,0,0,1,2.993,5.4c.008,1.466,0,2.931,0,4.372,3.457.791,4.869,2.126,4.757,4.424s-1.6,3.592-4.734,4.074c-.121,2.1-.648,4.194-2.31,5.5-1.932,1.523-1.208,3.422-1.253,5.221-.018.711.654,1.068,1.4,1.068.787,0,1.575-.011,2.362.013a5.752,5.752,0,0,1,5.654,5.531c.083,2.8.04,5.613.025,8.42-.006,1-.44,1.423-1.467,1.424q-12.734.016-25.468,0c-1.1,0-1.462-.394-1.507-1.483C117.8,161.582,117.782,161.314,117.763,160.911Zm-9.482-30.927c0-1.038-.074-2.035.015-3.017a2.947,2.947,0,0,1,4.66-2.186,3.086,3.086,0,0,1,1.239,2.772c-.022,6.366-.01,12.732-.01,19.1,0,.4,0,.8,0,1.282,4.061,0,7.989.023,11.917-.019.8-.008,1.182-.607,1.186-1.4,0-.958.057-1.921-.024-2.873a1.921,1.921,0,0,0-.556-1.185,8.442,8.442,0,0,1-2.728-4.366c-.163-.65-.23-1.325-.338-1.972-2.925-.294-4.488-1.6-4.659-3.88a3.5,3.5,0,0,1,1.252-3.217,17.272,17.272,0,0,1,2.934-1.473,5.351,5.351,0,0,1-3.872-3.98,27.263,27.263,0,0,1-.242-5.5c0-.307.64-.7,1.059-.878a3.342,3.342,0,0,1,1.22-.039h8.242v-1.175H112.706c-1.437,6.264-4.911,10.914-10.742,13.595s-11.657,2.256-17.359-.7v24.911h21.322v-1.181q0-9.6,0-19.2C105.927,131.216,106.188,130.824,108.281,129.984ZM92.807,95.968a16.35,16.35,0,0,0-15.389,17.025,16.607,16.607,0,0,0,18.327,15.9c7.676-.663,15.406-8.586,14.662-15.31H95.754c-2.947,0-2.947,0-2.947-2.961Zm15.547,42.549a2.686,2.686,0,0,0-.085.413c-.005,4.721,0,9.442-.021,14.163,0,.686.317.773.88.77,2.976-.016,5.952-.008,8.929-.007,1.918,0,2.061.142,2.062,2.024q0,2.492,0,4.979h23.809c0-2.237.007-4.418,0-6.6-.012-2.749-1.878-4.319-4.7-3.9-.016.319-.045.652-.046.985,0,1.882.048,3.765-.036,5.643a1.926,1.926,0,0,1-.737,1.4,1.712,1.712,0,0,1-1.435-.321c-1.485-1.094-2.916-2.264-4.336-3.444a.817.817,0,0,0-1.238.009c-1.208,1.006-2.43,2-3.683,2.948-.617.467-1.142,1.339-2.12.853s-.707-1.46-.716-2.283c-.023-1.937-.007-3.874-.007-5.905h-1.246q-4.978,0-9.955,0c-1.576,0-1.8-.22-1.8-1.759q-.006-3.849,0-7.7v-2.276ZM79.861,158.536h37.886v-2.354h-33.6c-1.762,0-2.027-.262-2.027-2q0-13.036-.01-26.072a1.885,1.885,0,0,0-.233-1.141,25.281,25.281,0,0,0-2.017-1.878Zm17.975-56.1,1.889-1.4,2.837,3.712,4.031-3.2a16.419,16.419,0,0,0-11.278-5.648V111.12h15.229a15.642,15.642,0,0,0-2.521-7.628c-.395.3-.721.53-1.035.779-1.261,1-2.524,1.992-3.775,3a1.141,1.141,0,0,1-1.8-.1C100.212,105.644,99.065,104.073,97.836,102.438Zm28.242,25.414c0,2.939-.107,5.776.03,8.6a5.843,5.843,0,0,0,5.1,5.479,5.908,5.908,0,0,0,6.2-3.4,4,4,0,0,0,.459-1.56c.043-3.028.021-6.056.021-9.126Zm11.893-2.469c0-.671,0-1.181,0-1.692,0-2.827-1.387-4.222-4.2-4.226q-5.639-.007-11.279,0h-1.153c0,.893-.023,1.642,0,2.39a3.5,3.5,0,0,0,3.62,3.522c2.529.022,5.058.006,7.587.006Zm-3.626-8.272v-5.853h-21.3v2.324h1.136q8.007,0,16.014,0c1.537,0,1.808.273,1.816,1.778,0,.571,0,1.142,0,1.75Zm.151,27.108h-4.708a5.717,5.717,0,0,0,2.351,6.449c.695-.833,1.4-1.662,2.083-2.51a1.139,1.139,0,0,0,.263-.629C134.509,146.409,134.5,145.289,134.5,144.218Zm-22.626-8.207c0-2.905.019-5.7-.028-8.5,0-.3-.391-.591-.6-.885-.2.3-.546.591-.563.9-.067,1.192-.023,2.389-.03,3.585a1.289,1.289,0,0,1-1.379,1.431c-.3.015-.6.027-.945.042v3.423Zm15.421,18.9,3.047-2.43c-.694-.833-1.305-1.6-1.959-2.328-.146-.163-.523-.33-.646-.255a.978.978,0,0,0-.424.687C127.27,151.942,127.291,153.3,127.291,154.913Zm9.456-.033c0-1.614.018-3-.019-4.391a.859.859,0,0,0-.416-.6.665.665,0,0,0-.585.193c-.669.762-1.3,1.557-2,2.406Zm-13.071-24.715c-.95-.113-1.749.108-2.055.919a2.567,2.567,0,0,0,.074,1.81,1.572,1.572,0,0,0,1.98.722Zm16.745,3.48a1.6,1.6,0,0,0,1.957-.782,2.685,2.685,0,0,0-.015-1.895,1.661,1.661,0,0,0-1.942-.8Z" transform="translate(0 0)" fill="url(#linear-gradient)"/>
        <path id="Trazado_1010234" data-name="Trazado 1010234" d="M133.014,326.533v-2.272H149.5v2.272Z" transform="translate(-46.085 -183.423)" fill="url(#linear-gradient)"/>
        <path id="Trazado_1010235" data-name="Trazado 1010235" d="M133.021,355.478v-2.257h16.49v2.257Z" transform="translate(-46.09 -206.434)" fill="url(#linear-gradient)"/>
        <path id="Trazado_1010236" data-name="Trazado 1010236" d="M172.589,295.588v2.255H162.026v-2.255Z" transform="translate(-69.137 -160.64)" fill="url(#linear-gradient)"/>
        <path id="Trazado_1010237" data-name="Trazado 1010237" d="M133.028,295.44h3.505v2.307h-3.505Z" transform="translate(-46.096 -160.522)" fill="url(#linear-gradient)"/>
        <path id="Trazado_1010238" data-name="Trazado 1010238" d="M335.314,274.252c0-.272-.11-.631.022-.8.306-.39.728-.947,1.105-.948s.878.524,1.1.939a2.966,2.966,0,0,1,.054,1.309,1.151,1.151,0,1,1-2.3.012c0-.171,0-.341,0-.511Z" transform="translate(-206.796 -142.298)" fill="url(#linear-gradient)"/>
        <path id="Trazado_1010239" data-name="Trazado 1010239" d="M360.812,274.043c-.01,1.112-.42,1.685-1.192,1.667-.79-.019-1.135-.577-1.13-1.828,0-1.132.389-1.72,1.137-1.735C360.423,272.131,360.823,272.771,360.812,274.043Z" transform="translate(-225.245 -142.014)" fill="url(#linear-gradient)"/>
      </g>
    </g>
  </g>
</svg>
