<svg xmlns="http://www.w3.org/2000/svg" width="98" height="98" viewBox="0 0 98 98">
  <g id="Grupo_1198592" data-name="Grupo 1198592" transform="translate(-632.254 -1202.951)">
    <g id="Grupo_1102209" data-name="Grupo 1102209" transform="translate(-19.518 -5790.049)">
      <rect id="Rectángulo_403454" data-name="Rectángulo 403454" width="98" height="98" rx="18" transform="translate(651.771 6993)" fill="#fff"/>
    </g>
    <g id="Grupo_1198220" data-name="Grupo 1198220" transform="translate(323.605 1176.451)">
      <path id="Trazado_1009704" data-name="Trazado 1009704" d="M356.456,97.343V93.369c-.536,0-1.056.019-1.575,0-1.1-.049-1.535-.484-1.582-1.587-.021-.489,0-.979,0-1.634-.683,0-1.261.028-1.834-.007-.858-.052-1.237-.419-1.236-1.123s.38-1.069,1.238-1.124c.537-.035,1.078-.007,1.759-.007.024-.544.045-1.013.065-1.451a13.759,13.759,0,0,1,4.815-26.81,13.746,13.746,0,0,1,3.961,26.765v1.5c.586,0,1.159-.025,1.729.006.871.048,1.255.393,1.277,1.086.024.749-.384,1.113-1.332,1.169-.271.016-.544,0-.816.007s-.523.03-.921.054c0,.518.01.958,0,1.4-.035,1.341-.439,1.732-1.818,1.765-.4.01-.806,0-1.394,0V97.3c3.043.7,5.226,2.394,6.049,5.423s-.155,5.611-2.467,7.8l3.621,1.979a7.565,7.565,0,0,1,2.227-6.889,7.345,7.345,0,0,1,7.007-1.873c.04-.383.1-.719.1-1.055.009-2.221,0-4.443.007-6.664.006-1.6.252-1.862,1.78-1.864q8.84-.011,17.681,0c1.519,0,1.746.23,1.757,1.727.013,1.723.016,3.446,0,5.168-.014,1.377-.286,1.648-1.7,1.652-4.216.013-8.434.065-12.648-.028a3.712,3.712,0,0,0-3.416,1.429c-.235.317-.528.592-.793.883,3.931,3.807,3.594,8.422.142,11.849.843.445,1.7.818,2.473,1.319a13.357,13.357,0,0,1,6.476,11.015c.079,1.5-.2,1.76-1.691,1.761q-12.037.011-24.073,0c-1.455,0-1.894-.449-1.7-1.919.186-1.43.531-2.839.813-4.3h-5.6c.269,1.263.549,2.493.784,3.731a4.652,4.652,0,0,1,.072,1.352,1.141,1.141,0,0,1-1.146,1.123c-.316.018-.634.013-.952.013H330.2c-.136,0-.272,0-.408,0-1.333-.035-1.611-.3-1.589-1.6a13.166,13.166,0,0,1,3.363-8.539,14.09,14.09,0,0,1,5.681-3.9,8.109,8.109,0,0,1-2.772-6,7.705,7.705,0,0,1,2.924-5.862,19.732,19.732,0,0,0-1.962-1.914,2.659,2.659,0,0,0-1.5-.386c-4.306-.029-8.613-.016-12.921-.017-.362,0-.725,0-1.088-.013a1.1,1.1,0,0,1-1.183-1.2c-.017-2.04-.036-4.081.008-6.12.02-.916.386-1.2,1.436-1.209,2.4-.022,4.805-.008,7.208-.008,3.582,0,7.163-.006,10.745,0,1.551,0,1.806.264,1.812,1.833.01,2.533,0,5.066,0,7.734a7.534,7.534,0,0,1,7.091,1.87,7.343,7.343,0,0,1,2.193,6.928l3.681-2c-2.3-2.157-3.29-4.746-2.479-7.765C351.25,99.781,353.349,98.048,356.456,97.343Zm3.337-13.027c4.1-.307,9.461-4.657,9.246-11.294a11.4,11.4,0,0,0-22.787.144c-.124,6.692,5.353,10.9,9.2,11.131-.165-.4-.3-.766-.47-1.114-1.011-2.023-2.033-4.041-3.049-6.061-.529-1.051-1.085-2.089-1.569-3.16a1.154,1.154,0,0,1,.462-1.643c.59-.318,1.151-.132,1.6.551a6.909,6.909,0,0,1,.381.719c.809,1.618,1.61,3.241,2.424,4.857.764,1.516,1.54,3.026,2.409,4.733.433-.83.767-1.454,1.085-2.085q2.049-4.059,4.092-8.119a1.142,1.142,0,0,1,1.545-.7c.672.258.877.9.568,1.714a6.713,6.713,0,0,1-.307.605q-1.765,3.518-3.527,7.036C360.664,82.5,360.249,83.376,359.794,84.316Zm-25.3,44.261c0-1.649-.013-3.141,0-4.632.012-1.094.335-1.529,1.089-1.553.8-.025,1.165.45,1.186,1.6.017.9,0,1.811,0,2.716,0,.611,0,1.221,0,1.828h10.264c0-1.011,0-1.914,0-2.818,0-.769-.03-1.543.038-2.307a1.049,1.049,0,0,1,1.077-1.018,1.08,1.08,0,0,1,1.189.9,6.305,6.305,0,0,1,.085,1.348c.01,1.294,0,2.588,0,3.924h3.657c-.023-5.606-5.986-10.61-11.974-10.132-5.591.446-10.982,5.743-10.275,10.142Zm33.77-.035h10.264c0-.731,0-1.359,0-1.987.005-1.043-.016-2.087.032-3.127a1.117,1.117,0,0,1,2.228,0c.035.5.021,1,.022,1.5,0,1.2,0,2.4,0,3.653a13.841,13.841,0,0,0,3.765-.082c-.043-4.124-4.058-10.064-11.29-10.077-5.724-.01-10.947,4.768-11.088,10.127h3.672c0-1.046,0-1.993,0-2.94,0-.635-.031-1.272.016-1.9.064-.865.548-1.34,1.249-1.314.656.025,1.048.464,1.118,1.285.027.315.008.634.008.952C368.261,125.9,368.26,127.162,368.26,128.542Zm-18.139-9.784c.034-.571.049-.924.078-1.275.077-.933.457-1.391,1.15-1.4.709,0,1.108.452,1.136,1.387.029.952-.013,1.9.014,2.856a1.855,1.855,0,0,0,1.993,2.008q3.129.016,6.258,0a1.859,1.859,0,0,0,2.05-2.089c.019-.861-.008-1.723.007-2.585.02-1.076.353-1.546,1.085-1.577s1.134.454,1.209,1.473c.025.342.057.683.1,1.182l2.079-1.318a11.217,11.217,0,0,0-10.013-5.241,11.071,11.071,0,0,0-9.238,5.257Zm7.47-9a5.058,5.058,0,1,0-5.087-5.1A5.12,5.12,0,0,0,357.591,109.758Zm15.8,6.284a5.07,5.07,0,1,0-5.121-5.054A5.068,5.068,0,0,0,373.391,116.042Zm-31.545,0a5.07,5.07,0,1,0,.138-10.139,5.07,5.07,0,1,0-.138,10.139Zm-4.372-14.633V96.545h-16.3v3.888h1.528c3.806,0,7.613.019,11.419-.011C335.322,100.411,336.49,100.352,337.474,101.409Zm40.356.36c1.031-1.587,2.394-1.334,3.682-1.335q5.574-.006,11.148,0h1.409V96.525H377.83ZM355.8,87.029v3.837h3.678V87.029Z" transform="translate(0 -16.664)"/>
      <path id="Trazado_1009705" data-name="Trazado 1009705" d="M390.84,105.714c.543,0,1.091-.043,1.628.011a1.079,1.079,0,0,1,1.063,1.041,1.061,1.061,0,0,1-.982,1.246,23.632,23.632,0,0,1-3.389.018,1.113,1.113,0,0,1-1.088-1.183,1.129,1.129,0,0,1,1.138-1.13c.539-.046,1.086-.009,1.629-.009Z" transform="translate(-50.473 -50.206)"/>
      <path id="Trazado_1009706" data-name="Trazado 1009706" d="M518.013,108.045a12.929,12.929,0,0,1-1.492-.011,1.173,1.173,0,0,1-1.17-1.237,1.1,1.1,0,0,1,1.153-1.1c1.039-.041,2.083-.035,3.123,0a1.172,1.172,0,0,1,1.193,1.086c.086.575-.465,1.132-1.178,1.26a1.572,1.572,0,0,1-.27.018c-.453,0-.906,0-1.358,0Z" transform="translate(-143.117 -50.186)"/>
      <path id="Trazado_1009707" data-name="Trazado 1009707" d="M412.138,61.643c-.936-.026-3.575-2.6-3.525-3.318a1.333,1.333,0,0,1,.521-.98,1.373,1.373,0,0,1,1.215.006,19.655,19.655,0,0,1,2.485,2.46,1.476,1.476,0,0,1,.05,1.247C412.765,61.359,412.3,61.524,412.138,61.643Z" transform="translate(-65.424 -14.911)"/>
      <path id="Trazado_1009708" data-name="Trazado 1009708" d="M499.7,61.335c-.248-.2-.694-.4-.8-.7a1.511,1.511,0,0,1,.107-1.243A25.239,25.239,0,0,1,501.377,57a.936.936,0,0,1,1.443.067c.248.333.442,1.076.256,1.3a35.844,35.844,0,0,1-2.728,2.774C500.236,61.247,500.015,61.244,499.7,61.335Z" transform="translate(-131.086 -14.536)"/>
      <path id="Trazado_1009709" data-name="Trazado 1009709" d="M409.565,151.287a1.14,1.14,0,0,1-.933-1.793,19.282,19.282,0,0,1,2.593-2.547,1.224,1.224,0,0,1,1.2.058c.289.277.546,1.063.379,1.259-.888,1.047-1.91,1.982-2.9,2.944C409.825,151.287,409.65,151.269,409.565,151.287Z" transform="translate(-65.272 -80.138)"/>
      <path id="Trazado_1009710" data-name="Trazado 1009710" d="M499.6,146.57c.734.033,3.286,2.6,3.306,3.327a1.087,1.087,0,0,1-1.667,1.024,15.256,15.256,0,0,1-2.648-2.664A1.1,1.1,0,0,1,499.6,146.57Z" transform="translate(-130.771 -79.957)"/>
      <path id="Trazado_1009711" data-name="Trazado 1009711" d="M459.848,39.383c0,.589.039,1.181-.011,1.765a1.014,1.014,0,0,1-1.107.971,1,1,0,0,1-1.094-.983c-.041-1.176-.039-2.356.013-3.53a.933.933,0,0,1,1.026-.883.981.981,0,0,1,1.153.9,17.025,17.025,0,0,1,.013,1.764Z" transform="translate(-101.088 0)"/>
      <path id="Trazado_1009712" data-name="Trazado 1009712" d="M445.747,96.859c0-.453-.032-.909.007-1.358a1.243,1.243,0,0,1,1.155-1.276,1.2,1.2,0,0,1,1.233,1.192,26.387,26.387,0,0,1-.008,3.122,1.192,1.192,0,0,1-1.143,1.152,1.225,1.225,0,0,1-1.228-1.2c-.053-.538-.011-1.086-.011-1.629Z" transform="translate(-92.445 -41.856)"/>
      <path id="Trazado_1009713" data-name="Trazado 1009713" d="M468.859,96.84a10.489,10.489,0,0,1,.014-1.492,1.151,1.151,0,0,1,1.178-1.1,1.105,1.105,0,0,1,1.173,1.09,25.761,25.761,0,0,1,0,3.257,1.124,1.124,0,0,1-1.168,1.106,1.162,1.162,0,0,1-1.182-1.1A13.9,13.9,0,0,1,468.859,96.84Z" transform="translate(-109.262 -41.876)"/>
      <path id="Trazado_1009714" data-name="Trazado 1009714" d="M367.259,198.988a1.338,1.338,0,0,1-1.193,1.237A1.363,1.363,0,0,1,364.855,199a1.386,1.386,0,0,1,1.133-1.163A1.329,1.329,0,0,1,367.259,198.988Z" transform="translate(-33.573 -117.273)"/>
      <path id="Trazado_1009715" data-name="Trazado 1009715" d="M355.811,199.058a1.131,1.131,0,1,1-1.16-1.224A1.169,1.169,0,0,1,355.811,199.058Z" transform="translate(-25.347 -117.273)"/>
      <path id="Trazado_1009716" data-name="Trazado 1009716" d="M344.171,199.047a1.338,1.338,0,0,1-1.257,1.166,1.272,1.272,0,0,1-1.112-1.288,1.292,1.292,0,0,1,1.165-1.1A1.344,1.344,0,0,1,344.171,199.047Z" transform="translate(-16.791 -117.266)"/>
      <path id="Trazado_1009717" data-name="Trazado 1009717" d="M550.972,197.832a1.2,1.2,0,1,1,.043,2.391,1.367,1.367,0,0,1-1.181-1.109A1.328,1.328,0,0,1,550.972,197.832Z" transform="translate(-168.218 -117.271)"/>
      <path id="Trazado_1009718" data-name="Trazado 1009718" d="M563.921,198.967a1.13,1.13,0,1,1-2.253.121,1.165,1.165,0,0,1,1.129-1.253A1.2,1.2,0,0,1,563.921,198.967Z" transform="translate(-176.833 -117.275)"/>
      <path id="Trazado_1009719" data-name="Trazado 1009719" d="M574.219,197.832a1.273,1.273,0,0,1,1.135,1.266,1.3,1.3,0,0,1-1.147,1.123,1.2,1.2,0,1,1,.013-2.389Z" transform="translate(-185.067 -117.272)"/>
    </g>
  </g>
</svg>
