<svg xmlns="http://www.w3.org/2000/svg" xmlns:xlink="http://www.w3.org/1999/xlink" width="118.117" height="118.117" viewBox="0 0 118.117 118.117">
  <defs>
    <linearGradient id="linear-gradient" x1="0.619" y1="0.693" x2="0.255" y2="-0.751" gradientUnits="objectBoundingBox">
      <stop offset="0" stop-color="#045e61"/>
      <stop offset="1" stop-color="#3ef989"/>
    </linearGradient>
  </defs>
  <g id="Grupo_1198594" data-name="Grupo 1198594" transform="translate(-1156.941 -3987.062)">
    <g id="Grupo_1198579" data-name="Grupo 1198579">
      <g id="Grupo_1192986" data-name="Grupo 1192986" transform="translate(1156.941 3987.062)">
        <g id="Trazado_995327" data-name="Trazado 995327" transform="translate(0)" fill="#fff">
          <path d="M 59.05859375 116.1171951293945 C 51.35486221313477 116.1171951293945 43.88261032104492 114.6088409423828 36.84942626953125 111.6340637207031 C 33.46891021728516 110.2042236328125 30.20824432373047 108.4343566894531 27.15799331665039 106.3736572265625 C 24.13620948791504 104.3321914672852 21.29459381103516 101.9876251220703 18.71207618713379 99.40511322021484 C 16.12957763671875 96.82259368896484 13.78501033782959 93.98097991943359 11.74354362487793 90.95919036865234 C 9.682826995849609 87.90895843505859 7.91297721862793 84.64827728271484 6.48314380645752 81.26776123046875 C 3.508343696594238 74.23457336425781 2.00001049041748 66.7623291015625 2.00001049041748 59.05859375 C 2.00001049041748 51.35486221313477 3.508343696594238 43.88261032104492 6.48314380645752 36.84942626953125 C 7.91297721862793 33.46891021728516 9.682826995849609 30.20824432373047 11.74354362487793 27.15799331665039 C 13.78501033782959 24.13620948791504 16.12957763671875 21.29459381103516 18.71207618713379 18.71207618713379 C 21.29459381103516 16.12957763671875 24.13620948791504 13.78501033782959 27.15799331665039 11.74354362487793 C 30.20824432373047 9.682826995849609 33.46891021728516 7.91297721862793 36.84942626953125 6.48314380645752 C 43.88261032104492 3.508343696594238 51.35486221313477 2.00001049041748 59.05859375 2.00001049041748 C 66.7623291015625 2.00001049041748 74.23457336425781 3.508343696594238 81.26776123046875 6.48314380645752 C 84.64827728271484 7.91297721862793 87.90895843505859 9.682826995849609 90.95919036865234 11.74354362487793 C 93.98097991943359 13.78501033782959 96.82259368896484 16.12957763671875 99.40511322021484 18.71207618713379 C 101.9876251220703 21.29459381103516 104.3321914672852 24.13620948791504 106.3736572265625 27.15799331665039 C 108.4343566894531 30.20824432373047 110.2042236328125 33.46891021728516 111.6340637207031 36.84942626953125 C 114.6088409423828 43.88261032104492 116.1171951293945 51.35486221313477 116.1171951293945 59.05859375 C 116.1171951293945 66.7623291015625 114.6088409423828 74.23457336425781 111.6340637207031 81.26776123046875 C 110.2042236328125 84.64827728271484 108.4343566894531 87.90895843505859 106.3736572265625 90.95919036865234 C 104.3321914672852 93.98097991943359 101.9876251220703 96.82259368896484 99.40511322021484 99.40511322021484 C 96.82259368896484 101.9876251220703 93.98097991943359 104.3321914672852 90.95919036865234 106.3736572265625 C 87.90895843505859 108.4343566894531 84.64827728271484 110.2042236328125 81.26776123046875 111.6340637207031 C 74.23457336425781 114.6088409423828 66.7623291015625 116.1171951293945 59.05859375 116.1171951293945 Z" stroke="none"/>
          <path d="M 59.05859375 3.999992370605469 C 51.62397766113281 3.999992370605469 44.41384887695312 5.455177307128906 37.62852478027344 8.325119018554688 C 34.36693572998047 9.704666137695312 31.22083282470703 11.41236114501953 28.27759552001953 13.40077209472656 C 25.36128234863281 15.37099456787109 22.61879730224609 17.63377380371094 20.12628173828125 20.12628173828125 C 17.63377380371094 22.61879730224609 15.37099456787109 25.36128234863281 13.40077209472656 28.27759552001953 C 11.41236114501953 31.22083282470703 9.704666137695312 34.36693572998047 8.325119018554688 37.62852478027344 C 5.455177307128906 44.41384887695312 3.999992370605469 51.62397766113281 3.999992370605469 59.05859375 C 3.999992370605469 66.49320983886719 5.455177307128906 73.70333862304688 8.325119018554688 80.48866271972656 C 9.704666137695312 83.750244140625 11.41236114501953 86.89635467529297 13.40077209472656 89.83959197998047 C 15.37099456787109 92.75590515136719 17.63377380371094 95.49839782714844 20.12628173828125 97.99090576171875 C 22.61879730224609 100.4834136962891 25.36128234863281 102.7461929321289 28.27759552001953 104.7164154052734 C 31.22083282470703 106.704833984375 34.36693572998047 108.4125213623047 37.62852478027344 109.7920684814453 C 44.41384887695312 112.6620101928711 51.62397766113281 114.1171951293945 59.05859375 114.1171951293945 C 66.49320983886719 114.1171951293945 73.70333862304688 112.6620101928711 80.48866271972656 109.7920684814453 C 83.750244140625 108.4125213623047 86.89635467529297 106.704833984375 89.83959197998047 104.7164154052734 C 92.75590515136719 102.7461929321289 95.49839782714844 100.4834136962891 97.99090576171875 97.99090576171875 C 100.4834136962891 95.49839782714844 102.7461929321289 92.75590515136719 104.7164154052734 89.83959197998047 C 106.704833984375 86.89635467529297 108.4125213623047 83.750244140625 109.7920684814453 80.48866271972656 C 112.6620101928711 73.70333862304688 114.1171951293945 66.49320983886719 114.1171951293945 59.05859375 C 114.1171951293945 51.62397766113281 112.6620101928711 44.41384887695312 109.7920684814453 37.62852478027344 C 108.4125213623047 34.36693572998047 106.704833984375 31.22083282470703 104.7164154052734 28.27759552001953 C 102.7461929321289 25.36128234863281 100.4834136962891 22.61879730224609 97.99090576171875 20.12628173828125 C 95.49839782714844 17.63377380371094 92.75590515136719 15.37099456787109 89.83959197998047 13.40077209472656 C 86.89635467529297 11.41236114501953 83.750244140625 9.704666137695312 80.48866271972656 8.325119018554688 C 73.70333862304688 5.455177307128906 66.49320983886719 3.999992370605469 59.05859375 3.999992370605469 M 59.05859375 -7.62939453125e-06 C 91.67575836181641 -7.62939453125e-06 118.1171951293945 26.44142913818359 118.1171951293945 59.05859375 C 118.1171951293945 91.67575836181641 91.67575836181641 118.1171951293945 59.05859375 118.1171951293945 C 26.44142913818359 118.1171951293945 -7.62939453125e-06 91.67575836181641 -7.62939453125e-06 59.05859375 C -7.62939453125e-06 26.44142913818359 26.44142913818359 -7.62939453125e-06 59.05859375 -7.62939453125e-06 Z" stroke="none" fill="#53159b"/>
        </g>
      </g>
      <g id="Grupo_1198576" data-name="Grupo 1198576" transform="translate(1059.787 3877.604)">
        <path id="Trazado_1010251" data-name="Trazado 1010251" d="M121.154,263.86a47.24,47.24,0,0,1,.566-5.452,5.934,5.934,0,0,1,3.45-3.911,7.635,7.635,0,0,1-2.42-4.151,11.216,11.216,0,0,1-.142-1.726q-.018-6.034,0-12.067a10.253,10.253,0,0,1,10.576-10.586q3.939-.014,7.878,0a10.283,10.283,0,0,1,10.522,10.457c.038,4.09,0,8.181.01,12.272A7.473,7.473,0,0,1,149,254.442l1.69,1.113a18.564,18.564,0,0,1,.839-1.758,6.238,6.238,0,0,1,5.477-3.2c2.523-.044,5.047-.013,7.57-.015h1.182V247.4c-.232-.023-.491-.071-.75-.072-1.705-.007-3.41.008-5.115-.007-3.5-.03-6.306-2.346-6.415-5.843-.178-5.718-.269-11.463.08-17.167a10.9,10.9,0,0,1,10.987-10.055c4.193-.069,8.39-.076,12.583,0a11.226,11.226,0,0,1,11.125,11.292c.069,5.078.05,10.158,0,15.237a6.327,6.327,0,0,1-6.625,6.534c-1.9.01-3.8,0-5.761,0v3.254h1.11c2.489,0,4.979-.02,7.468.007a6.466,6.466,0,0,1,6.585,6.517c.035,1.84.008,3.681.009,5.522,0,.364,0,.728,0,1.213.708,0,1.278,0,1.848,0a1.078,1.078,0,1,1,.041,2.154c-.306.018-.613.018-.92.018q-12.634,0-25.269,0a2.526,2.526,0,0,1-1.2-.1,1.491,1.491,0,0,1-.72-1.038c.014-.346.457-.741.8-.983.211-.147.6-.052.9-.052q6.087,0,12.174,0h1.157V252.859H161.735v1.121q0,5.215,0,10.431c0,1.3-.278,1.6-1.547,1.6q-20.154.01-40.307,0c-.237,0-.554.053-.7-.074-.324-.288-.808-.7-.773-1.011a1.466,1.466,0,0,1,.865-1.021A6.875,6.875,0,0,1,121.154,263.86Zm59.678-18.909c2.955.533,5.165-1.2,5.189-4.065.043-5.181.081-10.363-.011-15.542a9,9,0,0,0-8.889-8.892q-6.29-.094-12.582,0a8.848,8.848,0,0,0-8.751,7.772,63.526,63.526,0,0,0-.18,7.04c-.024,3.17-.029,6.34,0,9.51.029,2.952,2.644,5.039,5.129,4.1a8.959,8.959,0,0,1-2.2-5.91c-.03-4.942-.025-9.884-.018-14.826,0-.911.461-1.439,1.151-1.367.8.084,1.059.621,1.049,1.366-.015,1.047,0,2.093,0,3.206h20.23c0-1.174-.006-2.289,0-3.4a1.036,1.036,0,0,1,1.029-1.162c.745-.036,1.1.44,1.162,1.147.023.271.011.545.011.817,0,3.852-.039,7.7.013,11.554C183.2,239.4,183.126,242.444,180.833,244.951Zm-7.245,5.572c0-1.3,0-2.489,0-3.679,0-1.424.282-1.7,1.729-1.754a5.291,5.291,0,0,0,5.194-3.993,15,15,0,0,0,.412-3.526c.059-2.616.018-5.234.018-7.891H160.755c0,3.334-.152,6.579.041,9.8a5.588,5.588,0,0,0,5.817,5.62c1.071-.032,1.441.411,1.451,1.508.011,1.285,0,2.571,0,3.912Zm-28.423-13.908c0-.623.006-1.133,0-1.642-.01-.751.278-1.311,1.085-1.318.787-.006,1.132.507,1.131,1.277-.008,3.442.046,6.885-.03,10.325a6.667,6.667,0,0,1-4.656,6.213c-.446.151-.911.245-1.374.367V253.9c.963,0,1.874,0,2.786,0a4.987,4.987,0,0,0,5.264-5.064c.06-4.191.083-8.384-.007-12.574-.091-4.236-3.051-7.679-7.051-7.945a79.082,79.082,0,0,0-10.518.006,7.638,7.638,0,0,0-6.912,7.388c-.093,4.5-.042,9-.026,13.494a4.588,4.588,0,0,0,2.006,3.727c1.841,1.412,3.933.885,5.961.921v-2.007c-3.95-1.1-5.765-3.041-5.936-6.732-.157-3.4-.062-6.813-.059-10.22,0-.689.315-1.227,1.075-1.237.811-.01,1.122.528,1.128,1.278,0,.561,0,1.122,0,1.684Zm-.025,2.358H129.1c0,2.143-.073,4.217.018,6.284a4.449,4.449,0,0,0,4.621,4.347c.994-.053,1.347.372,1.367,1.357.019.943,0,1.886,0,2.864h3.914c0-.884,0-1.7,0-2.508.008-1.378.3-1.684,1.656-1.736a4.411,4.411,0,0,0,4.438-4.216C145.234,243.265,145.14,241.152,145.14,238.973Zm37.033,24.863h6.673c0-2.14-.045-4.111.01-6.079.1-3.805-2.707-5.671-6.682-4.786ZM159.481,252.8c-.91,0-1.721-.025-2.529,0a4.162,4.162,0,0,0-4.072,3.834c-.121,2.173-.04,4.356-.069,6.534-.007.564.274.677.762.672,1.533-.017,3.065-.005,4.6-.005h1.31Zm-14.34,3.375v7.586h5.476c0-.954,0-1.831,0-2.709C150.608,257.711,148.642,255.9,145.141,256.172Zm-21.684,7.588h5.486v-7.566c-2.584-.292-4.648.82-5.152,3.021A28.826,28.826,0,0,0,123.457,263.76Zm15.478.022v-7.611h-3.753v7.611Zm-7.618-7.647v7.612h1.494v-7.612Zm10,.021v7.6h1.533v-7.6Z" transform="translate(0 -65.87)" fill="url(#linear-gradient)"/>
        <path id="Trazado_1010252" data-name="Trazado 1010252" d="M203.39,142.955H163.725c-.273,0-.546.012-.818,0-.739-.044-1.274-.366-1.25-1.174.023-.756.54-1.052,1.245-1.054,1.7,0,3.406,0,5.272,0,0-1.3,0-2.545,0-3.792,0-.716.011-1.432-.007-2.147a1.042,1.042,0,0,0-1.124-1.17c-1.739,0-3.483-.071-5.215.032a4.624,4.624,0,0,0-4.472,4.384c-.113,3.745-.033,7.5-.031,11.244,0,.058.053.117.111.236.2.017.427.053.657.054,2.9,0,5.8.009,8.7,0,1.125,0,1.358-.254,1.385-1.393a3.691,3.691,0,0,1,.066-1.313c.165-.377.585-.854.927-.882a1.306,1.306,0,0,1,1.073.684c.244,1.375.375,2.794-.6,4a3.067,3.067,0,0,1-2.517,1.136c-7.3,0-14.594.01-21.891-.009a3,3,0,0,1-3.188-3.226q-.024-6.953,0-13.907a3.007,3.007,0,0,1,3.1-3.2c1.635-.052,3.273-.009,4.91-.018a7,7,0,0,1,5.712,2.678c.126.153.263.3.446.5,1.8-2.558,4.307-3.359,7.25-3.194,1.19.067,2.387-.01,3.58.019a3.127,3.127,0,0,1,3.328,3.334c.029,1.939.006,3.878.006,5.883h33.052l.2-.221c-.455-.387-.929-.753-1.36-1.165A1.107,1.107,0,1,1,203.8,137.7c1.062,1.058,2.118,2.122,3.187,3.173a1.159,1.159,0,0,1,.035,1.863q-1.585,1.6-3.182,3.179a1.106,1.106,0,0,1-1.714.111c-.557-.572-.368-1.192.186-1.7.4-.366.823-.709,1.236-1.062Zm-48.419,6.61a3.264,3.264,0,0,0,.1-.5c0-3.577.063-7.155-.02-10.73a4.785,4.785,0,0,0-4.912-4.72c-1.5-.035-3-.017-4.5-.006-1.147.009-1.383.241-1.385,1.376q-.009,6.643,0,13.285c0,1.111.187,1.287,1.332,1.292,2.147.01,4.294,0,6.441,0Z" transform="translate(-18.789)" fill="url(#linear-gradient)"/>
        <path id="Trazado_1010253" data-name="Trazado 1010253" d="M371.422,307.449c0,.51.032,1.022-.008,1.529a1.022,1.022,0,0,1-1.137,1.046.991.991,0,0,1-1.039-1.037c-.037-1.052-.042-2.108.007-3.16a.982.982,0,0,1,1.075-1,1,1,0,0,1,1.087.988c.05.539.01,1.087.01,1.63Z" transform="translate(-199.496 -137.956)" fill="url(#linear-gradient)"/>
        <path id="Trazado_1010254" data-name="Trazado 1010254" d="M338.5,300.566a4.985,4.985,0,0,1-.052.812.989.989,0,0,1-1.208.822c-.731-.085-1-.617-.983-1.846.01-.742.158-1.385,1.041-1.481a.969.969,0,0,1,1.162.878,4.868,4.868,0,0,1,.007.814Z" transform="translate(-173.287 -133.209)" fill="url(#linear-gradient)"/>
        <path id="Trazado_1010255" data-name="Trazado 1010255" d="M401.991,300.433a4.026,4.026,0,0,1,.066-.81.989.989,0,0,1,1.247-.769c1,.2.94,1.015.941,1.774,0,.723-.1,1.4-.982,1.537a.988.988,0,0,1-1.214-.817A5.131,5.131,0,0,1,401.991,300.433Z" transform="translate(-225.571 -133.178)" fill="url(#linear-gradient)"/>
        <path id="Trazado_1010256" data-name="Trazado 1010256" d="M206.4,350.143c0,.439.027.881-.008,1.318a1.022,1.022,0,0,1-1.032,1.041,1,1,0,0,1-1.155-1.01,18.091,18.091,0,0,1,0-2.532.984.984,0,0,1,1.07-.993,1.042,1.042,0,0,1,1.117,1.061C206.429,349.4,206.4,349.771,206.4,350.143Z" transform="translate(-68.212 -172.267)" fill="url(#linear-gradient)"/>
        <path id="Trazado_1010257" data-name="Trazado 1010257" d="M180.114,346.027c0,1.323-.757,1.988-1.63,1.52a1.776,1.776,0,0,1-.5-2.187,1.584,1.584,0,0,1,1.2-.782C179.985,344.65,180.192,345.355,180.114,346.027Z" transform="translate(-47.245 -169.57)" fill="url(#linear-gradient)"/>
        <path id="Trazado_1010258" data-name="Trazado 1010258" d="M232.518,346.109c-.011,1.076-.412,1.62-1.115,1.621s-1.118-.53-1.113-1.515c0-.332-.032-.781.157-.967.315-.311.833-.679,1.2-.62C232.467,344.76,232.587,345.486,232.518,346.109Z" transform="translate(-88.994 -169.607)" fill="url(#linear-gradient)"/>
        <path id="Trazado_1010259" data-name="Trazado 1010259" d="M165.179,187c.783,0,1.567-.017,2.35,0,.7.019,1.207.349,1.221,1.092a1.073,1.073,0,0,1-1.184,1.132q-2.451.053-4.9,0a1.08,1.08,0,0,1-1.177-1.146c.023-.726.537-1.066,1.242-1.08C163.544,186.986,164.362,187,165.179,187Z" transform="translate(-34.265 -44.223)" fill="url(#linear-gradient)"/>
        <path id="Trazado_1010260" data-name="Trazado 1010260" d="M164.043,168.634c.406,0,.89-.138,1.2.035a1.681,1.681,0,0,1,.837,1.053,1.247,1.247,0,0,1-.772.961,8.81,8.81,0,0,1-2.719.008,1.348,1.348,0,0,1-.845-1.019c.01-.356.5-.834.9-1.006a3.767,3.767,0,0,1,1.4-.038Z" transform="translate(-34.47 -29.576)" fill="url(#linear-gradient)"/>
      </g>
    </g>
  </g>
</svg>
