<svg xmlns="http://www.w3.org/2000/svg" width="98" height="98" viewBox="0 0 98 98">
  <g id="Grupo_1198592" data-name="Grupo 1198592" transform="translate(-902.711 -1203)">
    <g id="Grupo_1102512" data-name="Grupo 1102512" transform="translate(250.939 -5790)">
      <rect id="Rectángulo_403454" data-name="Rectángulo 403454" width="98" height="98" rx="18" transform="translate(651.771 6993)" fill="#fff"/>
    </g>
    <g id="Grupo_1198221" data-name="Grupo 1198221" transform="translate(662.372 1160.665)">
      <path id="Trazado_1009720" data-name="Trazado 1009720" d="M256.087,116.6v-1.382q0-18.17,0-36.34c0-4.2,2.441-6.639,6.637-6.645.93,0,1.86,0,2.854,0V71.108a29.348,29.348,0,0,1-2.765-1.124,8.315,8.315,0,0,1,3.653-15.621c12.078-.045,24.157-.025,36.236-.013a3.012,3.012,0,0,1,1.19.286c3.75,1.688,7.481,3.418,11.238,5.089a3.161,3.161,0,0,1,2.182,2.984,3.194,3.194,0,0,1-2.215,2.969c-3.286,1.456-6.536,2.992-9.837,4.41-.987.424-1.459.936-1.064,2.148.913,0,1.906.033,2.9-.006a6.161,6.161,0,0,1,6.617,6.583c-.115,2.166-.021,4.344-.021,6.527,1.419.417,2.971-.368,4.133.823,1.128,1.156.495,2.646.811,4.1,1.386,0,2.793,0,4.2,0,2.06.005,2.853.778,2.855,2.8q.007,6.749,0,13.5c0,1.978-.861,2.831-2.852,2.834-3,.005-6.01,0-9.08,0v7.2c.7,0,1.408-.01,2.114,0,2.085.034,3.069,1.466,2.351,3.412a12.622,12.622,0,0,1-12.074,8.5q-21.233.032-42.466,0a12.8,12.8,0,0,1-12.028-8.155c-.995-2.347.541-4.025,2.54-3.772A16.282,16.282,0,0,0,256.087,116.6Zm12.065-45.473v40.575h33.517v-2.214c-1.948-.632-2.375-1.229-2.375-3.269q0-6.386,0-12.773c0-2.1.387-2.645,2.358-3.326V71.132ZM316,119.036H296.87c0,.525.027.972,0,1.415a3.4,3.4,0,0,1-3.294,3.262q-8.671.066-17.343,0a3.407,3.407,0,0,1-3.309-3.351c-.021-.438,0-.878,0-1.359H253.8a4.076,4.076,0,0,0,.1.443,10.47,10.47,0,0,0,9.917,6.74q21.082.03,42.164,0a10.379,10.379,0,0,0,5.62-1.58A9.973,9.973,0,0,0,316,119.036ZM265.592,74.7c-1.005,0-1.965,0-2.925,0-2.846,0-4.206,1.343-4.207,4.172q-.006,18.274,0,36.548c0,.367.035.734.054,1.093h52.773v-7.027h-2.413c0,.737.006,1.391,0,2.045a2.352,2.352,0,0,1-2.611,2.645q-21.389.011-42.778,0a2.378,2.378,0,0,1-2.614-2.568q-.017-15.99,0-31.98a2.456,2.456,0,0,1,2.622-2.594c.683-.018,1.366,0,2.1,0Zm57.7,20.749c-.741,1.1-1.357,1.927-1.88,2.81a3.078,3.078,0,0,1-3.018,1.6c-1.541-.053-3.084-.012-4.744-.012v2.267h-2.339V99.846c-1.585,0-3.071-.06-4.549.017a3.251,3.251,0,0,1-3.26-1.746c-.468-.809-1.028-1.564-1.694-2.563v11.364h21.483ZM301.668,63.985H275.316v4.626h26.351Zm-26.345-2.6h26.338V56.727H275.323ZM263.383,79.523v32.2h2.186v-32.2Zm50.325,17.865c1.738,0,3.325.01,4.912-.012a.855.855,0,0,0,.618-.259c1-1.433,1.958-2.888,2.99-4.427H302.794c1,1.5,1.91,2.88,2.842,4.247.124.182.349.417.531.421,1.709.032,3.419.019,5.228.019V95.132h2.314Zm-45.652-40.7c-2.733-.162-4.929.617-6.317,2.94a5.629,5.629,0,0,0,.216,6.451,6.141,6.141,0,0,0,6.1,2.555ZM275.329,119c-.183,2.023.158,2.4,2.049,2.4q7.582,0,15.163,0c1.775,0,2.241-.614,1.824-2.4Zm28.8-51c1.535-.693,2.984-1.323,4.4-2.015a1,1,0,0,0,.33-.761c.029-1.694.025-3.39,0-5.084,0-.245-.1-.629-.262-.709-1.451-.7-2.927-1.341-4.473-2.035Zm-.008,9.037c.839,0,1.565-.026,2.289.006a2.4,2.4,0,0,1,2.462,2.5c.017.795,0,1.59,0,2.385q0,1.74,0,3.479h2.448c0-2.519.089-4.972-.033-7.415a3.068,3.068,0,0,0-2.485-3.084,28.322,28.322,0,0,0-4.685-.056Zm-33.59-20.3V68.616h2.319V56.728Zm35.933,33.5V79.547h-2.315V90.232Zm9.626-2.369h-7.124v2.33h7.124Zm-4.695-23.158c1.1-.5,2.112-.907,3.071-1.42.609-.326.592-.887,0-1.2-.957-.512-1.974-.911-3.07-1.4Zm-4.908,47.032v-2.266h-2.369v2.266Z" transform="translate(0 0)"/>
      <path id="Trazado_1009721" data-name="Trazado 1009721" d="M355.445,168.171V146.685h23.849v21.486Zm4.931-2.446a7.522,7.522,0,0,1,3.43-6.134c-1.7-2.993-1.566-5.176.361-6.922a4.564,4.564,0,0,1,5.908-.343,6.889,6.889,0,0,1,1.878,2.627c.715,1.686-.085,3.206-1.043,4.638,2.332,1.419,3.189,3.62,3.488,6.109h2.521V149.107h-19.1v16.618Zm11.427,0a4.445,4.445,0,1,0-8.87,0Zm-4.451-11.865a2.388,2.388,0,0,0-2.394,2.356,2.521,2.521,0,0,0,2.376,2.424,2.413,2.413,0,0,0,2.4-2.457A2.292,2.292,0,0,0,367.352,153.855Z" transform="translate(-82.484 -73.17)"/>
      <path id="Trazado_1009722" data-name="Trazado 1009722" d="M355.363,287.364v-2.281h23.881v2.281Z" transform="translate(-82.419 -182.824)"/>
      <path id="Trazado_1009723" data-name="Trazado 1009723" d="M397.615,262.026v2.32H378.552v-2.32Z" transform="translate(-100.792 -164.555)"/>
      <path id="Trazado_1009724" data-name="Trazado 1009724" d="M374.615,308.216v2.271H355.586v-2.271Z" transform="translate(-82.596 -201.152)"/>
      <path id="Trazado_1009725" data-name="Trazado 1009725" d="M355.358,264.33V262h2.225v2.329Z" transform="translate(-82.415 -164.536)"/>
      <path id="Trazado_1009726" data-name="Trazado 1009726" d="M461.734,308.279v2.25h-2.257v-2.25Z" transform="translate(-164.91 -201.202)"/>
    </g>
  </g>
</svg>
