<svg xmlns="http://www.w3.org/2000/svg" width="154" height="154" viewBox="0 0 154 154">
  <g id="Grupo_1198593" data-name="Grupo 1198593" transform="translate(-713 -3267.42)">
    <g id="Grupo_1197988" data-name="Grupo 1197988" transform="translate(402.941 -4103.58)">
      <circle id="Elipse_13624" data-name="Elipse 13624" cx="77" cy="77" r="77" transform="translate(310.059 7371)" fill="#fff"/>
    </g>
    <g id="Grupo_1198203" data-name="Grupo 1198203" transform="translate(447.542 3271.567)">
      <path id="Trazado_1009546" data-name="Trazado 1009546" d="M349.427,232.335c.682-5.231,2.884-7.429,8.562-8.655.156-1.61.313-3.019-1.085-4.512-1.808-1.932-2.586-4.688-4.844-6.409-.619-.472-.789-1.8-.81-2.742-.087-3.857-.059-7.717-.029-11.575a3.4,3.4,0,0,1,3.676-3.714c2.82-.037,5.642-.072,8.459.013A11.9,11.9,0,0,1,375.2,206.693q.043,1.78-.008,3.562a5.221,5.221,0,0,1-2.645,4.369,4.09,4.09,0,0,0-1.12,1.362c-.574.971-.851,2.238-1.644,2.931-1.529,1.335-1.672,2.875-1.358,4.76,4.965.628,8,3.336,8.588,8.625h6.621v3.539H382q-23.6,0-47.2,0c-4.209,0-6.316,2.382-5.855,6.722H397.4c.729-3.919-1.5-6.693-5.387-6.721-1.524-.011-3.05,0-4.662,0v-3.731a56.389,56.389,0,0,1,7.881.851,7.94,7.94,0,0,1,5.684,7.532c.027.741.036,1.485.005,2.226a3.3,3.3,0,0,1-3.284,3.325c-.444.029-.89.016-1.335.016q-33.1,0-66.194,0c-3.662,0-4.636-.992-4.62-4.687.024-5.391,3.615-9,9.037-9.031,4.4-.026,8.806-.006,13.209-.006Zm5.176-34.006c0,3.859-.018,7.709.01,11.557a1.732,1.732,0,0,0,1.956,1.9q6.671-.008,13.341,0a1.7,1.7,0,0,0,1.893-1.813,28.753,28.753,0,0,0-.038-4c-.4-3.954-3.026-7.09-6.958-7.565C361.511,198.012,358.129,198.329,354.6,198.329Zm18.813,33.93a4.936,4.936,0,0,0-4.869-5q-5.335-.142-10.675,0a4.938,4.938,0,0,0-4.865,5ZM358.6,215.388a4.912,4.912,0,0,0,9.234,0Zm2.926,8.311h3.353v-1.631H361.53Z" transform="translate(-20.712 -121.806)"/>
      <path id="Trazado_1009547" data-name="Trazado 1009547" d="M512.793,136.06v3.055c2.037.366,4.379-.563,5.977,1.416,1.3,1.608.678,3.521.748,5.306s-.7,3.045-2.247,3.425a30.968,30.968,0,0,1-4.463.456c-.389,1.951.6,4.314-1.414,5.89-1.653,1.294-3.617.806-5.454.779-2.645-.038-3.324-1.358-3.651-6.726H481.948v-3.574h34.088v-3.322H488.723v-3.512h13.533v-3.348H488.75v-3.517h27.314v-3.352h-27.3v-3.451H509.2V91.463h3.5V125.43c2.1.411,4.363-.542,6,1.308,1.276,1.445.716,3.2.842,4.837.133,1.722-.3,3.324-2.028,3.884A24.866,24.866,0,0,1,512.793,136.06Zm-3.621-.091h-3.215v3.13h3.215Zm0,13.7h-3.2v3.108h3.2Z" transform="translate(-130.721 -49.227)"/>
      <path id="Trazado_1009548" data-name="Trazado 1009548" d="M403.91,29.266a3.905,3.905,0,0,1,.018,5.1,3.954,3.954,0,0,1,.3,4.72,1.274,1.274,0,0,0,.072,1.023c1.012,2.1.661,3.85-1.235,5.207a11.569,11.569,0,0,1-8.646,1.743,2.152,2.152,0,0,0-2.048.7,38,38,0,0,1-3.42,2.634c2.266,9.2-3.919,14.564-9.159,15.524a12.059,12.059,0,0,1-14.355-10.03c-1.2-6.852,3.585-12.434,11.88-13.869,1.425-6.534,4.488-8.916,10.465-8.331.163-1.473.326-2.951.546-4.948-1.354-2.22-.838-4.453,2.519-6.017a12.459,12.459,0,0,1,11.441.247C405.01,24.393,405.526,26.5,403.91,29.266ZM391.158,42.087a5.189,5.189,0,0,0-5.22-5.141,5.285,5.285,0,0,0-5.1,5.146,5.224,5.224,0,0,0,5.257,5.123A5.143,5.143,0,0,0,391.158,42.087Zm-11.977,20.2c5.3-.726,8.639-7.469,5.758-11.762-1.812,1.873-3.6,3.707-5.36,5.558a1.29,1.29,0,0,0-.381.758C379.166,58.65,379.181,60.459,379.181,62.288Zm-9.36-11.854c-2.523,5.075,1.017,11.782,5.9,11.761,0-1.677.015-3.356-.014-5.034a1.5,1.5,0,0,0-.306-.933C373.614,54.331,371.789,52.467,369.821,50.434ZM372,47.542l5.522,5.544,3.635-3.629c-.937-1.173-1.829-2.336-2.78-3.449a1.4,1.4,0,0,0-.963-.489A8.181,8.181,0,0,0,372,47.542ZM391.188,26.65c2.343,2.41,8.588,2.3,10.179-.1C398.861,24.405,393.643,24.423,391.188,26.65Zm-.14,4.959c2.5,2.573,8.92,2.456,10.459-.317-3.212.234-6.259.984-9.227-.053a.967.967,0,0,0-.564.058A5.719,5.719,0,0,0,391.047,31.609Zm10.48,5.251c-1.547-1.058-2.9.225-4.274.076a42.157,42.157,0,0,0-4.475-.036c.327.408.644,1.1,1.184,1.419C395.545,39.244,399.852,38.432,401.528,36.86Zm-7.048,6.775c2.555.243,4.944.351,6.9-1.444l-.052-.574-6.645.611Q394.6,42.769,394.48,43.635Z" transform="translate(-48.667 0)"/>
      <path id="Trazado_1009549" data-name="Trazado 1009549" d="M302.944,187.632v-3.08c-2.083-.412-4.518.6-6.077-1.544-1.228-1.686-.784-3.671-.631-5.476.368-4.348,3.922-3.2,6.748-3.476V160.534h3.466V174.09H326.9v3.422H299.685v3.365h27.182v3.49H313.473v3.343h13.381v3.546H299.7v3.366h34.091v3.465H313.506c-.43,2.139.512,4.494-1.483,6.073-1.608,1.273-3.523.9-5.3.787-4.482-.276-3.6-3.827-3.753-6.7-2.1-.378-4.434.549-6.032-1.448-1.259-1.573-.674-3.425-.739-5.161-.072-1.923.638-3.13,2.275-3.545A29.9,29.9,0,0,1,302.944,187.632Zm6.844-3.1h-3.224v3.137h3.224ZM306.6,198.21v3.164h3.156V198.21Z" transform="translate(0 -97.792)"/>
      <path id="Trazado_1009550" data-name="Trazado 1009550" d="M508.126,109.416c-1.807-1.756-1.955-4.036-1.9-6.414.069-2.767,0-5.537.022-8.305.018-2.4,1.264-3.539,3.675-3.669,4.144-.223,7.4,1.153,9.208,5.046a10.622,10.622,0,0,1,.75,3.435c.125,1.323-.016,2.669.043,4a7.712,7.712,0,0,1-1.989,6.012,9.042,9.042,0,0,1,3.569,5.794,15.258,15.258,0,0,1,.131,3.39,3.33,3.33,0,0,1-3.406,3.08c-3.46.055-6.922.063-10.381,0a3.376,3.376,0,0,1-3.372-3.43C504.273,114.7,504.809,113.368,508.126,109.416Zm9.952,8.916c.373-2.671-.178-4.844-2.536-6.133a4.889,4.889,0,0,0-5.46.323c-2.024,1.431-2.382,3.464-2.012,5.81Zm-1.609-17.006H509.7a29.245,29.245,0,0,0,.036,4.02,3.231,3.231,0,0,0,3.524,2.72,3.28,3.28,0,0,0,3.194-3.1C516.537,103.839,516.469,102.7,516.469,101.326Zm-6.812-3.545h6.374a5.1,5.1,0,0,0-6.374-3.172Z" transform="translate(-146.536 -48.905)"/>
      <path id="Trazado_1009551" data-name="Trazado 1009551" d="M352.131,44.957v3.316H323.042V75.578h-3.519V74.136q0-12.465,0-24.93c0-3.056,1.169-4.245,4.184-4.247q13.43-.008,26.859,0Z" transform="translate(-16.517 -16.528)"/>
      <path id="Trazado_1009552" data-name="Trazado 1009552" d="M359.832,122.175c-.153,1.189-.283,2.2-.435,3.378-6.785-1.025-11.841-4.313-14.847-10.381-3.145-6.349-2.584-12.566,1.109-18.733l2.816,1.856c-2.826,4.853-3.413,9.88-1,15.009S354.1,121.254,359.832,122.175Z" transform="translate(-32.674 -52.726)"/>
      <path id="Trazado_1009553" data-name="Trazado 1009553" d="M425.181,119.477l3.3-.586a18.286,18.286,0,0,1-2.925,14.385,18.551,18.551,0,0,1-13.648,8.046c-.119-1.187-.221-2.2-.337-3.363a15.541,15.541,0,0,0,13.606-18.482Z" transform="translate(-81.241 -68.512)"/>
      <path id="Trazado_1009554" data-name="Trazado 1009554" d="M529.716,48.307H510.9V45.02c.416-.02.883-.063,1.351-.063q8.372-.007,16.744,0c2.817,0,4.061,1.25,4.072,4.056.009,1.971,0,3.942,0,6.023h-3.352Z" transform="translate(-151.077 -16.525)"/>
      <path id="Trazado_1009555" data-name="Trazado 1009555" d="M361.556,73.554a19.263,19.263,0,0,1,11.263-5.392c.14,1.161.27,2.242.413,3.432a16.026,16.026,0,0,0-9.4,4.493Z" transform="translate(-46.072 -32.844)"/>
    </g>
  </g>
</svg>
