<svg xmlns="http://www.w3.org/2000/svg" width="98" height="98" viewBox="0 0 98 98">
  <g id="Grupo_1198593" data-name="Grupo 1198593" transform="translate(-1173.254 -1202.951)">
    <g id="Grupo_1102513" data-name="Grupo 1102513" transform="translate(521.482 -5790.049)">
      <rect id="Rectángulo_403454" data-name="Rectángulo 403454" width="98" height="98" rx="18" transform="translate(651.771 6993)" fill="#fff"/>
    </g>
    <g id="Grupo_1198222" data-name="Grupo 1198222" transform="translate(855.792 1119.515)">
      <path id="Trazado_1009727" data-name="Trazado 1009727" d="M354.949,170.4h-2.542v-5.179a47.454,47.454,0,0,1-4.757,1.271,14.027,14.027,0,0,1-10.329-2.248c-1.888-1.261-3.714-2.617-5.669-4l1.423-2.046c1.7,1.207,3.336,2.374,4.98,3.526a12.138,12.138,0,0,0,13.182,1.034c1.84-.909,3.676-1.823,5.66-2.807-.814-1.348-1.564-2.643-2.391-3.887-.1-.152-.656-.117-.944-.012-2.608.951-5.194,1.965-7.813,2.886a2.079,2.079,0,0,1-1.6-.039c-2.923-1.985-5.786-4.058-8.752-6.165l1.45-2.031c2.092,1.483,4.227,2.788,6.1,4.394a3.7,3.7,0,0,0,4.649.545,21.956,21.956,0,0,1,3.742-1.406c.84-.256,1.038-.69,1.067-1.543.081-2.36-.53-4.357-2.781-5.4a16.713,16.713,0,0,0-3.464-.773c.009,1.909-.385,3.472-1.892,4.336a5.753,5.753,0,0,1-2.838.8c-2.422-.058-3.772-1.751-4.1-4.835a22.011,22.011,0,0,0-3.416.03,4.925,4.925,0,0,0-4.084,5.116c-.015,5.707,0,11.414,0,17.121v1.268h-2.406c-.017-.35-.052-.731-.052-1.112q0-8.561,0-17.121c.011-4.761,3.178-7.9,7.97-7.934.644,0,1.288,0,2.067,0,0-2.245-.026-4.4.013-6.556a9.374,9.374,0,0,1,.3-2.668,4.77,4.77,0,0,1,4.461-3.2c1.119-.028,2.241-.039,3.36,0a3.065,3.065,0,0,1,2.856,4.258,12.694,12.694,0,0,0-1.035,5.86,12.209,12.209,0,0,1-.4,2.2c5.585.989,7.538,2.927,8.078,8.2.733-.714,1.367-1.366,2.04-1.976.849-.77,1.739-1.494,2.588-2.263a.99.99,0,0,0,.285-.607c.04-.539.01-1.083.015-1.624.015-1.9.877-2.774,2.769-2.822.25-.006.5-.022.838-.037q0-12.516,0-24.981c-7.6-1.391-10.478-7.717-9.809-12.561a11.273,11.273,0,0,1,22.411.265c.524,5.2-2.76,11.036-9.869,12.275V129.17c1.766,0,3.523.013,5.279-.018.2,0,.427-.227.584-.4.29-.32.532-.683.8-1.02a8.049,8.049,0,0,0,2.093-5.357,11.021,11.021,0,0,1,10.179-10.669,11.3,11.3,0,1,1-8.635,17.075l-.566-.934a25.768,25.768,0,0,0-1.6,2.106c-.795,1.294-1.774,2.163-3.63,1.717l4.267,7.812c.052.095.109.187.161.282,1.979,3.582,2.1,3.656,6.175,3.2a1.614,1.614,0,0,0,.909-.616,11.245,11.245,0,1,1-2.206,5.266c.095-.7.292-1.395.461-2.186-1.31,0-2.537-.044-3.759.014a1.9,1.9,0,0,1-1.985-1.146c-2.01-3.753-4.119-7.453-6.1-11.223-.547-1.044-1.12-1.628-2.412-1.218v11.017c1.917.606,2.352,1.217,2.354,3.3,0,1.734-.025,3.468.02,5.2a1.962,1.962,0,0,0,.434,1.128,2.781,2.781,0,0,1-.838,4.54q-6.129,3.109-12.3,6.124a1.586,1.586,0,0,0-1.053,1.723C355,166.684,354.949,168.485,354.949,170.4Zm18.4-61.623c1.033-2.964-.272-6.77-2.954-8.9a8.731,8.731,0,0,0-10.134-.548c-2.822,1.754-4.544,5.275-3.981,7.834l4.937-.661c0-1.238-.035-2.5.008-3.753a3.58,3.58,0,0,1,3.362-3.471,24.479,24.479,0,0,1,2.6,0,2.717,2.717,0,0,1,2.457,1.688,2.666,2.666,0,0,1-.334,3.054,2.828,2.828,0,0,0-.546,2.67C370.647,106.564,372.288,107.005,373.352,108.772Zm26.358,42.552a8.716,8.716,0,0,0-13.251-9.434c-2.757,1.8-4.39,5.219-3.861,7.753L387.49,149c0-1.174-.031-2.361.007-3.546a3.7,3.7,0,0,1,3.721-3.711c.685-.018,1.371-.011,2.056,0a2.833,2.833,0,0,1,2.681,1.685,2.683,2.683,0,0,1-.354,3.133c-.745.834-.557,1.674-.443,2.654A4.367,4.367,0,0,1,399.71,151.324Zm-22.155-27.911,4.948-.681c0-1.085-.019-2.267,0-3.449a3.66,3.66,0,0,1,3.746-3.781c.686-.014,1.373-.008,2.059,0a2.782,2.782,0,0,1,2.653,1.728,2.67,2.67,0,0,1-.354,3.05,2.846,2.846,0,0,0-.464,2.657A4.526,4.526,0,0,1,394.684,125a8.48,8.48,0,0,0-2.923-8.835,8.774,8.774,0,0,0-9.663-.912A8.477,8.477,0,0,0,377.555,123.413Zm-16.338-14.186a11.865,11.865,0,0,0-2.091.028c-.547.106-1.352.335-1.5.716a2.314,2.314,0,0,0,.248,1.858,8.712,8.712,0,0,0,12.531,1.713,3.488,3.488,0,0,0,.568-3.721,1.251,1.251,0,0,0-.764-.53,6.268,6.268,0,0,0-2.448.088c-.276.1-.215,1.157-.307,1.778-.021.143-.031.287-.056.429a3.134,3.134,0,0,1-3.226,2.619,3.054,3.054,0,0,1-2.955-3.005C361.2,110.593,361.217,109.985,361.217,109.227ZM382.5,125.482a10.909,10.909,0,0,0-1.92.024c-.588.112-1.365.264-1.654.679a1.741,1.741,0,0,0,.341,2.082,8.823,8.823,0,0,0,10.11,2.865c2.606-1,3.169-1.785,3.11-4.179-.024-.986-.454-1.445-1.444-1.477-2.08-.068-2.079-.085-2.268,1.979a3.216,3.216,0,0,1-3.241,3.007,3.126,3.126,0,0,1-3.032-3.181C382.489,126.74,382.5,126.2,382.5,125.482Zm4.989,26.226a10.408,10.408,0,0,0-1.9.024c-.586.119-1.36.275-1.646.692a1.75,1.75,0,0,0,.331,2.08,8.826,8.826,0,0,0,9.98,2.917c2.64-.964,3.275-1.763,3.236-4.073-.022-1.294-.364-1.623-1.7-1.641-1.912-.025-1.912-.025-2.02,1.9a3.138,3.138,0,0,1-6.274.02C387.464,153.028,387.492,152.422,387.492,151.708Zm-28.325,7.114,8.277-4.162-.124-.373c-.341-.026-.681-.072-1.022-.074-1.514-.008-3.028,0-4.542-.006-1.479-.009-1.79-.322-1.8-1.77,0-.414,0-.828,0-1.285l-3.405,3.338Zm6.98-7.159v-6.185h-3.731c0,1.768,0,3.486,0,5.2,0,.315.038.629.061.982Zm-21.307-12.486c-1.006,0-1.99-.266-2.689.067a4.762,4.762,0,0,0-2.225,2.061c-.511,1.131.717,2.635,1.981,2.836a2.43,2.43,0,0,0,2.914-2.035A28.379,28.379,0,0,0,344.839,139.177Zm-4.9-2.153c.657-.095,1.3-.23,1.952-.27a9.784,9.784,0,0,1,2.258.013c1.138.2,1.538-.481,1.845-1.325.268-.738,0-1.224-.807-1.253a22.638,22.638,0,0,0-3.015.023A2.431,2.431,0,0,0,339.939,137.024Zm-.047,9.28c-.139,1.02-.128,2.139,1.011,2.619a2.573,2.573,0,0,0,1.976-.187,1.6,1.6,0,0,0,.737-1.924Zm26.281-40.928c-.652.189-1.208.337-1.754.514-.639.207-1.055.622-.6,1.263a1.623,1.623,0,0,0,1.158.71,1.829,1.829,0,0,0,1.153-.894C366.325,106.617,366.172,106.075,366.172,105.376Zm26.271,42.464c-.662.2-1.19.354-1.71.529-.546.184-.927.6-.622,1.125a1.708,1.708,0,0,0,1.144.852,1.672,1.672,0,0,0,1.148-.844C392.6,149.149,392.443,148.6,392.443,147.841Zm-5.017-26.217c-.618.177-1.152.3-1.665.486s-1.006.509-.685,1.1a1.747,1.747,0,0,0,1.122.9,1.628,1.628,0,0,0,1.183-.812C387.586,122.909,387.426,122.33,387.426,121.624Zm-23.754-18.467c1.042-.077,2-.1,2.931-.247.3-.048.54-.441.808-.675-.262-.181-.5-.47-.789-.52a6.941,6.941,0,0,0-1.505-.018A1.345,1.345,0,0,0,363.672,103.156Zm26.4,42.458c1.018-.069,1.94-.079,2.841-.222.3-.048.551-.434.824-.665-.264-.182-.51-.475-.8-.521a6.453,6.453,0,0,0-1.61-.01C390.455,144.281,389.963,144.732,390.075,145.614Zm-5.025-26.223a22.925,22.925,0,0,0,2.516-.221,4.281,4.281,0,0,0,1.176-.657,4.983,4.983,0,0,0-1.1-.56,3.922,3.922,0,0,0-1.288-.009C385.492,118.035,384.955,118.446,385.05,119.392Zm-19.964-8.555-.234-.309-1.1-.193-.272.255.806,1.077Zm20.252,15.6-.48.418.677,1.045.67-.62Zm5.091,26.227-.514.332.572,1.144.732-.55Z" transform="translate(0 0)"/>
    </g>
  </g>
</svg>
