<svg xmlns="http://www.w3.org/2000/svg" width="25.629" height="25.629" viewBox="0 0 25.629 25.629">
  <g id="Grupo_1198597" data-name="Grupo 1198597" transform="translate(-196.039 -895.186)">
    <g id="Grupo_1192921" data-name="Grupo 1192921" transform="translate(196.039 895.186)">
      <g id="Grupo_1179580" data-name="Grupo 1179580" transform="translate(8.827 19.68)">
        <g id="Grupo_1179579" data-name="Grupo 1179579">
          <path id="Trazado_997837" data-name="Trazado 997837" d="M176.344,44.108h3.228v3.741A13.929,13.929,0,0,1,176.344,44.108Z" transform="translate(-176.344 -44.108)" fill="#42107c"/>
        </g>
      </g>
      <g id="Grupo_1179582" data-name="Grupo 1179582" transform="translate(7.09 7.47)">
        <g id="Grupo_1179581" data-name="Grupo 1179581">
          <path id="Trazado_997838" data-name="Trazado 997838" d="M141.632,273.921a14.69,14.69,0,0,1,1.025-4.681H146.6v4.681Z" transform="translate(-141.632 -269.24)" fill="#42107c"/>
        </g>
      </g>
      <g id="Grupo_1179584" data-name="Grupo 1179584" transform="translate(8.847 2.208)">
        <g id="Grupo_1179583" data-name="Grupo 1179583">
          <path id="Trazado_997839" data-name="Trazado 997839" d="M176.744,396.9a13.857,13.857,0,0,1,3.208-3.741V396.9Z" transform="translate(-176.744 -393.16)" fill="#42107c"/>
        </g>
      </g>
      <g id="Grupo_1179586" data-name="Grupo 1179586" transform="translate(19.134 13.673)">
        <g id="Grupo_1179585" data-name="Grupo 1179585">
          <path id="Trazado_997840" data-name="Trazado 997840" d="M387.638,153.725h-5.387a15.049,15.049,0,0,0,.9-4.485h5.593A12.553,12.553,0,0,1,387.638,153.725Z" transform="translate(-382.251 -149.24)" fill="#42107c"/>
        </g>
      </g>
      <g id="Grupo_1179588" data-name="Grupo 1179588" transform="translate(13.577 19.68)">
        <g id="Grupo_1179587" data-name="Grupo 1179587">
          <path id="Trazado_997841" data-name="Trazado 997841" d="M271.24,48.167V44.443h3.2A13.838,13.838,0,0,1,271.24,48.167Z" transform="translate(-271.24 -44.443)" fill="#42107c"/>
        </g>
      </g>
      <g id="Grupo_1179590" data-name="Grupo 1179590" transform="translate(7.09 13.673)">
        <g id="Grupo_1179589" data-name="Grupo 1179589">
          <path id="Trazado_997842" data-name="Trazado 997842" d="M142.657,153.725a13.537,13.537,0,0,1-1.025-4.485H146.6v4.485Z" transform="translate(-141.632 -149.24)" fill="#42107c"/>
        </g>
      </g>
      <g id="Grupo_1179592" data-name="Grupo 1179592" transform="translate(19.134 7.47)">
        <g id="Grupo_1179591" data-name="Grupo 1179591">
          <path id="Trazado_997843" data-name="Trazado 997843" d="M383.153,273.921a16.338,16.338,0,0,0-.9-4.681h5.387a13.617,13.617,0,0,1,1.108,4.681Z" transform="translate(-382.251 -269.24)" fill="#42107c"/>
        </g>
      </g>
      <g id="Grupo_1179594" data-name="Grupo 1179594" transform="translate(13.577 19.68)">
        <g id="Grupo_1179593" data-name="Grupo 1179593">
          <path id="Trazado_997844" data-name="Trazado 997844" d="M271.24,5.949V5.607A15.286,15.286,0,0,0,276.141,0h5.234A12.87,12.87,0,0,1,271.24,5.949Z" transform="translate(-271.24)" fill="#42107c"/>
        </g>
      </g>
      <g id="Grupo_1179596" data-name="Grupo 1179596" transform="translate(1.917 19.68)">
        <g id="Grupo_1179595" data-name="Grupo 1179595">
          <path id="Trazado_997845" data-name="Trazado 997845" d="M38.3,0h5.234a15.3,15.3,0,0,0,4.9,5.607v.342A12.877,12.877,0,0,1,38.3,0Z" transform="translate(-38.302)" fill="#42107c"/>
        </g>
      </g>
      <g id="Grupo_1179598" data-name="Grupo 1179598" transform="translate(1.917)">
        <g id="Grupo_1179597" data-name="Grupo 1179597">
          <path id="Trazado_997846" data-name="Trazado 997846" d="M43.536,399.109H38.3A12.877,12.877,0,0,1,48.44,393.16v.342A15.3,15.3,0,0,0,43.536,399.109Z" transform="translate(-38.302 -393.16)" fill="#42107c"/>
        </g>
      </g>
      <g id="Grupo_1179600" data-name="Grupo 1179600" transform="translate(0 13.673)">
        <g id="Grupo_1179599" data-name="Grupo 1179599">
          <path id="Trazado_997847" data-name="Trazado 997847" d="M1.108,153.725A12.551,12.551,0,0,1,0,149.24H5.593a15.044,15.044,0,0,0,.9,4.485Z" transform="translate(0 -149.24)" fill="#42107c"/>
        </g>
      </g>
      <g id="Grupo_1179602" data-name="Grupo 1179602" transform="translate(13.577)">
        <g id="Grupo_1179601" data-name="Grupo 1179601">
          <path id="Trazado_997848" data-name="Trazado 997848" d="M276.141,399.109a15.286,15.286,0,0,0-4.9-5.607v-.342a12.87,12.87,0,0,1,10.134,5.949Z" transform="translate(-271.24 -393.16)" fill="#42107c"/>
        </g>
      </g>
      <g id="Grupo_1179604" data-name="Grupo 1179604" transform="translate(0 7.47)">
        <g id="Grupo_1179603" data-name="Grupo 1179603">
          <path id="Trazado_997849" data-name="Trazado 997849" d="M5.593,273.921H0a13.618,13.618,0,0,1,1.108-4.681H6.495A16.34,16.34,0,0,0,5.593,273.921Z" transform="translate(0 -269.24)" fill="#42107c"/>
        </g>
      </g>
      <g id="Grupo_1179606" data-name="Grupo 1179606" transform="translate(13.577 7.47)">
        <g id="Grupo_1179605" data-name="Grupo 1179605">
          <path id="Trazado_997850" data-name="Trazado 997850" d="M271.24,273.921V269.24h3.94a14.689,14.689,0,0,1,1.017,4.681Z" transform="translate(-271.24 -269.24)" fill="#42107c"/>
        </g>
      </g>
      <g id="Grupo_1179608" data-name="Grupo 1179608" transform="translate(13.577 13.673)">
        <g id="Grupo_1179607" data-name="Grupo 1179607">
          <path id="Trazado_997851" data-name="Trazado 997851" d="M275.18,153.725h-3.94V149.24H276.2A13.537,13.537,0,0,1,275.18,153.725Z" transform="translate(-271.24 -149.24)" fill="#42107c"/>
        </g>
      </g>
      <g id="Grupo_1179610" data-name="Grupo 1179610" transform="translate(13.577 2.225)">
        <g id="Grupo_1179609" data-name="Grupo 1179609">
          <path id="Trazado_997852" data-name="Trazado 997852" d="M271.24,396.884V393.16a13.839,13.839,0,0,1,3.2,3.724Z" transform="translate(-271.24 -393.16)" fill="#42107c"/>
        </g>
      </g>
    </g>
  </g>
</svg>
